<?xml version="1.0" encoding="utf-8"?>
<!-- Generator: Adobe Illustrator 23.0.0, SVG Export Plug-In . SVG Version: 6.00 Build 0)  -->
<svg version="1.1" id="Layer_1" xmlns="http://www.w3.org/2000/svg" xmlns:xlink="http://www.w3.org/1999/xlink" x="0px" y="0px"
	 viewBox="0 0 1000 700" style="enable-background:new 0 0 1000 700;" xml:space="preserve">
<style type="text/css">
	.st0{fill:none;stroke:#FFFFFF;stroke-width:8;stroke-linecap:round;stroke-linejoin:round;stroke-miterlimit:10;}
	.st1{display:none;}
	.st2{display:inline;}
	.st3{fill:#D6D6D6;}
	.st4{display:inline;fill:#D6D6D6;}
	.st5{fill:#FFFFFF;}
</style>
<g>
	<path class="st0" d="M634.5,685.5h-269c-25.1,0-45.5-20.4-45.5-45.5V60c0-25.1,20.4-45.5,45.5-45.5h269c25.1,0,45.5,20.4,45.5,45.5
		v580C680,665.2,659.6,685.5,634.5,685.5z"/>
	<line class="st0" x1="472.8" y1="49.6" x2="527.2" y2="49.6"/>
	<rect x="339" y="79.8" class="st0" width="322" height="489.1"/>
	<circle class="st0" cx="500" cy="629.5" r="35.7"/>
</g>
<g class="st1">
	<g id="g186" transform="matrix(54.85,0,0,-54.85,-2485.383,4815.859)" class="st2">
		<path id="path188" class="st3" d="M55.3,82.1c0,0.4,0.3,0.6,0.3,0.6C55.4,83,55.1,83,55,83c-0.2,0-0.5-0.1-0.6-0.1
			S54.1,83,53.9,83c-0.3,0-0.5-0.2-0.7-0.4c-0.3-0.5-0.1-1.2,0.2-1.6c0.1-0.2,0.3-0.4,0.5-0.4s0.3,0.1,0.5,0.1s0.3-0.1,0.5-0.1
			s0.4,0.2,0.5,0.4c0.2,0.2,0.2,0.4,0.2,0.4C55.7,81.4,55.3,81.6,55.3,82.1"/>
	</g>
	<path id="path190" class="st4" d="M525.4,250.4c6-7.3,10.1-17.5,9-27.6c-8.7,0.3-19.2,5.8-25.4,13.1c-5.6,6.5-10.5,16.8-9.2,26.7
		C509.5,263.3,519.4,257.7,525.4,250.4"/>
</g>
<g>
	<g id="g186_1_" transform="matrix(54.85,0,0,-54.85,-2485.383,4815.859)">
		<path id="path188_1_" class="st5" d="M55.3,82.1c0,0.4,0.3,0.6,0.3,0.6C55.4,82.9,55.2,83,55,83c-0.2,0-0.5-0.1-0.6-0.1
			S54.1,83,53.9,83c-0.3,0-0.5-0.2-0.6-0.4c-0.3-0.5-0.1-1.2,0.2-1.6c0.1-0.2,0.3-0.4,0.5-0.4c0.2,0,0.3,0.1,0.5,0.1
			c0.2,0,0.3-0.1,0.5-0.1c0.2,0,0.3,0.2,0.5,0.4c0.2,0.2,0.2,0.4,0.2,0.4C55.7,81.4,55.3,81.6,55.3,82.1"/>
	</g>
	<path id="path190_1_" class="st5" d="M525.3,250.3c6-7.3,10.1-17.4,9-27.5c-8.7,0.3-19.1,5.8-25.4,13.1
		c-5.6,6.4-10.4,16.7-9.1,26.6C509.4,263.2,519.3,257.6,525.3,250.3"/>
</g>
</svg>
