<?xml version="1.0" encoding="utf-8"?>
<!-- Generator: Adobe Illustrator 23.0.0, SVG Export Plug-In . SVG Version: 6.00 Build 0)  -->
<svg version="1.1" id="Layer_1" xmlns="http://www.w3.org/2000/svg" xmlns:xlink="http://www.w3.org/1999/xlink" x="0px" y="0px"
	 viewBox="0 0 1000 700" style="enable-background:new 0 0 1000 700;" xml:space="preserve">
<style type="text/css">
	.st0{fill:none;stroke:#FFFFFF;stroke-width:8;stroke-linecap:round;stroke-linejoin:round;stroke-miterlimit:10;}
	.st1{fill:#FFFFFF;}
</style>
<g>
	<path class="st0" d="M634.5,685.5h-269c-25.1,0-45.5-20.4-45.5-45.5V60c0-25.1,20.4-45.5,45.5-45.5h269c25.1,0,45.5,20.4,45.5,45.5
		v580C680,665.2,659.6,685.5,634.5,685.5z"/>
	<line class="st0" x1="472.8" y1="49.7" x2="527.2" y2="49.7"/>
	<rect x="339" y="79.8" class="st0" width="322" height="489.1"/>
	<circle class="st0" cx="500" cy="629.5" r="35.7"/>
</g>
<g>
	<g>
		<path class="st1" d="M428.3,280.9c-3.4,0-6.3,1.2-8.7,3.6s-3.6,5.3-3.6,8.6v51.3c0,3.4,1.2,6.3,3.6,8.7c2.4,2.4,5.3,3.6,8.7,3.6
			c3.4,0,6.3-1.2,8.7-3.6c2.3-2.4,3.5-5.3,3.5-8.7v-51.3c0-3.3-1.2-6.2-3.6-8.6S431.6,280.9,428.3,280.9z"/>
		<path class="st1" d="M527.1,234.9l8.5-15.6c0.6-1,0.4-1.8-0.6-2.4c-1-0.5-1.8-0.2-2.4,0.7l-8.6,15.8c-7.6-3.3-15.6-5-24-5
			s-16.4,1.7-24,5l-8.6-15.8c-0.6-1-1.4-1.2-2.4-0.7c-1,0.6-1.2,1.4-0.6,2.4l8.5,15.6c-8.6,4.4-15.4,10.5-20.5,18.3
			s-7.6,16.4-7.6,25.7h110.4c0-9.3-2.5-17.9-7.6-25.7C542.4,245.3,535.6,239.2,527.1,234.9z M478.1,257.6c-0.9,0.9-2,1.4-3.3,1.4
			s-2.3-0.5-3.2-1.4s-1.3-2-1.3-3.3s0.4-2.4,1.3-3.3c0.9-0.9,1.9-1.4,3.2-1.4c1.3,0,2.4,0.5,3.3,1.4s1.4,2,1.4,3.3
			S479,256.7,478.1,257.6z M528.4,257.6c-0.9,0.9-2,1.4-3.2,1.4c-1.3,0-2.4-0.5-3.3-1.4c-0.9-0.9-1.4-2-1.4-3.3s0.5-2.4,1.4-3.3
			c0.9-0.9,2-1.4,3.3-1.4s2.3,0.5,3.2,1.4s1.3,2,1.3,3.3S529.3,256.7,528.4,257.6z"/>
		<path class="st1" d="M445.2,362.7c0,3.7,1.3,6.8,3.8,9.3s5.6,3.8,9.3,3.8h8.8l0.1,27.1c0,3.4,1.2,6.3,3.6,8.7
			c2.4,2.4,5.3,3.6,8.6,3.6c3.4,0,6.3-1.2,8.7-3.6c2.4-2.4,3.6-5.3,3.6-8.7v-27.1h16.5v27.1c0,3.4,1.2,6.3,3.6,8.7s5.3,3.6,8.7,3.6
			c3.4,0,6.3-1.2,8.7-3.6s3.6-5.3,3.6-8.7v-27.1h9c3.6,0,6.6-1.3,9.2-3.8c2.5-2.5,3.8-5.6,3.8-9.3v-79.5H445.2V362.7z"/>
		<path class="st1" d="M571.7,280.9c-3.3,0-6.2,1.2-8.6,3.5c-2.4,2.3-3.6,5.2-3.6,8.7v51.3c0,3.4,1.2,6.3,3.6,8.7
			c2.4,2.4,5.3,3.6,8.6,3.6c3.4,0,6.3-1.2,8.7-3.6s3.6-5.3,3.6-8.7v-51.3c0-3.4-1.2-6.3-3.6-8.7
			C578.1,282.1,575.2,280.9,571.7,280.9z"/>
	</g>
</g>
</svg>
