<?xml version="1.0" encoding="utf-8"?>
<!-- Generator: Adobe Illustrator 23.0.0, SVG Export Plug-In . SVG Version: 6.00 Build 0)  -->
<svg version="1.1" id="Layer_1" xmlns="http://www.w3.org/2000/svg" xmlns:xlink="http://www.w3.org/1999/xlink" x="0px" y="0px"
	 viewBox="0 0 1000 700" style="enable-background:new 0 0 1000 700;" xml:space="preserve">
<style type="text/css">
	.st0{fill:none;stroke:#FFFFFF;stroke-width:8;stroke-linecap:round;stroke-linejoin:round;stroke-miterlimit:10;}
	.st1{fill:#FFFFFF;}
</style>
<rect x="80.7" y="62.4" class="st0" width="838.6" height="531.7"/>
<path class="st0" d="M948.4,684.1H51.6c-22.1,0-40-17.9-40-40v-26.7h976.8v26.7C988.4,666.2,970.5,684.1,948.4,684.1z"/>
<path class="st0" d="M901.8,15.9H98.2c-22.1,0-40,17.9-40,40v561.5h883.6V55.9C941.8,33.8,923.9,15.9,901.8,15.9z"/>
<line class="st0" x1="471.3" y1="40.7" x2="528.7" y2="40.7"/>
<g>
	<path id="path11" class="st1" d="M510.6,286.7c-2.8,1.5-6,3.2-9.5,3.2s-6.2-1.6-8.2-3.2c-1-0.8-1.8-1.6-2.4-2.1
		c-1-0.8-0.9-2-0.5-1.9c0.7,0.1,0.8,1,1.3,1.5c0.6,0.6,1.4,1.3,2.3,2.1c1.9,1.5,4.3,2.9,7.5,2.9c3.1,0,6.7-1.8,8.9-3.1
		c1.3-0.7,2.8-2,4.1-2.9c1-0.7,1-1.6,1.8-1.5s0.2,1-0.9,2S512.1,285.9,510.6,286.7z"/>
	<path class="st1" d="M564.3,360.9L564.3,360.9c-1.1-1.2-1.6-3.5-2.2-5.9c-0.6-2.4-1.2-5-3.2-6.7l0,0c-0.4-0.3-0.8-0.6-1.2-0.9
		c-0.4-0.2-0.8-0.4-1.2-0.6c2.8-8.2,1.7-16.3-1.1-23.6c-3.4-9-9.4-16.9-13.9-22.2c-5.1-6.4-10.1-12.5-10-21.5
		c0.2-13.7,1.5-39.2-22.7-39.2c-1,0-2,0-3.1,0.1c-27,2.2-19.8,30.7-20.2,40.3c-0.5,7-1.9,12.5-6.7,19.3
		c-5.6,6.7-13.6,17.6-17.4,28.9c-1.8,5.3-2.6,10.8-1.8,15.9c-0.2,0.2-0.5,0.4-0.7,0.7c-1.7,1.8-2.9,3.9-4.2,5.4
		c-1.3,1.3-3.1,1.8-5.1,2.5s-4.2,1.8-5.5,4.3l0,0l0,0c-0.6,1.2-0.8,2.4-0.8,3.7c0,1.2,0.2,2.4,0.4,3.5c0.4,2.4,0.7,4.7,0.2,6.2
		c-1.6,4.3-1.8,7.3-0.7,9.5c1.1,2.2,3.4,3.1,6,3.7c5.2,1.1,12.2,0.8,17.7,3.7l0.5-0.9l-0.5,0.9c5.9,3.1,11.9,4.2,16.7,3.1
		c3.5-0.8,6.3-2.9,7.7-6c3.7,0,7.9-1.6,14.4-2c4.5-0.4,10,1.6,16.5,1.2c0.2,0.7,0.4,1.4,0.7,2l0,0c2.5,5,7.1,7.3,12,6.9
		s10.2-3.3,14.4-8.3l-0.8-0.7l0.8,0.6c4-4.9,10.7-6.9,15.2-9.6c2.2-1.3,4-3,4.2-5.5C569,367.3,567.6,364.5,564.3,360.9z
		 M504.6,271.2c0-1.8,0.3-3.3,1-4.9s1.5-2.7,2.7-3.6s2.4-1.3,3.8-1.3h0.1c1.4,0,2.5,0.4,3.7,1.3s2.1,2,2.8,3.5s1,3,1.1,4.7v0.1l0,0
		c0,1.8-0.3,3.3-1,4.9c-0.4,0.9-0.8,1.6-1.4,2.3c-0.2-0.1-0.4-0.2-0.6-0.3c-0.7-0.3-1.3-0.5-1.8-0.7s-1-0.3-1.4-0.5
		c0.3-0.4,0.9-0.8,1.2-1.4c0.3-0.8,0.5-1.7,0.6-2.7v-0.1c0-0.9-0.1-1.8-0.4-2.6c-0.3-0.9-0.7-1.5-1.2-2s-1.1-0.8-1.7-0.8H512
		c-0.6,0-1.1,0.2-1.7,0.7s-1,1.1-1.3,1.9s-0.5,1.7-0.6,2.7v0.1c0,0.5,0,1,0.1,1.5c-1.2-0.6-2.8-1.1-3.9-1.3c-0.1-0.5-0.1-1-0.1-1.5
		v0H504.6z M488.7,267.3c0.4-1.4,1-2.4,1.8-3.2c0.8-0.8,1.7-1.2,2.7-1.3c0.1,0,0.2,0,0.2,0c0.9,0,1.7,0.3,2.6,1s1.6,1.7,2.2,3
		s0.9,2.6,1,4.2l0,0c0,0.7,0,1.3,0,1.9l0,0c-0.2,0.1-0.4,0.1-0.5,0.2c-1,0.3-1.8,0.7-2.5,1.2c0.1-0.5,0.1-1,0-1.6v-0.1
		c-0.1-0.8-0.2-1.4-0.5-2.1s-0.6-1.2-1.1-1.6c-0.4-0.3-0.8-0.5-1.2-0.5h-0.1c-0.5,0-0.8,0.3-1.2,0.7c-0.4,0.4-0.6,1-0.8,1.7
		c-0.2,0.7-0.2,1.4-0.1,2.2v0.1c0.1,0.8,0.2,1.4,0.5,2.1s0.6,1.2,1.1,1.5c0.1,0.1,0.1,0.1,0.2,0.2c-0.4,0.3-0.8,0.6-1.1,0.9
		c-0.2,0.2-0.5,0.4-0.8,0.6c-0.7-0.7-1.3-1.5-1.8-2.6c-0.6-1.3-0.9-2.6-1-4.2l0,0C488.1,270,488.3,268.7,488.7,267.3z M489.4,281
		c1.4-1.1,2.4-1.8,3.1-2.3s0.9-0.7,1.1-0.9l0,0l0,0c1.1-1,2.8-2.9,5.4-3.8c0.9-0.3,1.9-0.5,3-0.5c2.1,0,4.7,0.7,7.7,2.7
		c1.9,1.2,3.4,1.3,6.8,2.8l0,0l0,0c1.6,0.7,2.6,1.5,3.1,2.5c0.5,0.9,0.5,1.9,0.1,3c-0.8,2.1-3.3,4.3-6.8,5.4l0,0l0,0
		c-1.7,0.6-3.2,1.8-5,2.8s-3.7,1.8-6.5,1.7c-1.2-0.1-2.1-0.3-2.9-0.6s-1.4-0.8-2.1-1.3c-1.2-1-2.3-2.3-3.9-3.2l0,0l0,0
		c-2.6-1.4-4-3.1-4.4-4.6C487.7,283.2,488.1,281.9,489.4,281z M490.4,380.7L490.4,380.7L490.4,380.7c-0.4,4.8-3.1,7.4-7.2,8.3
		s-9.7,0-15.3-2.9l0,0c-6.2-3.3-13.5-2.9-18.3-3.9c-2.4-0.5-3.9-1.2-4.6-2.6s-0.7-3.8,0.8-7.9l0,0l0,0c0.7-2.3,0.2-4.8-0.2-7.2
		c-0.4-2.4-0.5-4.5,0.3-6l0,0c1-2,2.5-2.7,4.4-3.4c1.9-0.7,4.1-1.2,5.8-3l0,0l0,0c1.6-1.7,2.8-3.9,4.3-5.4c1.2-1.3,2.4-2.1,4.2-2.1
		c0,0,0,0,0.1,0c0.3,0,0.7,0,1,0.1c2.4,0.4,4.5,2,6.5,4.8l5.8,10.6l0,0l0,0c1.6,3.2,4.8,6.8,7.6,10.5
		C488.5,374.2,490.7,377.9,490.4,380.7z M489.9,373c-0.8-1.2-1.6-2.4-2.5-3.6c-0.6-0.8-1.2-1.5-1.8-2.2c1.2,0,2.1-0.2,2.9-0.5
		c1-0.5,1.7-1.2,2-2.1c0.7-1.9,0-4.5-2.2-7.5s-5.9-6.4-11.4-9.7l0,0c-4-2.5-6.3-5.6-7.3-8.9c-1.1-3.3-0.9-7-0.1-10.5
		c1.6-6.8,5.6-13.5,8.1-17.7c0.7-0.5,0.2,0.9-2.6,6.2c-2.5,4.8-7.3,15.9-0.8,24.6c0.2-6.2,1.6-12.5,4.1-18.4
		c3.6-8.2,11.2-22.4,11.8-33.7c0.3,0.2,1.4,0.9,1.8,1.2l0,0c1.4,0.8,2.4,2,3.8,3.1c1.3,1.1,3,2,5.6,2.2c0.2,0,0.5,0,0.7,0
		c2.6,0,4.7-0.9,6.4-1.8c1.9-1.1,3.3-2.2,4.7-2.7l0,0c3-0.9,5.3-2.6,6.7-4.5c2.3,9.1,7.7,22.2,11.1,28.6c1.8,3.4,5.5,10.6,7,19.3
		c1,0,2.1,0.1,3.3,0.4c4.1-10.7-3.5-22.2-7-25.4c-1.4-1.4-1.5-2-0.8-1.9c3.8,3.3,8.7,10,10.5,17.6c0.8,3.5,1,7.1,0.1,10.7
		c0.4,0.2,0.9,0.4,1.3,0.6c6.6,3.2,9,6,7.9,9.8c-0.4,0-0.8,0-1.1,0H552c1-3-1.2-5.3-6.8-7.8c-5.9-2.6-10.5-2.3-11.3,2.9
		c0,0.3-0.1,0.6-0.1,0.8c-0.4,0.2-0.9,0.3-1.3,0.6c-2.7,1.5-4.2,4.2-5.1,7.6c-0.8,3.3-1.1,7.4-1.3,11.9l0,0c-0.1,2.3-1.1,5.4-2,8.7
		C514.5,377.7,501.2,380.7,489.9,373z M566.9,369.6c-0.1,1.5-1.2,2.6-3.2,3.8c-4,2.4-11.2,4.5-15.7,10.1c-4,4.7-8.8,7.3-13,7.6
		c-4.2,0.3-7.9-1.4-10.1-5.8l0,0l0,0c-1.3-2.6-0.8-6.6,0.3-10.8c1.1-4.2,2.8-8.6,3-12.1l0,0c0.2-4.5,0.5-8.5,1.2-11.6
		c0.8-3.1,2-5.1,4.1-6.3c0.1-0.1,0.2-0.1,0.3-0.2c0.2,3.9,2.2,7.9,5.6,8.8c3.8,1,9.2-2.2,11.5-4.9c0.5,0,0.9,0,1.3-0.1
		c2,0,3.7,0.1,5.4,1.6l0,0l0,0c1.3,1.1,2,3.2,2.5,5.6s1,5,2.6,6.8l0,0l0,0C565.9,365.7,567,368.1,566.9,369.6z"/>
	<path id="path28396-7" class="st1" d="M503.7,276.5c0.1,0.4,0.7,0.3,1.1,0.5c0.3,0.2,0.5,0.5,0.9,0.5c0.3,0,0.8-0.1,0.9-0.4
		c0.1-0.4-0.6-0.7-1-0.9c-0.5-0.2-1.2-0.3-1.7,0C503.8,276.3,503.7,276.4,503.7,276.5L503.7,276.5z"/>
	<path id="path5461" class="st1" d="M500.2,276.5c-0.1,0.4-0.7,0.3-1.1,0.5c-0.3,0.2-0.5,0.5-0.9,0.5c-0.3,0-0.8-0.1-0.9-0.4
		c-0.1-0.4,0.6-0.7,1-0.9c0.5-0.2,1.2-0.3,1.7,0C500.1,276.3,500.2,276.4,500.2,276.5L500.2,276.5z"/>
</g>
<path class="st1" d="M649,268.4l62.3-8.5V320l-62.3,0.4V268.4z M711.3,326.9v60.2l-62.3-8.6v-52L711.3,326.9z M718.9,258.8
	l82.6-12.1v72.5l-82.6,0.7V258.8z M801.5,327.5v72.2L718.9,388l-0.1-60.7L801.5,327.5z"/>
<g>
	<g id="g186_1_" transform="matrix(54.85,0,0,-54.85,-2485.383,4815.859)">
		<path id="path188_1_" class="st1" d="M51.3,81.9c0,0.4,0.3,0.5,0.3,0.5c-0.2,0.2-0.4,0.3-0.5,0.3c-0.2,0-0.4-0.1-0.5-0.1
			s-0.3,0.1-0.5,0.1c-0.2,0-0.5-0.1-0.6-0.4c-0.2-0.4-0.1-1.1,0.2-1.4c0.1-0.2,0.3-0.4,0.4-0.4c0.2,0,0.2,0.1,0.5,0.1
			c0.2,0,0.3-0.1,0.5-0.1c0.2,0,0.3,0.2,0.4,0.3c0.1,0.2,0.2,0.4,0.2,0.4C51.7,81.4,51.3,81.5,51.3,81.9"/>
	</g>
	<path id="path190_1_" class="st1" d="M309.9,264c5.4-6.5,9-15.6,8-24.7c-7.8,0.3-17.2,5.2-22.8,11.7c-5,5.8-9.4,15-8.2,23.9
		C295.7,275.6,304.5,270.6,309.9,264"/>
</g>
</svg>
