<?xml version="1.0" encoding="utf-8"?>
<!-- Generator: Adobe Illustrator 23.0.0, SVG Export Plug-In . SVG Version: 6.00 Build 0)  -->
<svg version="1.1" id="Layer_1" xmlns="http://www.w3.org/2000/svg" xmlns:xlink="http://www.w3.org/1999/xlink" x="0px" y="0px"
	 viewBox="0 0 200 200" style="enable-background:new 0 0 200 200;" xml:space="preserve">
<style type="text/css">
	.st0{opacity:0.1;fill:#272724;enable-background:new    ;}
	.st1{fill:url(#XMLID_2_);}
	.st2{fill:url(#XMLID_3_);}
	.st3{opacity:0.17;fill:#23359C;enable-background:new    ;}
	.st4{fill:#BFDCFF;}
	.st5{fill:#004A90;}
	.st6{fill:#FFFFFF;}
	.st7{opacity:0.57;}
	.st8{fill:url(#SVGID_1_);}
	.st9{fill:none;stroke:#BFDCFF;stroke-width:0.25;stroke-linecap:round;stroke-linejoin:round;stroke-miterlimit:10;}
	.st10{fill:url(#SVGID_2_);}
	.st11{enable-background:new    ;}
	.st12{clip-path:url(#SVGID_4_);enable-background:new    ;}
	.st13{fill:url(#SVGID_5_);}
	.st14{fill:#D0D0D0;}
	.st15{fill:#CCCCCC;}
	.st16{fill:#C8C8C8;}
	.st17{fill:#C4C4C4;}
	.st18{fill:#BFBFBF;}
	.st19{fill:#BABABA;}
	.st20{fill:#B6B6B6;}
	.st21{fill:#B1B1B1;}
	.st22{fill:#ADADAD;}
	.st23{fill:#A8A8A8;}
	.st24{fill:#A4A4A4;}
	.st25{fill:#9F9F9F;}
	.st26{fill:#9B9B9B;}
	.st27{fill:#969696;}
	.st28{fill:#E1E1E1;}
	.st29{fill:#A3A3A3;}
	.st30{clip-path:url(#SVGID_7_);enable-background:new    ;}
	.st31{fill:url(#SVGID_8_);}
	.st32{clip-path:url(#SVGID_10_);enable-background:new    ;}
	.st33{fill:url(#SVGID_11_);}
</style>
<g>
	<g id="_x31_8_8_">
		<g id="_x36__8_">
			<g id="XMLID_25_">
				<path id="XMLID_28_" class="st0" d="M84.4,176.2l-72.6-42.1c-9.9-5.8-8.7-15.8,2.8-22.4L76,76.4c11.5-6.6,28.9-7.3,38.8-1.5
					l72.6,42c9.9,5.8,8.7,15.8-2.8,22.4l-61.4,35.3C111.7,181.2,94.3,181.9,84.4,176.2z"/>
				
					<linearGradient id="XMLID_2_" gradientUnits="userSpaceOnUse" x1="5.95" y1="-79.95" x2="194.9523" y2="-79.95" gradientTransform="matrix(1 0 0 -1 0 41.6)">
					<stop  offset="1.923080e-03" style="stop-color:#23DBEA"/>
					<stop  offset="1" style="stop-color:#0C5FCD"/>
				</linearGradient>
				<path id="XMLID_27_" class="st1" d="M194.9,122.5l-0.1-11.3l-12.7-1.7l-66.5-38.6c-9.9-5.8-27.3-5.1-38.8,1.5l-61.4,35.3
					c-0.5,0.3-1,0.6-1.4,0.9L6,110.2v10.4l0,0c0.1,3.6,2.3,7,6.7,9.5l72.6,42.1c9.9,5.8,27.3,5.1,38.8-1.5l61.4-35.3
					C191.9,131.7,195.1,127,194.9,122.5L194.9,122.5z"/>
				
					<linearGradient id="XMLID_3_" gradientUnits="userSpaceOnUse" x1="100.45" y1="-24.8294" x2="100.45" y2="-75.4302" gradientTransform="matrix(1 0 0 -1 0 41.6)">
					<stop  offset="0" style="stop-color:#DFE0E1"/>
					<stop  offset="1" style="stop-color:#FFFFFF"/>
				</linearGradient>
				<path id="XMLID_26_" class="st2" d="M85.3,162.9l-72.6-42.1C2.8,115,4,105,15.5,98.4l61.4-35.3c11.5-6.6,28.9-7.3,38.8-1.5
					l72.6,42.1c9.9,5.8,8.7,15.8-2.8,22.4l-61.4,35.3C112.6,168,95.3,168.7,85.3,162.9z"/>
			</g>
		</g>
	</g>
	<g>
		<path class="st3" d="M94.6,154.6c1,0.6,2.7,0.6,3.7,0l71.1-41.3c1-0.6,1-1.5,0-2.1l-48.4-27.9c-1-0.6-2.7-0.6-3.7,0l-71.1,41.3
			c-1,0.6-1,1.5,0,2.1"/>
		<g>
			<g>
				<g>
					<path class="st4" d="M171.4,108.5c1,0.6,1,1.5,0,2.1l-71.1,41.3c-1,0.6-2.7,0.6-3.7,0L48.3,124c-1-0.6-1-1.5,0-2.1l71.1-41.3
						c1-0.6,2.7-0.6,3.7,0L171.4,108.5z"/>
				</g>
			</g>
			<g>
				<path class="st4" d="M119,20.2c0.1-0.1,0.2-0.1,0.3-0.1h0.1c0,0,0,0,0.1,0c0,0,0,0,0.1,0s0.1,0,0.2,0c0,0,0,0,0.1,0l0,0l0,0h0.1
					h0.1l0,0l0,0c0,0,0,0,0.1,0h0.1h0.1l0,0l0.9,0.5l-0.4,1.3L50.4,63.2c-0.1,0.1-0.2,0.2-0.3,0.2L50,63.5c-0.1,0.1-0.2,0.1-0.2,0.2
					c0,0,0,0-0.1,0.1s-0.2,0.2-0.3,0.3l0,0c-0.1,0.1-0.2,0.3-0.3,0.4l0,0c-0.1,0.1-0.2,0.3-0.2,0.4l0,0c-0.1,0.1-0.1,0.3-0.2,0.4
					l0,0c0,0.1-0.1,0.3-0.1,0.4c0,0,0,0,0,0.1s0,0.3,0,0.4l-1.4,55.7l-0.9-0.5c-0.3-0.2-0.5-0.6-0.5-1.2l-0.2-55.6
					c0-0.1,0-0.2,0-0.4c0,0,0,0,0-0.1c0,0,0,0,0-0.1v-0.1c0-0.1,0-0.1,0.1-0.2c0,0,0,0,0-0.1l0,0v-0.1c0-0.1,0-0.1,0.1-0.2
					c0-0.1,0-0.1,0.1-0.2l0,0l0,0c0,0,0-0.1,0.1-0.1c0-0.1,0.1-0.1,0.1-0.2c0,0,0-0.1,0.1-0.1l0,0l0,0c0-0.1,0.1-0.1,0.1-0.2
					c0-0.1,0.1-0.1,0.1-0.2c0,0,0,0,0-0.1l0,0c0,0,0,0,0-0.1s0.1-0.1,0.1-0.2c0,0,0,0,0.1-0.1c0,0,0,0,0.1-0.1c0,0,0-0.1,0.1-0.1
					c0.1-0.1,0.1-0.1,0.2-0.1l0.1-0.1c0.1-0.1,0.2-0.2,0.3-0.2L119,20.2z"/>
				<g>
					<path class="st5" d="M119.9,20.7c1-0.6,1.8-0.1,1.9,1.1l0.2,55.6c0,1.2-0.8,2.6-1.8,3.2l-71.6,41.3c-1,0.6-1.8,0.1-1.9-1.1
						l-0.2-55.6c0-1.2,0.8-2.6,1.8-3.2L119.9,20.7z M119.7,71.6l-0.1-43.9c0-1.4-1-1.9-2.2-1.2L50.9,64.9c-1.2,0.7-2.1,2.3-2.1,3.7
						l0.1,43.9c0,1.4,1,1.9,2.2,1.2l66.5-38.4C118.7,74.7,119.7,73,119.7,71.6"/>
				</g>
				<g>
					<path class="st6" d="M119.7,71.6c0,1.4-1,3-2.1,3.7L77.2,98.6L51,113.7c-1.2,0.7-2.2,0.1-2.2-1.2l-0.1-43.9c0-1.4,1-3,2.1-3.7
						l32.9-19l33.7-19.5c1.2-0.7,2.2-0.1,2.2,1.2L119.7,71.6z"/>
				</g>
			</g>
			<g>
				<path class="st5" d="M125.7,86.6l-3.1,1.8c-0.1,0.1-0.2,0.1-0.4,0.1c-0.1,0-0.3,0-0.4-0.1l-2.4-1.4c-0.1,0-0.1-0.1-0.1-0.1
					s0-0.1,0.1-0.1l3.1-1.8c0.1-0.1,0.2-0.1,0.4-0.1c0.1,0,0.3,0,0.4,0.1l2.4,1.4C125.8,86.4,125.8,86.5,125.7,86.6
					C125.8,86.5,125.8,86.6,125.7,86.6z"/>
				<path class="st5" d="M121.5,89C121.5,89,121.5,89.1,121.5,89l-3.2,1.9c-0.1,0.1-0.2,0.1-0.4,0.1c-0.1,0-0.3,0-0.4-0.1l-2.4-1.4
					c-0.1,0-0.1-0.1-0.1-0.1s0-0.1,0.1-0.1l3.1-1.8c0.1-0.1,0.2-0.1,0.4-0.1c0.1,0,0.3,0,0.4,0.1L121.5,89
					C121.4,89,121.5,89,121.5,89z"/>
				<path class="st5" d="M117,91.6C117,91.6,117,91.7,117,91.6l-3.2,1.9c-0.1,0.1-0.2,0.1-0.4,0.1c-0.1,0-0.3,0-0.4-0.1l-2.4-1.4
					c-0.1,0-0.1-0.1-0.1-0.1s0-0.1,0.1-0.1l3.1-1.8c0.1-0.1,0.2-0.1,0.4-0.1c0.1,0,0.3,0,0.4,0.1L117,91.6
					C117,91.5,117,91.6,117,91.6z"/>
				<path class="st5" d="M112.5,94.2C112.5,94.2,112.5,94.3,112.5,94.2l-3.2,1.9c-0.1,0.1-0.2,0.1-0.4,0.1c-0.1,0-0.3,0-0.4-0.1
					l-2.4-1.4c-0.1,0-0.1-0.1-0.1-0.1s0-0.1,0.1-0.1l3.1-1.8c0.1-0.1,0.2-0.1,0.4-0.1c0.1,0,0.3,0,0.4,0.1L112.5,94.2
					C112.5,94.2,112.5,94.2,112.5,94.2z"/>
				<path class="st5" d="M108.1,96.8C108.1,96.8,108.1,96.9,108.1,96.8l-3.2,1.9c-0.1,0.1-0.2,0.1-0.4,0.1c-0.1,0-0.3,0-0.4-0.1
					l-2.4-1.4c-0.1,0-0.1-0.1-0.1-0.1s0-0.1,0.1-0.1l3.1-1.8c0.1-0.1,0.2-0.1,0.4-0.1c0.1,0,0.3,0,0.4,0.1L108.1,96.8L108.1,96.8z"
					/>
				<path class="st5" d="M103.6,99.4C103.6,99.4,103.6,99.5,103.6,99.4l-3.2,1.9c-0.1,0.1-0.2,0.1-0.4,0.1c-0.1,0-0.3,0-0.4-0.1
					l-2.3-1.4c-0.1,0-0.1-0.1-0.1-0.1s0-0.1,0.1-0.1l3.1-1.8c0.1-0.1,0.2-0.1,0.4-0.1c0.1,0,0.3,0,0.4,0.1L103.6,99.4L103.6,99.4z"
					/>
				<path class="st5" d="M99.2,102C99.2,102,99.2,102.1,99.2,102l-3.2,1.9c-0.1,0.1-0.2,0.1-0.4,0.1c-0.1,0-0.3,0-0.4-0.1l-2.4-1.4
					c-0.1,0-0.1-0.1-0.1-0.1s0-0.1,0.1-0.1l3.1-1.8c0.1-0.1,0.2-0.1,0.4-0.1c0.1,0,0.3,0,0.4,0.1L99.2,102
					C99.2,101.9,99.2,101.9,99.2,102z"/>
				<path class="st5" d="M94.8,104.6C94.8,104.6,94.8,104.7,94.8,104.6l-3.2,1.9c-0.1,0.1-0.2,0.1-0.4,0.1c-0.1,0-0.3,0-0.4-0.1
					l-2.4-1.4c-0.1,0-0.1-0.1-0.1-0.1s0-0.1,0.1-0.1l3.1-1.8c0.1-0.1,0.2-0.1,0.4-0.1c0.1,0,0.3,0,0.4,0.1L94.8,104.6
					C94.7,104.5,94.8,104.5,94.8,104.6z"/>
				<path class="st5" d="M90.3,107.1C90.3,107.1,90.3,107.2,90.3,107.1l-3.2,2c-0.1,0.1-0.2,0.1-0.4,0.1c-0.1,0-0.3,0-0.4-0.1
					l-2.4-1.4c-0.1,0-0.1-0.1-0.1-0.1s0-0.1,0.1-0.1l3.1-1.8c0.1-0.1,0.2-0.1,0.4-0.1c0.1,0,0.3,0,0.4,0.1L90.3,107.1
					C90.3,107.1,90.3,107.1,90.3,107.1z"/>
				<path class="st5" d="M85.9,109.7C85.9,109.7,85.9,109.8,85.9,109.7l-3.2,1.9c-0.1,0.1-0.2,0.1-0.4,0.1c-0.1,0-0.3,0-0.4-0.1
					l-2.4-1.4c-0.1,0-0.1-0.1-0.1-0.1s0-0.1,0.1-0.1l3.1-1.8c0.1-0.1,0.2-0.1,0.4-0.1c0.1,0,0.3,0,0.4,0.1L85.9,109.7
					C85.8,109.6,85.9,109.7,85.9,109.7z"/>
				<path class="st5" d="M129.4,88.7l-10.5,6.1c-0.1,0.1-0.2,0.1-0.4,0.1c-0.1,0-0.3,0-0.4-0.1l-2.4-1.4c-0.1,0-0.1-0.1-0.1-0.1
					s0-0.1,0.1-0.1l10.5-6.1c0.1-0.1,0.2-0.1,0.4-0.1c0.1,0,0.3,0,0.4,0.1l2.4,1.4c0.1,0,0.1,0.1,0.1,0.1
					C129.5,88.7,129.4,88.7,129.4,88.7z"/>
				<path class="st5" d="M111.3,95.8l3.1-1.8c0.1-0.1,0.2-0.1,0.4-0.1c0.1,0,0.3,0,0.4,0.1l2.4,1.4c0.1,0,0.1,0.1,0.1,0.1
					s0,0.1-0.1,0.1l-3.1,1.8c-0.1,0.1-0.2,0.1-0.4,0.1c-0.1,0-0.3,0-0.4-0.1l-2.4-1.4C111.2,96,111.2,95.9,111.3,95.8
					C111.2,95.9,111.2,95.8,111.3,95.8z"/>
				<path class="st5" d="M106.9,98.4l3.1-1.8c0.1-0.1,0.2-0.1,0.4-0.1c0.1,0,0.3,0,0.4,0.1l2.4,1.4c0.1,0,0.1,0.1,0.1,0.1
					s0,0.1-0.1,0.1l-3.1,1.8c-0.1,0.1-0.2,0.1-0.4,0.1l0,0c-0.1,0-0.3,0-0.4-0.1l-2.4-1.4C106.8,98.6,106.8,98.5,106.9,98.4
					C106.8,98.5,106.8,98.4,106.9,98.4z"/>
				<path class="st5" d="M102.4,101l3.1-1.8c0.1-0.1,0.2-0.1,0.4-0.1c0.1,0,0.3,0,0.4,0.1l2.4,1.4c0.1,0,0.1,0.1,0.1,0.1
					s0,0.1-0.1,0.1l-3.1,1.8c-0.1,0.1-0.2,0.1-0.4,0.1c-0.1,0-0.3,0-0.4-0.1l-2.4-1.4C102.3,101.2,102.3,101.1,102.4,101
					C102.3,101.1,102.3,101,102.4,101z"/>
				<path class="st5" d="M98,103.5l3.1-1.8c0.1-0.1,0.2-0.1,0.4-0.1c0.1,0,0.3,0,0.4,0.1l2.4,1.4c0.1,0,0.1,0.1,0.1,0.1
					s0,0.1-0.1,0.1l-3.2,1.9c-0.1,0.1-0.2,0.1-0.4,0.1c-0.1,0-0.3,0-0.4-0.1l-2.4-1.4c-0.1,0-0.1-0.1-0.1-0.1
					C97.9,103.6,97.9,103.6,98,103.5z"/>
				<path class="st5" d="M93.5,106.1l3.1-1.8c0.1-0.1,0.2-0.1,0.4-0.1c0.1,0,0.3,0,0.4,0.1l2.4,1.4c0.1,0,0.1,0.1,0.1,0.1
					s0,0.1-0.1,0.1l-3.1,1.8c-0.1,0.1-0.2,0.1-0.4,0.1c-0.1,0-0.3,0-0.4-0.1l-2.4-1.4C93.4,106.3,93.4,106.2,93.5,106.1
					C93.4,106.2,93.5,106.2,93.5,106.1z"/>
				<path class="st5" d="M88.8,109l3.1-1.8c0.1-0.1,0.2-0.1,0.4-0.1c0.1,0,0.3,0,0.4,0.1l2.4,1.4c0.1,0,0.1,0.1,0.1,0.1
					s0,0.1-0.1,0.1l-3.1,1.8c-0.1,0.1-0.2,0.1-0.4,0.1c-0.1,0-0.3,0-0.4-0.1l-2.4-1.4C88.7,109.2,88.7,109.1,88.8,109
					C88.7,109.1,88.7,109,88.8,109z"/>
				<path class="st5" d="M84.3,111.6l3.1-1.8c0.1-0.1,0.2-0.1,0.4-0.1c0.1,0,0.3,0,0.4,0.1l2.4,1.4c0.1,0,0.1,0.1,0.1,0.1
					s0,0.1-0.1,0.1l-3.1,1.8c-0.1,0.1-0.2,0.1-0.4,0.1c-0.1,0-0.3,0-0.4-0.1l-2.4-1.4C84.2,111.8,84.2,111.7,84.3,111.6
					C84.2,111.6,84.3,111.6,84.3,111.6z"/>
				<path class="st5" d="M79.7,114.1l3.1-1.8c0.1-0.1,0.2-0.1,0.4-0.1c0.1,0,0.3,0,0.4,0.1l2.4,1.4c0.1,0,0.1,0.1,0.1,0.1
					s0,0.1-0.1,0.1l-3.1,1.8c-0.1,0.1-0.2,0.1-0.4,0.1c-0.1,0-0.3,0-0.4-0.1l-2.4-1.4C79.6,114.3,79.6,114.2,79.7,114.1
					C79.6,114.2,79.6,114.2,79.7,114.1z"/>
				<path class="st5" d="M133.1,90.9l-3.4,1.9c-0.1,0.1-0.2,0.1-0.4,0.1c-0.1,0-0.3,0-0.4-0.1l-2.4-1.4c-0.1,0-0.1-0.1-0.1-0.1
					s0-0.1,0.1-0.1l3.4-1.9c0.1-0.1,0.2-0.1,0.4-0.1s0.3,0,0.4,0.1l2.4,1.4c0.1,0,0.1,0.1,0.1,0.1S133.1,90.8,133.1,90.9z"/>
				<path class="st5" d="M122,93.9l3.4-1.9c0.1-0.1,0.2-0.1,0.4-0.1c0.1,0,0.3,0,0.4,0.1l2.4,1.4c0.1,0,0.1,0.1,0.1,0.1
					s0,0.1-0.1,0.1l-3.4,1.9c-0.1,0.1-0.2,0.1-0.4,0.1c-0.1,0-0.3,0-0.4-0.1l-2.4-1.4C121.9,94.1,121.9,94,122,93.9
					C121.8,94,121.9,93.9,122,93.9z"/>
				<path class="st5" d="M140.4,95.1l-2.3,1.4c-0.1,0.1-0.2,0.1-0.4,0.1c-0.1,0-0.3,0-0.4-0.1l-6-3.5c-0.1,0-0.1-0.1-0.1-0.1
					s0-0.1,0.1-0.1l2.3-1.4c0.1-0.1,0.2-0.1,0.4-0.1c0.1,0,0.3,0,0.4,0.1l6,3.5c0.1,0,0.1,0.1,0.1,0.1
					C140.4,95,140.4,95.1,140.4,95.1z"/>
				<path class="st5" d="M130.1,93.4c0.1,0,0.3,0,0.4,0.1l2.4,1.4c0.1,0,0.1,0.1,0.1,0.1s0,0.1-0.1,0.1l-4,2.4
					c-0.1,0.1-0.2,0.1-0.4,0.1c-0.1,0-0.3,0-0.4-0.1l-2.4-1.4c-0.1,0-0.1-0.1-0.1-0.1s0-0.1,0.1-0.1l4-2.4
					C129.9,93.5,130,93.4,130.1,93.4z"/>
				<path class="st5" d="M112.8,99.2l3.1-1.8c0.1-0.1,0.2-0.1,0.4-0.1c0.1,0,0.3,0,0.4,0.1l2.4,1.4c0.1,0,0.1,0.1,0.1,0.1
					s0,0.1-0.1,0.1l-3.1,1.8c-0.1,0.1-0.2,0.1-0.4,0.1c-0.1,0-0.3,0-0.4-0.1l-2.4-1.4C112.7,99.4,112.7,99.3,112.8,99.2L112.8,99.2z
					"/>
				<path class="st5" d="M120.8,94.7c0.1,0,0.3,0,0.4,0.1l6.1,3.5c0.1,0,0.1,0.1,0.1,0.1s0,0.1-0.1,0.1l-6.1,3.6
					c-0.1,0.1-0.2,0.1-0.4,0.1c-0.1,0-0.3,0-0.4-0.1l-2.4-1.4c-0.1,0-0.1-0.1-0.1-0.1s0-0.1,0.1-0.1l2.8-1.6l-3.5-2
					c-0.1,0-0.1-0.1-0.1-0.1s0-0.1,0.1-0.1l3.1-1.8C120.5,94.7,120.6,94.7,120.8,94.7z"/>
				<path class="st5" d="M108.4,101.8l3.1-1.8c0.1-0.1,0.2-0.1,0.4-0.1c0.1,0,0.3,0,0.4,0.1l2.4,1.4c0.1,0,0.1,0.1,0.1,0.1
					s0,0.1-0.1,0.1l-3.1,1.8c-0.1,0.1-0.2,0.1-0.4,0.1c-0.1,0-0.3,0-0.4-0.1l-2.4-1.4C108.3,102,108.3,101.9,108.4,101.8
					C108.3,101.8,108.3,101.8,108.4,101.8z"/>
				<path class="st5" d="M103.9,104.3l3.1-1.8c0.1-0.1,0.2-0.1,0.4-0.1c0.1,0,0.3,0,0.4,0.1l2.4,1.4c0.1,0,0.1,0.1,0.1,0.1
					s0,0.1-0.1,0.1l-3.1,1.8c-0.1,0.1-0.2,0.1-0.4,0.1l0,0c-0.1,0-0.3,0-0.4-0.1l-2.4-1.4C103.8,104.5,103.8,104.4,103.9,104.3
					C103.8,104.4,103.9,104.4,103.9,104.3z"/>
				<path class="st5" d="M99.5,106.9l3.1-1.8c0.1-0.1,0.2-0.1,0.4-0.1c0.1,0,0.3,0,0.4,0.1l2.4,1.4c0.1,0,0.1,0.1,0.1,0.1
					s0,0.1-0.1,0.1l-3.1,1.8c-0.1,0.1-0.2,0.1-0.4,0.1c-0.1,0-0.3,0-0.4-0.1l-2.4-1.4C99.4,107.1,99.4,107,99.5,106.9
					C99.4,107,99.4,107,99.5,106.9z"/>
				<path class="st5" d="M95.1,109.5l3.1-1.8c0.1-0.1,0.2-0.1,0.4-0.1c0.1,0,0.3,0,0.4,0.1l2.4,1.4c0.1,0,0.1,0.1,0.1,0.1
					s0,0.1-0.1,0.1l-3.1,1.8c-0.1,0.1-0.2,0.1-0.4,0.1c-0.1,0-0.3,0-0.4-0.1l-2.4-1.4c-0.1,0-0.1-0.1-0.1-0.1
					C95,109.6,95,109.5,95.1,109.5z"/>
				<path class="st5" d="M90.6,112.1l3.1-1.8c0.1-0.1,0.2-0.1,0.4-0.1c0.1,0,0.3,0,0.4,0.1l2.4,1.4c0.1,0,0.1,0.1,0.1,0.1
					s0,0.1-0.1,0.1l-3.1,1.8c-0.1,0.1-0.2,0.1-0.4,0.1c-0.1,0-0.3,0-0.4-0.1l-2.4-1.4C90.5,112.3,90.5,112.2,90.6,112.1
					C90.5,112.2,90.6,112.1,90.6,112.1z"/>
				<path class="st5" d="M86.2,114.7l3.1-1.8c0.1-0.1,0.2-0.1,0.4-0.1c0.1,0,0.3,0,0.4,0.1l2.4,1.4c0.1,0,0.1,0.1,0.1,0.1
					s0,0.1-0.1,0.1l-3.1,1.8c-0.1,0.1-0.2,0.1-0.4,0.1c-0.1,0-0.3,0-0.4-0.1l-2.4-1.4C86.1,114.9,86.1,114.8,86.2,114.7
					C86.1,114.7,86.1,114.7,86.2,114.7z"/>
				<path class="st5" d="M119.8,102.7C119.8,102.7,119.8,102.8,119.8,102.7l-3.2,1.9c-0.1,0.1-0.2,0.1-0.4,0.1c-0.1,0-0.3,0-0.4-0.1
					l-2.4-1.4c-0.1,0-0.1-0.1-0.1-0.1s0-0.1,0.1-0.1l3.1-1.8c0.1-0.1,0.2-0.1,0.4-0.1c0.1,0,0.3,0,0.4,0.1L119.8,102.7
					C119.8,102.6,119.8,102.7,119.8,102.7z"/>
				<path class="st5" d="M109,105.7C109,105.7,109,105.6,109,105.7l3.2-1.9c0.1-0.1,0.2-0.1,0.4-0.1c0.1,0,0.3,0,0.4,0.1l2.4,1.4
					c0.1,0,0.1,0.1,0.1,0.1s0,0.1-0.1,0.1l-3.1,1.8c-0.1,0.1-0.2,0.1-0.4,0.1c-0.1,0-0.3,0-0.4-0.1L109,105.7
					C109,105.8,109,105.8,109,105.7z"/>
				<path class="st5" d="M110.9,108l-3.1,1.8c-0.1,0.1-0.2,0.1-0.4,0.1c-0.1,0-0.3,0-0.4-0.1l-2.4-1.4c-0.1,0-0.1-0.1-0.1-0.1
					s0-0.1,0.1-0.1l3.1-1.8c0.1-0.1,0.2-0.1,0.4-0.1c0.1,0,0.3,0,0.4,0.1l2.4,1.4C111,107.8,111,107.9,110.9,108L110.9,108z"/>
				<path class="st5" d="M106.4,110.6l-3.1,1.8c-0.1,0.1-0.2,0.1-0.4,0.1s-0.3,0-0.4-0.1l-2.4-1.4v-0.1c0,0,0-0.1,0.1-0.1l3.1-1.8
					c0.1-0.1,0.2-0.1,0.4-0.1c0.1,0,0.3,0,0.4,0.1l2.4,1.4c0.1,0,0.1,0.1,0.1,0.1C106.5,110.5,106.5,110.5,106.4,110.6z"/>
				<path class="st5" d="M102,113.2l-3.1,1.8c-0.1,0.1-0.2,0.1-0.4,0.1c-0.1,0-0.3,0-0.4-0.1l-2.4-1.4c-0.1,0-0.1-0.1-0.1-0.1
					s0-0.1,0.1-0.1l3.1-1.8c0.1-0.1,0.2-0.1,0.4-0.1c0.1,0,0.3,0,0.4,0.1l2.4,1.4C102.1,113,102.1,113.1,102,113.2
					C102.1,113.1,102,113.1,102,113.2z"/>
				<path class="st5" d="M97.5,115.8l-3.1,1.8c-0.1,0.1-0.2,0.1-0.4,0.1c-0.1,0-0.3,0-0.4-0.1l-2.4-1.4c-0.1,0-0.1-0.1-0.1-0.1
					s0-0.1,0.1-0.1l3.1-1.8c0.1-0.1,0.2-0.1,0.4-0.1c0.1,0,0.3,0,0.4,0.1l2.4,1.4C97.6,115.6,97.6,115.7,97.5,115.8
					C97.6,115.7,97.6,115.7,97.5,115.8z"/>
				<path class="st5" d="M93.1,118.3l-3.1,1.8c-0.1,0.1-0.2,0.1-0.4,0.1l0,0c-0.1,0-0.3,0-0.4-0.1l-2.4-1.4c-0.1,0-0.1-0.1-0.1-0.1
					s0-0.1,0.1-0.1l3.1-1.8c0.1-0.1,0.2-0.1,0.4-0.1c0.1,0,0.3,0,0.4,0.1l2.4,1.4C93.2,118.1,93.2,118.2,93.1,118.3
					C93.2,118.3,93.1,118.3,93.1,118.3z"/>
				<path class="st5" d="M133.9,95.5c0.1,0,0.3,0,0.4,0.1l2.4,1.4c0.1,0,0.1,0.1,0.1,0.1s0,0.1-0.1,0.1l-3.4,1.9
					c-0.1,0.1-0.2,0.1-0.4,0.1c-0.1,0-0.3,0-0.4-0.1l-2.4-1.4c-0.1,0-0.1-0.1-0.1-0.1s0-0.1,0.1-0.1l3.4-1.9
					C133.7,95.6,133.8,95.5,133.9,95.5z"/>
				<path class="st5" d="M124.5,100.9C124.5,100.9,124.5,100.8,124.5,100.9l4.2-2.5c0.1-0.1,0.2-0.1,0.4-0.1c0.1,0,0.3,0,0.4,0.1
					l2.4,1.4c0.1,0,0.1,0.1,0.1,0.1s0,0.1-0.1,0.1l-4.1,2.4c-0.1,0.1-0.2,0.1-0.4,0.1c-0.1,0-0.3,0-0.4-0.1L124.5,100.9L124.5,100.9
					z"/>
				<path class="st5" d="M121.9,105.8l-3.1,1.8c-0.1,0.1-0.2,0.1-0.4,0.1c-0.1,0-0.3,0-0.4-0.1l-2.4-1.4c-0.1,0-0.1-0.1-0.1-0.1
					s0-0.1,0.1-0.1l3.1-1.8c0.1-0.1,0.2-0.1,0.4-0.1c0.1,0,0.3,0,0.4,0.1l2.4,1.4C122,105.6,122,105.7,121.9,105.8
					C122.1,105.7,122,105.8,121.9,105.8z"/>
				<path class="st5" d="M117.5,108.4l-3.1,1.8c-0.1,0.1-0.2,0.1-0.4,0.1c-0.1,0-0.3,0-0.4-0.1l-2.4-1.4c-0.1,0-0.1-0.1-0.1-0.1
					s0-0.1,0.1-0.1l3.1-1.8c0.1-0.1,0.2-0.1,0.4-0.1c0.1,0,0.3,0,0.4,0.1l2.4,1.4C117.6,108.2,117.6,108.3,117.5,108.4
					C117.6,108.3,117.6,108.3,117.5,108.4z"/>
				<path class="st5" d="M113.1,111l-3.1,1.8c-0.1,0.1-0.2,0.1-0.4,0.1c-0.1,0-0.3,0-0.4-0.1l-2.4-1.4c-0.1,0-0.1-0.1-0.1-0.1
					s0-0.1,0.1-0.1l3.1-1.8c0.1-0.1,0.2-0.1,0.4-0.1c0.1,0,0.3,0,0.4,0.1l2.4,1.4C113.2,110.8,113.2,110.9,113.1,111
					C113.2,110.9,113.1,110.9,113.1,111z"/>
				<path class="st5" d="M108.6,113.5l-3.1,1.8c-0.1,0.1-0.2,0.1-0.4,0.1c-0.1,0-0.3,0-0.4-0.1l-2.4-1.4c-0.1,0-0.1-0.1-0.1-0.1
					s0-0.1,0.1-0.1l3.1-1.8c0.1-0.1,0.2-0.1,0.4-0.1c0.1,0,0.3,0,0.4,0.1l2.4,1.4C108.7,113.3,108.7,113.4,108.6,113.5
					C108.7,113.5,108.7,113.5,108.6,113.5z"/>
				<path class="st5" d="M104.2,116.1l-3.1,1.8c-0.1,0.1-0.2,0.1-0.4,0.1c-0.1,0-0.3,0-0.4-0.1l-2.4-1.4c-0.1,0-0.1-0.1-0.1-0.1
					s0-0.1,0.1-0.1l3.1-1.8c0.1-0.1,0.2-0.1,0.4-0.1c0.1,0,0.3,0,0.4,0.1l2.4,1.4C104.3,115.9,104.3,116,104.2,116.1L104.2,116.1z"
					/>
				<path class="st5" d="M99.7,118.7l-3.1,1.8c-0.1,0.1-0.2,0.1-0.4,0.1c-0.1,0-0.3,0-0.4-0.1l-2.4-1.4c-0.1,0-0.1-0.1-0.1-0.1
					s0-0.1,0.1-0.1l3.1-1.8c0.1-0.1,0.2-0.1,0.4-0.1c0.1,0,0.3,0,0.4,0.1l2.4,1.4C99.8,118.5,99.8,118.6,99.7,118.7
					C99.8,118.6,99.8,118.7,99.7,118.7z"/>
				<path class="st5" d="M95.3,121.3l-3.1,1.8c-0.1,0.1-0.2,0.1-0.4,0.1c-0.1,0-0.3,0-0.4-0.1l-2.4-1.4c-0.1,0-0.1-0.1-0.1-0.1
					s0-0.1,0.1-0.1l3.1-1.8c0.1-0.1,0.2-0.1,0.4-0.1c0.1,0,0.3,0,0.4,0.1l2.4,1.4C95.3,121.1,95.3,121.2,95.3,121.3
					C95.4,121.2,95.4,121.3,95.3,121.3z"/>
				<path class="st5" d="M138.4,97.1c0,0,0-0.1,0.1-0.1l2.3-1.4c0.1-0.1,0.2-0.1,0.4-0.1c0.1,0,0.3,0,0.4,0.1l6.1,3.5
					c0.1,0,0.1,0.1,0.1,0.1s0,0.1-0.1,0.1l-2.3,1.4c-0.1,0.1-0.2,0.1-0.4,0.1c-0.1,0-0.3,0-0.4-0.1l-6.1-3.5
					C138.4,97.2,138.4,97.1,138.4,97.1z"/>
				<path class="st5" d="M137.7,97.6c0.1,0,0.3,0,0.4,0.1l2.4,1.4c0.1,0,0.1,0.1,0.1,0.1s0,0.1-0.1,0.1l-3.5,2.1
					c-0.1,0.1-0.2,0.1-0.4,0.1c-0.1,0-0.3,0-0.4-0.1l-2.4-1.4c-0.1,0-0.1-0.1-0.1-0.1s0-0.1,0.1-0.1l3.5-2.1
					C137.4,97.7,137.6,97.6,137.7,97.6z"/>
				<path class="st5" d="M135.6,102.2l-1.8,1c-0.1,0.1-0.2,0.1-0.4,0.1l0,0c-0.1,0-0.3,0-0.4-0.1l-2.4-1.4c-0.1,0-0.1-0.1-0.1-0.1
					s0-0.1,0.1-0.1l1.8-1c0.1-0.1,0.2-0.1,0.4-0.1c0.1,0,0.3,0,0.4,0.1l2.4,1.4c0.1,0,0.1,0.1,0.1,0.1
					C135.7,102.1,135.6,102.1,135.6,102.2z"/>
				<path class="st5" d="M132.3,104.1l-1.8,1.1c-0.1,0.1-0.2,0.1-0.4,0.1c-0.1,0-0.3,0-0.4-0.1l-2.4-1.4c-0.1,0-0.1-0.1-0.1-0.1
					s0-0.1,0.1-0.1l1.8-1.1c0.1-0.1,0.2-0.1,0.4-0.1c0.1,0,0.3,0,0.4,0.1l2.4,1.4c0.1,0,0.1,0.1,0.1,0.1S132.4,104,132.3,104.1z"/>
				<path class="st5" d="M129.1,105.9l-5.1,3c-0.1,0.1-0.2,0.1-0.4,0.1c-0.1,0-0.3,0-0.4-0.1l-2.4-1.4c-0.1,0-0.1-0.1-0.1-0.1
					s0-0.1,0.1-0.1l5.1-3c0.1-0.1,0.2-0.1,0.4-0.1c0.1,0,0.3,0,0.4,0.1l2.4,1.4C129.1,105.7,129.1,105.8,129.1,105.9
					C129.1,105.9,129.1,105.9,129.1,105.9z"/>
				<path class="st5" d="M122.7,109.7l-3.1,1.8c-0.1,0.1-0.2,0.1-0.4,0.1c-0.1,0-0.3,0-0.4-0.1l-2.4-1.4c-0.1,0-0.1-0.1-0.1-0.1
					s0-0.1,0.1-0.1l3.1-1.8c0.1-0.1,0.2-0.1,0.4-0.1c0.1,0,0.3,0,0.4,0.1l2.4,1.4C122.8,109.5,122.8,109.6,122.7,109.7
					C122.8,109.6,122.7,109.6,122.7,109.7z"/>
				<path class="st5" d="M118.2,112.3l-3.1,1.8c-0.1,0.1-0.2,0.1-0.4,0.1c-0.1,0-0.3,0-0.4-0.1l-2.4-1.4c-0.1,0-0.1-0.1-0.1-0.1
					s0-0.1,0.1-0.1l3.1-1.8c0.1-0.1,0.2-0.1,0.4-0.1c0.1,0,0.3,0,0.4,0.1l2.4,1.4C118.3,112.1,118.3,112.2,118.2,112.3
					C118.3,112.2,118.3,112.2,118.2,112.3z"/>
				<path class="st5" d="M113.8,114.8l-3.1,1.8c-0.1,0.1-0.2,0.1-0.4,0.1c-0.1,0-0.3,0-0.4-0.1l-2.4-1.4c-0.1,0-0.1-0.1-0.1-0.1
					s0-0.1,0.1-0.1l3.1-1.8c0.1-0.1,0.2-0.1,0.4-0.1c0.1,0,0.3,0,0.4,0.1l2.4,1.4C113.8,114.6,113.8,114.7,113.8,114.8
					C113.9,114.8,113.8,114.8,113.8,114.8z"/>
				<path class="st5" d="M109.3,117.4l-3.1,1.8c-0.1,0.1-0.2,0.1-0.4,0.1c-0.1,0-0.3,0-0.4-0.1l-2.3-1.4c-0.1,0-0.1-0.1-0.1-0.1
					s0-0.1,0.1-0.1l3.1-1.8c0.1-0.1,0.2-0.1,0.4-0.1c0.1,0,0.3,0,0.4,0.1l2.4,1.4c0.1,0,0.1,0.1,0.1,0.1
					C109.4,117.3,109.4,117.4,109.3,117.4z"/>
				<path class="st5" d="M104.9,120l-3.1,1.8c-0.1,0.1-0.2,0.1-0.4,0.1c-0.1,0-0.3,0-0.4-0.1l-2.4-1.4c-0.1,0-0.1-0.1-0.1-0.1
					s0-0.1,0.1-0.1l3.1-1.8c0.1-0.1,0.2-0.1,0.4-0.1c0.1,0,0.3,0,0.4,0.1l2.4,1.4C105,119.8,105,119.9,104.9,120L104.9,120z"/>
				<path class="st5" d="M100.4,122.6l-3.1,1.8c-0.1,0.1-0.2,0.1-0.4,0.1c-0.1,0-0.3,0-0.4-0.1l-2.4-1.4c-0.1,0-0.1-0.1-0.1-0.1
					s0-0.1,0.1-0.1l3.1-1.8c0.1-0.1,0.2-0.1,0.4-0.1c0.1,0,0.3,0,0.4,0.1l2.4,1.4C100.5,122.4,100.5,122.5,100.4,122.6
					C100.5,122.5,100.5,122.5,100.4,122.6z"/>
				<path class="st5" d="M96,125.2l-3.1,1.8c-0.1,0.1-0.2,0.1-0.4,0.1c-0.1,0-0.3,0-0.4-0.1l-2.4-1.4c-0.1,0-0.1-0.1-0.1-0.1
					s0-0.1,0.1-0.1l3.1-1.8c0.1-0.1,0.2-0.1,0.4-0.1c0.1,0,0.3,0,0.4,0.1L96,125C96.1,125,96.1,125.1,96,125.2
					C96.1,125.1,96.1,125.1,96,125.2z"/>
				<path class="st5" d="M76.4,133.1l3.1-1.8c0.1-0.1,0.2-0.1,0.4-0.1c0.1,0,0.3,0,0.4,0.1l2.4,1.4c0.1,0,0.1,0.1,0.1,0.1
					s0,0.1-0.1,0.1l-3.1,1.8c-0.1,0.1-0.2,0.1-0.4,0.1c-0.1,0-0.3,0-0.4-0.1l-2.4-1.4C76.3,133.3,76.3,133.2,76.4,133.1
					C76.3,133.2,76.4,133.1,76.4,133.1z"/>
				<path class="st5" d="M136.4,102.6c0,0,0-0.1,0.1-0.1l3.1-1.8c0.1-0.1,0.2-0.1,0.4-0.1c0.1,0,0.3,0,0.4,0.1l2.4,1.4
					c0.1,0,0.1,0.1,0.1,0.1s0,0.1-0.1,0.1l-3.1,1.8c-0.1,0.1-0.2,0.1-0.4,0.1c-0.1,0-0.3,0-0.4-0.1l-2.4-1.4
					C136.4,102.7,136.4,102.6,136.4,102.6z"/>
				<path class="st5" d="M131.9,105.2c0,0,0-0.1,0.1-0.1l3.1-1.8c0.1-0.1,0.2-0.1,0.4-0.1c0.1,0,0.3,0,0.4,0.1l2.4,1.4
					c0.1,0,0.1,0.1,0.1,0.1s0,0.1-0.1,0.1l-3.1,1.8c-0.1,0.1-0.2,0.1-0.4,0.1c-0.1,0-0.3,0-0.4-0.1L131.9,105.2
					C132,105.2,131.9,105.2,131.9,105.2z"/>
				<path class="st5" d="M127.4,107.8C127.4,107.8,127.4,107.7,127.4,107.8l3.2-1.9c0.1-0.1,0.2-0.1,0.4-0.1c0.1,0,0.3,0,0.4,0.1
					l2.4,1.4c0.1,0,0.1,0.1,0.1,0.1s0,0.1-0.1,0.1l-3.1,1.8c-0.1,0.1-0.2,0.1-0.4,0.1c-0.1,0-0.3,0-0.4-0.1L127.4,107.8
					C127.5,107.9,127.4,107.8,127.4,107.8z"/>
				<path class="st5" d="M123,110.4C123,110.4,123,110.3,123,110.4l3.2-1.9c0.1-0.1,0.2-0.1,0.4-0.1c0.1,0,0.3,0,0.4,0.1l2.4,1.4
					c0.1,0,0.1,0.1,0.1,0.1s0,0.1-0.1,0.1l-3.1,1.8c-0.1,0.1-0.2,0.1-0.4,0.1c-0.1,0-0.3,0-0.4-0.1L123,110.4
					C123,110.4,123,110.4,123,110.4z"/>
				<path class="st5" d="M100.8,123.3C100.8,123.3,100.8,123.2,100.8,123.3l21-12.2c0.1-0.1,0.2-0.1,0.4-0.1c0.1,0,0.3,0,0.4,0.1
					l2.4,1.4c0.1,0,0.1,0.1,0.1,0.1s0,0.1-0.1,0.1l-20.9,12.1c-0.1,0.1-0.2,0.1-0.4,0.1c-0.1,0-0.3,0-0.4-0.1L100.8,123.3
					C100.8,123.3,100.8,123.3,100.8,123.3z"/>
				<path class="st5" d="M96.3,125.9C96.3,125.9,96.3,125.8,96.3,125.9l3.2-1.9c0.1-0.1,0.2-0.1,0.4-0.1c0.1,0,0.3,0,0.4,0.1
					l2.4,1.4c0.1,0,0.1,0.1,0.1,0.1s0,0.1-0.1,0.1l-3.1,1.8c-0.1,0.1-0.2,0.1-0.4,0.1c-0.1,0-0.3,0-0.4-0.1L96.3,125.9
					C96.4,125.9,96.3,125.9,96.3,125.9z"/>
				<path class="st5" d="M91.9,128.4C91.9,128.4,91.9,128.3,91.9,128.4l3.2-1.9c0.1-0.1,0.2-0.1,0.4-0.1c0.1,0,0.3,0,0.4,0.1
					l2.4,1.4c0.1,0,0.1,0.1,0.1,0.1s0,0.1-0.1,0.1l-3.2,1.8c-0.1,0.1-0.2,0.1-0.4,0.1c-0.1,0-0.3,0-0.4-0.1l-2.4-1.4
					C91.9,128.5,91.9,128.5,91.9,128.4z"/>
				<path class="st5" d="M87.4,131c0,0,0-0.1,0.1-0.1l3.1-1.8c0.1-0.1,0.2-0.1,0.4-0.1c0.1,0,0.3,0,0.4,0.1l2.4,1.4
					c0.1,0,0.1,0.1,0.1,0.1s0,0.1-0.1,0.1l-3.1,1.8c-0.1,0.1-0.2,0.1-0.4,0.1c-0.1,0-0.3,0-0.4-0.1l-2.4-1.4L87.4,131z"/>
				<path class="st5" d="M83,133.6c0,0,0-0.1,0.1-0.1l3.1-1.8c0.1-0.1,0.2-0.1,0.4-0.1c0.1,0,0.3,0,0.4,0.1l2.4,1.4
					c0.1,0,0.1,0.1,0.1,0.1s0,0.1-0.1,0.1l-3.1,1.8c-0.1,0.1-0.2,0.1-0.4,0.1c-0.1,0-0.3,0-0.4-0.1L83,133.6
					C83,133.7,83,133.6,83,133.6z"/>
				<path class="st5" d="M79.4,135.7l2.4-1.4c0.1-0.1,0.2-0.1,0.4-0.1c0.1,0,0.3,0,0.4,0.1l2.4,1.4c0.1,0,0.1,0.1,0.1,0.1
					s0,0.1-0.1,0.1l-2.4,1.4c-0.1,0.1-0.2,0.1-0.4,0.1c-0.1,0-0.3,0-0.4-0.1l-2.4-1.4C79.3,135.9,79.3,135.8,79.4,135.7
					C79.3,135.7,79.3,135.7,79.4,135.7z"/>
				<path class="st5" d="M81.4,112.3C81.4,112.3,81.4,112.4,81.4,112.3l-3.2,1.9c-0.1,0.1-0.2,0.1-0.4,0.1c-0.1,0-0.3,0-0.4-0.1
					l-2.3-1.4c-0.1,0-0.1-0.1-0.1-0.1s0-0.1,0.1-0.1l3.1-1.8c0.1-0.1,0.2-0.1,0.4-0.1c0.1,0,0.3,0,0.4,0.1L81.4,112.3L81.4,112.3z"
					/>
				<path class="st5" d="M77,114.9C77,114.9,77,115,77,114.9l-3.2,1.9c-0.1,0.1-0.2,0.1-0.4,0.1c-0.1,0-0.3,0-0.4-0.1l-2.4-1.4
					c-0.1,0-0.1-0.1-0.1-0.1s0-0.1,0.1-0.1l3.1-1.8c0.1-0.1,0.2-0.1,0.4-0.1c0.1,0,0.3,0,0.4,0.1L77,114.9
					C77,114.8,77,114.9,77,114.9z"/>
				<path class="st5" d="M72.5,117.5C72.5,117.5,72.5,117.6,72.5,117.5l-3.2,1.9c-0.1,0.1-0.2,0.1-0.4,0.1c-0.1,0-0.3,0-0.4-0.1
					l-2.4-1.4v-0.1c0,0,0-0.1,0.1-0.1l3.1-1.8c0.1-0.1,0.2-0.1,0.4-0.1c0.1,0,0.3,0,0.4,0.1L72.5,117.5
					C72.5,117.4,72.5,117.4,72.5,117.5z"/>
				<path class="st5" d="M68.1,120C68.1,120,68.1,120.1,68.1,120l-3.2,1.9c-0.1,0.1-0.2,0.1-0.4,0.1c-0.1,0-0.3,0-0.4-0.1l-2.4-1.4
					c-0.1,0-0.1-0.1-0.1-0.1s0-0.1,0.1-0.1l3.1-1.8c0.1-0.1,0.2-0.1,0.4-0.1c0.1,0,0.3,0,0.4,0.1L68.1,120
					C68.1,120,68.1,120,68.1,120z"/>
				<path class="st5" d="M57.3,122.9l3.1-1.8c0.1-0.1,0.2-0.1,0.4-0.1c0.1,0,0.3,0,0.4,0.1l2.4,1.4c0.1,0,0.1,0.1,0.1,0.1
					s0,0.1-0.1,0.1l-3.1,1.8c-0.1,0.1-0.2,0.1-0.4,0.1c-0.1,0-0.3,0-0.4-0.1l-2.4-1.4C57.2,123.1,57.2,123,57.3,122.9
					C57.2,123,57.3,123,57.3,122.9z"/>
				<path class="st5" d="M75.1,116.7l3.1-1.8c0.1-0.1,0.2-0.1,0.4-0.1c0.1,0,0.3,0,0.4,0.1l2.4,1.4c0.1,0,0.1,0.1,0.1,0.1
					s0,0.1-0.1,0.1l-3.1,1.8c-0.1,0.1-0.2,0.1-0.4,0.1s-0.3,0-0.4-0.1l-2.4-1.3c-0.1,0-0.1-0.1-0.1-0.1
					C75,116.8,75,116.8,75.1,116.7z"/>
				<path class="st5" d="M73.4,121.1c-0.1,0-0.3,0-0.4-0.1l-2.4-1.4c-0.1,0-0.1-0.1-0.1-0.1s0-0.1,0.1-0.1l3.1-1.8
					c0.1-0.1,0.2-0.1,0.4-0.1c0.1,0,0.3,0,0.4,0.1l2.4,1.4c0.1,0,0.1,0.1,0.1,0.1s0,0.1-0.1,0.1l-3.1,1.8
					C73.7,121.1,73.5,121.1,73.4,121.1z"/>
				<path class="st5" d="M68.8,123.8c-0.1,0-0.3,0-0.4-0.1l-2.4-1.4c-0.1,0-0.1-0.1-0.1-0.1s0-0.1,0.1-0.1l3.1-1.8
					c0.1-0.1,0.2-0.1,0.4-0.1s0.3,0,0.4,0.1l2.4,1.4c0.1,0,0.1,0.1,0.1,0.1s0,0.1-0.1,0.1l-3.1,1.8C69,123.8,68.9,123.8,68.8,123.8z
					"/>
				<path class="st5" d="M61.1,124.9l3.1-1.8c0.1-0.1,0.2-0.1,0.4-0.1c0.1,0,0.3,0,0.4,0.1l2.4,1.4c0.1,0,0.1,0.1,0.1,0.1
					s0,0.1-0.1,0.1l-3.1,1.8c-0.1,0.1-0.2,0.1-0.4,0.1c-0.1,0-0.3,0-0.4-0.1l-2.4-1.4C61,125.1,61,125,61.1,124.9
					C61,125,61,125,61.1,124.9z"/>
				<path class="st5" d="M84.5,118.9c-0.1,0-0.3,0-0.4-0.1l-2.4-1.4c-0.1,0-0.1-0.1-0.1-0.1s0-0.1,0.1-0.1l3.1-1.8
					c0.1-0.1,0.2-0.1,0.4-0.1c0.1,0,0.3,0,0.4,0.1l2.4,1.4c0,0.1,0.1,0.1,0.1,0.1s0,0.1-0.1,0.1l-3.1,1.9
					C84.8,118.9,84.6,118.9,84.5,118.9z"/>
				<path class="st5" d="M80.1,121.5c-0.1,0-0.3,0-0.4-0.1l-2.4-1.4c-0.1,0-0.1-0.1-0.1-0.1s0-0.1,0.1-0.1l3.1-1.8
					c0.1-0.1,0.2-0.1,0.4-0.1c0.1,0,0.3,0,0.4,0.1l2.4,1.4c0.1,0,0.1,0.1,0.1,0.1s0,0.1-0.1,0.1l-3.1,1.8
					C80.3,121.5,80.2,121.5,80.1,121.5z"/>
				<path class="st5" d="M72.7,122.5C72.7,122.5,72.7,122.4,72.7,122.5l3.2-1.9c0.1-0.1,0.2-0.1,0.4-0.1c0.1,0,0.3,0,0.4,0.1
					l2.4,1.4c0.1,0,0.1,0.1,0.1,0.1s0,0.1-0.1,0.1L76,124c-0.1,0.1-0.2,0.1-0.4,0.1c-0.1,0-0.3,0-0.4-0.1L72.7,122.5
					C72.8,122.6,72.7,122.6,72.7,122.5z"/>
				<path class="st5" d="M64.7,127.2l6.8-3.9c0.1-0.1,0.2-0.1,0.4-0.1c0.1,0,0.3,0,0.4,0.1l2.4,1.4c0.1,0,0.1,0.1,0.1,0.1
					s0,0.1-0.1,0.1l-6.8,3.9c-0.1,0.1-0.2,0.1-0.4,0.1c-0.1,0-0.3,0-0.4-0.1l-2.4-1.4C64.6,127.4,64.6,127.3,64.7,127.2
					C64.6,127.2,64.6,127.2,64.7,127.2z"/>
				<path class="st5" d="M82.3,121.2C82.3,121.2,82.3,121.1,82.3,121.2l3.2-1.9c0.1-0.1,0.2-0.1,0.4-0.1c0.1,0,0.3,0,0.4,0.1
					l2.4,1.4c0.1,0,0.1,0.1,0.1,0.1s0,0.1-0.1,0.1l-3.1,1.8c-0.1,0.1-0.2,0.1-0.4,0.1c-0.1,0-0.3,0-0.4-0.1L82.3,121.2
					C82.3,121.3,82.3,121.2,82.3,121.2z"/>
				<path class="st5" d="M77.9,123.8C77.9,123.8,77.9,123.7,77.9,123.8l3.2-1.9c0.1-0.1,0.2-0.1,0.4-0.1c0.1,0,0.3,0,0.4,0.1
					l2.4,1.4c0.1,0,0.1,0.1,0.1,0.1s0,0.1-0.1,0.1l-3.1,1.8c-0.1,0.1-0.2,0.1-0.4,0.1c-0.1,0-0.3,0-0.4-0.1L77.9,123.8
					C77.9,123.9,77.9,123.8,77.9,123.8z"/>
				<path class="st5" d="M79.8,126.1l-3.1,1.8c-0.1,0.1-0.2,0.1-0.4,0.1c-0.1,0-0.3,0-0.4-0.1l-2.4-1.4c-0.1,0-0.1-0.1-0.1-0.1
					s0-0.1,0.1-0.1l3.1-1.8c0.1-0.1,0.2-0.1,0.4-0.1c0.1,0,0.3,0,0.4,0.1l2.4,1.4C79.8,125.9,79.8,126,79.8,126.1
					C79.9,126,79.8,126,79.8,126.1z"/>
				<path class="st5" d="M68.3,129.3l3.9-2.2c0.1-0.1,0.2-0.1,0.4-0.1c0.1,0,0.3,0,0.4,0.1l2.4,1.4c0.1,0,0.1,0.1,0.1,0.1
					s0,0.1-0.1,0.1l-3.9,2.2c-0.1,0.1-0.2,0.1-0.4,0.1c-0.1,0-0.3,0-0.4-0.1l-2.4-1.4C68.2,129.5,68.2,129.4,68.3,129.3L68.3,129.3z
					"/>
				<path class="st5" d="M90.8,123.9l-3.1,1.8c-0.1,0.1-0.2,0.1-0.4,0.1c-0.1,0-0.3,0-0.4-0.1l-2.4-1.4c-0.1,0-0.1-0.1-0.1-0.1
					s0-0.1,0.1-0.1l3.1-1.8c0.1-0.1,0.2-0.1,0.4-0.1c0.1,0,0.3,0,0.4,0.1l2.4,1.4C90.8,123.7,90.8,123.8,90.8,123.9
					C90.9,123.8,90.9,123.8,90.8,123.9z"/>
				<path class="st5" d="M80.1,126.8C80.1,126.8,80.1,126.7,80.1,126.8l3.2-1.9c0.1-0.1,0.2-0.1,0.4-0.1c0.1,0,0.3,0,0.4,0.1
					l2.4,1.4c0.1,0,0.1,0.1,0.1,0.1s0,0.1-0.1,0.1l-3.1,1.8c-0.1,0.1-0.2,0.1-0.4,0.1c-0.1,0-0.3,0-0.4-0.1L80.1,126.8
					C80.1,126.8,80.1,126.8,80.1,126.8z"/>
				<path class="st5" d="M72,131.4l6.8-3.9c0.1-0.1,0.2-0.1,0.4-0.1c0.1,0,0.3,0,0.4,0.1l2.4,1.4c0.1,0,0.1,0.1,0.1,0.1
					s0,0.1-0.1,0.1l-6.8,3.9c-0.1,0.1-0.2,0.1-0.4,0.1c-0.1,0-0.3,0-0.4-0.1l-2.4-1.4c-0.1,0-0.1-0.1-0.1-0.1S71.9,131.4,72,131.4z"
					/>
				<path class="st5" d="M91.6,127.7l-3.1,1.8c-0.1,0.1-0.2,0.1-0.4,0.1c-0.1,0-0.3,0-0.4-0.1l-2.4-1.4c-0.1,0-0.1-0.1-0.1-0.1
					s0-0.1,0.1-0.1l3.1-1.8c0.1-0.1,0.2-0.1,0.4-0.1c0.1,0,0.3,0,0.4,0.1l2.4,1.4C91.7,127.5,91.7,127.6,91.6,127.7
					C91.7,127.7,91.6,127.7,91.6,127.7z"/>
				<path class="st5" d="M87.1,130.3l-3.1,1.8c-0.1,0.1-0.2,0.1-0.4,0.1c-0.1,0-0.3,0-0.4-0.1l-2.4-1.4c-0.1,0-0.1-0.1-0.1-0.1
					s0-0.1,0.1-0.1l3.1-1.8c0.1-0.1,0.2-0.1,0.4-0.1c0.1,0,0.3,0,0.4,0.1l2.4,1.4C87.2,130.1,87.2,130.2,87.1,130.3
					C87.2,130.2,87.2,130.3,87.1,130.3z"/>
				<path class="st5" d="M126.4,103.2l-3.1,1.8c-0.1,0.1-0.2,0.1-0.4,0.1c-0.1,0-0.3,0-0.4-0.1l-2.4-1.4c-0.1,0-0.1-0.1-0.1-0.1
					s0-0.1,0.1-0.1l3.1-1.8c0.1-0.1,0.2-0.1,0.4-0.1c0.1,0,0.3,0,0.4,0.1l2.4,1.4C126.5,103,126.5,103.1,126.4,103.2
					C126.5,103.1,126.5,103.2,126.4,103.2z"/>
				<g class="st7">
					<path class="st6" d="M138.3,122.6c0.9,0.5,0.9,1.4,0,1.9l-12.2,7.1c-0.9,0.5-2.4,0.5-3.3,0l-9.4-5.5c-0.9-0.5-0.9-1.4,0-1.9
						l12.2-7.1c0.9-0.5,2.4-0.5,3.3,0L138.3,122.6z"/>
				</g>
			</g>
		</g>
		
			<linearGradient id="SVGID_1_" gradientUnits="userSpaceOnUse" x1="50.0149" y1="-24.3613" x2="92.1797" y2="-85.5682" gradientTransform="matrix(1 0 0 -1 0 41.6)">
			<stop  offset="0" style="stop-color:#0045DB"/>
			<stop  offset="1" style="stop-color:#FFA3FF"/>
		</linearGradient>
		<path class="st8" d="M71.5,62.4L71.6,96c0,0.5-0.3,0.9-0.7,1.2l-15.8,9c-0.9,0.5-2-0.1-2-1.2L53,71.4c0-0.5,0.3-0.9,0.7-1.2
			l15.8-9C70.4,60.7,71.5,61.4,71.5,62.4z"/>
		<polyline class="st9" points="116.4,71.5 74.4,95.4 74.3,58.7 		"/>
		
			<radialGradient id="SVGID_2_" cx="95.8259" cy="-29.086" r="21.7569" gradientTransform="matrix(1 0 0 -1 0 41.6)" gradientUnits="userSpaceOnUse">
			<stop  offset="0" style="stop-color:#00FCFF"/>
			<stop  offset="0.1099" style="stop-color:#03F6FF"/>
			<stop  offset="0.2577" style="stop-color:#0CE5FF"/>
			<stop  offset="0.4271" style="stop-color:#1AC9FF"/>
			<stop  offset="0.6127" style="stop-color:#2DA1FF"/>
			<stop  offset="0.8088" style="stop-color:#4670FF"/>
			<stop  offset="1" style="stop-color:#6238FF"/>
		</radialGradient>
		<path class="st10" d="M76,94.1c0.6-2.8-1.2-25.8,10-18.9c4.7,2.9,2.6-16.7,8.2-18.3c3.6-1,6.1,9.2,8.2,8.7s4.3-14.8,8.5-17.9
			c5.7-4.2,4.8,23.9,4.8,23.9L76,94.1z"/>
		<line class="st9" x1="84.4" y1="89.6" x2="84.3" y2="53"/>
		<line class="st9" x1="93.4" y1="84.2" x2="93.3" y2="47.6"/>
		<line class="st9" x1="102.5" y1="78.9" x2="102.4" y2="42.2"/>
		<line class="st9" x1="111.5" y1="73.5" x2="111.4" y2="36.8"/>
		<g>
			<g class="st11">
				<g class="st11">
					<g>
						<defs>
							<path id="SVGID_3_" d="M65,71.1l0.7,0.4c0.3,0.2,0.4,0.6,0.4,1.3s-0.3,2.1-0.4,2.5c-0.3,1.2-0.9,2.8-3.3,4.1L61.7,79
								c2.4-1.4,3-2.9,3.3-4.1c0.1-0.5,0.4-1.8,0.4-2.5S65.3,71.3,65,71.1z"/>
						</defs>
						<clipPath id="SVGID_4_">
							<use xlink:href="#SVGID_3_"  style="overflow:visible;"/>
						</clipPath>
						<g class="st12">
							
								<linearGradient id="SVGID_5_" gradientUnits="userSpaceOnUse" x1="61.6529" y1="-36.95" x2="64.0388" y2="-36.95" gradientTransform="matrix(1 0 0 -1 0 41.6)">
								<stop  offset="1.141830e-03" style="stop-color:#B7FDFF"/>
								<stop  offset="0.9946" style="stop-color:#06ECC5"/>
							</linearGradient>
							<path class="st13" d="M62.4,79.4L61.7,79c0.7-0.4,1.3-0.8,1.7-1.3l0.7,0.4C63.6,78.6,63.1,79,62.4,79.4"/>
							<path class="st14" d="M64.1,78.1l-0.7-0.4c0.1-0.1,0.2-0.2,0.3-0.3l0.7,0.4C64.3,77.9,64.2,78,64.1,78.1"/>
							<path class="st15" d="M64.4,77.8l-0.7-0.4c0.1-0.1,0.1-0.2,0.2-0.3l0.7,0.4C64.6,77.6,64.5,77.7,64.4,77.8"/>
							<path class="st16" d="M64.6,77.5l-0.7-0.4C64,77,64,77,64.1,76.9l0.7,0.4C64.7,77.4,64.7,77.5,64.6,77.5"/>
							<path class="st17" d="M64.8,77.3l-0.7-0.4c0-0.1,0.1-0.1,0.1-0.2l0.7,0.4C64.9,77.2,64.8,77.3,64.8,77.3"/>
							<path class="st18" d="M64.9,77.1l-0.7-0.4c0-0.1,0.1-0.1,0.1-0.2l0.7,0.4C65,77,65,77.1,64.9,77.1"/>
							<path class="st19" d="M65,76.9l-0.7-0.4c0-0.1,0.1-0.1,0.1-0.2l0.7,0.4C65.1,76.8,65.1,76.9,65,76.9"/>
							<path class="st20" d="M65.2,76.7l-0.7-0.4c0-0.1,0.1-0.1,0.1-0.2l0.7,0.4C65.2,76.6,65.2,76.7,65.2,76.7"/>
							<path class="st21" d="M65.2,76.5l-0.7-0.4c0-0.1,0.1-0.1,0.1-0.2l0.7,0.4C65.3,76.4,65.3,76.5,65.2,76.5"/>
							<path class="st22" d="M65.3,76.3l-0.6-0.4c0-0.1,0.1-0.2,0.1-0.2l0.7,0.4C65.4,76.2,65.4,76.3,65.3,76.3"/>
							<path class="st23" d="M65.4,76.1l-0.7-0.4c0-0.1,0.1-0.2,0.1-0.3l0.7,0.4C65.5,75.9,65.5,76,65.4,76.1"/>
							<path class="st24" d="M65.5,75.8l-0.7-0.4c0-0.1,0.1-0.2,0.1-0.4l0.7,0.4C65.6,75.6,65.6,75.7,65.5,75.8"/>
							<path class="st25" d="M65.6,75.5l-0.7-0.4c0-0.1,0-0.1,0.1-0.2c0-0.1,0-0.2,0.1-0.3l0.7,0.4c0,0.1,0,0.2-0.1,0.3
								C65.7,75.3,65.7,75.4,65.6,75.5"/>
							<path class="st26" d="M65.8,75l-0.7-0.4c0.1-0.4,0.2-1,0.3-1.5l0.7,0.4C66,74,65.8,74.6,65.8,75"/>
							<path class="st27" d="M66,73.5l-0.7-0.4c0-0.3,0.1-0.6,0.1-0.8c0-0.6-0.1-1.1-0.4-1.3l0.7,0.4c0.3,0.2,0.4,0.6,0.4,1.3
								C66.1,73,66.1,73.2,66,73.5"/>
						</g>
					</g>
				</g>
				<g>
					<polygon class="st28" points="58.4,81.7 57.7,81.3 61.7,79 62.4,79.4 					"/>
				</g>
				<g>
					<polygon class="st29" points="58,84.3 57.4,84 57.7,81.3 58.4,81.7 					"/>
				</g>
				<g class="st11">
					<g>
						<defs>
							<path id="SVGID_6_" d="M67.1,68l0.7,0.4c-0.7-0.4-1.8-0.2-3.4,0.8l-0.7-0.4C65.3,67.8,66.4,67.6,67.1,68z"/>
						</defs>
						<clipPath id="SVGID_7_">
							<use xlink:href="#SVGID_6_"  style="overflow:visible;"/>
						</clipPath>
						<g class="st30">
							
								<linearGradient id="SVGID_8_" gradientUnits="userSpaceOnUse" x1="63.5805" y1="-27" x2="65.4405" y2="-27" gradientTransform="matrix(1 0 0 -1 0 41.6)">
								<stop  offset="1.141830e-03" style="stop-color:#B7FDFF"/>
								<stop  offset="0.9946" style="stop-color:#06ECC5"/>
							</linearGradient>
							<path class="st31" d="M64.3,69.1l-0.7-0.4c0.4-0.3,0.8-0.5,1.2-0.6l0.7,0.4C65.1,68.7,64.7,68.9,64.3,69.1"/>
							<path class="st14" d="M65.5,68.5l-0.7-0.4c0.2-0.1,0.5-0.2,0.7-0.2l0.7,0.4C66,68.3,65.7,68.4,65.5,68.5"/>
							<path class="st15" d="M66.2,68.3l-0.7-0.4c0.1,0,0.3-0.1,0.4-0.1l0.7,0.4C66.4,68.2,66.3,68.3,66.2,68.3"/>
							<path class="st16" d="M66.6,68.2l-0.7-0.4c0.1,0,0.2,0,0.3,0l0.7,0.4C66.8,68.2,66.7,68.2,66.6,68.2"/>
							<path class="st17" d="M66.9,68.2l-0.7-0.4c0.1,0,0.2,0,0.2,0l0.7,0.4C67,68.2,66.9,68.2,66.9,68.2"/>
							<path class="st18" d="M67.1,68.2l-0.7-0.4c0.1,0,0.1,0,0.2,0l0.7,0.4C67.2,68.2,67.1,68.2,67.1,68.2"/>
							<path class="st19" d="M67.3,68.2l-0.7-0.4c0.1,0,0.1,0,0.2,0l0.7,0.4C67.4,68.2,67.3,68.2,67.3,68.2"/>
							<path class="st20" d="M67.4,68.2l-0.7-0.4c0.1,0,0.1,0,0.1,0.1l0.7,0.4C67.5,68.3,67.5,68.2,67.4,68.2"/>
							<path class="st21" d="M67.6,68.3l-0.7-0.4c0,0,0.1,0,0.1,0.1L67.6,68.3C67.7,68.3,67.6,68.3,67.6,68.3"/>
							<path class="st22" d="M67.7,68.3l-0.7-0.4l0,0L67.7,68.3C67.7,68.4,67.7,68.4,67.7,68.3"/>
						</g>
					</g>
				</g>
				<g>
					<polygon class="st28" points="57.8,77.4 57.2,77.1 61.8,74.4 62.5,74.8 					"/>
				</g>
				<g>
					<path class="st6" d="M62.3,75.9c-0.1,0.6-0.3,1.6-1.5,2.3l-4.6,2.7c0,0,0-0.3,0.2-1.1c0.1-0.6,0.3-1.6,1.5-2.3l4.6-2.7
						C62.5,74.8,62.4,75.1,62.3,75.9z"/>
				</g>
				<g class="st11">
					<g>
						<defs>
							<path id="SVGID_9_" d="M56.2,80.8l-0.7-0.4c0,0,0-0.3,0.2-1.1c0.1-0.6,0.3-1.6,1.5-2.3l0.7,0.4c-1.2,0.7-1.4,1.7-1.5,2.3
								C56.2,80.5,56.2,80.8,56.2,80.8z"/>
						</defs>
						<clipPath id="SVGID_10_">
							<use xlink:href="#SVGID_9_"  style="overflow:visible;"/>
						</clipPath>
						<g class="st32">
							<path class="st26" d="M56.2,80.8l-0.7-0.4c0,0,0-0.3,0.2-1.1c0-0.1,0-0.2,0.1-0.3l0.7,0.4c0,0.1,0,0.2-0.1,0.3
								C56.2,80.5,56.2,80.8,56.2,80.8"/>
							<path class="st25" d="M56.4,79.4L55.7,79c0-0.1,0-0.2,0.1-0.2l0.7,0.4C56.5,79.2,56.5,79.3,56.4,79.4"/>
							<path class="st24" d="M56.5,79.2l-0.7-0.4c0-0.1,0-0.1,0.1-0.2l0.7,0.4C56.5,79,56.5,79.1,56.5,79.2"/>
							<path class="st23" d="M56.5,79l-0.7-0.4v-0.1L56.5,79C56.6,78.9,56.6,78.9,56.5,79"/>
							<path class="st22" d="M56.6,78.9l-0.7-0.4v-0.1L56.6,78.9C56.6,78.8,56.6,78.8,56.6,78.9"/>
							<path class="st21" d="M56.6,78.7l-0.7-0.4v-0.1L56.6,78.7C56.7,78.7,56.7,78.7,56.6,78.7"/>
							<path class="st20" d="M56.7,78.6L56,78.2v-0.1L56.7,78.6L56.7,78.6"/>
							<path class="st19" d="M56.7,78.5l-0.6-0.3c0,0,0-0.1,0.1-0.1L56.7,78.5C56.8,78.5,56.8,78.5,56.7,78.5"/>
							<path class="st18" d="M56.8,78.5l-0.7-0.4c0,0,0-0.1,0.1-0.1L56.8,78.5C56.8,78.4,56.8,78.4,56.8,78.5"/>
							<path class="st17" d="M56.8,78.4L56.1,78c0,0,0-0.1,0.1-0.1L56.8,78.4C56.9,78.3,56.9,78.3,56.8,78.4"/>
							<path class="st16" d="M56.9,78.3l-0.7-0.4c0,0,0-0.1,0.1-0.1L56.9,78.3C57,78.2,56.9,78.2,56.9,78.3"/>
							<path class="st15" d="M57,78.2l-0.7-0.4l0.1-0.1L57,78.2C57,78.1,57,78.1,57,78.2"/>
							<path class="st14" d="M57.1,78.1l-0.7-0.4c0-0.1,0.1-0.1,0.1-0.1l0.7,0.4C57.2,78,57.1,78,57.1,78.1"/>
							
								<linearGradient id="SVGID_11_" gradientUnits="userSpaceOnUse" x1="56.4966" y1="-35.85" x2="57.7895" y2="-35.85" gradientTransform="matrix(1 0 0 -1 0 41.6)">
								<stop  offset="1.141830e-03" style="stop-color:#B7FDFF"/>
								<stop  offset="0.9946" style="stop-color:#06ECC5"/>
							</linearGradient>
							<path class="st33" d="M57.2,77.9l-0.7-0.4c0.2-0.2,0.4-0.3,0.6-0.5l0.7,0.4C57.6,77.6,57.4,77.7,57.2,77.9"/>
						</g>
					</g>
				</g>
				<g>
					<polygon class="st29" points="59.4,74.4 58.7,74 59.1,71.3 59.8,71.7 					"/>
				</g>
				<g>
					<path class="st6" d="M64.3,69.1c4-2.3,4.7-0.2,4.1,3.6c-0.4,2.6-1.3,4.9-2.9,6.7c-0.7,0.8-1.4,1.4-3,2.3L58,84.3l0.4-2.6l4-2.3
						c2.4-1.4,3-2.9,3.3-4.1c0.1-0.5,0.4-1.8,0.4-2.5c0-1.4-0.6-1.9-2.6-0.7l-4.1,2.4l0.4-2.6L64.3,69.1z"/>
				</g>
				<g>
					<polygon class="st28" points="59.8,71.7 59.1,71.3 63.6,68.7 64.3,69.1 					"/>
				</g>
			</g>
		</g>
	</g>
</g>
</svg>
