<?xml version="1.0" encoding="utf-8"?>
<!-- Generator: Adobe Illustrator 23.0.0, SVG Export Plug-In . SVG Version: 6.00 Build 0)  -->
<svg version="1.1" id="Layer_1" xmlns="http://www.w3.org/2000/svg" xmlns:xlink="http://www.w3.org/1999/xlink" x="0px" y="0px"
	 viewBox="0 0 200 200" style="enable-background:new 0 0 200 200;" xml:space="preserve">
<style type="text/css">
	.st0{opacity:0.1;fill:#272724;enable-background:new    ;}
	.st1{fill:url(#XMLID_3_);}
	.st2{fill:url(#XMLID_4_);}
	.st3{fill:#7B98B3;}
	.st4{fill:#B3C8DC;}
	.st5{fill:#019DCD;}
	.st6{fill:url(#SVGID_1_);}
	.st7{fill:#16556E;}
	.st8{fill:#C7401E;}
	.st9{fill:#C1D3E4;}
	.st10{fill:#E6F2FF;}
	.st11{fill:#02BAF4;}
	.st12{fill:url(#SVGID_2_);}
	.st13{fill:#738A90;}
	.st14{fill:#F8EDFD;}
	.st15{fill:url(#XMLID_5_);}
	.st16{fill:#A2C9E9;}
	.st17{fill:#728FD9;}
	.st18{fill:url(#XMLID_6_);}
	.st19{fill:url(#XMLID_7_);}
	.st20{fill:#ECECEC;}
	.st21{fill:#DCF5FF;}
	.st22{fill:#071B27;}
	.st23{fill:#56757E;}
	.st24{fill:#E0FB99;}
	.st25{fill:#8CA7AF;}
	.st26{fill:#AAC1D7;}
	.st27{fill:url(#XMLID_8_);}
	.st28{fill:url(#XMLID_11_);}
	.st29{fill:url(#XMLID_12_);}
	.st30{fill:#CAE4FF;}
	.st31{fill:#CFE9FF;}
	.st32{fill:#DCF6FF;}
	.st33{fill:#D4F5FF;}
	.st34{fill:url(#XMLID_13_);}
	.st35{fill:#E4FFFF;}
	.st36{fill:#DF2929;}
	.st37{fill:url(#XMLID_14_);}
	.st38{fill:url(#XMLID_15_);}
	.st39{fill:url(#XMLID_16_);}
	.st40{fill:url(#XMLID_17_);}
	.st41{fill:url(#XMLID_18_);}
	.st42{fill:url(#XMLID_19_);}
	.st43{fill:url(#XMLID_20_);}
	.st44{fill:url(#XMLID_21_);}
	.st45{fill:url(#XMLID_22_);}
	.st46{fill:url(#XMLID_23_);}
	.st47{fill:url(#XMLID_24_);}
	.st48{fill:url(#SVGID_3_);}
	.st49{fill:#BED7FF;}
	.st50{fill:#D8F1FF;}
	.st51{fill:url(#XMLID_25_);}
	.st52{fill:#98AFE9;}
	.st53{fill:url(#XMLID_26_);}
	.st54{fill:url(#XMLID_27_);}
	.st55{fill:url(#XMLID_28_);}
	.st56{fill:url(#XMLID_29_);}
	.st57{fill:url(#XMLID_30_);}
	.st58{fill:url(#XMLID_31_);}
	.st59{fill:url(#XMLID_32_);}
	.st60{fill:url(#XMLID_33_);}
	.st61{fill:url(#XMLID_34_);}
	.st62{fill:url(#XMLID_35_);}
	.st63{fill:url(#XMLID_36_);}
	.st64{fill:#EBCC7D;}
	.st65{fill:none;stroke:#B6DEED;stroke-width:0.1815;stroke-miterlimit:10;}
	.st66{fill:url(#XMLID_37_);}
	.st67{fill:url(#XMLID_38_);}
	.st68{fill:url(#XMLID_39_);}
	.st69{fill:url(#XMLID_40_);}
	.st70{fill:url(#SVGID_4_);}
	.st71{fill:url(#SVGID_5_);}
	.st72{fill:url(#SVGID_6_);}
	.st73{fill:url(#SVGID_7_);}
	.st74{fill:url(#SVGID_8_);}
	.st75{fill:url(#SVGID_9_);}
	.st76{fill:url(#SVGID_10_);}
	.st77{fill:url(#SVGID_11_);}
	.st78{fill:url(#SVGID_12_);}
	.st79{fill:url(#SVGID_13_);}
	.st80{fill:url(#SVGID_14_);}
	.st81{fill:url(#SVGID_15_);}
	.st82{fill:url(#SVGID_16_);}
	.st83{fill:url(#SVGID_17_);}
	.st84{fill:url(#SVGID_18_);}
	.st85{fill:url(#SVGID_19_);}
	.st86{fill:url(#SVGID_20_);}
	.st87{fill:url(#SVGID_21_);}
	.st88{fill:url(#SVGID_22_);}
	.st89{fill:url(#SVGID_23_);}
	.st90{fill:url(#SVGID_24_);}
	.st91{fill:url(#SVGID_25_);}
	.st92{fill:url(#SVGID_26_);}
	.st93{fill:url(#SVGID_27_);}
	.st94{fill:url(#XMLID_41_);}
	.st95{fill:url(#XMLID_42_);}
</style>
<g>
	<g id="_x31_8_2_">
		<g id="_x36__2_">
			<g id="XMLID_2_">
				<path id="XMLID_54_" class="st0" d="M84.6,172.6l-57.5-33.7c-7.9-4.6-6.9-12.6,2.2-17.9l48.6-28.2c9.1-5.3,22.9-5.8,30.7-1.2
					l57.5,33.6c7.9,4.6,6.9,12.6-2.2,17.9l-48.6,28.2C106.3,176.6,92.5,177.3,84.6,172.6z"/>
				
					<linearGradient id="XMLID_3_" gradientUnits="userSpaceOnUse" x1="22.65" y1="-77.95" x2="172.3528" y2="-77.95" gradientTransform="matrix(1 0 0 -1 0 51)">
					<stop  offset="1.923080e-03" style="stop-color:#23DBEA"/>
					<stop  offset="1" style="stop-color:#0C5FCD"/>
				</linearGradient>
				<path id="XMLID_10_" class="st1" d="M172.4,129.8l-0.1-9.1l-10-1.3l-52.7-30.9c-7.9-4.6-21.6-4.1-30.7,1.2l-48.7,28.3
					c-0.4,0.2-0.8,0.5-1.1,0.7l-6.4,1.3v8.3l0,0c0.1,2.9,1.8,5.6,5.3,7.6l57.5,33.6c7.9,4.6,21.6,4.1,30.7-1.2l48.6-28.2
					C169.9,137.1,172.5,133.3,172.4,129.8L172.4,129.8z"/>
				
					<linearGradient id="XMLID_4_" gradientUnits="userSpaceOnUse" x1="97.4" y1="-43.9206" x2="97.4" y2="-88.4277" gradientTransform="matrix(1 0 0 -1 0 51)">
					<stop  offset="0" style="stop-color:#DFE0E1"/>
					<stop  offset="1" style="stop-color:#FFFFFF"/>
				</linearGradient>
				<path id="XMLID_9_" class="st2" d="M85.4,161.9l-57.6-33.6c-7.9-4.6-6.9-12.6,2.2-17.9l48.7-28.2c9.1-5.3,22.9-5.8,30.7-1.2
					l57.5,33.6c7.9,4.6,6.9,12.6-2.2,17.9l-48.6,28.2C107,166.1,93.3,166.6,85.4,161.9z"/>
			</g>
		</g>
	</g>
	<g>
		<path class="st3" d="M60,126.4l19.4,11.2c1.2,0.7,2.7,0.7,3.9,0l40.5-23.3l5.8-3.4c1.3-0.8,1.3-2.7,0-3.4l-19.3-11.2
			c-1.2-0.7-2.7-0.7-3.9,0l-6.9,3.9L60,123.1C58.8,123.8,58.8,125.8,60,126.4z"/>
		<g>
			<path class="st4" d="M60,125.3l19.4,11.2c1.2,0.7,2.7,0.7,3.9,0l40.5-23.4l5.8-3.4c1.3-0.8,1.3-2.7,0-3.4l-19.3-11.1
				c-1.2-0.7-2.7-0.7-3.9,0l-6.8,3.9L60,121.9C58.8,122.7,58.8,124.6,60,125.3z"/>
			<path class="st5" d="M60,125.3L63,127l51.2-29.6l-3.8-2.2c-1.2-0.7-2.7-0.7-3.9,0l-6.8,3.9L60,121.9
				C58.8,122.7,58.8,124.6,60,125.3z"/>
			<g>
				<g>
					<path class="st4" d="M85.4,112.8l-0.9-0.4l-0.8,0.5l0.5,0.6l-0.6,0.3l-2.1-2.6l0.8-0.5l3.7,1.7L85.4,112.8z M83.9,112.2
						l-0.8-0.4c-0.1,0-0.2-0.1-0.4-0.2c-0.2-0.1-0.3-0.2-0.4-0.2c0.1,0.1,0.2,0.2,0.3,0.3c0.1,0.1,0.3,0.4,0.7,0.8L83.9,112.2z"/>
					<path class="st4" d="M83.4,110.3c-0.1-0.1-0.1-0.1-0.1-0.2s0.1-0.1,0.2-0.2c0.1-0.1,0.2-0.1,0.3-0.1s0.2,0,0.3,0.1
						c0.1,0.1,0.1,0.1,0.1,0.2s-0.1,0.1-0.2,0.2s-0.2,0.1-0.3,0.1C83.6,110.4,83.6,110.3,83.4,110.3z M86.8,112.1l-0.6,0.3l-2.2-1.6
						l0.6-0.3L86.8,112.1z"/>
					<path class="st4" d="M86.8,110.6l1.1,0.8l-0.6,0.3l-2.9-2.1l0.8-0.5c0.3-0.2,0.6-0.3,1-0.3c0.3,0,0.6,0.1,0.9,0.3
						c0.4,0.3,0.5,0.5,0.4,0.8l1.9,0.6l-0.6,0.4l-1.6-0.5L86.8,110.6z M86.4,110.2l0.2-0.1c0.1-0.1,0.2-0.2,0.2-0.3
						c0-0.1-0.1-0.2-0.2-0.3c-0.2-0.1-0.3-0.2-0.4-0.2s-0.3,0-0.4,0.1l-0.1,0.1L86.4,110.2z"/>
					<path class="st4" d="M91.8,109.2l-0.6,0.3l-2.4-1.8l-0.6,0.4l-0.5-0.4l1.8-1.1L90,107l-0.6,0.4L91.8,109.2z"/>
					<path class="st4" d="M92.8,108.6l-2.9-2.1l0.6-0.3l2.9,2.1L92.8,108.6z"/>
					<path class="st4" d="M92.8,105.3c-0.2,0.1-0.2,0.2-0.1,0.4c0.1,0.2,0.3,0.4,0.6,0.6c0.7,0.5,1.2,0.6,1.6,0.4
						c0.2-0.1,0.3-0.2,0.4-0.4l0.5,0.4c-0.1,0.2-0.2,0.3-0.5,0.5c-0.4,0.2-0.8,0.3-1.2,0.2c-0.5-0.1-0.9-0.3-1.4-0.6
						c-0.5-0.3-0.7-0.7-0.8-1c-0.1-0.3,0.1-0.6,0.4-0.8c0.1-0.1,0.2-0.1,0.4-0.2c0.1,0,0.3-0.1,0.5-0.1l0.2,0.4c-0.1,0-0.2,0-0.3,0
						C92.8,105.3,92.8,105.3,92.8,105.3z"/>
					<path class="st4" d="M98.3,105.4l-0.6,0.4l-1.8-0.6v0.3l1,0.8l-0.6,0.3l-2.9-2.1l0.6-0.3l1.4,1.1l-0.2-0.4l-0.5-1.1l0.6-0.4
						l0.5,1.4L98.3,105.4z"/>
					<path class="st4" d="M99.9,104.4l-1.5,0.8l-2.9-2.1l1.5-0.8l0.5,0.3l-0.9,0.5l0.7,0.5l0.8-0.5l0.5,0.3l-0.8,0.6l0.8,0.6
						l0.9-0.5L99.9,104.4z"/>
					<path class="st4" d="M101.4,103.7l-0.6,0.3l-2.4-1.8l-0.6,0.4l-0.5-0.4l1.8-1.1l0.5,0.4l-0.6,0.4L101.4,103.7z"/>
				</g>
			</g>
			
				<linearGradient id="SVGID_1_" gradientUnits="userSpaceOnUse" x1="99.55" y1="-52.9375" x2="130.6801" y2="-52.9375" gradientTransform="matrix(1 0 0 -1 0 51)">
				<stop  offset="0" style="stop-color:#0045DB"/>
				<stop  offset="1" style="stop-color:#FFA3FF"/>
			</linearGradient>
			<path class="st6" d="M99.5,99.2l24.3,14l5.8-3.4c1.3-0.8,1.3-2.7,0-3.4l-19.3-11.1c-1.2-0.7-2.7-0.7-3.9,0L99.5,99.2z"/>
			<g>
				<g>
					<path class="st7" d="M84.4,118.2l-0.4,0.3c-0.1,0.1-0.3,0.1-0.4,0.1c-0.1,0-0.3,0-0.4-0.1s-0.1-0.1-0.2-0.2
						c0-0.1,0-0.1,0.1-0.2l0,0c-0.1,0-0.2,0-0.3,0s-0.2,0-0.3-0.1c-0.1-0.1-0.2-0.1-0.2-0.2s0.1-0.2,0.3-0.2l0.4-0.2L84.4,118.2z
						 M83.1,117.7l-0.1,0.1c-0.1,0-0.1,0.1-0.1,0.1s0,0.1,0.1,0.1c0.1,0,0.1,0.1,0.2,0.1s0.1,0,0.2,0l0.1-0.1L83.1,117.7z
						 M83.4,118.1c-0.1,0.1-0.1,0.1,0,0.2c0.1,0,0.1,0.1,0.2,0.1c0.1,0,0.1,0,0.2,0l0.1-0.1L83.4,118.1L83.4,118.1z"/>
					<path class="st7" d="M81.3,118.6c0-0.1,0-0.2,0.2-0.3c0.2-0.1,0.4-0.1,0.6-0.1c0.2,0,0.4,0.1,0.7,0.2c0.2,0.1,0.4,0.3,0.4,0.4
						s0,0.2-0.2,0.3c-0.2,0.1-0.4,0.1-0.6,0.1s-0.4-0.1-0.7-0.2C81.4,118.8,81.3,118.7,81.3,118.6z M82.1,118.3c-0.1,0-0.2,0-0.3,0
						c-0.2,0.1-0.1,0.2,0.3,0.4c0.3,0.2,0.6,0.2,0.7,0.1c0.1,0,0.1-0.1,0.1-0.2s-0.1-0.2-0.3-0.3C82.3,118.4,82.1,118.3,82.1,118.3z
						"/>
					<path class="st7" d="M81.3,120.1l-1.1-1l0.4-0.2l1.8,0.6l-0.3,0.2l-0.4-0.2l-0.4,0.2l0.3,0.3L81.3,120.1z M81.3,119.3
						c-0.3-0.1-0.5-0.2-0.6-0.2s-0.2-0.1-0.2-0.1l0.1,0.1c0.1,0.1,0.1,0.1,0.1,0.1l0.3,0.2L81.3,119.3z"/>
					<path class="st7" d="M80.1,120.1l0.3,0.5l-0.3,0.2l-0.3-0.6c-0.2,0-0.4,0-0.6-0.1c-0.1-0.1-0.2-0.2-0.2-0.2
						c0-0.1,0.1-0.2,0.2-0.3l0.4-0.2l1.4,0.8l-0.2,0.1L80.1,120.1L80.1,120.1z M79.6,119.6L79.6,119.6c-0.1,0.1-0.2,0.1-0.2,0.1
						s0,0.1,0.1,0.1s0.1,0.1,0.2,0.1c0.1,0,0.1,0,0.2,0H80L79.6,119.6z"/>
					<path class="st7" d="M78.1,120.4c0-0.1,0-0.2,0.2-0.3l0.4-0.2l1.4,0.8l-0.4,0.2c-0.2,0.1-0.4,0.2-0.6,0.1
						c-0.2,0-0.5-0.1-0.7-0.2C78.3,120.8,78.1,120.6,78.1,120.4z M79.1,120.8c0.1,0,0.2,0,0.3-0.1l0.1-0.1l-1-0.6l0,0.2
						c-0.2,0.1-0.1,0.2,0.2,0.4C78.8,120.8,79.1,120.8,79.1,120.8z"/>
					<path class="st7" d="M78.6,121.6l-1.4-0.8l0.3-0.1l1.4,0.8L78.6,121.6z"/>
					<path class="st7" d="M75.8,121.6l0.3-0.1l0.8,0.4c0.1,0.1,0.2,0.1,0.2,0.2l0,0l-0.6-0.8l0.3-0.2l1.4,0.8l-0.3,0.1l-0.8-0.4
						c-0.1-0.1-0.2-0.1-0.2-0.2l0,0l0.6,0.9l-0.3,0.2L75.8,121.6z"/>
					<path class="st7" d="M76.1,122.4l-0.2,0.1l0.3,0.2c0.1,0,0.1,0,0.2-0.1c0.1,0,0.1-0.1,0.1-0.2s-0.1-0.2-0.3-0.3
						c-0.2-0.1-0.3-0.1-0.5-0.2c-0.2-0.1-0.3,0-0.4,0.1c-0.1,0-0.1,0.1-0.2,0.2h-0.3c0-0.1,0.1-0.2,0.2-0.2c0.2-0.1,0.4-0.2,0.6-0.1
						c0.2,0,0.5,0.1,0.7,0.2s0.4,0.3,0.4,0.4s0,0.2-0.2,0.3c-0.1,0.1-0.3,0.1-0.5,0.2l-0.7-0.4l0.4-0.3L76.1,122.4z"/>
					<path class="st7" d="M73.6,122.8l0.4-0.2l1.4,0.8l-0.3,0.2l-0.5-0.4h-0.1c-0.1,0.1-0.3,0.1-0.5,0.1c-0.2,0-0.3,0-0.5-0.1
						C73.3,123.2,73.3,122.9,73.6,122.8z M73.9,122.8L73.9,122.8c-0.1,0.1-0.2,0.1-0.2,0.1s0,0.1,0.1,0.1c0.1,0,0.2,0.1,0.2,0.1
						c0.1,0,0.1,0,0.2-0.1h0.1L73.9,122.8z"/>
					<path class="st7" d="M73.4,124.6l-1.1-1l0.4-0.2l1.8,0.6l-0.3,0.2l-0.4-0.3l-0.4,0.2l0.3,0.3L73.4,124.6z M73.6,123.8
						c-0.3-0.1-0.5-0.2-0.6-0.2c-0.1,0-0.2-0.1-0.2-0.1l0.1,0.1c0.1,0.1,0.1,0.1,0.1,0.1l0.3,0.2L73.6,123.8z"/>
					<path class="st7" d="M72.1,124.6c0-0.1,0-0.1,0-0.2s0-0.1,0-0.2c0,0,0-0.1-0.1-0.1c0,0-0.1,0-0.2,0s-0.1,0-0.1,0
						s-0.1,0-0.1,0.1c0,0,0,0.1-0.1,0.1l-0.3-0.1c0-0.1,0.1-0.2,0.2-0.2c0.1-0.1,0.2-0.1,0.4-0.1c0.1,0,0.3,0,0.4,0.1
						c0.1,0,0.1,0.1,0.1,0.1s0,0.1,0.1,0.1c0,0,0,0.1,0,0.2s0,0.1,0,0.2c0,0,0,0.1,0.1,0.1c0,0,0.1,0,0.2,0c0.1,0,0.1,0,0.2,0
						c0.1-0.1,0.2-0.1,0.2-0.2l0.3,0.2c0,0.1-0.1,0.2-0.3,0.2c-0.1,0.1-0.3,0.1-0.4,0.1c-0.1,0-0.3,0-0.4-0.1
						C72.3,124.8,72.1,124.7,72.1,124.6z"/>
					<path class="st7" d="M71.3,125.1c0-0.1,0-0.1,0-0.2s0-0.1,0-0.2c0,0,0-0.1-0.1-0.1c0,0-0.1,0-0.2,0c-0.1,0-0.1,0-0.1,0
						s-0.1,0-0.1,0.1c0,0,0,0.1-0.1,0.1l-0.3-0.1c0-0.1,0.1-0.2,0.2-0.2c0.1-0.1,0.2-0.1,0.4-0.1c0.1,0,0.3,0,0.4,0.1
						c0.1,0,0.1,0.1,0.1,0.1s0,0.1,0.1,0.1c0,0,0,0.1,0,0.2s0,0.1,0,0.2c0,0,0,0.1,0.1,0.1c0,0,0.1,0,0.2,0c0.1,0,0.1,0,0.2,0
						c0.1-0.1,0.2-0.1,0.2-0.2l0.3,0.1c0,0.1-0.1,0.2-0.3,0.2c-0.1,0.1-0.3,0.1-0.4,0.1c-0.1,0-0.3,0-0.4-0.1
						C71.3,125.2,71.3,125.2,71.3,125.1z"/>
				</g>
			</g>
			<g>
				<polygon class="st7" points="80.8,125.8 89.2,130.6 92.9,128.6 94.5,127.6 95.8,126.8 97.4,125.8 89.2,121.1 86.3,122.8 
					85.1,123.3 83.6,124.2 82.3,124.9 				"/>
				<polygon class="st4" points="82.3,124.9 85.1,126.6 85.9,126.1 86.4,125.8 83.6,124.2 				"/>
				<polygon class="st4" points="91.8,127.9 92.9,128.6 94.5,127.6 93.5,126.9 				"/>
				<polygon class="st4" points="87.8,123.7 90.8,121.9 93.7,123.7 90.8,125.3 				"/>
				<polygon class="st4" points="86.9,128.9 89,127.6 91.2,128.9 89,130.1 				"/>
				<polygon class="st4" points="87.7,125.9 88.7,125.3 89.8,125.9 88.7,126.6 				"/>
				<polygon class="st4" points="85.1,123.3 86.8,124.3 87.4,123.8 87.8,123.7 86.3,122.8 				"/>
				<polygon class="st4" points="91.8,125.9 92.8,125.3 94.5,126.3 93.5,126.9 				"/>
				<polygon class="st4" points="85.4,127.3 86.4,126.7 87.4,127.3 86.4,127.8 				"/>
				<polygon class="st4" points="88.5,127.3 89,126.9 89.5,127.3 89,127.6 				"/>
				<polygon class="st4" points="88.2,125.1 88.7,124.8 89.3,125.1 88.7,125.3 				"/>
				<polygon class="st4" points="87.4,127.3 87.9,126.9 88.5,127.3 88,127.6 				"/>
				<polygon class="st7" points="85.9,127.3 86.4,126.9 87,127.3 86.4,127.6 				"/>
				<polygon class="st4" points="94.2,125.8 95.8,124.9 97.4,125.8 95.8,126.8 				"/>
				<polygon class="st7" points="95,125.9 95.8,125.4 96.8,125.9 95.8,126.3 				"/>
				<polygon class="st4" points="88.8,126.8 89,126.8 89.3,126.8 89,126.9 				"/>
				<polygon class="st4" points="88.3,126.8 88.7,126.8 88.8,126.8 88.7,126.9 				"/>
				<polygon class="st4" points="88.3,126.6 88.7,126.4 88.8,126.6 88.7,126.8 				"/>
				<polygon class="st4" points="89.8,125.9 90.8,125.3 91.8,125.9 90.8,126.6 				"/>
				<polygon class="st7" points="87.8,128.9 89,128.1 90.3,128.9 89,129.6 				"/>
				<polygon class="st7" points="82.6,125.8 83.8,125.1 85.1,125.8 83.8,126.6 				"/>
				<polygon class="st7" points="85.3,125.7 86.5,124.9 87.8,125.7 86.5,126.4 				"/>
				<polygon class="st7" points="89.9,123.9 91.3,123.2 92.5,123.9 91.3,124.7 				"/>
				<polygon class="st7" points="88.5,123.8 91.3,122.3 92.5,123.1 89.8,124.6 				"/>
				<polygon class="st7" points="83.6,124.7 86.3,123.2 87.7,123.9 84.9,125.4 				"/>
			</g>
			<g>
				<polygon class="st7" points="99.9,111.1 107.5,106.7 108.7,107.3 101,111.7 				"/>
				<polygon class="st7" points="104,113.3 111.7,108.9 112.2,109.3 104.4,113.7 				"/>
				<polygon class="st7" points="105.3,114.2 112.9,109.8 113.4,109.9 105.8,114.3 				"/>
				<polygon class="st7" points="106.7,114.8 114.3,110.4 114.7,110.8 107,115.2 				"/>
				<polygon class="st7" points="114.7,114.8 118.2,112.8 118.7,113.1 115.2,115.1 				"/>
			</g>
			<g>
				<polygon class="st7" points="90,116.7 97.8,112.3 98.8,112.9 91.2,117.3 				"/>
				<polygon class="st4" points="61.9,124.1 69.6,119.7 70.6,120.3 63,124.7 				"/>
				<polygon class="st7" points="94.2,119.1 101.8,114.7 102.3,114.9 94.7,119.3 				"/>
				<polygon class="st7" points="95.4,119.8 103.2,115.4 103.5,115.7 95.9,120.1 				"/>
				<polygon class="st7" points="96.8,120.6 104.4,116.2 104.8,116.4 97.3,120.8 				"/>
				<polygon class="st7" points="104.8,120.4 108.3,118.4 108.8,118.7 105.3,120.8 				"/>
			</g>
			<g>
				<polygon class="st7" points="74.3,130.4 79.8,127.3 80.1,127.6 74.6,130.8 				"/>
				<polygon class="st7" points="75.6,131.3 81.1,128.1 81.4,128.4 75.9,131.6 				"/>
				<polygon class="st7" points="76.8,131.9 82.3,128.9 82.8,129.1 77.3,132.3 				"/>
				<polygon class="st7" points="78.1,132.8 83.6,129.6 84.1,129.9 78.6,132.9 				"/>
				<polygon class="st7" points="79.3,133.4 84.8,130.3 85.3,130.6 79.8,133.8 				"/>
				<polygon class="st7" points="82.8,133.1 86.3,131.1 86.7,131.4 83.1,133.4 				"/>
			</g>
			<g>
				<polygon class="st8" points="127.3,108.1 116.3,101.8 115.7,102.2 126.5,108.4 				"/>
				<polygon class="st8" points="125.3,109.2 114.5,102.8 113.8,103.3 124.8,109.6 				"/>
			</g>
			<polygon class="st8" points="109.9,100.9 112.4,99.6 109.5,97.8 107,99.3 			"/>
		</g>
		<path class="st9" d="M66.8,134.1l21.1,7.6c1.3,0.5,2.8,0.2,3.9-0.7l35.6-30.2l5.1-4.3c1.2-1,0.8-2.9-0.6-3.4l-21.1-7.6
			c-1.3-0.5-2.8-0.2-3.9,0.7l-6,5.1l-34.8,29.5C65.1,131.6,65.4,133.6,66.8,134.1z"/>
		<g>
			<path class="st10" d="M66.8,132.9l21.1,7.6c1.3,0.5,2.8,0.2,3.9-0.7l35.6-30.2l5.1-4.3c1.2-1,0.8-2.9-0.6-3.4l-21-7.6
				c-1.3-0.5-2.8-0.2-3.9,0.7l-6,5.1l-34.8,29.5C65.1,130.6,65.4,132.4,66.8,132.9z"/>
			<path class="st11" d="M66.8,132.9l3.2,1.1l45.1-38.2l-4.2-1.5c-1.3-0.5-2.8-0.2-3.9,0.7l-6,5.1l-34.8,29.5
				C65.1,130.6,65.4,132.4,66.8,132.9z"/>
			
				<linearGradient id="SVGID_2_" gradientUnits="userSpaceOnUse" x1="101.05" y1="-50.7796" x2="133.3126" y2="-50.7796" gradientTransform="matrix(1 0 0 -1 0 51)">
				<stop  offset="0" style="stop-color:#0045DB"/>
				<stop  offset="1" style="stop-color:#FFA3FF"/>
			</linearGradient>
			<path class="st12" d="M101,100.1l26.4,9.5l5.1-4.3c1.2-1,0.8-2.9-0.6-3.4l-21-7.6c-1.3-0.5-2.8-0.2-3.9,0.7L101,100.1z"/>
			<g>
				<g>
					<path class="st13" d="M76.3,133.4l0.3-0.3c0.1-0.1,0.3-0.2,0.4-0.2c0.2,0,0.3,0,0.5,0.1c0.1,0.1,0.2,0.1,0.3,0.2s0.1,0.1,0,0.2
						l0,0c0.1,0,0.2-0.1,0.3-0.1c0.1,0,0.3,0.1,0.4,0.1c0.2,0.1,0.3,0.2,0.4,0.3c0,0.1,0,0.2-0.1,0.3l-0.4,0.3L76.3,133.4z
						 M77.3,133.6L77.3,133.6c0.2-0.1,0.2-0.2,0.1-0.2c0,0-0.1-0.1-0.2-0.1c-0.1,0-0.2-0.1-0.2-0.1c-0.1,0-0.1,0-0.2,0.1h0
						L77.3,133.6z M77.6,133.8l0.6,0.3l0.1-0.1c0.1,0,0.1-0.1,0-0.1c0,0-0.1-0.1-0.2-0.2C77.9,133.6,77.8,133.6,77.6,133.8
						L77.6,133.8z"/>
					<path class="st13" d="M79.3,132.3c0.4,0.2,0.6,0.4,0.7,0.5c0.1,0.2,0.1,0.3-0.1,0.5c-0.2,0.1-0.4,0.2-0.7,0.2s-0.6-0.1-1-0.3
						c-0.4-0.2-0.6-0.4-0.7-0.5c-0.1-0.2-0.1-0.3,0.1-0.5c0.2-0.1,0.4-0.2,0.7-0.2S78.8,132.1,79.3,132.3z M78.6,132.9
						c0.3,0.1,0.5,0.2,0.6,0.2c0.2,0,0.3,0,0.4,0c0.2-0.1,0-0.3-0.5-0.6s-0.8-0.3-1-0.2c-0.1,0.1-0.1,0.1,0,0.2
						C78.1,132.6,78.3,132.8,78.6,132.9z"/>
					<path class="st13" d="M81.1,132.1l-0.6-0.2l-0.4,0.3l0.5,0.3l-0.3,0.2l-1.9-1.4l0.3-0.3l2.6,0.8L81.1,132.1z M80.1,131.8
						l-0.6-0.2c0,0-0.1,0-0.3-0.1c-0.1,0-0.2-0.1-0.3-0.1c0.1,0,0.2,0.1,0.3,0.2s0.3,0.2,0.6,0.4L80.1,131.8z"/>
					<path class="st13" d="M80.9,131.1l0.9,0.4l-0.3,0.2l-2.2-1.1l0.3-0.3c0.1-0.1,0.3-0.2,0.5-0.2c0.2,0,0.4,0,0.6,0.2
						c0.3,0.1,0.4,0.3,0.4,0.4l1.2,0.3l-0.3,0.2L80.9,131.1L80.9,131.1z M80.6,130.9L80.6,130.9c0.1-0.1,0.1-0.2,0.1-0.2
						s-0.1-0.1-0.2-0.2c-0.1-0.1-0.2-0.1-0.3-0.1c-0.1,0-0.1,0-0.2,0.1l-0.1,0.1L80.6,130.9z"/>
					<path class="st13" d="M82.3,129.6c0.4,0.2,0.6,0.4,0.7,0.5c0.1,0.2,0.1,0.3-0.1,0.5l-0.3,0.3l-2.2-1.1l0.4-0.3
						c0.2-0.1,0.4-0.2,0.7-0.2C81.6,129.4,81.8,129.4,82.3,129.6z M81.9,129.9c-0.5-0.2-0.8-0.3-1-0.2l-0.1,0.1l1.5,0.7l0.1-0.1
						c0.1-0.1,0.1-0.2,0-0.3C82.4,130.1,82.3,130.1,81.9,129.9z"/>
					<path class="st13" d="M83.6,130.1l-2.2-1.1l0.2-0.2l2.2,1.1L83.6,130.1z"/>
					<path class="st13" d="M85.1,128.8l-0.3,0.3l-2-0.4l0,0c0.1,0,0.3,0.1,0.4,0.2l1.2,0.6l-0.2,0.2l-2.2-1.1l0.3-0.3l2,0.4l0,0
						c-0.1,0-0.2-0.1-0.4-0.2l-1.2-0.6l0.2-0.2L85.1,128.8z"/>
					<path class="st13" d="M84.6,127.6l0.4-0.4l1.1,0.6c0,0.1-0.1,0.3-0.3,0.4c-0.2,0.1-0.4,0.2-0.7,0.2s-0.6-0.1-1-0.3
						c-0.4-0.2-0.6-0.4-0.7-0.5c-0.1-0.2-0.1-0.3,0.1-0.5c0.1-0.1,0.3-0.2,0.4-0.2l0.3,0.2c-0.1,0-0.3,0.1-0.3,0.1
						c-0.1,0.1-0.1,0.2,0,0.3c0.1,0.1,0.2,0.2,0.5,0.4c0.2,0.1,0.5,0.2,0.6,0.2c0.2,0,0.3,0,0.4-0.1l0.1-0.1l-0.5-0.3l-0.2,0.1
						L84.6,127.6z"/>
					<path class="st13" d="M86,125.8c0.2,0.1,0.4,0.2,0.4,0.4c0.1,0.1,0,0.2-0.1,0.4l-0.1,0.1l0.8,0.4l-0.2,0.1l-2.2-1.1l0.3-0.3
						C85.3,125.7,85.6,125.7,86,125.8z M85.9,126.4L85.9,126.4c0.1-0.1,0.1-0.1,0.1-0.2s-0.1-0.1-0.2-0.2c-0.1-0.1-0.2-0.1-0.3-0.1
						s-0.2,0-0.2,0.1l-0.1,0.1L85.9,126.4z"/>
					<path class="st13" d="M88.3,125.9l-0.6-0.2l-0.4,0.3l0.5,0.3l-0.3,0.2l-1.9-1.4l0.3-0.3l2.6,0.8L88.3,125.9z M87.3,125.7
						l-0.6-0.2c0,0-0.1,0-0.3-0.1c-0.1,0-0.2-0.1-0.3-0.1c0.1,0,0.2,0.1,0.3,0.2c0.1,0.1,0.3,0.2,0.6,0.4L87.3,125.7z"/>
					<path class="st13" d="M88.8,124.8c0.2,0.1,0.3,0.2,0.4,0.3c0,0.1,0,0.2-0.1,0.3c-0.1,0.1-0.3,0.2-0.4,0.2l-0.4-0.2
						c0.2,0,0.4-0.1,0.4-0.2c0,0,0.1-0.1,0-0.1l-0.1-0.1c-0.1,0-0.2-0.1-0.2-0.1c-0.1,0-0.2,0-0.3,0c-0.1,0-0.2,0-0.3,0
						c-0.1,0-0.2,0-0.3,0c-0.1,0-0.2-0.1-0.3-0.1c-0.2-0.1-0.3-0.2-0.4-0.3c0-0.1,0-0.2,0.1-0.3c0.1-0.1,0.3-0.1,0.4-0.2l0.2,0.2
						c-0.1,0-0.1,0-0.2,0s-0.1,0-0.1,0.1c0,0-0.1,0.1,0,0.1l0.1,0.1c0.1,0,0.2,0.1,0.2,0.1c0.1,0,0.2,0,0.3,0c0.2,0,0.3,0,0.5,0
						C88.4,124.8,88.7,124.8,88.8,124.8z"/>
					<path class="st13" d="M89.5,124.2c0.2,0.1,0.3,0.2,0.4,0.3c0,0.1,0,0.2-0.1,0.3c-0.1,0.1-0.3,0.2-0.4,0.2l-0.4-0.2
						c0.2,0,0.4-0.1,0.4-0.2c0,0,0.1-0.1,0-0.1l-0.1-0.1l-0.2-0.1c-0.1,0-0.2,0-0.3,0c-0.1,0-0.2,0-0.3,0c-0.1,0-0.2,0-0.3,0
						c-0.1,0-0.2-0.1-0.3-0.1c-0.2-0.1-0.3-0.2-0.4-0.3c0-0.1,0-0.2,0.1-0.3c0.1-0.1,0.3-0.1,0.4-0.2l0.2,0.2c-0.1,0-0.1,0-0.2,0
						s-0.1,0-0.1,0.1v0.1l0.1,0.1c0.1,0,0.2,0.1,0.2,0.1c0.1,0,0.2,0,0.3,0c0.2,0,0.3,0,0.5,0C89.3,124.1,89.4,124.2,89.5,124.2z"/>
				</g>
			</g>
			<g>
				<path class="st10" d="M87.5,117.8l-0.9-0.2l-0.7,0.6l0.6,0.5l-0.5,0.4l-2.2-2l0.7-0.6l3.6,0.9L87.5,117.8z M86.2,117.4l-0.8-0.2
					c-0.1,0-0.2,0-0.4-0.1s-0.3-0.1-0.4-0.1c0.1,0.1,0.2,0.2,0.3,0.2c0.1,0.1,0.3,0.3,0.7,0.6L86.2,117.4z"/>
				<path class="st10" d="M85.6,115.8c-0.1,0-0.1-0.1-0.1-0.2s0-0.1,0.1-0.2c0.1-0.1,0.2-0.1,0.3-0.1s0.2,0,0.3,0
					c0.1,0,0.1,0.1,0.1,0.2s0,0.1-0.1,0.2s-0.2,0.1-0.3,0.1C85.8,115.8,85.6,115.8,85.6,115.8z M88.8,116.8l-0.5,0.4l-2.2-1.1
					l0.5-0.4L88.8,116.8z"/>
				<path class="st10" d="M88.8,115.3l1.1,0.6l-0.5,0.4l-2.9-1.4l0.7-0.6c0.3-0.2,0.6-0.4,0.8-0.4c0.3,0,0.6,0,0.8,0.1
					c0.4,0.2,0.5,0.4,0.4,0.7l1.8,0.2l-0.6,0.5L88.8,115.3L88.8,115.3z M88.3,115.2L88.3,115.2c0.2-0.2,0.3-0.3,0.3-0.4
					c0-0.1-0.1-0.2-0.2-0.2c-0.1-0.1-0.3-0.1-0.4-0.1s-0.2,0.1-0.4,0.2l-0.1,0.1L88.3,115.2z"/>
				<path class="st10" d="M93.2,113.2l-0.5,0.4l-2.4-1.2l-0.5,0.4l-0.5-0.2l1.6-1.3l0.5,0.2l-0.5,0.4L93.2,113.2z"/>
				<path class="st10" d="M94,112.4l-2.9-1.4l0.5-0.4l2.9,1.4L94,112.4z"/>
				<path class="st10" d="M93.7,109.6c-0.1,0.1-0.2,0.3-0.1,0.4c0.1,0.2,0.3,0.3,0.6,0.5c0.7,0.3,1.2,0.4,1.5,0.1
					c0.1-0.1,0.3-0.3,0.3-0.5l0.5,0.2c0,0.2-0.2,0.3-0.4,0.5c-0.3,0.3-0.7,0.4-1.1,0.4s-0.9-0.1-1.3-0.3c-0.5-0.2-0.7-0.5-0.8-0.8
					c-0.1-0.3,0-0.5,0.3-0.8c0.1-0.1,0.2-0.2,0.3-0.2c0.1-0.1,0.3-0.1,0.5-0.2l0.3,0.4c-0.1,0-0.2,0.1-0.3,0.1
					C93.8,109.3,93.7,109.4,93.7,109.6z"/>
				<path class="st10" d="M98.7,108.6l-0.6,0.5l-1.7-0.2v0.3l1,0.5l-0.5,0.4l-2.9-1.4l0.5-0.4l1.4,0.7l-0.2-0.4l-0.5-0.9l0.6-0.5
					l0.6,1.2L98.7,108.6z"/>
				<path class="st10" d="M100.3,107.3l-1.3,1.1l-2.9-1.4l1.3-1.1l0.5,0.2l-0.7,0.6l0.7,0.3l0.7-0.6l0.5,0.2l-0.8,0.7l0.8,0.4
					l0.7-0.6L100.3,107.3z"/>
				<path class="st10" d="M101.4,106.2l-0.5,0.4l-2.4-1.2l-0.5,0.4l-0.5-0.2l1.6-1.3l0.5,0.2l-0.5,0.4L101.4,106.2z"/>
			</g>
			<g>
				<polygon class="st13" points="87.3,129.6 96.4,132.9 99.8,130.1 101.3,128.9 102.3,127.9 103.8,126.8 94.7,123.4 92.2,125.7 
					91.3,126.4 89.8,127.6 88.8,128.6 				"/>
				<polygon class="st10" points="88.8,128.6 91.8,129.6 92.4,128.9 92.9,128.6 89.8,127.6 				"/>
				<polygon class="st10" points="98.7,129.8 99.8,130.1 101.3,128.9 100,128.4 				"/>
				<polygon class="st10" points="93.8,126.3 96.4,124.1 99.7,125.3 97,127.4 				"/>
				<polygon class="st10" points="93.8,131.6 95.8,129.9 98.2,130.8 96.3,132.4 				"/>
				<polygon class="st10" points="94.2,128.6 95,127.8 96.2,128.1 95.3,128.9 				"/>
				<polygon class="st10" points="91.3,126.4 92.9,127.1 93.5,126.6 93.8,126.3 92.2,125.7 				"/>
				<polygon class="st10" points="98.3,127.8 99.2,127.1 100.9,127.8 100,128.4 				"/>
				<polygon class="st10" points="92.2,130.3 93,129.4 94.2,129.9 93.3,130.6 				"/>
				<polygon class="st10" points="95.3,129.8 95.7,129.4 96.3,129.6 95.8,129.9 				"/>
				<polygon class="st10" points="94.4,127.6 94.9,127.2 95.4,127.3 95,127.8 				"/>
				<polygon class="st10" points="94.2,129.9 94.7,129.6 95.2,129.8 94.8,130.1 				"/>
				<polygon class="st13" points="92.8,130.1 93.2,129.8 93.8,129.9 93.3,130.4 				"/>
				<polygon class="st10" points="100.4,127.3 101.9,126.1 103.8,126.8 102.3,127.9 				"/>
				<polygon class="st13" points="101.3,127.3 102.2,126.6 103,126.9 102.3,127.6 				"/>
				<polygon class="st10" points="95.4,129.3 95.7,129.1 95.8,129.1 95.7,129.4 				"/>
				<polygon class="st10" points="94.9,129.4 95.2,129.1 95.4,129.3 95.3,129.4 				"/>
				<polygon class="st10" points="94.9,129.1 95.2,128.9 95.3,128.9 95.2,129.1 				"/>
				<polygon class="st10" points="96.2,128.1 97,127.4 98.2,127.8 97.3,128.6 				"/>
				<polygon class="st13" points="94.8,131.4 95.8,130.4 97.3,130.9 96.2,131.9 				"/>
				<polygon class="st13" points="89,129.4 90.3,128.4 91.7,128.9 90.4,129.9 				"/>
				<polygon class="st13" points="91.7,128.8 92.8,127.8 94.3,128.3 93.2,129.3 				"/>
				<polygon class="st13" points="95.9,126.2 97.2,125.3 98.5,125.8 97.4,126.7 				"/>
				<polygon class="st13" points="94.5,126.3 96.9,124.3 98.3,124.8 95.9,126.8 				"/>
				<polygon class="st13" points="89.9,128.1 92.3,126.1 93.8,126.6 91.3,128.6 				"/>
			</g>
			<g>
				<polygon class="st13" points="103.5,111.7 110.3,105.9 111.4,106.4 104.8,112.2 				"/>
				<polygon class="st13" points="107.9,113.3 114.8,107.6 115.3,107.8 108.4,113.4 				"/>
				<polygon class="st13" points="109.3,113.8 116.2,108.1 116.7,108.3 109.8,113.9 				"/>
				<polygon class="st13" points="110.8,114.3 117.5,108.6 118,108.8 111.3,114.4 				"/>
				<polygon class="st13" points="118.7,112.8 121.8,110.2 122.3,110.3 119.2,112.9 				"/>
			</g>
			<g>
				<polygon class="st13" points="94.8,119.1 101.5,113.3 102.8,113.8 96,119.4 				"/>
				<polygon class="st10" points="68.6,131.3 75.3,125.6 76.4,125.9 69.6,131.6 				"/>
				<polygon class="st13" points="99.3,120.7 106,114.9 106.5,115.2 99.8,120.8 				"/>
				<polygon class="st13" points="100.8,121.2 107.4,115.4 107.9,115.7 101.3,121.3 				"/>
				<polygon class="st13" points="102.2,121.7 108.8,115.9 109.3,116.2 102.7,121.8 				"/>
				<polygon class="st13" points="110,120.1 113.2,117.4 113.7,117.7 110.5,120.3 				"/>
			</g>
			<g>
				<polygon class="st13" points="81.8,135.4 86.5,131.4 87,131.4 82.3,135.6 				"/>
				<polygon class="st13" points="83.1,135.9 87.9,131.9 88.4,132.1 83.6,136.1 				"/>
				<polygon class="st13" points="84.6,136.4 89.3,132.4 89.8,132.6 85.1,136.6 				"/>
				<polygon class="st13" points="85.8,136.9 90.8,132.9 91.3,133.1 86.3,137.1 				"/>
				<polygon class="st13" points="87.3,137.4 92.2,133.4 92.7,133.4 87.8,137.6 				"/>
				<polygon class="st13" points="90.5,136.4 93.7,133.9 94.2,134.1 91,136.6 				"/>
			</g>
			<g>
				<polygon class="st14" points="129.9,103.9 118,99.7 117.4,100.2 129.3,104.4 				"/>
				<polygon class="st14" points="128.3,105.3 116.4,101.1 115.8,101.6 127.7,105.8 				"/>
			</g>
			<polygon class="st14" points="111.5,100.1 113.8,98.2 110.7,97.1 108.4,98.8 			"/>
		</g>
	</g>
	<g>
		
			<linearGradient id="XMLID_5_" gradientUnits="userSpaceOnUse" x1="624.632" y1="-42.5136" x2="627.8408" y2="-36.8449" gradientTransform="matrix(-0.9251 -0.2114 0.1028 -0.8609 740.2168 156.4792)">
			<stop  offset="0.1656" style="stop-color:#363636"/>
			<stop  offset="0.1676" style="stop-color:#646464"/>
			<stop  offset="0.5343" style="stop-color:#646464"/>
			<stop  offset="0.542" style="stop-color:#626262"/>
			<stop  offset="0.5433" style="stop-color:#606060"/>
			<stop  offset="0.8043" style="stop-color:#606060"/>
			<stop  offset="0.8473" style="stop-color:#606060"/>
			<stop  offset="0.8483" style="stop-color:#646464"/>
		</linearGradient>
		<path id="XMLID_33910_" class="st15" d="M155,61.7l-1.9-5.3l4.4-1.5l0,0c0.3-0.1,0.8,0.1,1.2,0.5c0.9,0.9,1.1,2.4,1,3.6
			c-0.1,0.9-0.7,1.3-1.5,1.6l0,0l0,0l0,0L155,61.7z"/>
		<g id="XMLID_33895_">
			<path id="XMLID_33909_" class="st16" d="M65.1,66.9l3.4,9.3l2.1-0.7c0,0,0,0,0.1,0l1.2-0.4l2.2-0.7l0,0h0.1
				c1.3-0.4,3-1.5,3.1-2.5v-0.3c0.1-1.9-0.7-4.4-2-5.9c-0.1-0.1-0.2-0.3-0.4-0.4c-0.8-0.8-1.5-1-2.1-0.8l0,0l-0.3,0.1l0,0l-5.2,1.7
				L65.1,66.9z"/>
			<path id="XMLID_33908_" class="st17" d="M67.3,66.2c0.4,0.2,0.7,0.3,1.1,0.7c0.4,0.4,0.6,0.8,0.9,1.3c0.5,1,0.8,2.1,1,3.1
				c0.1,0.5,0.2,1,0.3,1.5c0,0.5,0,1,0.1,1.5c0,0.1-0.1,1.2-0.1,1.3c0,0,0,0,0.1,0c0.2-0.1,1-0.3,1.2-0.3c0.1,0,0.1-0.1,0.1-0.1
				c0-0.2-0.2-0.5-0.1-0.6c0.5-0.2,1.1-0.4,1.6-0.5c0.5-0.2,1.1-0.3,1.6-0.5c0.8-0.3,1.6-0.9,2.1-1.6c0.1-0.1,0.1-0.2,0.2-0.3
				c0.2-0.4,0.4-0.8,0.4-1.3c-0.1-0.7-0.3-1.4-0.6-2.1c-0.3-0.6-0.6-1.2-1-1.7c-0.2-0.3-0.5-0.6-0.8-0.8c-0.8-0.7-1.8-1.1-2.8-1.1
				l0,0L67.3,66.2z"/>
			
				<linearGradient id="XMLID_6_" gradientUnits="userSpaceOnUse" x1="65.05" y1="-20.02" x2="72.4975" y2="-20.02" gradientTransform="matrix(1 0 0 -1 0 51)">
				<stop  offset="0" style="stop-color:#0045DB"/>
				<stop  offset="1" style="stop-color:#FFA3FF"/>
			</linearGradient>
			<path id="XMLID_33907_" class="st18" d="M65.1,66.9l3.5-1.1l0,0c0.6-0.2,1.4,0.1,2.1,0.9c1.6,1.5,2,4.2,1.8,6.4
				c-0.2,1.6-1.2,2.3-2.6,2.7l0,0l0,0l0,0l-1.4,0.4L65.1,66.9z"/>
			
				<linearGradient id="XMLID_7_" gradientUnits="userSpaceOnUse" x1="63.8837" y1="-20.55" x2="69.6316" y2="-20.55" gradientTransform="matrix(1 0 0 -1 0 51)">
				<stop  offset="0" style="stop-color:#0045DB"/>
				<stop  offset="1" style="stop-color:#FFA3FF"/>
			</linearGradient>
			<path id="XMLID_33906_" class="st19" d="M63.9,68.8c-0.3,2.1,0.8,5,2.4,6.6c1.6,1.5,3,1.1,3.3-1c0.3-2.1-0.8-5-2.4-6.6
				C65.6,66.3,64.1,66.7,63.9,68.8z"/>
			<path id="XMLID_33905_" class="st20" d="M64.1,68.9c-0.3,2,0.8,4.9,2.3,6.3c1.5,1.5,2.9,1,3.2-1c0.3-2-0.8-4.9-2.3-6.3
				C65.8,66.4,64.3,66.8,64.1,68.9z"/>
			<g id="XMLID_33896_">
				<path id="XMLID_33904_" class="st21" d="M64.6,69.6c-0.2,1.6,0.6,3.8,1.8,4.9c1.2,1.1,2.3,0.8,2.5-0.8s-0.6-3.8-1.8-4.9
					C65.9,67.7,64.8,67.9,64.6,69.6z"/>
				<path id="XMLID_33903_" class="st22" d="M64.8,69.7c-0.2,1.5,0.6,3.5,1.6,4.6c1.1,1.1,2.1,0.7,2.3-0.7c0.2-1.5-0.6-3.5-1.6-4.6
					C65.9,67.9,64.9,68.3,64.8,69.7z"/>
				<path id="XMLID_33902_" class="st23" d="M67.1,68.9c1.1,1.1,1.8,3.1,1.6,4.6c0,0.2-0.1,0.4-0.1,0.6l-1.7,0.6
					c-0.2-0.1-0.3-0.2-0.5-0.4c-1.1-1-1.8-3-1.6-4.5L67.1,68.9z"/>
				<path id="XMLID_33901_" class="st24" d="M68.1,70.6c0.3,0.7,0.6,1.5,0.6,2.3l-2.8,0.9c-0.4-0.6-0.8-1.4-1-2.2L68.1,70.6z"/>
				<path id="XMLID_33900_" class="st25" d="M68.1,70.6c0.3,0.7,0.6,1.5,0.6,2.3l-2.8,0.9c-0.4-0.6-0.8-1.4-1-2.2L68.1,70.6z"/>
				<path id="XMLID_33899_" class="st23" d="M65.4,69.8c-0.1,1.2,0.4,2.8,1.3,3.6c0.9,0.8,1.7,0.6,1.8-0.6c0.1-1.2-0.4-2.8-1.3-3.6
					C66.4,68.4,65.6,68.7,65.4,69.8z"/>
				<path id="XMLID_33898_" class="st20" d="M65.8,70.1c-0.1,1,0.4,2.4,1.1,3.1c0.7,0.7,1.4,0.5,1.6-0.5c0.1-1-0.4-2.4-1.1-3.1
					C66.6,68.8,65.8,69.1,65.8,70.1z"/>
				<path id="XMLID_33897_" class="st23" d="M66.4,71.3c0,0.2,0.1,0.6,0.3,0.7c0.2,0.2,0.3,0.1,0.4-0.1c0-0.2-0.1-0.6-0.3-0.7
					C66.6,71.1,66.6,71.1,66.4,71.3z"/>
			</g>
		</g>
		<g id="XMLID_33880_">
			<path id="XMLID_33894_" class="st16" d="M56.9,64.7l-3.2-8.8l7.4-2.4l0,0c0.6-0.2,1.3,0.1,2,0.8c1.5,1.5,2.5,4.2,2.2,6.2
				c-0.1,1-1.7,2-2.9,2.4l0,0l0,0l0,0L56.9,64.7z"/>
			<path id="XMLID_33893_" class="st26" d="M63.8,58.5c-0.2-0.6-0.5-1.2-0.8-1.7c-0.4-0.6-0.8-1.1-1.3-1.5c-0.4-0.3-0.9-0.5-1.4-0.7
				c-0.3-0.1-0.6-0.6-1-0.6c-0.2,0-1.3,0.2-1.2,0.5c0,0.1,0.4,0.3,0.5,0.4c0.2,0.2,0.4,0.5,0.5,0.8c0.6,1.1,0.9,1.9,1.1,3.5
				c0.1,0.7,0.1,1.4,0.1,2.1c0,0.6,0,1.9-0.3,2.3c0.1-0.1,0.8-0.3,0.9-0.3c0.3,0,1-0.2,1.3-0.2c0.6,0,0.3-0.4,0.8-0.9
				C63.8,61.5,64.1,59.8,63.8,58.5z"/>
			
				<linearGradient id="XMLID_8_" gradientUnits="userSpaceOnUse" x1="53.55" y1="-8.6196" x2="60.5979" y2="-8.6196" gradientTransform="matrix(1 0 0 -1 0 51)">
				<stop  offset="0" style="stop-color:#0045DB"/>
				<stop  offset="1" style="stop-color:#FFA3FF"/>
			</linearGradient>
			<path id="XMLID_33892_" class="st27" d="M53.5,55.8l3.3-1.1l0,0c0.6-0.2,1.3,0.1,2,0.8c1.5,1.5,1.9,4,1.7,6
				c-0.1,1.5-1.2,2.2-2.4,2.6l0,0l0,0l0,0l-1.3,0.4L53.5,55.8z"/>
			
				<linearGradient id="XMLID_11_" gradientUnits="userSpaceOnUse" x1="52.6555" y1="-9.1717" x2="58.0957" y2="-9.1717" gradientTransform="matrix(1 0 0 -1 0 51)">
				<stop  offset="0" style="stop-color:#0045DB"/>
				<stop  offset="1" style="stop-color:#FFA3FF"/>
			</linearGradient>
			<path id="XMLID_33891_" class="st28" d="M52.6,57.5c-0.2,2,0.8,4.8,2.2,6.2c1.5,1.5,2.9,1,3.1-1c0.2-2-0.8-4.8-2.2-6.2
				C54.3,55.2,52.9,55.5,52.6,57.5z"/>
			<path id="XMLID_33890_" class="st20" d="M52.8,57.7c-0.2,1.9,0.7,4.6,2.1,6s2.8,1,3-0.9s-0.7-4.6-2.1-6
				C54.3,55.3,53,55.8,52.8,57.7z"/>
			<g id="XMLID_33881_">
				<path id="XMLID_33889_" class="st21" d="M53.3,58.3c-0.2,1.5,0.6,3.6,1.7,4.6c1.1,1.1,2.2,0.8,2.3-0.7c0.2-1.5-0.6-3.6-1.7-4.6
					C54.6,56.5,53.5,56.8,53.3,58.3z"/>
				<path id="XMLID_33888_" class="st22" d="M53.5,58.5c-0.2,1.4,0.5,3.3,1.6,4.3c1,1,2,0.7,2.2-0.7s-0.5-3.3-1.6-4.3
					C54.6,56.8,53.6,57,53.5,58.5z"/>
				<path id="XMLID_33887_" class="st23" d="M55.8,57.8c1,1,1.7,2.9,1.5,4.3c0,0.2-0.1,0.4-0.1,0.5L55.6,63
					c-0.2-0.1-0.3-0.2-0.5-0.4c-1-1-1.7-2.9-1.6-4.3L55.8,57.8z"/>
				<path id="XMLID_33886_" class="st24" d="M56.6,59.2c0.3,0.7,0.5,1.5,0.6,2.2l-2.6,0.9c-0.4-0.6-0.8-1.3-0.9-2L56.6,59.2z"/>
				<path id="XMLID_33885_" class="st25" d="M56.6,59.2c0.3,0.7,0.5,1.5,0.6,2.2l-2.6,0.9c-0.4-0.6-0.8-1.3-0.9-2L56.6,59.2z"/>
				<path id="XMLID_33884_" class="st23" d="M54.1,58.5c-0.1,1.1,0.4,2.6,1.2,3.4c0.8,0.8,1.6,0.6,1.7-0.5c0.1-1.1-0.4-2.6-1.2-3.4
					C55,57.3,54.3,57.5,54.1,58.5z"/>
				<path id="XMLID_33883_" class="st20" d="M54.4,58.8c-0.1,0.9,0.4,2.3,1.1,3c0.7,0.7,1.4,0.5,1.5-0.5c0.1-0.9-0.4-2.3-1.1-3
					S54.5,57.8,54.4,58.8z"/>
				<path id="XMLID_33882_" class="st23" d="M55.1,60c0,0.2,0.1,0.5,0.3,0.7s0.3,0.1,0.4-0.1c0-0.2-0.1-0.5-0.3-0.7
					S55.1,59.8,55.1,60z"/>
			</g>
		</g>
		<g id="XMLID_33873_">
			<g id="XMLID_33874_">
				
					<linearGradient id="XMLID_12_" gradientUnits="userSpaceOnUse" x1="43.65" y1="-10.75" x2="94.45" y2="-10.75" gradientTransform="matrix(1 0 0 -1 0 51)">
					<stop  offset="4.106571e-03" style="stop-color:#007CC0"/>
					<stop  offset="0.9952" style="stop-color:#07C9EA"/>
				</linearGradient>
				<path id="XMLID_33879_" class="st29" d="M94.4,63.5l-15,14.5L43.6,46.8l0.4-1.3C44,45.5,94.4,63.3,94.4,63.5z"/>
				<path id="XMLID_33878_" class="st30" d="M88.8,81.1L44,45.5l10.3-3l26,14.1l21.2,10.4C101.4,67.1,114.4,61.8,88.8,81.1z"/>
				<polygon id="XMLID_33876_" class="st31" points="51.4,43.3 99.7,76.8 88,79.2 47.8,44.5 				"/>
				<polygon id="XMLID_33875_" class="st32" points="87.8,78.1 47.8,44.5 44,45.5 80.3,77.1 				"/>
			</g>
		</g>
		<path id="XMLID_33872_" class="st33" d="M48.8,95.3c0,0.2,0,0.5,0,0.8c0.1,0.8,0.5,1.7,1.1,2.3c0.4,0.4,0.8,0.7,1.3,0.9
			c0.3,0.2,0.7,0.3,1,0.4l0,0c0.1,0,0.2,0.1,0.3,0.1c0.1,0,0.1,0,0.2,0.1c0.1,0,0.2,0.1,0.3,0.1c0.2,0,0.3,0.1,0.5,0.1
			c2.3,0.4,6.5,1.1,9.1,0.9c1.3-0.1,1.2-1.3,2.3-1.4c0.6,0,1.1-0.1,1.6-0.1c0.1,0,0.3,0,0.4,0l38.7-11l37-12.9l1.5-0.5
			c0.3-0.1,0.7-0.3,1-0.5c0.8-0.4,1.7-0.9,2.4-1.4c1.1-0.7,2.2-1.5,3.2-2.3c0.4-0.3,0.8-0.7,1.2-1.1c0.7-0.6,1.4-1.3,2-2
			c1-1.1,1.8-2.4,2.5-3.8c0.2-0.5,0.4-1,0.6-1.6c0.1-0.3,0.1-0.6,0.2-0.8c0.1-0.1,0.2-0.2,0.3-0.3c0.2-0.1,0.3-0.2,0.4-0.4
			c0.2-0.2,0.3-0.5,0.4-0.7c0-0.1,0-0.2,0-0.3s0-0.1,0-0.2c0-0.1,0-0.2,0-0.2c0-0.2,0-0.3-0.1-0.4c0-0.1,0-0.2-0.1-0.3
			c0-0.1-0.1-0.2-0.1-0.3c0,0,0-0.1-0.1-0.1c0-0.1,0-0.1-0.1-0.2c0-0.1-0.1-0.2-0.2-0.3c0-0.1-0.1-0.1-0.1-0.1l0,0
			c-0.2-0.2-0.6-2.8-4.1-6.1c-0.2-0.2-0.4-0.2-0.6-0.2c-1-0.3-7.2,0.5-8.2,0.5c-0.2,0-0.4,0-0.6,0c-0.1,0-0.3,0-0.4,0
			c-0.4,0-0.8,0-1.2,0.1c-0.1,0-0.2,0-0.3,0c-0.3,0-0.6,0.1-0.9,0.2c0,0,0,0-0.1,0c-0.5,0.1-0.9,0.2-1.4,0.4l-8,2.8L63,79.2
			c-2.4,0.8-4.6,2.2-6.5,4l0,0l-0.1,0.1c-0.1,0.1-0.2,0.2-0.3,0.3c-0.1,0.1-0.2,0.3-0.4,0.4c-0.1,0.1-0.2,0.2-0.3,0.4
			c-0.1,0.1-0.1,0.1-0.2,0.2C55.2,84.7,55,84.8,55,85l-0.1,0.1c0,0-0.1,0.1-0.1,0.2l-0.1,0.1c-0.1,0.2-0.3,0.4-0.4,0.5
			c-0.5,0.7-0.9,1.4-1.3,2.2l-1.8,3l-0.6,1l-0.4,0.6l-0.9,1.4c-0.1,0.2-0.2,0.4-0.2,0.7l0,0C48.8,95.1,48.8,95.2,48.8,95.3
			L48.8,95.3z"/>
		
			<linearGradient id="XMLID_13_" gradientUnits="userSpaceOnUse" x1="49.0056" y1="-29.283" x2="158.45" y2="-29.283" gradientTransform="matrix(1 0 0 -1 0 51)">
			<stop  offset="4.106571e-03" style="stop-color:#007CC0"/>
			<stop  offset="0.9952" style="stop-color:#07C9EA"/>
		</linearGradient>
		<path id="XMLID_33871_" class="st34" d="M49.8,95.3c-1.2,0-0.8,1.2-0.7,1.3c0.1,0.2,2.2,2,2.3,2.1c0.2,0.2,0.5,0.4,0.8,0.5l0,0
			c0,0,0,0,0.1,0c0.1,0.1,0.4,0.2,1,0.4l0,0c0.1,0,0.2,0.1,0.3,0.1c0.2,0,0.3,0.1,0.5,0.1c0.9,0.2,2.1,0.5,3.9,0.8
			c2.8,0.2,5.9-0.1,8.3-0.3c0.7-0.1,1-1,1.6-1l0,0l38.7-11l0,0l37-12.9l1.5-0.5c0,0,12-5.4,13.2-14.3c0-0.2,0-0.4,0.1-0.6l0,0
			l-1.1,0.4l-1.3,3l-10,6.2c0,0-71.1,25.1-79.1,27.1c-4.7,1.2-9.8,0.4-13.1-0.4C51.3,95.9,49.8,95.3,49.8,95.3z"/>
		<path id="XMLID_33870_" class="st35" d="M58.3,82.4c-0.5,0.5,0.3,0.9,0.9,0.9l2.7-0.6l74.2-25.7c0.7-0.2,12.5-3.4,18.3-5.3
			c-0.2-0.1-0.4-0.1-0.6-0.2c-1.3-0.4-2.7-0.5-4-0.5c-1.3,0-7.5,1.1-8.8,1.5L64,79.3C61.9,79.9,60,81.1,58.3,82.4z"/>
		<g id="XMLID_33864_">
			<g id="XMLID_33865_">
				<path id="XMLID_33869_" class="st36" d="M139.9,54.3L139,41c0-0.1,0-0.5,0-0.7l4.1,12.6C142.4,53,140.5,54.2,139.9,54.3z"/>
				
					<linearGradient id="XMLID_14_" gradientUnits="userSpaceOnUse" x1="138.982" y1="4.35" x2="150.463" y2="4.35" gradientTransform="matrix(1 0 0 -1 0 51)">
					<stop  offset="4.106571e-03" style="stop-color:#007CC0"/>
					<stop  offset="0.9952" style="stop-color:#07C9EA"/>
				</linearGradient>
				<path id="XMLID_33868_" class="st37" d="M139.9,54.3l-0.9-14.1c1-1,3.8-1.2,4.2-1.3l7.3,13.5c-0.2,0-0.3,0-0.5,0
					C146.9,52.3,142.8,53.8,139.9,54.3z"/>
				
					<linearGradient id="XMLID_15_" gradientUnits="userSpaceOnUse" x1="140.4632" y1="4.95" x2="147.9184" y2="4.95" gradientTransform="matrix(1 0 0 -1 0 51)">
					<stop  offset="4.106571e-03" style="stop-color:#007CC0"/>
					<stop  offset="0.9952" style="stop-color:#07C9EA"/>
				</linearGradient>
				<path id="XMLID_33867_" class="st38" d="M142.1,53l-1.7-13.5l1.7-0.3l5.8,13.3C145.9,52.5,144,52.7,142.1,53z"/>
				
					<linearGradient id="XMLID_16_" gradientUnits="userSpaceOnUse" x1="138.982" y1="4.05" x2="143.3045" y2="4.05" gradientTransform="matrix(1 0 0 -1 0 51)">
					<stop  offset="4.106571e-03" style="stop-color:#007CC0"/>
					<stop  offset="0.9952" style="stop-color:#07C9EA"/>
				</linearGradient>
				<path id="XMLID_33866_" class="st39" d="M139.1,54.5l-0.2-14.2c0.3-0.4,1.5-0.8,1.5-0.8l2.8,13.3
					C142.3,53,140.3,54.3,139.1,54.5z"/>
			</g>
		</g>
		<path id="XMLID_33863_" class="st35" d="M53.4,87.2L52,89.5c1.2,1.1,3.1,2.6,4.4,3.1c1.7,0.6,3.5,0.7,5.2,0.4l6.1-1.2
			c0.3-0.1,0.6-0.2,0.9-0.3c0.8-0.3,32.9-11.3,33.7-11.6c1.3-0.4,2.6-0.9,3.9-1.3c1.6-0.6,3.3-1.1,4.9-1.7c1.9-0.7,3.7-1.3,5.6-2
			c2-0.7,4-1.4,6-2.1c2-0.7,9.6-3.4,11.7-4.1c2-0.7,4-1.4,6-2.1c1.8-0.6,3.6-1.3,5.5-1.9c1.6-0.5,3.1-1.1,4.7-1.6
			c1.2-0.4,2.4-0.8,3.6-1.3c0.7-0.3,1.5-0.5,2.2-0.8c0.1,0,0.1,0,0.2-0.1c0.2-0.2,1.2-1.2,1-1.5c-0.1-0.2-2.3-5.8-4.4-4.7
			c-1.6,0.8-5.3,1.9-5.5,1.9l-42.9,15l-3,1c-4.4,1.3-39.5,12.9-42.2,12.8c-3-0.1-3.1-2.3-3.1-2.3c-0.7,0.7-1.2,1.3-1.3,1.5
			C54.8,85.3,53.8,86.3,53.4,87.2z"/>
		
			<linearGradient id="XMLID_17_" gradientUnits="userSpaceOnUse" x1="67.95" y1="-29.1" x2="158.35" y2="-29.1" gradientTransform="matrix(1 0 0 -1 0 51)">
			<stop  offset="0" style="stop-color:#0045DB"/>
			<stop  offset="1" style="stop-color:#FFA3FF"/>
		</linearGradient>
		<path id="XMLID_33862_" class="st40" d="M67.9,99.4l38.7-11l37-12.9l1.5-0.5c0,0,12-5.4,13.2-14.3c-0.7,0.6-1.4,1.4-1.9,2.5
			c-1.6,3.2-8.7,8-9.6,8.9C145.9,73.1,68.6,99.3,67.9,99.4z"/>
		<path id="XMLID_33860_" class="st33" d="M48.8,95.3c0,0.2,0,0.5,0,0.7c1.1,1.8,12.4,1.7,13,1.5c1.4-0.5-8.9-2.6-9.3-3.2
			c-0.3-0.6-0.8-1.1-1.2-1.5c-0.3-0.3-0.7-0.5-1-0.7l-0.4,0.6L49,94.1c-0.1,0.2-0.2,0.4-0.3,0.7l0,0C48.8,95.1,48.8,95.2,48.8,95.3
			L48.8,95.3z"/>
		
			<linearGradient id="XMLID_18_" gradientUnits="userSpaceOnUse" x1="726.0931" y1="-104.0149" x2="724.4881" y2="-97.0597" gradientTransform="matrix(-0.9251 -0.2114 0.1028 -0.8609 740.2168 156.4792)">
			<stop  offset="8.374380e-02" style="stop-color:#00CCFF"/>
			<stop  offset="0.9409" style="stop-color:#01CEFF"/>
		</linearGradient>
		<path id="XMLID_33859_" class="st41" d="M52.5,88.8l0.1,0.3l0.4,1.5l0.1,0.2l1.8,0.5l2.9,0.8l1,0.3l5.2-1c1.6-0.3,2-2.5,0.7-3.9
			l-0.4-0.5l-4.6,0.4l-0.8-0.2L57,86.6l-0.9-0.3l-0.3-0.6l-0.7-1l-1.2,1.5L52.5,88.8z"/>
		
			<linearGradient id="XMLID_19_" gradientUnits="userSpaceOnUse" x1="729.3172" y1="-99.9857" x2="728.8366" y2="-93.1046" gradientTransform="matrix(-0.9251 -0.2114 0.1028 -0.8609 740.2168 156.4792)">
			<stop  offset="8.374380e-02" style="stop-color:#9FEBFF"/>
			<stop  offset="0.9409" style="stop-color:#A0EDFF"/>
		</linearGradient>
		<polygon id="XMLID_33858_" class="st42" points="53.4,87.4 53.3,87.4 54,86.2 55.3,84.7 55.8,85.7 56.1,86.2 57.1,86.6 57.6,86.8 
					"/>
		
			<linearGradient id="XMLID_20_" gradientUnits="userSpaceOnUse" x1="32.2894" y1="-100.8884" x2="46.0538" y2="-100.8884" gradientTransform="matrix(0.9251 0.2114 0.1028 -0.8609 33.0212 -4.9313)">
			<stop  offset="8.374380e-02" style="stop-color:#50BED9"/>
			<stop  offset="0.5979" style="stop-color:#8DDDF1"/>
			<stop  offset="0.9409" style="stop-color:#B1EFFF"/>
		</linearGradient>
		<path id="XMLID_33857_" class="st43" d="M53.3,87.3l0.1,0.2l0.4,1.5l0.1,0.2l1.8,0.5l2.9,0.8l1,0.3l5.2-1c0.2,0,0.4-0.1,0.6-0.3
			c0,0.9-0.5,1.8-1.4,2l-5.2,1l-1-0.3l-2.9-0.8l-1.8-0.5L53,90.6l-0.4-1.5l-0.1-0.3L53.3,87.3z"/>
		<g id="XMLID_33852_">
			
				<linearGradient id="XMLID_21_" gradientUnits="userSpaceOnUse" x1="147.65" y1="-17.85" x2="174.75" y2="-17.85" gradientTransform="matrix(1 0 0 -1 0 51)">
				<stop  offset="0" style="stop-color:#0045DB"/>
				<stop  offset="1" style="stop-color:#FFA3FF"/>
			</linearGradient>
			<path id="XMLID_33856_" class="st44" d="M147.6,65.4l21.6,7.4l5.3-1.6l0.2-0.7l-8.2-1.9l-18.8-3.8
				C147.8,65.2,147.6,65.3,147.6,65.4z"/>
			
				<linearGradient id="XMLID_22_" gradientUnits="userSpaceOnUse" x1="147.75" y1="-15.6981" x2="174.75" y2="-15.6981" gradientTransform="matrix(1 0 0 -1 0 51)">
				<stop  offset="4.106571e-03" style="stop-color:#007CC0"/>
				<stop  offset="0.9952" style="stop-color:#07C9EA"/>
			</linearGradient>
			<path id="XMLID_33855_" class="st45" d="M147.8,64.8l21.5,7.4l5.5-1.6L158,61.2C158,61,150.9,63,147.8,64.8z"/>
			
				<linearGradient id="XMLID_23_" gradientUnits="userSpaceOnUse" x1="147.75" y1="-16.85" x2="171.95" y2="-16.85" gradientTransform="matrix(1 0 0 -1 0 51)">
				<stop  offset="4.106571e-03" style="stop-color:#007CC0"/>
				<stop  offset="0.9952" style="stop-color:#07C9EA"/>
			</linearGradient>
			<polygon id="XMLID_33854_" class="st46" points="172,71.4 150.6,63.5 147.8,64.8 169.3,72.3 			"/>
			
				<linearGradient id="XMLID_24_" gradientUnits="userSpaceOnUse" x1="150.6168" y1="-15.4" x2="173.7168" y2="-15.4" gradientTransform="matrix(1 0 0 -1 0 51)">
				<stop  offset="4.106571e-03" style="stop-color:#007CC0"/>
				<stop  offset="0.9952" style="stop-color:#07C9EA"/>
			</linearGradient>
			<polygon id="XMLID_33853_" class="st47" points="173.8,70.8 156.9,61.3 150.6,63.5 172,71.4 			"/>
		</g>
		
			<linearGradient id="SVGID_3_" gradientUnits="userSpaceOnUse" x1="48.8454" y1="-43.8598" x2="106.6454" y2="-43.8598" gradientTransform="matrix(1 0 0 -1 0 51)">
			<stop  offset="0" style="stop-color:#0045DB"/>
			<stop  offset="1" style="stop-color:#FFA3FF"/>
		</linearGradient>
		<path class="st48" d="M106.5,88.4c-0.3,0-36.7,10.4-38,10.7c-0.3,0.1-0.7,0.2-1.1,0.2c-1.7,0.3-3.4,0.5-5.3,0.2
			c-4.3-0.6-6.5-0.9-8.3-1.1c-1.3-0.2-4-0.7-5.1-2.5c0.1,0.8,0.5,1.7,1.1,2.3c0.4,0.4,0.8,0.7,1.3,0.9c0.3,0.2,0.7,0.3,1,0.4l0,0
			c0.1,0,0.2,0.1,0.3,0.1s0.1,0,0.2,0.1c0.1,0,0.2,0.1,0.3,0.1s0.1,0,0.2,0l0,0c0.9,0.2,2.9,0.4,4.7,0.7c1.5,0.2,3.3,0.5,5.6,0.7
			C69.3,101.8,106.5,88.6,106.5,88.4L106.5,88.4z"/>
		<g id="XMLID_33846_">
			<path id="XMLID_33850_" class="st49" d="M136.4,56.3c0.1,0.1,0.4,0.7,0.7,0.9c0,0,0,0,0.1,0v-0.1l5-1.5l0.7-0.2l6.8-2.1l2.4-0.7
				l1.2-0.3l6.4-27.7l-0.5-0.4l-8.2,2.4L136.4,56.3z"/>
			<polygon id="XMLID_33849_" class="st31" points="137.3,57.3 142.3,55.8 142.9,55.5 149.8,53.5 152.1,52.8 153.4,52.5 154.3,52.2 
				154.4,52.2 159.6,24.8 158.1,25.3 154.8,26.3 151.4,27.3 			"/>
			<polygon id="XMLID_33848_" class="st50" points="137.3,57.3 142.3,55.8 142.9,55.5 154.8,26.3 151.4,27.3 			"/>
			
				<linearGradient id="XMLID_25_" gradientUnits="userSpaceOnUse" x1="152.1354" y1="12.25" x2="159.6689" y2="12.25" gradientTransform="matrix(1 0 0 -1 0 51)">
				<stop  offset="4.106571e-03" style="stop-color:#007CC0"/>
				<stop  offset="0.9952" style="stop-color:#07C9EA"/>
			</linearGradient>
			<polygon id="XMLID_33847_" class="st51" points="152.1,52.8 153.4,52.5 154.3,52.2 159.6,24.8 158.3,24.8 158.1,25.3 			"/>
		</g>
		<g id="XMLID_33830_">
			<path id="XMLID_33845_" class="st52" d="M139.3,115.8l-3.4-9.3l7.8-2.6l0,0c0.6-0.2,1.4,0.1,2.1,0.9c1.6,1.5,2.6,4.5,2.4,6.6
				c-0.1,1-1.8,2.1-3.1,2.5l0,0l0,0l0,0L139.3,115.8z"/>
			<path id="XMLID_33844_" class="st16" d="M136.5,107.3h0.1c0.7-0.2,1.5,0,2.2,0.5c1,0.7,2.7,2,3.7,2.6c2.1,1.3,5.1,1.4,5.3,1.1
				c1.1-1.3-2.7-7-2.7-7c0.2,0.1,0.3,0.3,0.5,0.4c0.8,0.8,1.5,2,1.9,3.2c0.4,1.2,0.6,2.4,0.4,3.4c0,0.4-1,1.1-2.3,1.6l-5.9,1.9
				c-0.3-0.2-0.5-0.4-0.8-0.6c-0.3-0.3-0.6-0.6-0.8-1l-1.8-4.9C136.5,108.1,136.5,107.7,136.5,107.3z"/>
			
				<linearGradient id="XMLID_26_" gradientUnits="userSpaceOnUse" x1="135.85" y1="-59.62" x2="143.2975" y2="-59.62" gradientTransform="matrix(1 0 0 -1 0 51)">
				<stop  offset="0" style="stop-color:#0045DB"/>
				<stop  offset="1" style="stop-color:#FFA3FF"/>
			</linearGradient>
			<path id="XMLID_33843_" class="st53" d="M135.9,106.6l3.5-1.1l0,0c0.6-0.2,1.4,0.1,2.1,0.9c1.6,1.5,2,4.2,1.8,6.4
				c-0.2,1.6-1.2,2.3-2.6,2.7l0,0l0,0l0,0l-1.3,0.4L135.9,106.6z"/>
			
				<linearGradient id="XMLID_27_" gradientUnits="userSpaceOnUse" x1="134.7006" y1="-60.2138" x2="140.4511" y2="-60.2138" gradientTransform="matrix(1 0 0 -1 0 51)">
				<stop  offset="0" style="stop-color:#0045DB"/>
				<stop  offset="1" style="stop-color:#FFA3FF"/>
			</linearGradient>
			<path id="XMLID_33842_" class="st54" d="M134.8,108.4c-0.3,2.1,0.8,5,2.4,6.6c1.6,1.5,3,1.1,3.3-1c0.3-2.1-0.8-5-2.4-6.6
				C136.4,105.8,135,106.3,134.8,108.4z"/>
			<path id="XMLID_33841_" class="st20" d="M134.9,108.6c-0.3,2,0.8,4.9,2.3,6.3c1.5,1.5,2.9,1,3.2-1c0.3-2-0.8-4.9-2.3-6.3
				C136.5,106.1,135.1,106.4,134.9,108.6z"/>
			<g id="XMLID_33831_">
				<path id="XMLID_33840_" class="st21" d="M135.4,109.2c-0.2,1.6,0.6,3.8,1.8,4.9c1.2,1.1,2.3,0.8,2.5-0.8
					c0.2-1.6-0.6-3.8-1.8-4.9S135.6,107.6,135.4,109.2z"/>
				<path id="XMLID_33839_" class="st22" d="M135.6,109.3c-0.2,1.5,0.6,3.5,1.6,4.6c1.1,1.1,2.1,0.7,2.3-0.7
					c0.2-1.5-0.6-3.5-1.6-4.6C136.9,107.6,135.8,107.8,135.6,109.3z"/>
				<path id="XMLID_33838_" class="st23" d="M137.9,108.7c1.1,1.1,1.8,3.1,1.6,4.6c0,0.2-0.1,0.4-0.1,0.6l-1.7,0.5
					c-0.2-0.1-0.3-0.2-0.5-0.4c-1.1-1-1.8-3-1.6-4.5L137.9,108.7z"/>
				<path id="XMLID_33837_" class="st24" d="M138.9,110.2c0.3,0.7,0.6,1.5,0.6,2.3l-2.8,0.9c-0.4-0.6-0.8-1.4-1-2.2L138.9,110.2z"/>
				<path id="XMLID_33835_" class="st25" d="M138.9,110.2c0.3,0.7,0.6,1.5,0.6,2.3l-2.8,0.9c-0.4-0.6-0.8-1.4-1-2.2L138.9,110.2z"/>
				<path id="XMLID_33834_" class="st23" d="M136.3,109.4c-0.1,1.2,0.4,2.8,1.3,3.6c0.9,0.8,1.7,0.6,1.8-0.6s-0.4-2.8-1.3-3.6
					C137.3,108.1,136.4,108.3,136.3,109.4z"/>
				<path id="XMLID_33833_" class="st20" d="M136.5,109.7c-0.1,1,0.4,2.4,1.1,3.1s1.4,0.5,1.6-0.5c0.1-1-0.4-2.4-1.1-3.1
					C137.4,108.4,136.8,108.7,136.5,109.7z"/>
				<path id="XMLID_33832_" class="st23" d="M137.4,110.9c0,0.2,0.1,0.6,0.3,0.7c0.2,0.2,0.3,0.1,0.4-0.1c0-0.2-0.1-0.6-0.3-0.7
					C137.5,110.7,137.4,110.7,137.4,110.9z"/>
			</g>
		</g>
		<g id="XMLID_33805_">
			<path id="XMLID_33829_" class="st52" d="M115.3,103.8l-3.4-9.3l7.8-2.5l0,0c0.6-0.2,1.4,0.1,2.1,0.9c1.6,1.5,2.6,4.5,2.4,6.6
				c-0.1,1-1.8,2.1-3.1,2.5l0,0l0,0l0,0L115.3,103.8z"/>
			<path id="XMLID_33828_" class="st16" d="M112.5,95.3L112.5,95.3c0.8-0.2,1.6,0,2.3,0.5c1,0.7,2.7,1.9,3.7,2.6
				c2.1,1.3,5.1,1.4,5.3,1.1c1.1-1.3-2.7-7-2.7-7c0.2,0.1,0.3,0.3,0.5,0.4c0.8,0.8,1.5,2,1.9,3.2s0.6,2.4,0.4,3.4
				c0,0.4-1,1.1-2.3,1.6l-5.9,1.9c-0.3-0.2-0.5-0.4-0.8-0.6c-0.3-0.3-0.6-0.6-0.8-1l-1.8-4.9C112.5,96.2,112.5,95.7,112.5,95.3z"/>
			
				<linearGradient id="XMLID_28_" gradientUnits="userSpaceOnUse" x1="111.7925" y1="-47.62" x2="119.24" y2="-47.62" gradientTransform="matrix(1 0 0 -1 0 51)">
				<stop  offset="0" style="stop-color:#0045DB"/>
				<stop  offset="1" style="stop-color:#FFA3FF"/>
			</linearGradient>
			<path id="XMLID_33827_" class="st55" d="M111.8,94.6l3.5-1.1l0,0c0.6-0.2,1.4,0.1,2.1,0.9c1.6,1.5,2,4.2,1.8,6.4
				c-0.2,1.6-1.2,2.3-2.6,2.7l0,0l0,0l0,0l-1.3,0.4L111.8,94.6z"/>
			
				<linearGradient id="XMLID_29_" gradientUnits="userSpaceOnUse" x1="110.6694" y1="-48.2284" x2="116.4199" y2="-48.2284" gradientTransform="matrix(1 0 0 -1 0 51)">
				<stop  offset="0" style="stop-color:#0045DB"/>
				<stop  offset="1" style="stop-color:#FFA3FF"/>
			</linearGradient>
			<path id="XMLID_33826_" class="st56" d="M110.8,96.4c-0.3,2.1,0.8,5,2.4,6.6c1.6,1.5,3,1.1,3.3-1s-0.8-5-2.4-6.6
				C112.4,93.8,110.9,94.3,110.8,96.4z"/>
			<path id="XMLID_33815_" class="st20" d="M110.8,96.6c-0.3,2,0.8,4.9,2.3,6.3c1.5,1.5,2.9,1,3.2-1c0.3-2-0.8-4.9-2.3-6.3
				C112.4,94.1,111,94.6,110.8,96.6z"/>
			<g id="XMLID_33806_">
				<path id="XMLID_33814_" class="st21" d="M111.4,97.2c-0.2,1.6,0.6,3.8,1.8,4.9c1.2,1.1,2.3,0.8,2.5-0.8c0.2-1.6-0.6-3.8-1.8-4.9
					C112.8,95.3,111.7,95.6,111.4,97.2z"/>
				<path id="XMLID_33813_" class="st22" d="M111.5,97.3c-0.2,1.5,0.5,3.5,1.6,4.6s2.1,0.7,2.3-0.7c0.2-1.5-0.6-3.5-1.6-4.6
					C112.8,95.6,111.8,95.8,111.5,97.3z"/>
				<path id="XMLID_33812_" class="st23" d="M113.8,96.7c1.1,1.1,1.8,3.1,1.6,4.6c0,0.2-0.1,0.4-0.1,0.6l-1.7,0.4
					c-0.2-0.1-0.3-0.2-0.5-0.4c-1.1-1-1.8-3-1.6-4.5L113.8,96.7z"/>
				<path id="XMLID_33811_" class="st24" d="M114.9,98.2c0.3,0.7,0.6,1.5,0.6,2.3l-2.8,0.9c-0.4-0.6-0.8-1.4-1-2.2L114.9,98.2z"/>
				<path id="XMLID_33810_" class="st25" d="M114.9,98.2c0.3,0.7,0.6,1.5,0.6,2.3l-2.8,0.9c-0.4-0.6-0.8-1.4-1-2.2L114.9,98.2z"/>
				<path id="XMLID_33809_" class="st23" d="M112.3,97.4c-0.1,1.2,0.4,2.8,1.3,3.6c0.9,0.8,1.7,0.6,1.8-0.6c0.1-1.2-0.4-2.8-1.3-3.6
					C113.3,96.1,112.4,96.3,112.3,97.4z"/>
				<path id="XMLID_33808_" class="st20" d="M112.5,97.7c-0.1,1,0.4,2.4,1.1,3.1s1.4,0.5,1.6-0.5c0.1-1-0.4-2.4-1.1-3.1
					C113.3,96.4,112.7,96.7,112.5,97.7z"/>
				<path id="XMLID_33807_" class="st23" d="M113.3,98.9c0,0.2,0.1,0.6,0.3,0.7c0.2,0.2,0.3,0.1,0.4-0.1c0-0.2-0.1-0.6-0.3-0.7
					C113.4,98.7,113.3,98.8,113.3,98.9z"/>
			</g>
		</g>
		<g id="XMLID_33802_">
			
				<linearGradient id="XMLID_30_" gradientUnits="userSpaceOnUse" x1="97.25" y1="-52.95" x2="178.1601" y2="-52.95" gradientTransform="matrix(1 0 0 -1 0 51)">
				<stop  offset="4.106571e-03" style="stop-color:#007CC0"/>
				<stop  offset="0.9952" style="stop-color:#07C9EA"/>
			</linearGradient>
			<path id="XMLID_33804_" class="st57" d="M97.3,88.8l70.7,31.3l9.9-2.9l0.4-1.3l-15.4-3.5L97.3,87.8
				C97.3,88.3,97.3,88.7,97.3,88.8z"/>
			<path id="XMLID_33803_" class="st30" d="M97.3,87.8l70.5,31.3l10.3-3l-38.1-21.4l-20-14.9C120,79.8,103.2,84.3,97.3,87.8z"/>
		</g>
		<polygon id="XMLID_33801_" class="st32" points="103.9,84.8 173.3,117.4 168,119.1 97.3,87.8 		"/>
		<polygon id="XMLID_33800_" class="st31" points="115.2,81.3 176.5,116.6 173.3,117.4 103.9,84.8 		"/>
		<g id="XMLID_33798_">
			<polygon id="XMLID_33799_" class="st35" points="59.5,92.7 59.9,92.8 59.8,86.8 59.3,86.8 			"/>
		</g>
		<g id="XMLID_33796_">
			<polygon id="XMLID_33797_" class="st35" points="52.8,91.3 56.6,85.6 56.3,85.3 52.4,91.1 			"/>
		</g>
		<g id="XMLID_33772_">
			<g id="XMLID_33774_">
				
					<linearGradient id="XMLID_31_" gradientUnits="userSpaceOnUse" x1="733.7155" y1="-108.065" x2="736.3962" y2="-99.5606" gradientTransform="matrix(-0.9251 -0.2114 -2.130000e-02 -0.8402 748.5579 155.2274)">
					<stop  offset="8.374380e-02" style="stop-color:#00CCFF"/>
					<stop  offset="0.9409" style="stop-color:#01CEFF"/>
				</linearGradient>
				<path id="XMLID_33775_" class="st58" d="M69.8,86.2l0.3,1.3v0.2l0.1,0.6l0.1,0.3c0,0.2,0.3,0.4,0.4,0.3l0.9-0.3
					c0.2,0,0.2-0.2,0.2-0.4l0,0l-0.3-1.2l0,0l-0.3-1.2c0-0.2-0.3-0.4-0.4-0.3h-0.1l0,0l-0.8,0.3c-0.1,0-0.1,0.1-0.2,0.2
					C69.8,85.9,69.8,86.1,69.8,86.2z"/>
			</g>
			
				<linearGradient id="XMLID_32_" gradientUnits="userSpaceOnUse" x1="51.0327" y1="-94.3817" x2="52.6964" y2="-94.3817" gradientTransform="matrix(0.9251 0.2114 0.1028 -0.8609 33.0212 -4.9313)">
				<stop  offset="8.374380e-02" style="stop-color:#50BED9"/>
				<stop  offset="0.5979" style="stop-color:#8DDDF1"/>
				<stop  offset="0.9409" style="stop-color:#B1EFFF"/>
			</linearGradient>
			<path id="XMLID_33773_" class="st59" d="M71.3,88.3c0.2,0,0.2-0.2,0.2-0.4l0,0l-0.3-1.2l-0.2-1.2l0,0c0.2-0.1,0.4,0.1,0.4,0.3
				l0.3,1.2l0.3,1.2l0,0c0,0.2-0.1,0.4-0.2,0.4l-0.9,0.4c-0.1,0.1-0.4-0.1-0.4-0.3l0,0L71.3,88.3z"/>
		</g>
		<g id="XMLID_15392_">
			<g id="XMLID_15397_">
				
					<linearGradient id="XMLID_33_" gradientUnits="userSpaceOnUse" x1="729.6739" y1="-105.699" x2="732.3546" y2="-97.1948" gradientTransform="matrix(-0.9251 -0.2114 -2.130000e-02 -0.8402 748.5579 155.2274)">
					<stop  offset="8.374380e-02" style="stop-color:#00CCFF"/>
					<stop  offset="0.9409" style="stop-color:#01CEFF"/>
				</linearGradient>
				<path id="XMLID_33558_" class="st60" d="M73.6,85.1l0.3,1.3v0.2l0.1,0.6l0.1,0.3c0,0.2,0.3,0.4,0.4,0.3l0.9-0.3
					c0.2,0,0.2-0.2,0.2-0.4l0,0l-0.3-1.2l0,0l-0.3-1.2c0-0.2-0.3-0.4-0.4-0.3h-0.1l0,0l-0.8,0.3c-0.1,0-0.1,0.1-0.2,0.2
					C73.6,84.8,73.6,84.8,73.6,85.1z"/>
			</g>
			
				<linearGradient id="XMLID_34_" gradientUnits="userSpaceOnUse" x1="54.7503" y1="-92.0123" x2="56.4139" y2="-92.0123" gradientTransform="matrix(0.9251 0.2114 0.1028 -0.8609 33.0212 -4.9313)">
				<stop  offset="8.374380e-02" style="stop-color:#50BED9"/>
				<stop  offset="0.5979" style="stop-color:#8DDDF1"/>
				<stop  offset="0.9409" style="stop-color:#B1EFFF"/>
			</linearGradient>
			<path id="XMLID_15393_" class="st61" d="M74.9,87.2c0.2,0,0.2-0.2,0.2-0.4l0,0l-0.3-1.3l-0.2-1.2l0,0c0.2-0.1,0.4,0.1,0.4,0.3
				l0.3,1.2l0.3,1.2l0,0c0,0.2-0.1,0.4-0.2,0.4l-0.9,0.3c-0.1,0.1-0.4-0.1-0.4-0.3l0,0L74.9,87.2z"/>
		</g>
		<g id="XMLID_10976_">
			<g id="XMLID_10999_">
				
					<linearGradient id="XMLID_35_" gradientUnits="userSpaceOnUse" x1="723.9734" y1="-102.8831" x2="726.6541" y2="-94.3792" gradientTransform="matrix(-0.9251 -0.2114 -2.130000e-02 -0.8402 748.5579 155.2274)">
					<stop  offset="8.374380e-02" style="stop-color:#00CCFF"/>
					<stop  offset="0.9409" style="stop-color:#01CEFF"/>
				</linearGradient>
				<path id="XMLID_11067_" class="st62" d="M78.8,83.8l0.3,1.3v0.2l0.1,0.6l0.1,0.3c0,0.2,0.3,0.4,0.4,0.3l0.9-0.3
					c0.2,0,0.2-0.2,0.2-0.4l0,0l-0.3-1.2l0,0l-0.3-1.2c0-0.2-0.3-0.4-0.4-0.3h-0.1l0,0l-0.8,0.3c-0.1,0-0.1,0.1-0.2,0.2
					C78.6,83.7,78.6,83.8,78.8,83.8z"/>
			</g>
			
				<linearGradient id="XMLID_36_" gradientUnits="userSpaceOnUse" x1="60.0448" y1="-89.3118" x2="61.7087" y2="-89.3118" gradientTransform="matrix(0.9251 0.2114 0.1028 -0.8609 33.0212 -4.9313)">
				<stop  offset="8.374380e-02" style="stop-color:#50BED9"/>
				<stop  offset="0.5979" style="stop-color:#8DDDF1"/>
				<stop  offset="0.9409" style="stop-color:#B1EFFF"/>
			</linearGradient>
			<path id="XMLID_10997_" class="st63" d="M80.1,85.9c0.2,0,0.2-0.2,0.2-0.4l0,0l-0.3-1.3l-0.2-1.2l0,0c0.2-0.1,0.4,0.1,0.4,0.3
				l0.3,1.2l0.3,1.2l0,0c0,0.2-0.1,0.4-0.2,0.4l-0.9,0.3c-0.1,0.1-0.4-0.1-0.4-0.3l0,0L80.1,85.9z"/>
		</g>
		<path id="XMLID_10942_" class="st64" d="M150.1,44L150.1,44L150.1,44L150.1,44z"/>
		<g id="XMLID_263_">
			<path id="XMLID_1685_" class="st65" d="M77.6,83.2l1,4.8l0.3,3l0.1,0.6c0.1,0.4,0.6,0.8,0.9,0.7l2-0.7c0.4-0.1,0.5-0.4,0.5-0.9
				v-0.1l-0.5-3.7l-0.9-4.6c-0.1-0.4-0.6-0.8-0.9-0.7h-0.1h-0.1l-1.8,0.6c-0.2,0.1-0.3,0.2-0.4,0.3C77.6,82.7,77.4,82.9,77.6,83.2z"
				/>
		</g>
		<g id="XMLID_259_">
			<g id="XMLID_261_">
				
					<linearGradient id="XMLID_37_" gradientUnits="userSpaceOnUse" x1="660.8035" y1="-63.2876" x2="663.4841" y2="-54.7834" gradientTransform="matrix(-0.9251 -0.2114 -2.130000e-02 -0.8402 748.5579 155.2274)">
					<stop  offset="8.374380e-02" style="stop-color:#00CCFF"/>
					<stop  offset="0.9409" style="stop-color:#01CEFF"/>
				</linearGradient>
				<path id="XMLID_262_" class="st66" d="M136.4,64l0.3,1.3v0.2l0.1,0.6l0.1,0.3c0,0.2,0.3,0.4,0.4,0.3l0.9-0.3
					c0.2,0,0.2-0.2,0.2-0.4l0,0l-0.3-1.2l0,0l-0.3-1.2c0-0.2-0.3-0.4-0.4-0.3h-0.1l0,0l-0.8,0.3c-0.1,0-0.1,0.1-0.2,0.2
					C136.3,63.8,136.3,63.8,136.4,64z"/>
			</g>
			
				<linearGradient id="XMLID_38_" gradientUnits="userSpaceOnUse" x1="118.1613" y1="-52.0404" x2="119.8251" y2="-52.0404" gradientTransform="matrix(0.9251 0.2114 0.1028 -0.8609 33.0212 -4.9313)">
				<stop  offset="8.374380e-02" style="stop-color:#50BED9"/>
				<stop  offset="0.5979" style="stop-color:#8DDDF1"/>
				<stop  offset="0.9409" style="stop-color:#B1EFFF"/>
			</linearGradient>
			<path id="XMLID_260_" class="st67" d="M137.8,66.1c0.2,0,0.2-0.2,0.2-0.4l0,0l-0.3-1.2l-0.2-1.2l0,0c0.2-0.1,0.4,0.1,0.4,0.3
				l0.3,1.2l0.3,1.2l0,0c0,0.2-0.1,0.4-0.2,0.4l-0.9,0.3c-0.1,0.1-0.4-0.1-0.4-0.3l0,0L137.8,66.1z"/>
		</g>
		<g id="XMLID_257_">
			<path id="XMLID_258_" class="st65" d="M135.1,63.3l1,4.8l0.3,3l0.1,0.6c0.1,0.4,0.6,0.8,0.9,0.7l2-0.7c0.4-0.1,0.5-0.4,0.5-0.9
				v-0.1l-0.5-3.9l-0.9-4.6c-0.1-0.4-0.6-0.8-0.9-0.7h-0.1h-0.1l-1.8,0.6c-0.2,0.1-0.3,0.2-0.4,0.3C135.1,62.8,135.1,63,135.1,63.3z
				"/>
		</g>
		<g>
			<g id="XMLID_252_">
				<g id="XMLID_254_">
					
						<linearGradient id="XMLID_39_" gradientUnits="userSpaceOnUse" x1="718.5896" y1="-99.2804" x2="721.2703" y2="-90.7762" gradientTransform="matrix(-0.9251 -0.2114 -2.130000e-02 -0.8402 748.5579 155.2274)">
						<stop  offset="8.374380e-02" style="stop-color:#00CCFF"/>
						<stop  offset="0.9409" style="stop-color:#01CEFF"/>
					</linearGradient>
					<path id="XMLID_255_" class="st68" d="M83.6,81.9l0.3,1.3v0.2l0.1,0.6l0.1,0.3c0,0.2,0.3,0.4,0.4,0.3l0.9-0.3
						c0.2,0,0.2-0.2,0.2-0.4l0,0l-0.3-1.2l0,0l-0.3-1.2c0-0.2-0.3-0.4-0.4-0.3h-0.1l0,0l-0.7,0.2c-0.1,0-0.1,0.1-0.2,0.2
						C83.6,81.8,83.6,81.8,83.6,81.9z"/>
				</g>
				
					<linearGradient id="XMLID_40_" gradientUnits="userSpaceOnUse" x1="65.0425" y1="-86.0104" x2="66.7063" y2="-86.0104" gradientTransform="matrix(0.9251 0.2114 0.1028 -0.8609 33.0212 -4.9313)">
					<stop  offset="8.374380e-02" style="stop-color:#50BED9"/>
					<stop  offset="0.5979" style="stop-color:#8DDDF1"/>
					<stop  offset="0.9409" style="stop-color:#B1EFFF"/>
				</linearGradient>
				<path id="XMLID_253_" class="st69" d="M85.1,84.1c0.2,0,0.2-0.2,0.2-0.4l0,0l-0.3-1.2l-0.2-1.2l0,0c0.2-0.1,0.4,0.1,0.4,0.3
					l0.3,1.2l0.3,1.2l0,0c0,0.2-0.1,0.4-0.2,0.4l-0.9,0.3c-0.1,0.1-0.4-0.1-0.4-0.3l0,0L85.1,84.1z"/>
			</g>
			<g>
				
					<linearGradient id="SVGID_4_" gradientUnits="userSpaceOnUse" x1="714.4133" y1="-96.7127" x2="717.094" y2="-88.2085" gradientTransform="matrix(-0.9251 -0.2114 -2.130000e-02 -0.8402 748.5579 155.2274)">
					<stop  offset="8.374380e-02" style="stop-color:#00CCFF"/>
					<stop  offset="0.9409" style="stop-color:#01CEFF"/>
				</linearGradient>
				<path class="st70" d="M87.3,80.7l0.3,1.3v0.2l0.1,0.6l0.1,0.3c0,0.2,0.3,0.4,0.4,0.3l0.9-0.3c0.2,0,0.2-0.2,0.2-0.4l0,0L89,81.4
					l0,0l-0.1-1.2c0-0.2-0.3-0.4-0.4-0.3h-0.1l0,0l-0.9,0.3c-0.1,0-0.1,0.1-0.2,0.2C87.3,80.4,87.3,80.6,87.3,80.7z"/>
				
					<linearGradient id="SVGID_5_" gradientUnits="userSpaceOnUse" x1="68.7377" y1="-83.6975" x2="70.4013" y2="-83.6975" gradientTransform="matrix(0.9251 0.2114 0.1028 -0.8609 33.0212 -4.9313)">
					<stop  offset="8.374380e-02" style="stop-color:#50BED9"/>
					<stop  offset="0.5979" style="stop-color:#8DDDF1"/>
					<stop  offset="0.9409" style="stop-color:#B1EFFF"/>
				</linearGradient>
				<path class="st71" d="M88.8,82.8c0.2,0,0.2-0.2,0.2-0.4l0,0l-0.3-1.2L88.4,80l0,0c0.2-0.1,0.4,0.1,0.4,0.3l0.3,1.2l0.3,1.2l0,0
					c0,0.2-0.1,0.4-0.2,0.4l-0.9,0.3c-0.1,0.1-0.4-0.1-0.4-0.3l0,0L88.8,82.8z"/>
			</g>
			<g>
				
					<linearGradient id="SVGID_6_" gradientUnits="userSpaceOnUse" x1="710.434" y1="-94.207" x2="713.1147" y2="-85.7028" gradientTransform="matrix(-0.9251 -0.2114 -2.130000e-02 -0.8402 748.5579 155.2274)">
					<stop  offset="8.374380e-02" style="stop-color:#00CCFF"/>
					<stop  offset="0.9409" style="stop-color:#01CEFF"/>
				</linearGradient>
				<path class="st72" d="M91,79.4l0.3,1.3v0.2l0.1,0.6l0.1,0.3c0,0.2,0.3,0.4,0.4,0.3l0.9-0.3c0.2,0,0.2-0.2,0.2-0.4l0,0l-0.2-1.2
					l0,0l-0.3-1.2c0-0.2-0.3-0.4-0.4-0.3H92l0,0l-0.8,0.3c-0.1,0-0.1,0.1-0.2,0.2C90.9,79.2,90.9,79.3,91,79.4z"/>
				
					<linearGradient id="SVGID_7_" gradientUnits="userSpaceOnUse" x1="72.4326" y1="-81.341" x2="74.0963" y2="-81.341" gradientTransform="matrix(0.9251 0.2114 0.1028 -0.8609 33.0212 -4.9313)">
					<stop  offset="8.374380e-02" style="stop-color:#50BED9"/>
					<stop  offset="0.5979" style="stop-color:#8DDDF1"/>
					<stop  offset="0.9409" style="stop-color:#B1EFFF"/>
				</linearGradient>
				<path class="st73" d="M92.4,81.6c0.2,0,0.2-0.2,0.2-0.4l0,0l-0.3-1.2l-0.2-1.2l0,0c0.2-0.1,0.4,0.1,0.4,0.3l0.3,1.2l0.3,1.2l0,0
					c0,0.2-0.1,0.4-0.2,0.4l-1,0.4c-0.1,0.1-0.4-0.1-0.4-0.3l0,0L92.4,81.6z"/>
			</g>
			<g>
				
					<linearGradient id="SVGID_8_" gradientUnits="userSpaceOnUse" x1="706.5245" y1="-91.7234" x2="709.2053" y2="-83.2192" gradientTransform="matrix(-0.9251 -0.2114 -2.130000e-02 -0.8402 748.5579 155.2274)">
					<stop  offset="8.374380e-02" style="stop-color:#00CCFF"/>
					<stop  offset="0.9409" style="stop-color:#01CEFF"/>
				</linearGradient>
				<path class="st74" d="M94.7,78.2l0.3,1.3v0.2l0.1,0.6l0.1,0.3c0,0.2,0.3,0.4,0.4,0.3l0.9-0.3c0.2,0,0.2-0.2,0.2-0.4l0,0
					l-0.3-1.2l0,0L96,77.8c0-0.2-0.3-0.4-0.4-0.3h-0.1l0,0l-0.7,0.2c-0.1,0-0.1,0.1-0.2,0.2C94.7,77.9,94.7,78.1,94.7,78.2z"/>
				
					<linearGradient id="SVGID_9_" gradientUnits="userSpaceOnUse" x1="76.1277" y1="-78.8714" x2="77.7914" y2="-78.8714" gradientTransform="matrix(0.9251 0.2114 0.1028 -0.8609 33.0212 -4.9313)">
					<stop  offset="8.374380e-02" style="stop-color:#50BED9"/>
					<stop  offset="0.5979" style="stop-color:#8DDDF1"/>
					<stop  offset="0.9409" style="stop-color:#B1EFFF"/>
				</linearGradient>
				<path class="st75" d="M96,80.3c0.2,0,0.2-0.2,0.2-0.4l0,0l-0.3-1.2l-0.2-1.2l0,0c0.2-0.1,0.4,0.1,0.4,0.3l0.3,1.2l0.3,1.2l0,0
					c0,0.2-0.1,0.4-0.2,0.4l-0.9,0.3c-0.1,0.1-0.4-0.1-0.4-0.3l0,0L96,80.3z"/>
			</g>
			<g>
				
					<linearGradient id="SVGID_10_" gradientUnits="userSpaceOnUse" x1="702.455" y1="-89.1893" x2="705.1358" y2="-80.6851" gradientTransform="matrix(-0.9251 -0.2114 -2.130000e-02 -0.8402 748.5579 155.2274)">
					<stop  offset="8.374380e-02" style="stop-color:#00CCFF"/>
					<stop  offset="0.9409" style="stop-color:#01CEFF"/>
				</linearGradient>
				<path class="st76" d="M98.3,76.8l0.3,1.3v0.2l0.1,0.6l0.1,0.3c0,0.2,0.3,0.4,0.4,0.3l0.9-0.3c0.2,0,0.2-0.2,0.2-0.4l0,0
					l-0.3-1.2l0,0l-0.3-1.2c0-0.2-0.3-0.4-0.4-0.3h-0.1l0,0l-0.8,0.3c-0.1,0-0.1,0.1-0.2,0.2C98.3,76.7,98.3,76.8,98.3,76.8z"/>
				
					<linearGradient id="SVGID_11_" gradientUnits="userSpaceOnUse" x1="79.8227" y1="-76.5641" x2="81.4864" y2="-76.5641" gradientTransform="matrix(0.9251 0.2114 0.1028 -0.8609 33.0212 -4.9313)">
					<stop  offset="8.374380e-02" style="stop-color:#50BED9"/>
					<stop  offset="0.5979" style="stop-color:#8DDDF1"/>
					<stop  offset="0.9409" style="stop-color:#B1EFFF"/>
				</linearGradient>
				<path class="st77" d="M99.8,79.1c0.2,0,0.2-0.2,0.2-0.4l0,0l-0.3-1.2l-0.2-1.2l0,0c0.2-0.1,0.4,0.1,0.4,0.3l0.3,1.2l0.3,1.2l0,0
					c0,0.2-0.1,0.4-0.2,0.4l-0.9,0.3c-0.2,0.1-0.4-0.1-0.4-0.3l0,0L99.8,79.1z"/>
			</g>
			<g>
				
					<linearGradient id="SVGID_12_" gradientUnits="userSpaceOnUse" x1="698.4223" y1="-86.6669" x2="701.103" y2="-78.1627" gradientTransform="matrix(-0.9251 -0.2114 -2.130000e-02 -0.8402 748.5579 155.2274)">
					<stop  offset="8.374380e-02" style="stop-color:#00CCFF"/>
					<stop  offset="0.9409" style="stop-color:#01CEFF"/>
				</linearGradient>
				<path class="st78" d="M101.9,75.7l0.3,1.3v0.2l0.1,0.6l0.1,0.3c0,0.2,0.3,0.4,0.4,0.3l0.9-0.3c0.2,0,0.2-0.2,0.2-0.4l0,0
					l-0.1-1.2l0,0l-0.3-1.2c0-0.2-0.3-0.4-0.4-0.3H103l0,0l-0.8,0.3c-0.1,0-0.1,0.1-0.2,0.2C101.9,75.3,101.9,75.6,101.9,75.7z"/>
				
					<linearGradient id="SVGID_13_" gradientUnits="userSpaceOnUse" x1="83.5176" y1="-74.1584" x2="85.1814" y2="-74.1584" gradientTransform="matrix(0.9251 0.2114 0.1028 -0.8609 33.0212 -4.9313)">
					<stop  offset="8.374380e-02" style="stop-color:#50BED9"/>
					<stop  offset="0.5979" style="stop-color:#8DDDF1"/>
					<stop  offset="0.9409" style="stop-color:#B1EFFF"/>
				</linearGradient>
				<path class="st79" d="M103.3,77.8c0.2,0,0.2-0.2,0.2-0.4l0,0l-0.3-1.2l-0.2-1.2l0,0c0.2-0.1,0.4,0.1,0.4,0.3l0.3,1.2l0.3,1.2
					l0,0c0,0.2-0.1,0.4-0.2,0.4l-0.9,0.3c-0.1,0.1-0.4-0.1-0.4-0.3l0,0L103.3,77.8z"/>
			</g>
			<g>
				
					<linearGradient id="SVGID_14_" gradientUnits="userSpaceOnUse" x1="694.4595" y1="-84.1664" x2="697.1403" y2="-75.6622" gradientTransform="matrix(-0.9251 -0.2114 -2.130000e-02 -0.8402 748.5579 155.2274)">
					<stop  offset="8.374380e-02" style="stop-color:#00CCFF"/>
					<stop  offset="0.9409" style="stop-color:#01CEFF"/>
				</linearGradient>
				<path class="st80" d="M105.7,74.3l0.3,1.3v0.2l0.1,0.6l0.1,0.3c0,0.2,0.3,0.4,0.4,0.3l0.9-0.3c0.2,0,0.2-0.2,0.2-0.4l0,0
					l-0.3-1.2l0,0l-0.3-1.2c0-0.2-0.3-0.4-0.4-0.3h-0.1l0,0l-0.7,0.2c-0.1,0-0.1,0.1-0.2,0.2C105.7,74.2,105.7,74.3,105.7,74.3z"/>
				
					<linearGradient id="SVGID_15_" gradientUnits="userSpaceOnUse" x1="87.2127" y1="-71.738" x2="88.8765" y2="-71.738" gradientTransform="matrix(0.9251 0.2114 0.1028 -0.8609 33.0212 -4.9313)">
					<stop  offset="8.374380e-02" style="stop-color:#50BED9"/>
					<stop  offset="0.5979" style="stop-color:#8DDDF1"/>
					<stop  offset="0.9409" style="stop-color:#B1EFFF"/>
				</linearGradient>
				<path class="st81" d="M107,76.4c0.2,0,0.2-0.2,0.2-0.4l0,0l-0.3-1.2l-0.2-1.2l0,0c0.2-0.1,0.4,0.1,0.4,0.3l0.3,1.2l0.3,1.2l0,0
					c0,0.2-0.1,0.4-0.2,0.4l-0.9,0.3c-0.2,0.1-0.4-0.1-0.4-0.3l0,0L107,76.4z"/>
			</g>
			<g>
				
					<linearGradient id="SVGID_16_" gradientUnits="userSpaceOnUse" x1="690.39" y1="-81.6323" x2="693.0707" y2="-73.1281" gradientTransform="matrix(-0.9251 -0.2114 -2.130000e-02 -0.8402 748.5579 155.2274)">
					<stop  offset="8.374380e-02" style="stop-color:#00CCFF"/>
					<stop  offset="0.9409" style="stop-color:#01CEFF"/>
				</linearGradient>
				<path class="st82" d="M109.3,73.1l0.3,1.3v0.2l0.1,0.6l0.1,0.3c0,0.2,0.3,0.4,0.4,0.3l0.9-0.3c0.2,0,0.2-0.2,0.2-0.4l0,0
					l-0.3-1.2l0,0l-0.3-1.2c0-0.2-0.3-0.4-0.4-0.3h-0.1l0,0l-0.8,0.3c-0.1,0-0.1,0.1-0.2,0.2C109.3,72.8,109.3,72.9,109.3,73.1z"/>
				
					<linearGradient id="SVGID_17_" gradientUnits="userSpaceOnUse" x1="90.9077" y1="-69.4195" x2="92.5714" y2="-69.4195" gradientTransform="matrix(0.9251 0.2114 0.1028 -0.8609 33.0212 -4.9313)">
					<stop  offset="8.374380e-02" style="stop-color:#50BED9"/>
					<stop  offset="0.5979" style="stop-color:#8DDDF1"/>
					<stop  offset="0.9409" style="stop-color:#B1EFFF"/>
				</linearGradient>
				<path class="st83" d="M110.8,75.3c0.2,0,0.2-0.2,0.2-0.4l0,0l-0.3-1.2l-0.2-1.2l0,0c0.2-0.1,0.4,0.1,0.4,0.3l0.3,1.2l0.3,1.2
					l0,0c0,0.2-0.1,0.4-0.2,0.4l-0.9,0.3c-0.1,0.1-0.4-0.1-0.4-0.3l0,0L110.8,75.3z"/>
			</g>
			<g>
				
					<linearGradient id="SVGID_18_" gradientUnits="userSpaceOnUse" x1="686.3574" y1="-79.1098" x2="689.038" y2="-70.6056" gradientTransform="matrix(-0.9251 -0.2114 -2.130000e-02 -0.8402 748.5579 155.2274)">
					<stop  offset="8.374380e-02" style="stop-color:#00CCFF"/>
					<stop  offset="0.9409" style="stop-color:#01CEFF"/>
				</linearGradient>
				<path class="st84" d="M112.9,71.8l0.3,1.3v0.2l0.1,0.6l0.1,0.3c0,0.2,0.3,0.4,0.4,0.3l0.9-0.3c0.2,0,0.2-0.2,0.2-0.4l0,0
					l-0.1-1.2l0,0l-0.3-1.2c0-0.2-0.3-0.4-0.4-0.3H114l0,0l-0.8,0.3c-0.1,0-0.1,0.1-0.2,0.2C112.9,71.6,112.9,71.8,112.9,71.8z"/>
				
					<linearGradient id="SVGID_19_" gradientUnits="userSpaceOnUse" x1="94.6028" y1="-66.8861" x2="96.2666" y2="-66.8861" gradientTransform="matrix(0.9251 0.2114 0.1028 -0.8609 33.0212 -4.9313)">
					<stop  offset="8.374380e-02" style="stop-color:#50BED9"/>
					<stop  offset="0.5979" style="stop-color:#8DDDF1"/>
					<stop  offset="0.9409" style="stop-color:#B1EFFF"/>
				</linearGradient>
				<path class="st85" d="M114.3,73.9c0.2,0,0.2-0.2,0.2-0.4l0,0l-0.2-1.3l-0.2-1.2l0,0c0.2-0.1,0.4,0.1,0.4,0.3l0.3,1.2l0.3,1.2
					l0,0c0,0.2-0.1,0.4-0.2,0.4l-0.9,0.3c-0.2,0.1-0.4-0.1-0.4-0.3l0,0L114.3,73.9z"/>
			</g>
			<g>
				
					<linearGradient id="SVGID_20_" gradientUnits="userSpaceOnUse" x1="682.3945" y1="-76.6094" x2="685.0752" y2="-68.1052" gradientTransform="matrix(-0.9251 -0.2114 -2.130000e-02 -0.8402 748.5579 155.2274)">
					<stop  offset="8.374380e-02" style="stop-color:#00CCFF"/>
					<stop  offset="0.9409" style="stop-color:#01CEFF"/>
				</linearGradient>
				<path class="st86" d="M116.7,70.6l0.3,1.3v0.2l0.1,0.6l0.1,0.3c0,0.2,0.3,0.4,0.4,0.3l0.9-0.3c0.2,0,0.2-0.2,0.2-0.4l0,0
					l-0.3-1.2l0,0l-0.3-1.2c0-0.2-0.3-0.4-0.4-0.3h-0.1l0,0l-0.7,0.2c-0.1,0-0.1,0.1-0.2,0.2C116.7,70.3,116.7,70.4,116.7,70.6z"/>
				
					<linearGradient id="SVGID_21_" gradientUnits="userSpaceOnUse" x1="98.2977" y1="-64.599" x2="99.9615" y2="-64.599" gradientTransform="matrix(0.9251 0.2114 0.1028 -0.8609 33.0212 -4.9313)">
					<stop  offset="8.374380e-02" style="stop-color:#50BED9"/>
					<stop  offset="0.5979" style="stop-color:#8DDDF1"/>
					<stop  offset="0.9409" style="stop-color:#B1EFFF"/>
				</linearGradient>
				<path class="st87" d="M118,72.7c0.2,0,0.2-0.2,0.2-0.4l0,0l-0.3-1.2l-0.2-1.2l0,0c0.2-0.1,0.4,0.1,0.4,0.3l0.3,1.2l0.3,1.2l0,0
					c0,0.2-0.1,0.4-0.2,0.4l-0.9,0.3c-0.2,0.1-0.4-0.1-0.4-0.3l0,0L118,72.7z"/>
			</g>
			<g>
				
					<linearGradient id="SVGID_22_" gradientUnits="userSpaceOnUse" x1="678.325" y1="-74.0753" x2="681.0056" y2="-65.5711" gradientTransform="matrix(-0.9251 -0.2114 -2.130000e-02 -0.8402 748.5579 155.2274)">
					<stop  offset="8.374380e-02" style="stop-color:#00CCFF"/>
					<stop  offset="0.9409" style="stop-color:#01CEFF"/>
				</linearGradient>
				<path class="st88" d="M120.3,69.3l0.3,1.3v0.2l0.1,0.6l0.1,0.3c0,0.2,0.3,0.4,0.4,0.3l0.9-0.3c0.2,0,0.2-0.2,0.2-0.4l0,0L122,70
					l0,0l-0.3-1.2c0-0.2-0.3-0.4-0.4-0.3h-0.1l0,0l-0.8,0.3c-0.1,0-0.1,0.1-0.2,0.2C120.3,69.1,120.3,69.2,120.3,69.3z"/>
				
					<linearGradient id="SVGID_23_" gradientUnits="userSpaceOnUse" x1="101.9929" y1="-62.2805" x2="103.6566" y2="-62.2805" gradientTransform="matrix(0.9251 0.2114 0.1028 -0.8609 33.0212 -4.9313)">
					<stop  offset="8.374380e-02" style="stop-color:#50BED9"/>
					<stop  offset="0.5979" style="stop-color:#8DDDF1"/>
					<stop  offset="0.9409" style="stop-color:#B1EFFF"/>
				</linearGradient>
				<path class="st89" d="M121.8,71.4c0.2,0,0.2-0.2,0.2-0.4l0,0l-0.3-1.2l-0.2-1.2l0,0c0.2-0.1,0.4,0.1,0.4,0.3l0.3,1.2l0.3,1.2
					l0,0c0,0.2-0.1,0.4-0.2,0.4l-0.9,0.3c-0.1,0.1-0.4-0.1-0.4-0.3l0,0L121.8,71.4z"/>
			</g>
			<g>
				
					<linearGradient id="SVGID_24_" gradientUnits="userSpaceOnUse" x1="674.399" y1="-71.5865" x2="677.0797" y2="-63.0823" gradientTransform="matrix(-0.9251 -0.2114 -2.130000e-02 -0.8402 748.5579 155.2274)">
					<stop  offset="8.374380e-02" style="stop-color:#00CCFF"/>
					<stop  offset="0.9409" style="stop-color:#01CEFF"/>
				</linearGradient>
				<path class="st90" d="M123.9,68.1l0.3,1.3v0.2l0.1,0.6l0.1,0.3c0,0.2,0.3,0.4,0.4,0.3l0.9-0.3c0.2,0,0.2-0.2,0.2-0.4l0,0
					l-0.3-1.2l0,0l-0.3-1.2c0-0.2-0.3-0.4-0.4-0.3h-0.1l0,0l-0.8,0.3c-0.1,0-0.1,0.1-0.2,0.2C123.9,67.8,123.9,67.9,123.9,68.1z"/>
				
					<linearGradient id="SVGID_25_" gradientUnits="userSpaceOnUse" x1="105.6878" y1="-59.886" x2="107.3515" y2="-59.886" gradientTransform="matrix(0.9251 0.2114 0.1028 -0.8609 33.0212 -4.9313)">
					<stop  offset="8.374380e-02" style="stop-color:#50BED9"/>
					<stop  offset="0.5979" style="stop-color:#8DDDF1"/>
					<stop  offset="0.9409" style="stop-color:#B1EFFF"/>
				</linearGradient>
				<path class="st91" d="M125.3,70.2c0.2,0,0.2-0.2,0.2-0.4l0,0l-0.3-1.2l-0.2-1.2l0,0c0.2-0.1,0.4,0.1,0.4,0.3l0.3,1.2l0.3,1.2
					l0,0c0,0.2-0.1,0.4-0.2,0.4l-0.9,0.3c-0.2,0.1-0.4-0.1-0.4-0.3l0,0L125.3,70.2z"/>
			</g>
			<g>
				
					<linearGradient id="SVGID_26_" gradientUnits="userSpaceOnUse" x1="670.3295" y1="-69.0524" x2="673.0102" y2="-60.5482" gradientTransform="matrix(-0.9251 -0.2114 -2.130000e-02 -0.8402 748.5579 155.2274)">
					<stop  offset="8.374380e-02" style="stop-color:#00CCFF"/>
					<stop  offset="0.9409" style="stop-color:#01CEFF"/>
				</linearGradient>
				<path class="st92" d="M127.7,66.8l0.3,1.3v0.2l0.1,0.6l0.1,0.3c0,0.2,0.3,0.4,0.4,0.3l0.9-0.3c0.2,0,0.2-0.2,0.2-0.4l0,0
					l-0.3-1.2l0,0l-0.3-1.2c0-0.2-0.3-0.4-0.4-0.3h-0.1l0,0l-0.8,0.3c-0.1,0-0.1,0.1-0.2,0.2C127.7,66.6,127.7,66.7,127.7,66.8z"/>
				
					<linearGradient id="SVGID_27_" gradientUnits="userSpaceOnUse" x1="109.383" y1="-57.4544" x2="111.0465" y2="-57.4544" gradientTransform="matrix(0.9251 0.2114 0.1028 -0.8609 33.0212 -4.9313)">
					<stop  offset="8.374380e-02" style="stop-color:#50BED9"/>
					<stop  offset="0.5979" style="stop-color:#8DDDF1"/>
					<stop  offset="0.9409" style="stop-color:#B1EFFF"/>
				</linearGradient>
				<path class="st93" d="M129,68.8c0.2,0,0.2-0.2,0.2-0.4l0,0l-0.3-1.2l-0.2-1.2l0,0c0.2-0.1,0.4,0.1,0.4,0.3l0.3,1.2l0.3,1.2l0,0
					c0,0.2-0.1,0.4-0.2,0.4l-0.9,0.3c-0.1,0.1-0.4-0.1-0.4-0.3l0,0L129,68.8z"/>
			</g>
			<g id="XMLID_248_">
				<g id="XMLID_250_">
					
						<linearGradient id="XMLID_41_" gradientUnits="userSpaceOnUse" x1="666.4035" y1="-66.5636" x2="669.0842" y2="-58.0594" gradientTransform="matrix(-0.9251 -0.2114 -2.130000e-02 -0.8402 748.5579 155.2274)">
						<stop  offset="8.374380e-02" style="stop-color:#00CCFF"/>
						<stop  offset="0.9409" style="stop-color:#01CEFF"/>
					</linearGradient>
					<path id="XMLID_251_" class="st94" d="M131.3,65.6l0.3,1.3v0.2l0.1,0.6l0.1,0.3c0,0.2,0.3,0.4,0.4,0.3l0.9-0.3
						c0.2,0,0.2-0.2,0.2-0.4l0,0l-0.3-1.2l0,0l-0.3-1.2c0-0.2-0.3-0.4-0.4-0.3h-0.1l0,0l-0.8,0.3c-0.1,0-0.1,0.1-0.2,0.2
						C131.3,65.3,131.3,65.3,131.3,65.6z"/>
				</g>
				
					<linearGradient id="XMLID_42_" gradientUnits="userSpaceOnUse" x1="113.0779" y1="-55.1729" x2="114.7416" y2="-55.1729" gradientTransform="matrix(0.9251 0.2114 0.1028 -0.8609 33.0212 -4.9313)">
					<stop  offset="8.374380e-02" style="stop-color:#50BED9"/>
					<stop  offset="0.5979" style="stop-color:#8DDDF1"/>
					<stop  offset="0.9409" style="stop-color:#B1EFFF"/>
				</linearGradient>
				<path id="XMLID_249_" class="st95" d="M132.6,67.7c0.2,0,0.2-0.2,0.2-0.4l0,0l-0.3-1.2l-0.2-1.2l0,0c0.2-0.1,0.4,0.1,0.4,0.3
					l0.3,1.2l0.3,1.2l0,0c0,0.2-0.1,0.4-0.2,0.4l-0.9,0.3c-0.2,0.1-0.4-0.1-0.4-0.3l0,0L132.6,67.7z"/>
			</g>
		</g>
	</g>
</g>
</svg>
