<?xml version="1.0" encoding="utf-8"?>
<!-- Generator: Adobe Illustrator 23.0.0, SVG Export Plug-In . SVG Version: 6.00 Build 0)  -->
<svg version="1.1" id="Layer_1" xmlns="http://www.w3.org/2000/svg" xmlns:xlink="http://www.w3.org/1999/xlink" x="0px" y="0px"
	 viewBox="0 0 200 200" style="enable-background:new 0 0 200 200;" xml:space="preserve">
<style type="text/css">
	.st0{fill:url(#SVGID_1_);}
	.st1{opacity:0.1;fill:#272724;enable-background:new    ;}
	.st2{fill:url(#XMLID_2_);}
	.st3{fill:url(#XMLID_3_);}
	.st4{opacity:0.25;fill:url(#SVGID_2_);enable-background:new    ;}
	.st5{fill:#02314B;}
	.st6{fill:url(#SVGID_3_);}
	.st7{fill:url(#SVGID_4_);}
	.st8{fill:url(#SVGID_5_);}
	.st9{fill:#F6F7FA;}
	.st10{enable-background:new    ;}
	.st11{fill:#8E2A1F;}
	.st12{fill:url(#SVGID_6_);}
	.st13{fill:url(#SVGID_7_);}
	.st14{fill:url(#SVGID_8_);}
	.st15{fill:#9C7907;}
	.st16{fill:#9D9D9D;}
	.st17{fill:#EDEDED;}
	.st18{fill:url(#SVGID_9_);}
	.st19{fill:url(#SVGID_10_);}
	.st20{clip-path:url(#SVGID_12_);enable-background:new    ;}
	.st21{fill:#969696;}
	.st22{fill:#9B9B9B;}
	.st23{fill:#9F9F9F;}
	.st24{fill:#A4A4A4;}
	.st25{fill:#A8A8A8;}
	.st26{fill:#ADADAD;}
	.st27{fill:#B1B1B1;}
	.st28{fill:#B6B6B6;}
	.st29{fill:#BABABA;}
	.st30{fill:#BFBFBF;}
	.st31{fill:#C4C4C4;}
	.st32{fill:#C8C8C8;}
	.st33{fill:#CCCCCC;}
	.st34{fill:#D0D0D0;}
	.st35{fill:url(#SVGID_13_);}
	.st36{fill:#E2E2E2;}
	.st37{clip-path:url(#SVGID_15_);enable-background:new    ;}
	.st38{clip-path:url(#SVGID_17_);enable-background:new    ;}
	.st39{fill:url(#SVGID_18_);}
	.st40{clip-path:url(#SVGID_20_);enable-background:new    ;}
	.st41{fill:#FFFFFF;}
	.st42{clip-path:url(#SVGID_22_);enable-background:new    ;}
	.st43{fill:url(#SVGID_23_);}
	.st44{fill:#D9D9D9;}
	.st45{fill:#DDDDDD;}
	.st46{fill:#E1E1E1;}
	.st47{fill:#E5E5E5;}
	.st48{fill:#EAEAEA;}
	.st49{fill:#EEEEEE;}
	.st50{fill:#F2F2F2;}
	.st51{fill:#F6F6F6;}
	.st52{fill:#FAFAFA;}
	.st53{fill:url(#SVGID_24_);}
</style>
<g>
	
		<radialGradient id="SVGID_1_" cx="145.425" cy="-0.7538" r="23.4261" gradientTransform="matrix(1 0 0 -1 0 56.2)" gradientUnits="userSpaceOnUse">
		<stop  offset="0" style="stop-color:#00FCFF"/>
		<stop  offset="0.1099" style="stop-color:#03F6FF"/>
		<stop  offset="0.2577" style="stop-color:#0CE5FF"/>
		<stop  offset="0.4271" style="stop-color:#1AC9FF"/>
		<stop  offset="0.6127" style="stop-color:#2DA1FF"/>
		<stop  offset="0.8088" style="stop-color:#4670FF"/>
		<stop  offset="1" style="stop-color:#6238FF"/>
	</radialGradient>
	<path class="st0" d="M146.4,64.7l-2.7,1.6l1.7,7c0.1,0.3,0.1,0.5,0,0.6l2.7-1.6c0.1,0,0.1-0.2,0-0.6L146.4,64.7z"/>
	<g>
		<g id="_x31_8_28_">
			<g id="_x36__29_">
				<g id="XMLID_304_">
					<path id="XMLID_307_" class="st1" d="M87.6,169.4L30,135.6c-7.9-4.6-6.9-12.6,2.2-17.9l48.7-28.2c9.1-5.3,22.9-5.8,30.7-1.2
						l57.5,33.6c7.9,4.6,6.9,12.6-2.2,17.9l-48.6,28.2C109.3,173.4,95.4,173.9,87.6,169.4z"/>
					
						<linearGradient id="XMLID_2_" gradientUnits="userSpaceOnUse" x1="25.45" y1="-69.4216" x2="175.2528" y2="-69.4216" gradientTransform="matrix(1 0 0 -1 0 56.2)">
						<stop  offset="1.923080e-03" style="stop-color:#23DBEA"/>
						<stop  offset="1" style="stop-color:#0C5FCD"/>
					</linearGradient>
					<path id="XMLID_306_" class="st2" d="M175.3,126.5l-0.1-9.1l-10-1.3l-52.7-30.9c-7.9-4.6-21.7-4-30.8,1.3L33,114.7
						c-0.4,0.2-0.8,0.5-1.1,0.7l-6.5,1.2v8.3l0,0c0.1,2.9,1.8,5.6,5.3,7.6l57.5,33.6c7.9,4.6,21.6,4.1,30.7-1.2l48.6-28.2
						C172.8,133.8,175.4,130,175.3,126.5L175.3,126.5z"/>
					
						<linearGradient id="XMLID_3_" gradientUnits="userSpaceOnUse" x1="100.25" y1="-35.4366" x2="100.25" y2="-79.9437" gradientTransform="matrix(1 0 0 -1 0 56.2)">
						<stop  offset="0" style="stop-color:#DFE0E1"/>
						<stop  offset="1" style="stop-color:#FFFFFF"/>
					</linearGradient>
					<path id="XMLID_305_" class="st3" d="M88.3,158.8l-57.6-33.7c-7.9-4.6-6.9-12.6,2.2-17.9l48.6-28.2c9.1-5.3,22.9-5.8,30.7-1.2
						l57.5,33.6c7.9,4.6,6.9,12.6-2.2,17.9L119,157.4C109.9,162.8,96.2,163.4,88.3,158.8z"/>
				</g>
			</g>
		</g>
		
			<linearGradient id="SVGID_2_" gradientUnits="userSpaceOnUse" x1="157.9681" y1="-798.9419" x2="217.5955" y2="-798.9419" gradientTransform="matrix(0.9271 0.3748 0.3748 -0.9271 224.7509 -698.4797)">
			<stop  offset="4.106571e-03" style="stop-color:#007CC0"/>
			<stop  offset="0.9952" style="stop-color:#07C9EA"/>
		</linearGradient>
		<path class="st4" d="M127.1,123.8c-2.7,6.6-17.2,7-32.5,0.8s-25.5-16.5-22.8-23.1s17.2-7,32.5-0.8S129.8,117.2,127.1,123.8z"/>
		<g>
			<g>
				<g>
					<polygon class="st5" points="93.2,40.3 93.2,41.2 102.2,46.4 102.2,45.4 					"/>
				</g>
				<g>
					
						<linearGradient id="SVGID_3_" gradientUnits="userSpaceOnUse" x1="104.5624" y1="-6.3131" x2="83.8124" y2="-46.8131" gradientTransform="matrix(1 0 0 -1 0 56.2)">
						<stop  offset="0" style="stop-color:#0045DB"/>
						<stop  offset="1" style="stop-color:#FFA3FF"/>
					</linearGradient>
					<path class="st6" d="M83.4,38.1c-1-0.6-1.7-0.1-1.7,1L81.6,95c0,1.1,0.8,2.4,1.7,3l28.4,16.4c1,0.6,1.7,0.1,1.7-1l0.2-55.9
						c0-1.1-0.8-2.4-1.7-3L83.4,38.1z"/>
				</g>
				
					<linearGradient id="SVGID_4_" gradientUnits="userSpaceOnUse" x1="97.55" y1="22.8968" x2="97.55" y2="-135.5334" gradientTransform="matrix(1 0 0 -1 0 56.2)">
					<stop  offset="0" style="stop-color:#00FCFF"/>
					<stop  offset="7.290640e-02" style="stop-color:#00F7FD"/>
					<stop  offset="0.1602" style="stop-color:#00E8F6"/>
					<stop  offset="0.255" style="stop-color:#00D0EC"/>
					<stop  offset="0.3549" style="stop-color:#00AEDD"/>
					<stop  offset="0.4591" style="stop-color:#0183CA"/>
					<stop  offset="0.565" style="stop-color:#014FB3"/>
					<stop  offset="0.6417" style="stop-color:#0124A0"/>
				</linearGradient>
				<path class="st7" d="M111.8,47.6c2.4,1.4,4.3,4.8,4.3,7.5l-0.2,67.2c0,2.8-2,3.9-4.4,2.5l-28.1-16.3c-2.4-1.4-4.3-4.7-4.3-7.5
					l0.2-67.2c0-2.7,2-3.9,4.4-2.5L111.8,47.6z M81.6,94.9c0,1.1,0.8,2.4,1.7,3l28.4,16.4c1,0.6,1.7,0.1,1.7-1l0.2-55.9
					c0-1.1-0.8-2.4-1.7-3L83.4,38.1c-1-0.6-1.7-0.1-1.7,1L81.6,94.9L81.6,94.9z M94.8,111.8c0,0.6,0.4,1.3,0.9,1.6l3.4,2
					c0.5,0.3,1,0.1,1-0.5v-3.9c0-0.6-0.4-1.3-1-1.6l-3.4-2c-0.5-0.3-0.9-0.1-0.9,0.5V111.8L94.8,111.8z M102.2,45.4l-9-5.2v1l9,5.2
					V45.4L102.2,45.4z"/>
				
					<linearGradient id="SVGID_5_" gradientUnits="userSpaceOnUse" x1="80.45" y1="-20.448" x2="120.1829" y2="-20.448" gradientTransform="matrix(1 0 0 -1 0 56.2)">
					<stop  offset="0" style="stop-color:#00FCFF"/>
					<stop  offset="7.290640e-02" style="stop-color:#00F7FD"/>
					<stop  offset="0.1602" style="stop-color:#00E8F6"/>
					<stop  offset="0.255" style="stop-color:#00D0EC"/>
					<stop  offset="0.3549" style="stop-color:#00AEDD"/>
					<stop  offset="0.4591" style="stop-color:#0183CA"/>
					<stop  offset="0.565" style="stop-color:#014FB3"/>
					<stop  offset="0.6417" style="stop-color:#0124A0"/>
				</linearGradient>
				<path class="st8" d="M84.7,28.6c0.5-0.3,1.1-0.4,1.8-0.2c0.4,0.1,0.9,0.3,1.3,0.5l28.2,16.3c0.8,0.4,1.5,1.1,2.1,1.8
					c1.3,1.6,2.2,3.8,2.2,5.7l-0.2,67.2c0,1.4-0.5,2.3-1.3,2.8l-4.2,2.4c0.8-0.5,1.3-1.4,1.3-2.8l0.2-67.2c0-1.9-0.9-4-2.2-5.7
					c-0.6-0.8-1.3-1.4-2.1-1.8L83.6,31.4c-0.5-0.3-0.9-0.4-1.3-0.5c-0.7-0.1-1.3-0.1-1.8,0.2L84.7,28.6z"/>
				<path class="st9" d="M94.8,111.8v-3.9c0-0.6,0.4-0.8,0.9-0.5l3.4,2c0.5,0.3,1,1,1,1.6v3.9c0,0.6-0.4,0.8-1,0.5l-3.4-2
					C95.2,113.2,94.8,112.4,94.8,111.8L94.8,111.8z"/>
			</g>
		</g>
		<g>
			<g>
				<g class="st10">
					<g class="st10">
						<g class="st10">
							<path class="st11" d="M122.3,68.7l2.7-1.6l0,0L122.3,68.7L122.3,68.7L122.3,68.7z"/>
						</g>
					</g>
					<g>
						
							<radialGradient id="SVGID_6_" cx="118.7479" cy="19.9333" r="12.9785" gradientTransform="matrix(1 0 0 -1 0 56.2)" gradientUnits="userSpaceOnUse">
							<stop  offset="0" style="stop-color:#00FCFF"/>
							<stop  offset="0.1099" style="stop-color:#03F6FF"/>
							<stop  offset="0.2577" style="stop-color:#0CE5FF"/>
							<stop  offset="0.4271" style="stop-color:#1AC9FF"/>
							<stop  offset="0.6127" style="stop-color:#2DA1FF"/>
							<stop  offset="0.8088" style="stop-color:#4670FF"/>
							<stop  offset="1" style="stop-color:#6238FF"/>
						</radialGradient>
						<path class="st12" d="M105.3,27.9l-2.7,1.6c0.8-0.5,1.9-0.4,3.2,0.3l26.4,15.3l2.7-1.6l-26.4-15.3
							C107.3,27.5,106.1,27.4,105.3,27.9z"/>
						
							<radialGradient id="SVGID_7_" cx="137.3422" cy="-6.7" r="8.4289" gradientTransform="matrix(1 0 0 -1 0 56.2)" gradientUnits="userSpaceOnUse">
							<stop  offset="0" style="stop-color:#00FCFF"/>
							<stop  offset="0.1099" style="stop-color:#03F6FF"/>
							<stop  offset="0.2577" style="stop-color:#0CE5FF"/>
							<stop  offset="0.4271" style="stop-color:#1AC9FF"/>
							<stop  offset="0.6127" style="stop-color:#2DA1FF"/>
							<stop  offset="0.8088" style="stop-color:#4670FF"/>
							<stop  offset="1" style="stop-color:#6238FF"/>
						</radialGradient>
						<path class="st13" d="M136.6,52.8l-0.1,19c0,1.4-0.5,2.4-1.3,2.9l2.7-1.6c0.8-0.5,1.3-1.5,1.3-2.9l0.1-19L136.6,52.8z"/>
					</g>
					<g class="st10">
						<g class="st10">
							<path class="st11" d="M132.3,45l2.7-1.6c2.5,1.4,4.5,4.9,4.5,7.7l-2.7,1.6C136.6,49.9,134.6,46.5,132.3,45L132.3,45z"/>
						</g>
					</g>
					<g>
						
							<radialGradient id="SVGID_8_" cx="125.6167" cy="20.6468" r="44.3149" gradientTransform="matrix(1 0 0 -1 0 56.2)" gradientUnits="userSpaceOnUse">
							<stop  offset="0" style="stop-color:#00FCFF"/>
							<stop  offset="0.1099" style="stop-color:#03F6FF"/>
							<stop  offset="0.2577" style="stop-color:#0CE5FF"/>
							<stop  offset="0.4271" style="stop-color:#1AC9FF"/>
							<stop  offset="0.6127" style="stop-color:#2DA1FF"/>
							<stop  offset="0.8088" style="stop-color:#4670FF"/>
							<stop  offset="1" style="stop-color:#6238FF"/>
						</radialGradient>
						<path class="st14" d="M132.3,45c2.5,1.4,4.5,4.9,4.5,7.7l-0.1,19c0,2.8-2,4-4.5,2.6l-9.9-5.7c-0.1,0.1-0.2,0.1-0.3,0.1
							l-12.6,1.3c-0.2,0-0.4,0-0.5-0.1c-0.3-0.2-0.4-0.5-0.2-1l2.4-6.8l-5.3-3.1c-2.5-1.4-4.5-4.9-4.5-7.7l0.1-19c0-2.8,2-4,4.5-2.6
							L132.3,45z"/>
					</g>
				</g>
			</g>
			<g>
				<g class="st10">
					<g class="st10">
						<g class="st10">
							<path class="st15" d="M130.1,46.4l2.7-1.6c-0.4,0.2-0.6,0.7-0.6,1.4c0,1.3,0.9,3,2.1,3.6l-2.7,1.6c-1.2-0.7-2.1-2.3-2.1-3.6
								C129.4,47.1,129.6,46.6,130.1,46.4L130.1,46.4z"/>
						</g>
					</g>
					<g class="st10">
						<g class="st10">
							<path class="st16" d="M130.1,46.4l2.7-1.6c0.4-0.2,0.9-0.2,1.5,0.1l-2.7,1.6C130.9,46.2,130.4,46.2,130.1,46.4L130.1,46.4z"
								/>
						</g>
					</g>
					<g class="st10">
						<g class="st10">
							<path class="st16" d="M131.6,46.6l2.7-1.6c1.2,0.7,2.1,2.3,2.1,3.6c0,0.7-0.2,1.1-0.6,1.3l-2.7,1.6c0.4-0.2,0.6-0.7,0.6-1.3
								C133.6,48.9,132.6,47.2,131.6,46.6L131.6,46.6z"/>
						</g>
					</g>
					<g class="st10">
						<g class="st10">
							<path class="st15" d="M136.4,50.1l2.7-1.6c-0.4,0.2-0.6,0.7-0.6,1.4c0,1.3,0.9,3,2.1,3.6l-2.7,1.6c-1.2-0.7-2.1-2.3-2.1-3.6
								C135.9,50.8,136.1,50.4,136.4,50.1L136.4,50.1z"/>
						</g>
					</g>
					<g class="st10">
						<g class="st10">
							<path class="st16" d="M136.4,50.1l2.7-1.6c0.4-0.2,0.9-0.2,1.5,0.1l-2.7,1.6C137.4,50,136.9,49.9,136.4,50.1L136.4,50.1z"/>
						</g>
					</g>
					<g class="st10">
						<g class="st10">
							<path class="st16" d="M137.9,50.3l2.7-1.6c1.2,0.7,2.1,2.3,2.1,3.6c0,0.7-0.2,1.1-0.6,1.3l-2.7,1.6c0.4-0.2,0.6-0.7,0.6-1.3
								C140.1,52.6,139.1,51,137.9,50.3L137.9,50.3z"/>
						</g>
					</g>
					<g>
						<path class="st17" d="M137.9,50.3c1.2,0.7,2.1,2.3,2.1,3.6c0,1.3-0.9,1.9-2.1,1.2c-1.2-0.7-2.1-2.3-2.1-3.6
							S136.9,49.6,137.9,50.3z"/>
					</g>
					<g class="st10">
						<g class="st10">
							<path class="st15" d="M142.9,53.9l2.7-1.6c-0.4,0.2-0.6,0.7-0.6,1.4c0,1.3,0.9,3,2.1,3.6l-2.7,1.6c-1.2-0.7-2.1-2.3-2.1-3.6
								C142.4,54.6,142.6,54.1,142.9,53.9L142.9,53.9z"/>
						</g>
					</g>
					<g class="st10">
						<g class="st10">
							<path class="st16" d="M142.9,53.9l2.7-1.6c0.4-0.2,0.9-0.2,1.5,0.1l-2.7,1.6C143.9,53.7,143.4,53.7,142.9,53.9L142.9,53.9z"
								/>
						</g>
					</g>
					<g class="st10">
						<g class="st10">
							<path class="st16" d="M144.4,54l2.7-1.6c1.2,0.7,2.1,2.3,2.1,3.6c0,0.7-0.2,1.1-0.6,1.3l-2.7,1.6c0.4-0.2,0.6-0.7,0.6-1.3
								C146.6,56.3,145.6,54.7,144.4,54L144.4,54z"/>
						</g>
					</g>
					<g>
						<path class="st17" d="M144.4,54c1.2,0.7,2.1,2.3,2.1,3.6c0,1.3-0.9,1.9-2.1,1.2s-2.1-2.3-2.1-3.6
							C142.4,53.9,143.3,53.3,144.4,54z"/>
					</g>
					<g>
						
							<radialGradient id="SVGID_9_" cx="146.0334" cy="9.5634" r="24.3356" gradientTransform="matrix(1 0 0 -1 0 56.2)" gradientUnits="userSpaceOnUse">
							<stop  offset="0" style="stop-color:#00FCFF"/>
							<stop  offset="0.1099" style="stop-color:#03F6FF"/>
							<stop  offset="0.2577" style="stop-color:#0CE5FF"/>
							<stop  offset="0.4271" style="stop-color:#1AC9FF"/>
							<stop  offset="0.6127" style="stop-color:#2DA1FF"/>
							<stop  offset="0.8088" style="stop-color:#4670FF"/>
							<stop  offset="1" style="stop-color:#6238FF"/>
						</radialGradient>
						<path class="st18" d="M147.8,46.9c1.8,1,3.3,3.6,3.3,5.7v14c0,2.1-1.5,2.9-3.3,1.9l-3.9-2.3l1.7,7c0.1,0.5,0,0.7-0.2,0.5
							c-0.1-0.1-0.2-0.2-0.4-0.4l-9.2-11.5c-0.1-0.1-0.2-0.2-0.2-0.3l-7.3-4.2c-1.8-1-3.3-3.6-3.3-5.7v-14c0-2.1,1.5-2.9,3.3-1.9
							L147.8,46.9z M131.6,51.4c1.2,0.7,2.1,0.1,2.1-1.2c0-1.3-0.9-3-2.1-3.6c-1.2-0.7-2.1-0.1-2.1,1.2
							C129.4,49.1,130.4,50.7,131.6,51.4L131.6,51.4z M137.9,55.1c1.2,0.7,2.1,0.1,2.1-1.2s-0.9-3-2.1-3.6c-1.2-0.7-2.1-0.1-2.1,1.2
							C135.9,52.8,136.9,54.5,137.9,55.1L137.9,55.1z M144.4,58.9c1.2,0.7,2.1,0.1,2.1-1.2c0-1.3-0.9-3-2.1-3.6
							c-1.2-0.7-2.1-0.1-2.1,1.2C142.4,56.6,143.3,58.2,144.4,58.9L144.4,58.9z"/>
					</g>
					<g>
						<path class="st17" d="M131.6,46.6c1.2,0.7,2.1,2.3,2.1,3.6c0,1.3-1,1.9-2.1,1.2c-1.2-0.7-2.1-2.3-2.1-3.6
							C129.4,46.4,130.4,45.9,131.6,46.6z"/>
					</g>
					<g>
						
							<radialGradient id="SVGID_10_" cx="136.3667" cy="52.0038" r="91.4771" gradientTransform="matrix(1 0 0 -1 0 56.2)" gradientUnits="userSpaceOnUse">
							<stop  offset="0" style="stop-color:#00FCFF"/>
							<stop  offset="0.1099" style="stop-color:#03F6FF"/>
							<stop  offset="0.2577" style="stop-color:#0CE5FF"/>
							<stop  offset="0.4271" style="stop-color:#1AC9FF"/>
							<stop  offset="0.6127" style="stop-color:#2DA1FF"/>
							<stop  offset="0.8088" style="stop-color:#4670FF"/>
							<stop  offset="1" style="stop-color:#6238FF"/>
						</radialGradient>
						<path class="st19" d="M150.4,45.4l-19.5-11.3c-0.9-0.5-1.7-0.6-2.3-0.2l-2.7,1.6c0.6-0.3,1.4-0.3,2.3,0.2l19.5,11.2
							c1.8,1,3.3,3.6,3.3,5.7v14c0,1-0.4,1.8-1,2.1l2.7-1.6c0.6-0.3,1-1.1,1-2.1V51C153.8,49,152.3,46.4,150.4,45.4z"/>
					</g>
				</g>
			</g>
		</g>
	</g>
	<g>
		<g class="st10">
			<g class="st10">
				<g>
					<defs>
						<path id="SVGID_11_" d="M85.7,69l1.3-0.7c0.4-0.2,1-0.2,2,0.4l-1.3,0.7C86.7,68.7,86.1,68.7,85.7,69z"/>
					</defs>
					<clipPath id="SVGID_12_">
						<use xlink:href="#SVGID_11_"  style="overflow:visible;"/>
					</clipPath>
					<g class="st20">
						<path class="st21" d="M85.7,69l1.3-0.7c0,0,0.1-0.1,0.2-0.1l-1.3,0.7C85.8,68.9,85.7,68.9,85.7,69"/>
						<path class="st22" d="M85.8,68.9l1.3-0.7h0.1L85.8,68.9C85.9,68.8,85.8,68.9,85.8,68.9"/>
						<path class="st23" d="M85.9,68.8l1.3-0.7h0.1l-1.3,0.7H85.9"/>
						<path class="st24" d="M86.1,68.8l1.3-0.7h0.1L86.1,68.8C86.2,68.8,86.2,68.8,86.1,68.8"/>
						<path class="st25" d="M86.2,68.8l1.3-0.7h0.1L86.2,68.8C86.3,68.8,86.3,68.8,86.2,68.8"/>
						<path class="st26" d="M86.3,68.8l1.3-0.7h0.1L86.3,68.8C86.3,68.8,86.3,68.8,86.3,68.8"/>
						<path class="st27" d="M86.3,68.8l1.3-0.7h0.1L86.3,68.8C86.4,68.8,86.4,68.8,86.3,68.8"/>
						<path class="st28" d="M86.6,68.8l1.3-0.7h0.1L86.6,68.8C86.6,68.9,86.6,68.9,86.6,68.8"/>
						<path class="st29" d="M86.7,68.9l1.3-0.7h0.1L86.7,68.9L86.7,68.9"/>
						<path class="st30" d="M86.8,68.9l1.3-0.7h0.1L86.8,68.9L86.8,68.9"/>
						<path class="st31" d="M86.8,68.9l1.3-0.7c0,0,0.1,0,0.1,0.1L86.8,68.9C86.9,69,86.9,69,86.8,68.9"/>
						<path class="st32" d="M87.1,69l1.3-0.7c0,0,0.1,0,0.1,0.1L87.1,69C87.2,69,87.1,69,87.1,69"/>
						<path class="st33" d="M87.2,69.1l1.3-0.7c0.1,0,0.1,0,0.2,0.1l-1.3,0.7C87.3,69.1,87.3,69.1,87.2,69.1"/>
						<path class="st34" d="M87.3,69.1l1.3-0.7c0.1,0,0.1,0.1,0.2,0.1l-1.3,0.7C87.4,69.2,87.3,69.2,87.3,69.1"/>
						
							<linearGradient id="SVGID_13_" gradientUnits="userSpaceOnUse" x1="87.4985" y1="-12.65" x2="88.9019" y2="-12.65" gradientTransform="matrix(1 0 0 -1 0 56.2)">
							<stop  offset="1.141830e-03" style="stop-color:#B7FDFF"/>
							<stop  offset="0.9946" style="stop-color:#06ECC5"/>
						</linearGradient>
						<path class="st35" d="M87.4,69.2l1.3-0.7l0.1,0.1l-1.3,0.7C87.6,69.3,87.6,69.3,87.4,69.2"/>
					</g>
				</g>
			</g>
			<g>
				<polygon class="st36" points="88.7,78.5 89.9,77.8 97.3,82.1 96.2,82.8 				"/>
			</g>
			<g class="st10">
				<g>
					<defs>
						<path id="SVGID_14_" d="M96.4,76.7l-1.3,0.7c0.5-0.3,0.6-1,0.8-1.5l1.3-0.7C97.2,75.7,96.9,76.4,96.4,76.7z"/>
					</defs>
					<clipPath id="SVGID_15_">
						<use xlink:href="#SVGID_14_"  style="overflow:visible;"/>
					</clipPath>
					<g class="st37">
						<path class="st25" d="M95.9,76l1.3-0.7c0,0.1-0.1,0.3-0.1,0.5l-1.3,0.7C95.9,76.3,95.9,76.1,95.9,76"/>
						<path class="st24" d="M95.8,76.4l1.3-0.7c0,0.1,0,0.2-0.1,0.2l-1.3,0.8C95.8,76.6,95.8,76.5,95.8,76.4"/>
						<path class="st23" d="M95.8,76.7l1.3-0.7c0,0.1-0.1,0.1-0.1,0.2l-1.3,0.7C95.8,76.8,95.8,76.7,95.8,76.7"/>
						<path class="st22" d="M95.7,76.9l1.3-0.7c0,0.1-0.1,0.1-0.1,0.2l-1.3,0.7C95.7,77,95.7,76.9,95.7,76.9"/>
						<path class="st21" d="M95.6,77.1l1.3-0.7c-0.1,0.2-0.2,0.3-0.4,0.4l-1.3,0.7C95.3,77.3,95.4,77.2,95.6,77.1"/>
					</g>
				</g>
			</g>
			<g class="st10">
				<g>
					<defs>
						<path id="SVGID_16_" d="M102.4,83.2l-1.3,0.7c-0.9,0.5-2.4,0.4-5.1-1.1l1.3-0.7C100.1,83.7,101.6,83.7,102.4,83.2z"/>
					</defs>
					<clipPath id="SVGID_17_">
						<use xlink:href="#SVGID_16_"  style="overflow:visible;"/>
					</clipPath>
					<g class="st38">
						
							<linearGradient id="SVGID_18_" gradientUnits="userSpaceOnUse" x1="96.1113" y1="-26.35" x2="97.8204" y2="-26.35" gradientTransform="matrix(1 0 0 -1 0 56.2)">
							<stop  offset="1.141830e-03" style="stop-color:#B7FDFF"/>
							<stop  offset="0.9946" style="stop-color:#06ECC5"/>
						</linearGradient>
						<path class="st39" d="M96.2,82.8l1.3-0.7c0.2,0.1,0.3,0.2,0.5,0.3l-1.3,0.7C96.4,83,96.3,82.9,96.2,82.8"/>
						<path class="st34" d="M96.6,83.1l1.3-0.7c0.2,0.1,0.4,0.2,0.5,0.3l-1.3,0.7C96.9,83.3,96.8,83.2,96.6,83.1"/>
						<path class="st33" d="M97.1,83.4l1.3-0.7c0.2,0.1,0.3,0.1,0.5,0.2l-1.3,0.7C97.3,83.5,97.3,83.5,97.1,83.4"/>
						<path class="st32" d="M97.6,83.6l1.3-0.7c0.1,0.1,0.3,0.1,0.4,0.2L98,83.8C97.8,83.7,97.7,83.7,97.6,83.6"/>
						<path class="st31" d="M97.9,83.8l1.3-0.7c0.1,0,0.2,0.1,0.4,0.1l-1.3,0.7C98.2,83.9,98.1,83.8,97.9,83.8"/>
						<path class="st30" d="M98.3,83.9l1.3-0.7c0.1,0,0.2,0.1,0.3,0.1l-1.3,0.7C98.6,84,98.4,83.9,98.3,83.9"/>
						<path class="st29" d="M98.7,84l1.3-0.7c0.1,0,0.2,0.1,0.3,0.1L99,84.1C98.8,84.1,98.8,84,98.7,84"/>
						<path class="st28" d="M98.9,84.1l1.3-0.7c0.1,0,0.2,0,0.3,0.1l-1.3,0.7C99.2,84.1,99.1,84.1,98.9,84.1"/>
						<path class="st27" d="M99.3,84.2l1.3-0.7c0.1,0,0.2,0,0.3,0l-1.3,0.7C99.4,84.2,99.3,84.2,99.3,84.2"/>
						<path class="st26" d="M99.6,84.2l1.3-0.7c0.1,0,0.2,0,0.3,0l-1.4,0.7C99.7,84.2,99.6,84.2,99.6,84.2"/>
						<path class="st25" d="M99.8,84.2l1.3-0.7c0.1,0,0.2,0,0.3,0l-1.3,0.7C99.9,84.2,99.8,84.2,99.8,84.2"/>
						<path class="st24" d="M100.1,84.2l1.3-0.7c0.1,0,0.2,0,0.3,0l-1.3,0.7C100.2,84.2,100.2,84.2,100.1,84.2"/>
						<path class="st23" d="M100.3,84.2l1.3-0.7c0.1,0,0.2,0,0.3,0l-1.3,0.7C100.4,84.2,100.3,84.2,100.3,84.2"/>
						<path class="st22" d="M100.6,84.2l1.3-0.7c0.1,0,0.2-0.1,0.3-0.1l-1.3,0.7C100.8,84.1,100.7,84.2,100.6,84.2"/>
						<path class="st21" d="M100.8,84.1l1.3-0.7c0.1,0,0.2-0.1,0.3-0.2l-1.3,0.7C101.1,84,100.9,84.1,100.8,84.1"/>
					</g>
				</g>
			</g>
			<g class="st10">
				<g>
					<defs>
						<path id="SVGID_19_" d="M96.3,74.3l1.3-0.7c0,0-0.1,0.5-0.4,1.6l-1.3,0.7C96.3,74.8,96.3,74.4,96.3,74.3z"/>
					</defs>
					<clipPath id="SVGID_20_">
						<use xlink:href="#SVGID_19_"  style="overflow:visible;"/>
					</clipPath>
					<g class="st40">
						<path class="st26" d="M96.3,74.3l1.3-0.7c0,0-0.1,0.3-0.2,0.9l-1.3,0.7C96.3,74.6,96.3,74.4,96.3,74.3"/>
						<path class="st25" d="M96.2,75.2l1.3-0.7c0,0.2-0.1,0.5-0.2,0.8L96,75.9C96.1,75.7,96.2,75.4,96.2,75.2"/>
					</g>
				</g>
			</g>
			<g>
				<path class="st41" d="M95.9,76c-0.2,0.9-0.5,2.4-2.8,1.1l-8.7-5c0,0,0.1-0.5,0.4-1.6c0.2-0.9,0.5-2.4,2.8-1.1l8.7,5
					C96.3,74.4,96.3,74.8,95.9,76z"/>
			</g>
			<g>
				<polygon class="st36" points="87.7,69.3 88.9,68.6 97.6,73.6 96.3,74.3 				"/>
			</g>
			<g>
				<polygon class="st36" points="91.3,62.8 92.6,62.1 101.1,67 99.8,67.7 				"/>
			</g>
			<g class="st10">
				<g>
					<defs>
						<path id="SVGID_21_" d="M105.7,88.4l-1.3,0.7c1.6-0.9,2.6-2.9,3.1-5.7c1.1-6-0.2-11.4-7.7-15.7l1.3-0.7
							c7.5,4.3,8.8,9.8,7.7,15.7C108.3,85.5,107.3,87.5,105.7,88.4z"/>
					</defs>
					<clipPath id="SVGID_22_">
						<use xlink:href="#SVGID_21_"  style="overflow:visible;"/>
					</clipPath>
					<g class="st42">
						
							<linearGradient id="SVGID_23_" gradientUnits="userSpaceOnUse" x1="99.8304" y1="-11.15" x2="101.2672" y2="-11.15" gradientTransform="matrix(1 0 0 -1 0 56.2)">
							<stop  offset="1.141830e-03" style="stop-color:#B7FDFF"/>
							<stop  offset="0.9946" style="stop-color:#06ECC5"/>
						</linearGradient>
						<path class="st43" d="M99.8,67.7l1.3-0.7c0.1,0,0.1,0.1,0.2,0.1l-1.3,0.7C99.9,67.8,99.8,67.8,99.8,67.7"/>
						<path class="st44" d="M100.1,67.8l1.3-0.7c0.3,0.2,0.5,0.3,0.8,0.5l-1.4,0.7C100.6,68.1,100.3,68,100.1,67.8"/>
						<path class="st45" d="M100.8,68.3l1.3-0.7c0.2,0.1,0.4,0.3,0.7,0.4l-1.3,0.7C101.3,68.6,101.1,68.4,100.8,68.3"/>
						<path class="st46" d="M101.4,68.7l1.3-0.7c0.2,0.1,0.4,0.3,0.6,0.4l-1.3,0.7C101.8,69,101.7,68.9,101.4,68.7"/>
						<path class="st47" d="M102.1,69.2l1.3-0.7c0.2,0.1,0.4,0.3,0.5,0.4l-1.3,0.7C102.4,69.5,102.3,69.3,102.1,69.2"/>
						<path class="st48" d="M102.6,69.6l1.3-0.7c0.2,0.1,0.3,0.3,0.5,0.4l-1.3,0.7C102.9,69.9,102.8,69.7,102.6,69.6"/>
						<path class="st49" d="M103.2,70l1.3-0.7c0.2,0.1,0.3,0.3,0.5,0.4l-1.3,0.7C103.4,70.3,103.3,70.1,103.2,70"/>
						<path class="st50" d="M103.6,70.4l1.3-0.7c0.2,0.2,0.3,0.3,0.5,0.5l-1.3,0.7C103.9,70.7,103.8,70.6,103.6,70.4"/>
						<path class="st51" d="M104.1,70.9l1.3-0.7c0.2,0.2,0.3,0.3,0.5,0.5l-1.3,0.7C104.3,71.2,104.3,71,104.1,70.9"/>
						<path class="st52" d="M104.6,71.4l1.3-0.7c0.2,0.2,0.4,0.4,0.5,0.6l-1.3,0.7C104.8,71.8,104.8,71.6,104.6,71.4"/>
						<path class="st41" d="M105.1,72l1.3-0.7c0.6,0.7,1.1,1.5,1.5,2.2l-1.3,0.7C106.2,73.5,105.7,72.7,105.1,72"/>
						<path class="st52" d="M106.6,74.2l1.3-0.7c0.1,0.2,0.2,0.4,0.3,0.5l-1.4,0.8C106.8,74.6,106.7,74.4,106.6,74.2"/>
						<path class="st51" d="M106.8,74.8l1.3-0.7c0.1,0.2,0.1,0.3,0.2,0.5l-1.3,0.7C106.9,75.1,106.8,74.9,106.8,74.8"/>
						<path class="st50" d="M106.9,75.2l1.3-0.7c0.1,0.1,0.1,0.3,0.2,0.4l-1.3,0.7C107.1,75.5,107.1,75.4,106.9,75.2"/>
						<path class="st49" d="M107.2,75.6l1.3-0.7c0,0.1,0.1,0.2,0.1,0.4l-1.3,0.7C107.3,75.9,107.2,75.7,107.2,75.6"/>
						<path class="st48" d="M107.3,76l1.3-0.7c0,0.1,0.1,0.2,0.1,0.4l-1.3,0.7C107.3,76.2,107.3,76.1,107.3,76"/>
						<path class="st47" d="M107.3,76.4l1.3-0.7c0,0.1,0.1,0.2,0.1,0.4l-1.3,0.7C107.4,76.6,107.4,76.5,107.3,76.4"/>
						<path class="st46" d="M107.4,76.7l1.3-0.7c0,0.1,0.1,0.2,0.1,0.4l-1.3,0.7C107.6,77,107.4,76.8,107.4,76.7"/>
						<path class="st45" d="M107.6,77.1l1.3-0.7c0,0.1,0.1,0.2,0.1,0.4l-1.3,0.7C107.7,77.3,107.6,77.2,107.6,77.1"/>
						<path class="st44" d="M107.7,77.4l1.3-0.7c0,0.1,0,0.3,0.1,0.4l-1.3,0.7C107.7,77.7,107.7,77.6,107.7,77.4"/>
						
							<linearGradient id="SVGID_24_" gradientUnits="userSpaceOnUse" x1="107.6891" y1="-21.4" x2="108.9981" y2="-21.4" gradientTransform="matrix(1 0 0 -1 0 56.2)">
							<stop  offset="1.141830e-03" style="stop-color:#B7FDFF"/>
							<stop  offset="0.9946" style="stop-color:#06ECC5"/>
						</linearGradient>
						<path class="st53" d="M107.7,77.8l1.3-0.7c0,0.1,0,0.3,0.1,0.4l-1.3,0.7C107.8,78.1,107.8,77.9,107.7,77.8"/>
						<path class="st34" d="M107.8,78.2l1.3-0.7c0,0.1,0,0.3,0,0.4l-1.3,0.7C107.8,78.5,107.8,78.3,107.8,78.2"/>
						<path class="st33" d="M107.8,78.6l1.3-0.7c0,0.1,0,0.3,0,0.4l-1.3,0.7C107.8,78.9,107.8,78.8,107.8,78.6"/>
						<path class="st32" d="M107.8,79.1l1.3-0.7c0,0.2,0,0.3,0,0.5l-1.3,0.7C107.8,79.4,107.8,79.2,107.8,79.1"/>
						<path class="st31" d="M107.8,79.6l1.3-0.7c0,0.2,0,0.4,0,0.5l-1.3,0.7C107.8,79.9,107.8,79.7,107.8,79.6"/>
						<path class="st30" d="M107.8,80.1l1.3-0.7c0,0.2,0,0.4,0,0.6l-1.3,0.7C107.8,80.5,107.8,80.3,107.8,80.1"/>
						<path class="st29" d="M107.8,80.7l1.3-0.7c0,0.2,0,0.5,0,0.7l-1.4,0.7C107.8,81.2,107.8,81,107.8,80.7"/>
						<path class="st28" d="M107.8,81.4l1.3-0.7c0,0.3-0.1,0.6-0.1,0.8l-1.2,0.8C107.8,82,107.8,81.7,107.8,81.4"/>
						<path class="st27" d="M107.8,82.3l1.3-0.7c0,0.3-0.1,0.7-0.2,1l-1.3,0.7C107.7,82.9,107.7,82.6,107.8,82.3"/>
						<path class="st26" d="M107.6,83.3l1.3-0.7c0,0.1,0,0.1,0,0.2c0,0.3-0.1,0.5-0.2,0.8l-1.3,0.7c0.1-0.2,0.1-0.5,0.2-0.8
							C107.6,83.4,107.6,83.3,107.6,83.3"/>
						<path class="st25" d="M107.3,84.2l1.3-0.7c-0.1,0.3-0.1,0.6-0.2,0.8l-1.3,0.7C107.3,84.8,107.3,84.5,107.3,84.2"/>
						<path class="st24" d="M107.2,85.1l1.3-0.7c-0.1,0.3-0.2,0.5-0.3,0.8l-1.3,0.7C106.9,85.6,107.1,85.3,107.2,85.1"/>
						<path class="st23" d="M106.8,85.9l1.3-0.7c-0.1,0.3-0.2,0.5-0.3,0.8l-1.3,0.6C106.7,86.4,106.8,86.1,106.8,85.9"/>
						<path class="st22" d="M106.6,86.6l1.3-0.7c-0.1,0.3-0.3,0.6-0.4,0.8l-1.3,0.7C106.3,87.2,106.4,86.9,106.6,86.6"/>
						<path class="st21" d="M106.2,87.5l1.3-0.7c-0.5,0.7-1,1.3-1.7,1.7l-1.3,0.7C105.1,88.8,105.7,88.2,106.2,87.5"/>
					</g>
				</g>
			</g>
			<g>
				<path class="st41" d="M99.8,67.7c7.5,4.3,8.8,9.8,7.7,15.7c-0.7,4-2.5,6.4-5.5,6.2c-1.4-0.1-2.6-0.4-5.6-2.1l-8.5-4.9l0.7-4.1
					l7.5,4.3c4.5,2.6,5.7,1.1,6.3-0.6c0.2-0.6,0.7-2.6,0.8-3.9c0-2.6-1.1-4.8-4.9-7l-7.7-4.4l0.7-4.1L99.8,67.7z"/>
			</g>
		</g>
	</g>
</g>
</svg>
