<?xml version="1.0" encoding="utf-8"?>
<!-- Generator: Adobe Illustrator 23.0.0, SVG Export Plug-In . SVG Version: 6.00 Build 0)  -->
<svg version="1.1" id="Layer_1" xmlns="http://www.w3.org/2000/svg" xmlns:xlink="http://www.w3.org/1999/xlink" x="0px" y="0px"
	 viewBox="0 0 200 200" style="enable-background:new 0 0 200 200;" xml:space="preserve">
<style type="text/css">
	.st0{opacity:0.1;fill:#272724;enable-background:new    ;}
	.st1{fill:url(#XMLID_2_);}
	.st2{fill:url(#XMLID_3_);}
	.st3{enable-background:new    ;}
	.st4{fill:#909090;}
	.st5{fill:#717173;}
	.st6{fill:#727273;}
	.st7{fill:#F87564;}
	.st8{fill:#9AB3CB;}
	.st9{fill:#FBFBFB;}
	.st10{fill:#A6BBCA;}
	.st11{fill:#D5E5F5;}
	.st12{fill:url(#SVGID_1_);}
	.st13{fill:#CFDAE4;}
	.st14{fill:url(#SVGID_2_);}
	.st15{fill:#E35D4C;}
	.st16{fill:#FDC800;}
	.st17{fill:url(#SVGID_3_);}
	.st18{fill:url(#SVGID_4_);}
	.st19{opacity:0.25;}
	.st20{clip-path:url(#SVGID_6_);}
	.st21{clip-path:url(#SVGID_8_);}
	.st22{clip-path:url(#SVGID_10_);}
	.st23{clip-path:url(#SVGID_12_);}
	.st24{clip-path:url(#SVGID_14_);}
	.st25{clip-path:url(#SVGID_16_);}
	.st26{clip-path:url(#SVGID_18_);}
	.st27{clip-path:url(#SVGID_20_);}
	.st28{clip-path:url(#SVGID_22_);}
	.st29{clip-path:url(#SVGID_24_);}
	.st30{clip-path:url(#SVGID_26_);}
	.st31{clip-path:url(#SVGID_28_);}
	.st32{clip-path:url(#SVGID_30_);}
	.st33{clip-path:url(#SVGID_32_);}
	.st34{clip-path:url(#SVGID_34_);}
	.st35{clip-path:url(#SVGID_36_);}
	.st36{clip-path:url(#SVGID_38_);}
	.st37{clip-path:url(#SVGID_40_);}
	.st38{clip-path:url(#SVGID_42_);}
	.st39{clip-path:url(#SVGID_44_);}
	.st40{clip-path:url(#SVGID_46_);}
	.st41{clip-path:url(#SVGID_48_);}
	.st42{clip-path:url(#SVGID_50_);}
	.st43{clip-path:url(#SVGID_52_);}
	.st44{clip-path:url(#SVGID_54_);}
	.st45{clip-path:url(#SVGID_56_);}
	.st46{clip-path:url(#SVGID_58_);}
	.st47{clip-path:url(#SVGID_60_);}
	.st48{clip-path:url(#SVGID_62_);}
	.st49{clip-path:url(#SVGID_64_);}
	.st50{clip-path:url(#SVGID_66_);}
	.st51{fill:#9A9A9A;}
	.st52{clip-path:url(#SVGID_68_);enable-background:new    ;}
	.st53{fill:#C4C4C4;}
	.st54{fill:#FFFFFF;}
	.st55{clip-path:url(#SVGID_70_);enable-background:new    ;}
	.st56{fill:#BFBFBF;}
	.st57{fill:#BABABA;}
	.st58{fill:#B6B6B6;}
	.st59{fill:#B1B1B1;}
	.st60{fill:#ADADAD;}
	.st61{fill:#A8A8A8;}
	.st62{fill:#A4A4A4;}
	.st63{fill:#9F9F9F;}
	.st64{fill:#9B9B9B;}
	.st65{fill:#969696;}
	.st66{clip-path:url(#SVGID_72_);enable-background:new    ;}
	.st67{clip-path:url(#SVGID_74_);enable-background:new    ;}
	.st68{fill:url(#SVGID_75_);}
	.st69{fill:url(#SVGID_76_);}
	.st70{fill:url(#SVGID_77_);}
	.st71{fill:url(#SVGID_78_);}
	.st72{clip-path:url(#SVGID_80_);}
	.st73{clip-path:url(#SVGID_82_);}
	.st74{clip-path:url(#SVGID_84_);}
	.st75{clip-path:url(#SVGID_86_);}
	.st76{clip-path:url(#SVGID_88_);}
	.st77{clip-path:url(#SVGID_90_);}
	.st78{clip-path:url(#SVGID_92_);}
	.st79{clip-path:url(#SVGID_94_);}
	.st80{clip-path:url(#SVGID_96_);}
	.st81{clip-path:url(#SVGID_98_);}
	.st82{clip-path:url(#SVGID_100_);}
	.st83{clip-path:url(#SVGID_102_);}
	.st84{clip-path:url(#SVGID_104_);}
	.st85{clip-path:url(#SVGID_106_);}
	.st86{clip-path:url(#SVGID_108_);}
	.st87{clip-path:url(#SVGID_110_);}
	.st88{clip-path:url(#SVGID_112_);}
	.st89{clip-path:url(#SVGID_114_);}
	.st90{clip-path:url(#SVGID_116_);}
	.st91{clip-path:url(#SVGID_118_);}
	.st92{clip-path:url(#SVGID_120_);}
	.st93{clip-path:url(#SVGID_122_);}
	.st94{clip-path:url(#SVGID_124_);}
	.st95{clip-path:url(#SVGID_126_);}
	.st96{clip-path:url(#SVGID_128_);}
	.st97{clip-path:url(#SVGID_130_);}
	.st98{clip-path:url(#SVGID_132_);}
	.st99{clip-path:url(#SVGID_134_);}
	.st100{clip-path:url(#SVGID_136_);}
	.st101{clip-path:url(#SVGID_138_);}
	.st102{clip-path:url(#SVGID_140_);}
	.st103{clip-path:url(#SVGID_142_);enable-background:new    ;}
	.st104{clip-path:url(#SVGID_144_);enable-background:new    ;}
	.st105{clip-path:url(#SVGID_146_);enable-background:new    ;}
	.st106{clip-path:url(#SVGID_148_);enable-background:new    ;}
</style>
<g>
	<g id="_x31_8_27_">
		<g id="_x36__28_">
			<g id="XMLID_300_">
				<path id="XMLID_303_" class="st0" d="M87.6,164.8L30,131.2c-7.9-4.6-6.9-12.6,2.2-17.9l48.6-28.2c9.1-5.3,22.9-5.8,30.7-1.2
					l57.5,33.6c7.9,4.6,6.9,12.6-2.2,17.9l-48.6,28.2C109.3,168.9,95.4,169.4,87.6,164.8z"/>
				
					<linearGradient id="XMLID_2_" gradientUnits="userSpaceOnUse" x1="25.55" y1="-55.15" x2="175.2528" y2="-55.15" gradientTransform="matrix(1 0 0 -1 0 66)">
					<stop  offset="1.923080e-03" style="stop-color:#23DBEA"/>
					<stop  offset="1" style="stop-color:#0C5FCD"/>
				</linearGradient>
				<path id="XMLID_302_" class="st1" d="M175.3,122l-0.1-9.1l-10-1.3l-52.7-30.9c-7.9-4.6-21.6-4.1-30.7,1.2L33,110.1
					c-0.4,0.2-0.8,0.5-1.1,0.7l-6.4,1.3v8.3l0,0c0,2.9,1.7,5.6,5.2,7.6l57.5,33.6c7.9,4.6,21.6,4.1,30.7-1.2l48.6-28.2
					C172.8,129.3,175.4,125.5,175.3,122L175.3,122z"/>
				
					<linearGradient id="XMLID_3_" gradientUnits="userSpaceOnUse" x1="100.3418" y1="-21.1667" x2="100.3418" y2="-65.6738" gradientTransform="matrix(1 0 0 -1 0 66)">
					<stop  offset="0" style="stop-color:#DFE0E1"/>
					<stop  offset="1" style="stop-color:#FFFFFF"/>
				</linearGradient>
				<path id="XMLID_301_" class="st2" d="M88.3,154.2l-57.6-33.6C23,116,24,108,33,102.7l48.6-28.2c9.1-5.3,22.9-5.8,30.7-1.2
					l57.5,33.6c7.9,4.6,6.9,12.6-2.2,17.9L119.1,153C109.9,158.3,96.2,158.8,88.3,154.2z"/>
			</g>
		</g>
	</g>
	<g>
		<g>
			<g>
				<g class="st3">
					<g>
						<polygon class="st4" points="101.1,76.5 101.1,79.3 96.8,81.7 96.8,78.9 						"/>
					</g>
					<g>
						<polygon class="st4" points="92.8,81.3 92.8,84.1 88.6,86.5 88.6,83.7 						"/>
					</g>
					<g>
						<polygon class="st4" points="83.9,86.4 83.9,89.2 79.8,91.6 79.8,88.8 						"/>
					</g>
					<g>
						<polygon class="st4" points="75.7,91.2 75.7,94 71.6,96.4 71.6,93.6 						"/>
					</g>
					<g>
						<polygon class="st4" points="154.6,85.6 154.6,88.4 140.1,96.9 140.1,94 						"/>
					</g>
					<g>
						<polygon class="st4" points="132.1,94.4 132.1,97.2 101.1,79.3 101.1,76.5 						"/>
					</g>
					<g>
						<polygon class="st5" points="132.1,94.4 132.1,97.2 127.9,99.7 127.9,96.9 						"/>
					</g>
					<g>
						<polygon class="st6" points="127.9,96.9 127.9,99.7 96.8,81.7 96.8,78.9 						"/>
					</g>
					<g>
						<polygon class="st7" points="132.1,94.4 127.9,96.9 96.8,78.9 101.1,76.5 						"/>
					</g>
					<g>
						<polygon class="st4" points="67.3,96 67.3,98.8 63.2,101.3 63.3,98.5 						"/>
					</g>
					<g>
						<polygon class="st6" points="154.6,102.5 154.6,105.3 140.1,96.9 140.1,94 						"/>
					</g>
					<g>
						<polygon class="st4" points="138.8,107.9 138.8,110.7 92.8,84.1 92.8,81.3 						"/>
					</g>
					<g>
						<polygon class="st6" points="134.6,110.3 134.6,113.1 88.6,86.5 88.6,83.7 						"/>
					</g>
					<g>
						<polygon class="st5" points="138.8,107.9 138.8,110.7 134.6,113.1 134.6,110.3 						"/>
					</g>
					<g>
						<polygon class="st4" points="129.9,113 129.9,115.8 83.9,89.2 83.9,86.4 						"/>
					</g>
					<g>
						<polygon class="st6" points="125.8,115.4 125.8,118.2 79.8,91.6 79.8,88.8 						"/>
					</g>
					<g>
						<polygon class="st5" points="129.9,113 129.9,115.8 125.8,118.2 125.8,115.4 						"/>
					</g>
					<g>
						<polygon class="st8" points="129.9,113 125.8,115.4 79.8,88.8 83.9,86.4 						"/>
					</g>
					<g>
						<polygon class="st4" points="121.7,117.8 121.7,120.6 75.7,94 75.7,91.2 						"/>
					</g>
					<g>
						<polygon class="st6" points="117.6,120.2 117.6,123 71.6,96.4 71.6,93.6 						"/>
					</g>
					<g>
						<polygon class="st5" points="121.7,117.8 121.7,120.6 117.6,123 117.6,120.2 						"/>
					</g>
					<g>
						<polygon class="st4" points="113.3,122.6 113.3,125.4 67.3,98.8 67.3,96 						"/>
					</g>
					<g>
						<polygon class="st5" points="113.3,122.6 113.3,125.4 109.2,127.8 109.3,125 						"/>
					</g>
					<g>
						<polygon class="st6" points="109.3,125 109.2,127.8 63.2,101.3 63.3,98.5 						"/>
					</g>
					<g>
						<path class="st9" d="M140.1,94l14.6,8.4l-55.3,32.2l-52.8-30.4l69.8-40.6l38.1,22L140.1,94z M125.8,115.4l4.2-2.4L84,86.4
							l-4.2,2.4L125.8,115.4L125.8,115.4z M109.3,125l4.2-2.4L67.3,96l-4.2,2.4L109.3,125L109.3,125z M134.6,110.3l4.2-2.4l-46-26.6
							l-4.2,2.4L134.6,110.3L134.6,110.3z M117.6,120.2l4.2-2.4l-46-26.6l-4.2,2.4L117.6,120.2L117.6,120.2z M101.1,76.5l-4.2,2.4
							l31.1,18l4.2-2.4L101.1,76.5L101.1,76.5z"/>
					</g>
					<g>
						<polygon class="st8" points="138.8,107.9 134.6,110.3 88.6,83.7 92.8,81.3 						"/>
					</g>
					<g>
						<polygon class="st8" points="121.7,117.8 117.6,120.2 71.6,93.6 75.7,91.2 						"/>
					</g>
					<g>
						<polygon class="st8" points="113.3,122.6 109.3,125 63.3,98.5 67.3,96 						"/>
					</g>
					<g>
						<polygon class="st10" points="154.6,102.5 154.6,105.3 99.3,137.4 99.3,134.6 						"/>
					</g>
					<g>
						<polygon class="st11" points="99.3,134.6 99.3,137.4 46.7,107 46.7,104.2 						"/>
					</g>
				</g>
			</g>
			<g>
				<g class="st3">
					<g>
						<polygon class="st4" points="101.1,72.1 101.1,74.9 96.8,77.3 96.8,74.5 						"/>
					</g>
					<g>
						<polygon class="st4" points="92.8,76.9 92.8,79.7 88.6,82.2 88.6,79.4 						"/>
					</g>
					<g>
						<polygon class="st4" points="83.9,82 83.9,84.8 79.8,87.2 79.8,84.4 						"/>
					</g>
					<g>
						<polygon class="st4" points="75.7,86.8 75.7,89.6 71.6,92.1 71.6,89.3 						"/>
					</g>
					<g>
						<polygon class="st4" points="154.6,81.3 154.6,84.1 140.1,92.5 140.1,89.7 						"/>
					</g>
					<g>
						<polygon class="st4" points="132.1,90.1 132.1,92.9 101.1,74.9 101.1,72.1 						"/>
					</g>
					<g>
						<polygon class="st5" points="132.1,90.1 132.1,92.9 127.9,95.3 127.9,92.5 						"/>
					</g>
					<g>
						<polygon class="st6" points="127.9,92.5 127.9,95.3 96.8,77.3 96.8,74.5 						"/>
					</g>
					<g>
						<polygon class="st7" points="132.1,90.1 127.9,92.5 96.8,74.5 101.1,72.1 						"/>
					</g>
					<g>
						<polygon class="st4" points="67.3,91.7 67.3,94.5 63.2,96.9 63.3,94.1 						"/>
					</g>
					<g>
						<polygon class="st6" points="154.6,98.1 154.6,100.9 140.1,92.5 140.1,89.7 						"/>
					</g>
					<g>
						<polygon class="st4" points="138.8,103.5 138.8,106.3 92.8,79.7 92.8,76.9 						"/>
					</g>
					<g>
						<polygon class="st6" points="134.6,105.9 134.6,108.7 88.6,82.2 88.6,79.4 						"/>
					</g>
					<g>
						<polygon class="st5" points="138.8,103.5 138.8,106.3 134.6,108.7 134.6,105.9 						"/>
					</g>
					<g>
						<polygon class="st4" points="129.9,108.6 129.9,111.4 83.9,84.8 83.9,82 						"/>
					</g>
					<g>
						<polygon class="st6" points="125.8,111 125.8,113.8 79.8,87.2 79.8,84.4 						"/>
					</g>
					<g>
						<polygon class="st5" points="129.9,108.6 129.9,111.4 125.8,113.8 125.8,111 						"/>
					</g>
					<g>
						<polygon class="st8" points="129.9,108.6 125.8,111 79.8,84.4 83.9,82 						"/>
					</g>
					<g>
						<polygon class="st4" points="121.7,113.4 121.7,116.2 75.7,89.6 75.7,86.8 						"/>
					</g>
					<g>
						<polygon class="st6" points="117.6,115.8 117.6,118.6 71.6,92.1 71.6,89.3 						"/>
					</g>
					<g>
						<polygon class="st5" points="121.7,113.4 121.7,116.2 117.6,118.6 117.6,115.8 						"/>
					</g>
					<g>
						<polygon class="st4" points="113.3,118.2 113.3,121 67.3,94.5 67.3,91.7 						"/>
					</g>
					<g>
						<polygon class="st5" points="113.3,118.2 113.3,121 109.2,123.5 109.3,120.7 						"/>
					</g>
					<g>
						<polygon class="st6" points="109.3,120.7 109.2,123.5 63.2,96.9 63.3,94.1 						"/>
					</g>
					<g>
						<path class="st9" d="M140.1,89.7l14.6,8.4l-55.4,32.1L46.7,99.8l69.8-40.6l38.1,22L140.1,89.7z M125.8,111l4.2-2.4L83.9,82
							l-4.2,2.4L125.8,111L125.8,111z M109.3,120.7l4.2-2.4l-46-26.6l-4.2,2.4L109.3,120.7L109.3,120.7z M134.6,105.9l4.2-2.4
							l-46-26.6l-4.2,2.4L134.6,105.9L134.6,105.9z M117.6,115.8l4.2-2.4l-46-26.6l-4.2,2.4L117.6,115.8L117.6,115.8z M101.1,72.1
							l-4.2,2.4l31.1,18l4.2-2.4L101.1,72.1L101.1,72.1z"/>
					</g>
					<g>
						<polygon class="st8" points="138.8,103.5 134.6,105.9 88.6,79.4 92.8,76.9 						"/>
					</g>
					<g>
						<polygon class="st8" points="121.7,113.4 117.6,115.8 71.6,89.3 75.7,86.8 						"/>
					</g>
					<g>
						<polygon class="st8" points="113.3,118.2 109.3,120.7 63.3,94.1 67.3,91.7 						"/>
					</g>
					<g>
						<polygon class="st10" points="154.6,98.1 154.6,100.9 99.3,133 99.3,130.2 						"/>
					</g>
					<g>
						<polygon class="st11" points="99.3,130.2 99.3,133 46.7,102.6 46.7,99.8 						"/>
					</g>
				</g>
			</g>
			<g>
				<g class="st3">
					<g>
						<polygon class="st4" points="101.1,67.7 101.1,70.5 96.8,73 96.8,70.2 						"/>
					</g>
					<g>
						<polygon class="st4" points="92.8,72.6 92.8,75.4 88.6,77.8 88.6,75 						"/>
					</g>
					<g>
						<polygon class="st4" points="83.9,77.6 83.9,80.4 79.8,82.9 79.8,80.1 						"/>
					</g>
					<g>
						<polygon class="st4" points="75.7,82.5 75.7,85.3 71.6,87.7 71.6,84.9 						"/>
					</g>
					<g>
						<polygon class="st4" points="154.6,76.9 154.6,79.7 140.1,88.1 140.1,85.3 						"/>
					</g>
					<g>
						<polygon class="st4" points="132.1,85.7 132.1,88.5 101.1,70.5 101.1,67.7 						"/>
					</g>
					<g>
						<polygon class="st5" points="132.1,85.7 132.1,88.5 127.9,90.9 127.9,88.1 						"/>
					</g>
					<g>
						<polygon class="st6" points="127.9,88.1 127.9,90.9 96.8,73 96.8,70.2 						"/>
					</g>
					<g>
						<polygon class="st7" points="132.1,85.7 127.9,88.1 96.8,70.2 101.1,67.7 						"/>
					</g>
					<g>
						<polygon class="st4" points="67.3,87.3 67.3,90.1 63.2,92.5 63.3,89.7 						"/>
					</g>
					<g>
						<polygon class="st6" points="154.6,93.7 154.6,96.5 140.1,88.1 140.1,85.3 						"/>
					</g>
					<g>
						<polygon class="st4" points="138.8,99.1 138.8,101.9 92.8,75.4 92.8,72.6 						"/>
					</g>
					<g>
						<polygon class="st6" points="134.6,101.6 134.6,104.4 88.6,77.8 88.6,75 						"/>
					</g>
					<g>
						<polygon class="st5" points="138.8,99.1 138.8,101.9 134.6,104.4 134.6,101.6 						"/>
					</g>
					<g>
						<polygon class="st4" points="129.9,104.2 129.9,107 83.9,80.4 83.9,77.6 						"/>
					</g>
					<g>
						<polygon class="st6" points="125.8,106.6 125.8,109.4 79.8,82.9 79.8,80.1 						"/>
					</g>
					<g>
						<polygon class="st5" points="129.9,104.2 129.9,107 125.8,109.4 125.8,106.6 						"/>
					</g>
					<g>
						<polygon class="st8" points="129.9,104.2 125.8,106.6 79.8,80.1 83.9,77.6 						"/>
					</g>
					<g>
						<polygon class="st4" points="121.7,109 121.7,111.8 75.7,85.3 75.7,82.5 						"/>
					</g>
					<g>
						<polygon class="st6" points="117.6,111.5 117.6,114.3 71.6,87.7 71.6,84.9 						"/>
					</g>
					<g>
						<polygon class="st5" points="121.7,109 121.7,111.8 117.6,114.3 117.6,111.5 						"/>
					</g>
					<g>
						<polygon class="st4" points="113.3,113.9 113.3,116.7 67.3,90.1 67.3,87.3 						"/>
					</g>
					<g>
						<polygon class="st5" points="113.3,113.9 113.3,116.7 109.2,119.1 109.3,116.3 						"/>
					</g>
					<g>
						<polygon class="st6" points="109.3,116.3 109.2,119.1 63.2,92.5 63.3,89.7 						"/>
					</g>
					<g>
						<path class="st9" d="M140.1,85.3l14.6,8.4l-55.4,32.2L46.7,95.5l69.8-40.6l38.1,22L140.1,85.3z M125.8,106.6l4.2-2.4L84,77.6
							L79.8,80L125.8,106.6L125.8,106.6z M109.3,116.3l4.2-2.4l-46-26.6l-4.2,2.4L109.3,116.3L109.3,116.3z M134.6,101.6l4.2-2.4
							l-46-26.6L88.6,75L134.6,101.6L134.6,101.6z M117.6,111.5l4.2-2.4l-46-26.6l-4.2,2.4L117.6,111.5L117.6,111.5z M101.1,67.7
							l-4.2,2.4l31.1,18l4.2-2.4L101.1,67.7L101.1,67.7z"/>
					</g>
					<g>
						<polygon class="st8" points="138.8,99.1 134.6,101.6 88.6,75 92.8,72.6 						"/>
					</g>
					<g>
						<polygon class="st8" points="121.7,109 117.6,111.5 71.6,84.9 75.7,82.5 						"/>
					</g>
					<g>
						<polygon class="st8" points="113.3,113.9 109.3,116.3 63.3,89.7 67.3,87.3 						"/>
					</g>
					<g>
						<polygon class="st10" points="154.6,93.7 154.6,96.5 99.3,128.7 99.3,125.9 						"/>
					</g>
					<g>
						<polygon class="st11" points="99.3,125.9 99.3,128.7 46.7,98.3 46.7,95.5 						"/>
					</g>
				</g>
			</g>
			<g>
				<g class="st3">
					<g>
						<polygon class="st4" points="101.1,63.4 101.1,66.2 96.8,68.6 96.8,65.8 						"/>
					</g>
					<g>
						<polygon class="st4" points="92.8,68.2 92.8,71 88.6,73.4 88.6,70.6 						"/>
					</g>
					<g>
						<polygon class="st4" points="83.9,73.3 83.9,76.1 79.8,78.5 79.8,75.7 						"/>
					</g>
					<g>
						<polygon class="st4" points="75.7,78.1 75.7,80.9 71.6,83.3 71.6,80.5 						"/>
					</g>
					<g>
						<polygon class="st4" points="154.6,72.5 154.6,75.3 140.1,83.7 140.1,80.9 						"/>
					</g>
					<g>
						<polygon class="st4" points="132.1,81.3 132.1,84.1 101.1,66.2 101.1,63.4 						"/>
					</g>
					<g>
						<polygon class="st5" points="132.1,81.3 132.1,84.1 127.9,86.5 127.9,83.7 						"/>
					</g>
					<g>
						<polygon class="st6" points="127.9,83.7 127.9,86.5 96.8,68.6 96.8,65.8 						"/>
					</g>
					<g>
						
							<linearGradient id="SVGID_1_" gradientUnits="userSpaceOnUse" x1="96.85" y1="-7.55" x2="132.11" y2="-7.55" gradientTransform="matrix(1 0 0 -1 0 66)">
							<stop  offset="1.923080e-03" style="stop-color:#23DBEA"/>
							<stop  offset="1" style="stop-color:#0C5FCD"/>
						</linearGradient>
						<polygon class="st12" points="132.1,81.3 127.9,83.7 96.8,65.8 101.1,63.4 						"/>
					</g>
					<g>
						<polygon class="st4" points="67.3,82.9 67.3,85.7 63.2,88.1 63.3,85.3 						"/>
					</g>
					<g>
						<polygon class="st13" points="154.6,72.5 154.6,89.3 140.1,80.9 						"/>
					</g>
					<g>
						<polygon class="st6" points="154.6,89.3 154.6,92.1 140.1,83.7 140.1,80.9 						"/>
					</g>
					<g>
						<polygon class="st4" points="138.8,94.8 138.8,97.6 92.8,71 92.8,68.2 						"/>
					</g>
					<g>
						<polygon class="st6" points="134.6,97.2 134.6,100 88.6,73.4 88.6,70.6 						"/>
					</g>
					<g>
						<polygon class="st5" points="138.8,94.8 138.8,97.6 134.6,100 134.6,97.2 						"/>
					</g>
					<g>
						<polygon class="st4" points="129.9,99.8 129.9,102.6 83.9,76.1 83.9,73.3 						"/>
					</g>
					<g>
						<polygon class="st6" points="125.8,102.3 125.8,105.1 79.8,78.5 79.8,75.7 						"/>
					</g>
					<g>
						<polygon class="st5" points="129.9,99.8 129.9,102.6 125.8,105.1 125.8,102.3 						"/>
					</g>
					<g>
						<polygon class="st8" points="129.9,99.8 125.8,102.3 79.8,75.7 83.9,73.3 						"/>
					</g>
					<g>
						<polygon class="st4" points="121.7,104.7 121.7,107.5 75.7,80.9 75.7,78.1 						"/>
					</g>
					<g>
						<polygon class="st6" points="117.6,107.1 117.6,109.9 71.6,83.3 71.6,80.5 						"/>
					</g>
					<g>
						<polygon class="st5" points="121.7,104.7 121.7,107.5 117.6,109.9 117.6,107.1 						"/>
					</g>
					<g>
						<polygon class="st4" points="113.3,109.5 113.3,112.3 67.3,85.7 67.3,82.9 						"/>
					</g>
					<g>
						<polygon class="st5" points="113.3,109.5 113.3,112.3 109.2,114.7 109.3,111.9 						"/>
					</g>
					<g>
						<polygon class="st6" points="109.3,111.9 109.2,114.7 63.2,88.1 63.3,85.3 						"/>
					</g>
					<g>
						<path class="st9" d="M140.1,80.9l14.6,8.4l-55.4,32.2L46.7,91.1l69.8-40.6l38.1,22L140.1,80.9z M125.8,102.3l4.2-2.4L84,73.3
							l-4.2,2.4L125.8,102.3L125.8,102.3z M109.3,111.9l4.2-2.4l-46-26.6l-4.2,2.4L109.3,111.9L109.3,111.9z M134.6,97.2l4.2-2.4
							l-46-26.6l-4.2,2.4L134.6,97.2L134.6,97.2z M117.6,107.1l4.2-2.4l-46-26.6l-4.2,2.4L117.6,107.1L117.6,107.1z M101.1,63.4
							l-4.2,2.4l31.1,18l4.2-2.4L101.1,63.4L101.1,63.4z"/>
					</g>
					<g>
						<polygon class="st8" points="138.8,94.8 134.6,97.2 88.6,70.6 92.8,68.2 						"/>
					</g>
					<g>
						<polygon class="st8" points="121.7,104.7 117.6,107.1 71.6,80.5 75.7,78.1 						"/>
					</g>
					<g>
						<polygon class="st8" points="113.3,109.5 109.3,111.9 63.3,85.3 67.3,82.9 						"/>
					</g>
					<g>
						<polygon class="st10" points="154.6,89.3 154.6,92.1 99.3,124.3 99.3,121.5 						"/>
					</g>
					<g>
						<polygon class="st11" points="99.3,121.5 99.3,124.3 46.7,93.9 46.7,91.1 						"/>
					</g>
				</g>
			</g>
			<g>
				<g class="st3">
					<g>
						
							<linearGradient id="SVGID_2_" gradientUnits="userSpaceOnUse" x1="141.0571" y1="-22.1045" x2="145.1519" y2="-22.1045" gradientTransform="matrix(1 0 0 -1 0 66)">
							<stop  offset="1.923080e-03" style="stop-color:#23DBEA"/>
							<stop  offset="1" style="stop-color:#0C5FCD"/>
						</linearGradient>
						<path class="st14" d="M142.9,89.4c-0.2,0.2-0.5,0.3-0.8,0.1c-0.5-0.3-1-1.1-1-1.7c0-0.4,0.2-0.7,0.5-0.7
							c1.2-0.2,2.4-0.4,3.6-0.5C144.4,87.5,143.6,88.5,142.9,89.4z"/>
					</g>
					<g>
						<path class="st15" d="M143.1,88.9c0,0.6-0.4,0.9-1,0.6c-0.5-0.3-1-1.1-1-1.7c0-0.6,0.4-0.9,1-0.6
							C142.6,87.5,143.1,88.3,143.1,88.9z"/>
					</g>
				</g>
				<g class="st3">
					<g>
						<path class="st16" d="M143.1,88.9c0,0.6-0.4,0.9-1,0.6c-0.5-0.3-1-1.1-1-1.7c0-0.6,0.4-0.9,1-0.6
							C142.6,87.5,143.1,88.3,143.1,88.9z"/>
					</g>
					<g>
						<path class="st16" d="M139.4,93.7c-0.4,0.5-1.2,0.6-2.1,0.2c-1.4-0.8-2.5-2.7-2.5-4.2c0-1,0.5-1.7,1.2-1.8
							c1.8-0.3,3.6-0.5,5.4-0.8c-0.3,0-0.5,0.3-0.5,0.7c0,0.6,0.5,1.4,1,1.7c0.3,0.2,0.7,0.2,0.8-0.1
							C141.8,90.9,140.6,92.3,139.4,93.7z"/>
					</g>
					<g>
						<path class="st10" d="M142.9,89.4c-1.1,1.4-2.3,2.9-3.4,4.3c0.2-0.3,0.4-0.8,0.4-1.3l3.2-3.5
							C143.1,89.1,142.9,89.3,142.9,89.4z"/>
					</g>
					<g>
						<path class="st10" d="M136.1,87.9c1.8-0.3,3.6-0.5,5.4-0.8c0.1,0,0.3,0,0.5,0.1c0.5,0.3,1,1.1,1,1.7l-3.2,3.5
							c0-1.6-1.1-3.5-2.5-4.2C136.9,87.9,136.4,87.8,136.1,87.9z"/>
					</g>
					<g>
						<path class="st16" d="M139.9,92.4c0,1.6-1.1,2.2-2.4,1.5c-1.4-0.8-2.5-2.7-2.5-4.2s1.1-2.2,2.4-1.5
							C138.8,89,139.9,90.8,139.9,92.4z"/>
					</g>
				</g>
				<g class="st3">
					<g>
						<path class="st15" d="M139.9,92.4c0,1.6-1.1,2.2-2.4,1.5c-1.4-0.8-2.5-2.7-2.5-4.2s1.1-2.2,2.4-1.5
							C138.8,89,139.9,90.8,139.9,92.4z"/>
					</g>
					<g>
						<path class="st15" d="M103.6,114.8c-0.4,0.3-1,0.2-1.7-0.1c-1.4-0.8-2.5-2.7-2.5-4.2c0-0.8,0.3-1.4,0.7-1.6L135.6,88
							c-0.5,0.3-0.7,0.8-0.7,1.6c0,1.6,1.1,3.5,2.5,4.2c0.7,0.4,1.3,0.4,1.7,0.1C128.4,100.3,114.2,108.5,103.6,114.8z"/>
					</g>
					<g>
						
							<linearGradient id="SVGID_3_" gradientUnits="userSpaceOnUse" x1="103.5025" y1="-37.65" x2="139.8411" y2="-37.65" gradientTransform="matrix(1 0 0 -1 0 66)">
							<stop  offset="1.923080e-03" style="stop-color:#23DBEA"/>
							<stop  offset="1" style="stop-color:#0C5FCD"/>
						</linearGradient>
						<path class="st17" d="M139.1,94.1l-35.6,20.7c0.5-0.3,0.7-0.8,0.7-1.6l35.6-20.7C139.9,93.2,139.6,93.8,139.1,94.1z"/>
					</g>
					<g>
						
							<linearGradient id="SVGID_4_" gradientUnits="userSpaceOnUse" x1="100.05" y1="-34.4594" x2="139.85" y2="-34.4594" gradientTransform="matrix(1 0 0 -1 0 66)">
							<stop  offset="1.923080e-03" style="stop-color:#23DBEA"/>
							<stop  offset="1" style="stop-color:#0C5FCD"/>
						</linearGradient>
						<path class="st18" d="M100.1,108.7L135.6,88c0.4-0.3,1-0.2,1.7,0.1c1.4,0.8,2.5,2.7,2.5,4.2l-35.6,20.8c0-1.6-1.1-3.5-2.5-4.2
							C101.1,108.5,100.4,108.5,100.1,108.7z"/>
					</g>
					<g>
						<path class="st15" d="M104.3,113.1c0,1.6-1.1,2.2-2.4,1.5c-1.4-0.8-2.5-2.7-2.5-4.2s1.1-2.2,2.4-1.5
							C103.1,109.7,104.3,111.5,104.3,113.1z"/>
					</g>
				</g>
				<g class="st3">
					<g>
						<path class="st16" d="M104.3,113.1c0,1.6-1.1,2.2-2.4,1.5c-1.4-0.8-2.5-2.7-2.5-4.2s1.1-2.2,2.4-1.5
							C103.1,109.7,104.3,111.5,104.3,113.1z"/>
					</g>
					<g>
						<path class="st16" d="M98.3,117.8c-0.4,0.3-1,0.2-1.7-0.1c-1.4-0.8-2.5-2.7-2.5-4.2c0-0.8,0.3-1.4,0.7-1.6l5.3-3.1
							c-0.5,0.3-0.7,0.8-0.7,1.6c0,1.6,1.1,3.5,2.5,4.2c0.7,0.4,1.3,0.4,1.7,0.1C101.9,115.7,99.8,116.9,98.3,117.8z"/>
					</g>
					<g>
						<path class="st10" d="M103.6,114.8l-5.3,3.1c0.5-0.3,0.7-0.8,0.7-1.6l5.3-3.1C104.3,113.9,103.9,114.5,103.6,114.8z"/>
					</g>
					<g>
						<path class="st10" d="M94.8,111.8l5.3-3.1c0.4-0.3,1-0.2,1.7,0.1c1.4,0.8,2.5,2.7,2.5,4.2l-5.3,3.1c0-1.6-1.1-3.5-2.5-4.2
							C95.8,111.6,95.2,111.5,94.8,111.8z"/>
					</g>
					<g>
						<path class="st11" d="M98.9,116.2c0,1.6-1.1,2.2-2.4,1.5c-1.4-0.8-2.5-2.7-2.5-4.2c0-1.6,1.1-2.2,2.4-1.5
							C97.8,112.7,98.9,114.6,98.9,116.2z"/>
					</g>
				</g>
			</g>
		</g>
		<g>
			<g class="st19">
				<polygon points="123.9,62.1 123.9,63 118.8,60 118.8,59.1 				"/>
				<polygon points="115.4,63 115.4,64 109.6,60.5 109.6,59.6 				"/>
				<g>
					<g>
						<defs>
							<path id="SVGID_5_" d="M120.3,62.7v0.9c0,0-0.4,0.1-1.3,0.5v-0.9C119.8,62.8,120.3,62.7,120.3,62.7z"/>
						</defs>
						<clipPath id="SVGID_6_">
							<use xlink:href="#SVGID_5_"  style="overflow:visible;"/>
						</clipPath>
						<path class="st20" d="M120.3,62.7v0.9c0,0-0.4,0.1-1.3,0.5v-0.9C119.8,62.8,120.3,62.7,120.3,62.7"/>
					</g>
				</g>
				<path d="M118.9,63.2c-0.7,0.3-1.9,0.7-3.4-0.2l-5.9-3.4c0,0,0.4-0.1,1.3-0.5c0.7-0.3,1.9-0.7,3.4,0.2l5.9,3.4
					C120.3,62.7,119.8,62.8,118.9,63.2z"/>
				<g>
					<g>
						<defs>
							<path id="SVGID_7_" d="M118.9,63.2v0.9c-0.7,0.3-1.9,0.7-3.4-0.2V63C116.9,63.9,118.2,63.4,118.9,63.2z"/>
						</defs>
						<clipPath id="SVGID_8_">
							<use xlink:href="#SVGID_7_"  style="overflow:visible;"/>
						</clipPath>
						<path class="st21" d="M118.9,63.2v0.9c-0.1,0-0.2,0.1-0.4,0.1v-0.9C118.7,63.3,118.8,63.2,118.9,63.2"/>
					</g>
					<g>
						<defs>
							<path id="SVGID_9_" d="M118.9,63.2v0.9c-0.7,0.3-1.9,0.7-3.4-0.2V63C116.9,63.9,118.2,63.4,118.9,63.2z"/>
						</defs>
						<clipPath id="SVGID_10_">
							<use xlink:href="#SVGID_9_"  style="overflow:visible;"/>
						</clipPath>
						<path class="st22" d="M118.6,63.3v0.9c-0.2,0.1-0.4,0.1-0.6,0.2v-0.9C118.2,63.4,118.3,63.4,118.6,63.3"/>
					</g>
					<g>
						<defs>
							<path id="SVGID_11_" d="M118.9,63.2v0.9c-0.7,0.3-1.9,0.7-3.4-0.2V63C116.9,63.9,118.2,63.4,118.9,63.2z"/>
						</defs>
						<clipPath id="SVGID_12_">
							<use xlink:href="#SVGID_11_"  style="overflow:visible;"/>
						</clipPath>
						<path class="st23" d="M117.9,63.5v0.9c-0.1,0-0.2,0-0.3,0v-0.9C117.8,63.5,117.8,63.5,117.9,63.5"/>
					</g>
					<g>
						<defs>
							<path id="SVGID_13_" d="M118.9,63.2v0.9c-0.7,0.3-1.9,0.7-3.4-0.2V63C116.9,63.9,118.2,63.4,118.9,63.2z"/>
						</defs>
						<clipPath id="SVGID_14_">
							<use xlink:href="#SVGID_13_"  style="overflow:visible;"/>
						</clipPath>
						<path class="st24" d="M117.7,63.5v0.9c-0.1,0-0.1,0-0.2,0v-0.9C117.4,63.5,117.6,63.5,117.7,63.5"/>
					</g>
					<g>
						<defs>
							<path id="SVGID_15_" d="M118.9,63.2v0.9c-0.7,0.3-1.9,0.7-3.4-0.2V63C116.9,63.9,118.2,63.4,118.9,63.2z"/>
						</defs>
						<clipPath id="SVGID_16_">
							<use xlink:href="#SVGID_15_"  style="overflow:visible;"/>
						</clipPath>
						<path class="st25" d="M117.3,63.5v0.9c-0.1,0-0.1,0-0.2,0v-0.9C117.3,63.5,117.3,63.5,117.3,63.5"/>
					</g>
					<g>
						<defs>
							<path id="SVGID_17_" d="M118.9,63.2v0.9c-0.7,0.3-1.9,0.7-3.4-0.2V63C116.9,63.9,118.2,63.4,118.9,63.2z"/>
						</defs>
						<clipPath id="SVGID_18_">
							<use xlink:href="#SVGID_17_"  style="overflow:visible;"/>
						</clipPath>
						<path class="st26" d="M117.2,63.5v0.9c-0.1,0-0.1,0-0.2,0v-0.9C117.1,63.5,117.2,63.5,117.2,63.5"/>
					</g>
					<g>
						<defs>
							<path id="SVGID_19_" d="M118.9,63.2v0.9c-0.7,0.3-1.9,0.7-3.4-0.2V63C116.9,63.9,118.2,63.4,118.9,63.2z"/>
						</defs>
						<clipPath id="SVGID_20_">
							<use xlink:href="#SVGID_19_"  style="overflow:visible;"/>
						</clipPath>
						<path class="st27" d="M116.9,63.5v0.9c-0.1,0-0.1,0-0.2,0v-0.9C116.8,63.5,116.9,63.5,116.9,63.5"/>
					</g>
					<g>
						<defs>
							<path id="SVGID_21_" d="M118.9,63.2v0.9c-0.7,0.3-1.9,0.7-3.4-0.2V63C116.9,63.9,118.2,63.4,118.9,63.2z"/>
						</defs>
						<clipPath id="SVGID_22_">
							<use xlink:href="#SVGID_21_"  style="overflow:visible;"/>
						</clipPath>
						<path class="st28" d="M116.8,63.5v0.9c-0.1,0-0.1,0-0.2,0v-0.9C116.7,63.5,116.8,63.5,116.8,63.5"/>
					</g>
					<g>
						<defs>
							<path id="SVGID_23_" d="M118.9,63.2v0.9c-0.7,0.3-1.9,0.7-3.4-0.2V63C116.9,63.9,118.2,63.4,118.9,63.2z"/>
						</defs>
						<clipPath id="SVGID_24_">
							<use xlink:href="#SVGID_23_"  style="overflow:visible;"/>
						</clipPath>
						<path class="st29" d="M116.6,63.5v0.9c-0.1,0-0.2,0-0.2-0.1v-0.9C116.4,63.4,116.6,63.4,116.6,63.5"/>
					</g>
					<g>
						<defs>
							<path id="SVGID_25_" d="M118.9,63.2v0.9c-0.7,0.3-1.9,0.7-3.4-0.2V63C116.9,63.9,118.2,63.4,118.9,63.2z"/>
						</defs>
						<clipPath id="SVGID_26_">
							<use xlink:href="#SVGID_25_"  style="overflow:visible;"/>
						</clipPath>
						<path class="st30" d="M116.3,63.4v0.9c-0.1,0-0.2-0.1-0.3-0.1v-0.9C116.2,63.3,116.3,63.4,116.3,63.4"/>
					</g>
					<g>
						<defs>
							<path id="SVGID_27_" d="M118.9,63.2v0.9c-0.7,0.3-1.9,0.7-3.4-0.2V63C116.9,63.9,118.2,63.4,118.9,63.2z"/>
						</defs>
						<clipPath id="SVGID_28_">
							<use xlink:href="#SVGID_27_"  style="overflow:visible;"/>
						</clipPath>
						<path class="st31" d="M116.1,63.3v0.9c-0.2-0.1-0.4-0.2-0.6-0.3V63C115.7,63.1,115.8,63.2,116.1,63.3"/>
					</g>
				</g>
				<g>
					<g>
						<defs>
							<path id="SVGID_29_" d="M125.9,64.1V65c0-0.6-0.6-1.2-2-2v-0.9C125.3,62.9,125.9,63.5,125.9,64.1z"/>
						</defs>
						<clipPath id="SVGID_30_">
							<use xlink:href="#SVGID_29_"  style="overflow:visible;"/>
						</clipPath>
						<path class="st32" d="M125.9,64.1V65c0-0.6-0.6-1.2-2-2v-0.9C125.3,62.9,125.9,63.5,125.9,64.1"/>
					</g>
				</g>
				<polygon points="112.6,67.2 112.6,68.2 106.8,64.8 106.8,63.9 				"/>
				<g>
					<g>
						<defs>
							<path id="SVGID_31_" d="M130.8,64.4v0.9c0,1.4-1.7,2.5-4.4,3.6c-3.1,1.2-6.3,1.7-9.2,1.1c-1.3-0.3-2.4-0.6-4.5-1.8v-0.9
								c2,1.2,3.1,1.5,4.5,1.8c3,0.6,6.2,0.2,9.2-1.1C128.9,66.9,130.6,65.8,130.8,64.4z"/>
						</defs>
						<clipPath id="SVGID_32_">
							<use xlink:href="#SVGID_31_"  style="overflow:visible;"/>
						</clipPath>
						<path class="st33" d="M130.8,64.4v0.9l0,0V64.4C130.6,64.4,130.6,64.4,130.8,64.4"/>
					</g>
					<g>
						<defs>
							<path id="SVGID_33_" d="M130.8,64.4v0.9c0,1.4-1.7,2.5-4.4,3.6c-3.1,1.2-6.3,1.7-9.2,1.1c-1.3-0.3-2.4-0.6-4.5-1.8v-0.9
								c2,1.2,3.1,1.5,4.5,1.8c3,0.6,6.2,0.2,9.2-1.1C128.9,66.9,130.6,65.8,130.8,64.4z"/>
						</defs>
						<clipPath id="SVGID_34_">
							<use xlink:href="#SVGID_33_"  style="overflow:visible;"/>
						</clipPath>
						<path class="st34" d="M130.6,64.5v0.9c0,0.1,0,0.2,0,0.3v-0.9C130.6,64.6,130.6,64.5,130.6,64.5"/>
					</g>
					<g>
						<defs>
							<path id="SVGID_35_" d="M130.8,64.4v0.9c0,1.4-1.7,2.5-4.4,3.6c-3.1,1.2-6.3,1.7-9.2,1.1c-1.3-0.3-2.4-0.6-4.5-1.8v-0.9
								c2,1.2,3.1,1.5,4.5,1.8c3,0.6,6.2,0.2,9.2-1.1C128.9,66.9,130.6,65.8,130.8,64.4z"/>
						</defs>
						<clipPath id="SVGID_36_">
							<use xlink:href="#SVGID_35_"  style="overflow:visible;"/>
						</clipPath>
						<path class="st35" d="M130.6,64.7v0.9c0,0.1,0,0.2-0.1,0.3V65C130.6,64.9,130.6,64.8,130.6,64.7"/>
					</g>
					<g>
						<defs>
							<path id="SVGID_37_" d="M130.8,64.4v0.9c0,1.4-1.7,2.5-4.4,3.6c-3.1,1.2-6.3,1.7-9.2,1.1c-1.3-0.3-2.4-0.6-4.5-1.8v-0.9
								c2,1.2,3.1,1.5,4.5,1.8c3,0.6,6.2,0.2,9.2-1.1C128.9,66.9,130.6,65.8,130.8,64.4z"/>
						</defs>
						<clipPath id="SVGID_38_">
							<use xlink:href="#SVGID_37_"  style="overflow:visible;"/>
						</clipPath>
						<path class="st36" d="M130.6,65v0.9c0,0.1-0.1,0.2-0.1,0.3v-0.9C130.6,65.2,130.6,65.1,130.6,65"/>
					</g>
					<g>
						<defs>
							<path id="SVGID_39_" d="M130.8,64.4v0.9c0,1.4-1.7,2.5-4.4,3.6c-3.1,1.2-6.3,1.7-9.2,1.1c-1.3-0.3-2.4-0.6-4.5-1.8v-0.9
								c2,1.2,3.1,1.5,4.5,1.8c3,0.6,6.2,0.2,9.2-1.1C128.9,66.9,130.6,65.8,130.8,64.4z"/>
						</defs>
						<clipPath id="SVGID_40_">
							<use xlink:href="#SVGID_39_"  style="overflow:visible;"/>
						</clipPath>
						<path class="st37" d="M130.4,65.3v0.9c-0.1,0.1-0.1,0.2-0.2,0.3v-0.9C130.4,65.5,130.4,65.4,130.4,65.3"/>
					</g>
					<g>
						<defs>
							<path id="SVGID_41_" d="M130.8,64.4v0.9c0,1.4-1.7,2.5-4.4,3.6c-3.1,1.2-6.3,1.7-9.2,1.1c-1.3-0.3-2.4-0.6-4.5-1.8v-0.9
								c2,1.2,3.1,1.5,4.5,1.8c3,0.6,6.2,0.2,9.2-1.1C128.9,66.9,130.6,65.8,130.8,64.4z"/>
						</defs>
						<clipPath id="SVGID_42_">
							<use xlink:href="#SVGID_41_"  style="overflow:visible;"/>
						</clipPath>
						<path class="st38" d="M130.3,65.6v0.9c-0.1,0.1-0.2,0.3-0.4,0.4V66C129.9,65.9,130.1,65.7,130.3,65.6"/>
					</g>
					<g>
						<defs>
							<path id="SVGID_43_" d="M130.8,64.4v0.9c0,1.4-1.7,2.5-4.4,3.6c-3.1,1.2-6.3,1.7-9.2,1.1c-1.3-0.3-2.4-0.6-4.5-1.8v-0.9
								c2,1.2,3.1,1.5,4.5,1.8c3,0.6,6.2,0.2,9.2-1.1C128.9,66.9,130.6,65.8,130.8,64.4z"/>
						</defs>
						<clipPath id="SVGID_44_">
							<use xlink:href="#SVGID_43_"  style="overflow:visible;"/>
						</clipPath>
						<path class="st39" d="M129.9,66v0.9c-0.3,0.3-0.7,0.5-1.1,0.8v-0.9C129.1,66.6,129.6,66.3,129.9,66"/>
					</g>
					<g>
						<defs>
							<path id="SVGID_45_" d="M130.8,64.4v0.9c0,1.4-1.7,2.5-4.4,3.6c-3.1,1.2-6.3,1.7-9.2,1.1c-1.3-0.3-2.4-0.6-4.5-1.8v-0.9
								c2,1.2,3.1,1.5,4.5,1.8c3,0.6,6.2,0.2,9.2-1.1C128.9,66.9,130.6,65.8,130.8,64.4z"/>
						</defs>
						<clipPath id="SVGID_46_">
							<use xlink:href="#SVGID_45_"  style="overflow:visible;"/>
						</clipPath>
						<path class="st40" d="M128.8,66.8v0.9c-0.7,0.4-1.5,0.8-2.5,1.2c-0.5,0.2-0.9,0.3-1.4,0.5v-0.9c0.5-0.1,0.9-0.3,1.4-0.5
							C127.3,67.6,128.1,67.2,128.8,66.8"/>
					</g>
					<g>
						<defs>
							<path id="SVGID_47_" d="M130.8,64.4v0.9c0,1.4-1.7,2.5-4.4,3.6c-3.1,1.2-6.3,1.7-9.2,1.1c-1.3-0.3-2.4-0.6-4.5-1.8v-0.9
								c2,1.2,3.1,1.5,4.5,1.8c3,0.6,6.2,0.2,9.2-1.1C128.9,66.9,130.6,65.8,130.8,64.4z"/>
						</defs>
						<clipPath id="SVGID_48_">
							<use xlink:href="#SVGID_47_"  style="overflow:visible;"/>
						</clipPath>
						<path class="st41" d="M124.9,68.5v0.9c-0.8,0.3-1.6,0.5-2.4,0.6v-0.9C123.3,68.9,124.2,68.7,124.9,68.5"/>
					</g>
					<g>
						<defs>
							<path id="SVGID_49_" d="M130.8,64.4v0.9c0,1.4-1.7,2.5-4.4,3.6c-3.1,1.2-6.3,1.7-9.2,1.1c-1.3-0.3-2.4-0.6-4.5-1.8v-0.9
								c2,1.2,3.1,1.5,4.5,1.8c3,0.6,6.2,0.2,9.2-1.1C128.9,66.9,130.6,65.8,130.8,64.4z"/>
						</defs>
						<clipPath id="SVGID_50_">
							<use xlink:href="#SVGID_49_"  style="overflow:visible;"/>
						</clipPath>
						<path class="st42" d="M122.6,69.1V70c-0.4,0.1-0.9,0.1-1.3,0.2v-0.9C121.8,69.2,122.2,69.2,122.6,69.1"/>
					</g>
					<g>
						<defs>
							<path id="SVGID_51_" d="M130.8,64.4v0.9c0,1.4-1.7,2.5-4.4,3.6c-3.1,1.2-6.3,1.7-9.2,1.1c-1.3-0.3-2.4-0.6-4.5-1.8v-0.9
								c2,1.2,3.1,1.5,4.5,1.8c3,0.6,6.2,0.2,9.2-1.1C128.9,66.9,130.6,65.8,130.8,64.4z"/>
						</defs>
						<clipPath id="SVGID_52_">
							<use xlink:href="#SVGID_51_"  style="overflow:visible;"/>
						</clipPath>
						<path class="st43" d="M121.3,69.3v0.9c-0.3,0-0.7,0.1-1,0.1v-0.9C120.7,69.3,120.9,69.3,121.3,69.3"/>
					</g>
					<g>
						<defs>
							<path id="SVGID_53_" d="M130.8,64.4v0.9c0,1.4-1.7,2.5-4.4,3.6c-3.1,1.2-6.3,1.7-9.2,1.1c-1.3-0.3-2.4-0.6-4.5-1.8v-0.9
								c2,1.2,3.1,1.5,4.5,1.8c3,0.6,6.2,0.2,9.2-1.1C128.9,66.9,130.6,65.8,130.8,64.4z"/>
						</defs>
						<clipPath id="SVGID_54_">
							<use xlink:href="#SVGID_53_"  style="overflow:visible;"/>
						</clipPath>
						<path class="st44" d="M120.3,69.3v0.9c-0.3,0-0.6,0-0.8,0v-0.9C119.8,69.3,120.1,69.3,120.3,69.3"/>
					</g>
					<g>
						<defs>
							<path id="SVGID_55_" d="M130.8,64.4v0.9c0,1.4-1.7,2.5-4.4,3.6c-3.1,1.2-6.3,1.7-9.2,1.1c-1.3-0.3-2.4-0.6-4.5-1.8v-0.9
								c2,1.2,3.1,1.5,4.5,1.8c3,0.6,6.2,0.2,9.2-1.1C128.9,66.9,130.6,65.8,130.8,64.4z"/>
						</defs>
						<clipPath id="SVGID_56_">
							<use xlink:href="#SVGID_55_"  style="overflow:visible;"/>
						</clipPath>
						<path class="st45" d="M119.4,69.3v0.9c-0.3,0-0.5,0-0.8,0v-0.9C118.9,69.3,119.2,69.3,119.4,69.3"/>
					</g>
					<g>
						<defs>
							<path id="SVGID_57_" d="M130.8,64.4v0.9c0,1.4-1.7,2.5-4.4,3.6c-3.1,1.2-6.3,1.7-9.2,1.1c-1.3-0.3-2.4-0.6-4.5-1.8v-0.9
								c2,1.2,3.1,1.5,4.5,1.8c3,0.6,6.2,0.2,9.2-1.1C128.9,66.9,130.6,65.8,130.8,64.4z"/>
						</defs>
						<clipPath id="SVGID_58_">
							<use xlink:href="#SVGID_57_"  style="overflow:visible;"/>
						</clipPath>
						<path class="st46" d="M118.7,69.3v0.9c-0.3,0-0.5,0-0.8-0.1v-0.9C118.2,69.2,118.4,69.3,118.7,69.3"/>
					</g>
					<g>
						<defs>
							<path id="SVGID_59_" d="M130.8,64.4v0.9c0,1.4-1.7,2.5-4.4,3.6c-3.1,1.2-6.3,1.7-9.2,1.1c-1.3-0.3-2.4-0.6-4.5-1.8v-0.9
								c2,1.2,3.1,1.5,4.5,1.8c3,0.6,6.2,0.2,9.2-1.1C128.9,66.9,130.6,65.8,130.8,64.4z"/>
						</defs>
						<clipPath id="SVGID_60_">
							<use xlink:href="#SVGID_59_"  style="overflow:visible;"/>
						</clipPath>
						<path class="st47" d="M117.9,69.2v0.9c-0.3,0-0.5-0.1-0.8-0.1v-0.9C117.3,69.1,117.7,69.2,117.9,69.2"/>
					</g>
					<g>
						<defs>
							<path id="SVGID_61_" d="M130.8,64.4v0.9c0,1.4-1.7,2.5-4.4,3.6c-3.1,1.2-6.3,1.7-9.2,1.1c-1.3-0.3-2.4-0.6-4.5-1.8v-0.9
								c2,1.2,3.1,1.5,4.5,1.8c3,0.6,6.2,0.2,9.2-1.1C128.9,66.9,130.6,65.8,130.8,64.4z"/>
						</defs>
						<clipPath id="SVGID_62_">
							<use xlink:href="#SVGID_61_"  style="overflow:visible;"/>
						</clipPath>
						<path class="st48" d="M117.2,69.1V70c0,0,0,0-0.1,0c-0.3-0.1-0.6-0.1-1-0.2v-0.9C116.4,68.9,116.8,69,117.2,69.1
							C117.1,69.1,117.1,69.1,117.2,69.1"/>
					</g>
					<g>
						<defs>
							<path id="SVGID_63_" d="M130.8,64.4v0.9c0,1.4-1.7,2.5-4.4,3.6c-3.1,1.2-6.3,1.7-9.2,1.1c-1.3-0.3-2.4-0.6-4.5-1.8v-0.9
								c2,1.2,3.1,1.5,4.5,1.8c3,0.6,6.2,0.2,9.2-1.1C128.9,66.9,130.6,65.8,130.8,64.4z"/>
						</defs>
						<clipPath id="SVGID_64_">
							<use xlink:href="#SVGID_63_"  style="overflow:visible;"/>
						</clipPath>
						<path class="st49" d="M116.1,68.8v0.9c-0.3-0.1-0.7-0.2-1-0.3v-0.9C115.4,68.6,115.8,68.7,116.1,68.8"/>
					</g>
					<g>
						<defs>
							<path id="SVGID_65_" d="M130.8,64.4v0.9c0,1.4-1.7,2.5-4.4,3.6c-3.1,1.2-6.3,1.7-9.2,1.1c-1.3-0.3-2.4-0.6-4.5-1.8v-0.9
								c2,1.2,3.1,1.5,4.5,1.8c3,0.6,6.2,0.2,9.2-1.1C128.9,66.9,130.6,65.8,130.8,64.4z"/>
						</defs>
						<clipPath id="SVGID_66_">
							<use xlink:href="#SVGID_65_"  style="overflow:visible;"/>
						</clipPath>
						<path class="st50" d="M115.1,68.5v0.9c-0.7-0.3-1.5-0.7-2.5-1.2v-0.9C113.6,67.8,114.3,68.2,115.1,68.5"/>
					</g>
				</g>
				<path d="M127.7,61.1c5.1,2.9,3.2,5-1.4,6.9c-3.1,1.2-6.3,1.7-9.2,1.1c-1.3-0.3-2.4-0.6-4.5-1.8l-5.8-3.3l3.1-1.3l5.1,2.9
					c3.1,1.8,5.2,1.5,6.7,1c0.6-0.2,2.3-0.7,3.1-1.2c1.6-0.9,1.7-1.9-0.8-3.3l-5.2-3l3.1-1.3L127.7,61.1z"/>
			</g>
			<g>
				<g>
					<g class="st3">
						<g>
							<polygon class="st51" points="123.9,61.1 123.9,62 118.8,59 118.8,58.1 							"/>
						</g>
						<g>
							<polygon class="st51" points="115.4,62 115.4,63 109.6,59.5 109.6,58.6 							"/>
						</g>
						<g class="st3">
							<g>
								<defs>
									<path id="SVGID_67_" d="M120.3,61.7v0.9c0,0-0.4,0.1-1.3,0.5v-0.9C119.8,61.8,120.3,61.7,120.3,61.7z"/>
								</defs>
								<clipPath id="SVGID_68_">
									<use xlink:href="#SVGID_67_"  style="overflow:visible;"/>
								</clipPath>
								<g class="st52">
									<path class="st53" d="M120.3,61.7v0.9c0,0-0.4,0.1-1.3,0.5v-0.9C119.8,61.8,120.3,61.7,120.3,61.7"/>
								</g>
							</g>
						</g>
						<g>
							<path class="st54" d="M118.9,62.2c-0.7,0.3-1.9,0.7-3.4-0.2l-5.9-3.4c0,0,0.4-0.1,1.3-0.5c0.7-0.3,1.9-0.7,3.4,0.2l5.9,3.4
								C120.3,61.7,119.8,61.8,118.9,62.2z"/>
						</g>
						<g class="st3">
							<g>
								<defs>
									<path id="SVGID_69_" d="M118.9,62.2v0.9c-0.7,0.3-1.9,0.7-3.4-0.2V62C116.9,62.9,118.2,62.4,118.9,62.2z"/>
								</defs>
								<clipPath id="SVGID_70_">
									<use xlink:href="#SVGID_69_"  style="overflow:visible;"/>
								</clipPath>
								<g class="st55">
									<path class="st53" d="M118.9,62.2v0.9c-0.1,0-0.2,0.1-0.4,0.1v-0.9C118.7,62.3,118.8,62.2,118.9,62.2"/>
									<path class="st56" d="M118.6,62.3v0.9c-0.2,0.1-0.4,0.1-0.6,0.2v-0.9C118.2,62.4,118.3,62.4,118.6,62.3"/>
									<path class="st57" d="M117.9,62.5v0.9c-0.1,0-0.2,0-0.3,0v-0.9C117.8,62.5,117.8,62.5,117.9,62.5"/>
									<path class="st58" d="M117.7,62.5v0.9c-0.1,0-0.1,0-0.2,0v-0.9C117.4,62.5,117.6,62.5,117.7,62.5"/>
									<path class="st59" d="M117.3,62.5v0.9c-0.1,0-0.1,0-0.2,0v-0.9C117.3,62.5,117.3,62.5,117.3,62.5"/>
									<path class="st60" d="M117.2,62.5v0.9c-0.1,0-0.1,0-0.2,0v-0.9C117.1,62.5,117.2,62.5,117.2,62.5"/>
									<path class="st61" d="M116.9,62.5v0.9c-0.1,0-0.1,0-0.2,0v-0.9C116.8,62.5,116.9,62.5,116.9,62.5"/>
									<path class="st62" d="M116.8,62.5v0.9c-0.1,0-0.1,0-0.2,0v-0.9C116.7,62.5,116.8,62.5,116.8,62.5"/>
									<path class="st63" d="M116.6,62.5v0.9c-0.1,0-0.2,0-0.2-0.1v-0.9C116.4,62.4,116.6,62.4,116.6,62.5"/>
									<path class="st64" d="M116.3,62.4v0.9c-0.1,0-0.2-0.1-0.3-0.1v-0.9C116.2,62.3,116.3,62.4,116.3,62.4"/>
									<path class="st65" d="M116.1,62.3v0.9c-0.2-0.1-0.4-0.2-0.6-0.3V62C115.7,62.1,115.8,62.2,116.1,62.3"/>
								</g>
							</g>
						</g>
						<g class="st3">
							<g>
								<defs>
									<path id="SVGID_71_" d="M125.9,63.1V64c0-0.6-0.6-1.2-2-2v-0.9C125.3,61.9,125.9,62.5,125.9,63.1z"/>
								</defs>
								<clipPath id="SVGID_72_">
									<use xlink:href="#SVGID_71_"  style="overflow:visible;"/>
								</clipPath>
								<g class="st66">
									<path class="st65" d="M125.9,63.1V64c0-0.6-0.6-1.2-2-2v-0.9C125.3,61.9,125.9,62.5,125.9,63.1"/>
								</g>
							</g>
						</g>
						<g>
							<polygon class="st51" points="112.6,66.2 112.6,67.2 106.8,63.8 106.8,62.9 							"/>
						</g>
						<g class="st3">
							<g>
								<defs>
									<path id="SVGID_73_" d="M130.8,63.4v0.9c0,1.4-1.7,2.5-4.4,3.6c-3.1,1.2-6.3,1.7-9.2,1.1c-1.3-0.3-2.4-0.6-4.5-1.8v-0.9
										c2,1.2,3.1,1.5,4.5,1.8c3,0.6,6.2,0.2,9.2-1.1C128.9,65.9,130.6,64.8,130.8,63.4z"/>
								</defs>
								<clipPath id="SVGID_74_">
									<use xlink:href="#SVGID_73_"  style="overflow:visible;"/>
								</clipPath>
								<g class="st67">
									<path class="st62" d="M130.8,63.4v0.9l0,0V63.4C130.6,63.4,130.6,63.4,130.8,63.4"/>
									<path class="st61" d="M130.6,63.5v0.9c0,0.1,0,0.2,0,0.3v-0.9C130.6,63.6,130.6,63.5,130.6,63.5"/>
									<path class="st60" d="M130.6,63.7v0.9c0,0.1,0,0.2-0.1,0.3V64C130.6,63.9,130.6,63.8,130.6,63.7"/>
									<path class="st59" d="M130.6,64v0.9c0,0.1-0.1,0.2-0.1,0.3v-0.9C130.6,64.2,130.6,64.1,130.6,64"/>
									<path class="st58" d="M130.4,64.3v0.9c-0.1,0.1-0.1,0.2-0.2,0.3v-0.9C130.4,64.5,130.4,64.4,130.4,64.3"/>
									<path class="st57" d="M130.3,64.6v0.9c-0.1,0.1-0.2,0.3-0.4,0.4V65C129.9,64.9,130.1,64.7,130.3,64.6"/>
									<path class="st56" d="M129.9,65v0.9c-0.3,0.3-0.7,0.5-1.1,0.8v-0.9C129.1,65.6,129.6,65.3,129.9,65"/>
									<path class="st53" d="M128.8,65.8v0.9c-0.7,0.4-1.5,0.8-2.5,1.2c-0.5,0.2-0.9,0.3-1.4,0.5v-0.9c0.5-0.1,0.9-0.3,1.4-0.5
										C127.3,66.6,128.1,66.2,128.8,65.8"/>
									<path class="st56" d="M124.9,67.5v0.9c-0.8,0.3-1.6,0.5-2.4,0.6v-0.9C123.3,67.9,124.2,67.7,124.9,67.5"/>
									<path class="st57" d="M122.6,68.1V69c-0.4,0.1-0.9,0.1-1.3,0.2v-0.9C121.8,68.2,122.2,68.2,122.6,68.1"/>
									<path class="st58" d="M121.3,68.3v0.9c-0.3,0-0.7,0.1-1,0.1v-0.9C120.7,68.3,120.9,68.3,121.3,68.3"/>
									<path class="st59" d="M120.3,68.3v0.9c-0.3,0-0.6,0-0.8,0v-0.9C119.8,68.3,120.1,68.3,120.3,68.3"/>
									<path class="st60" d="M119.4,68.3v0.9c-0.3,0-0.5,0-0.8,0v-0.9C118.9,68.3,119.2,68.3,119.4,68.3"/>
									<path class="st61" d="M118.7,68.3v0.9c-0.3,0-0.5,0-0.8-0.1v-0.9C118.2,68.2,118.4,68.3,118.7,68.3"/>
									<path class="st62" d="M117.9,68.2v0.9c-0.3,0-0.5-0.1-0.8-0.1v-0.9C117.3,68.1,117.7,68.2,117.9,68.2"/>
									<path class="st63" d="M117.2,68.1V69c0,0,0,0-0.1,0c-0.3-0.1-0.6-0.1-1-0.2v-0.9C116.4,67.9,116.8,68,117.2,68.1
										C117.1,68.1,117.1,68.1,117.2,68.1"/>
									<path class="st64" d="M116.1,67.8v0.9c-0.3-0.1-0.7-0.2-1-0.3v-0.9C115.4,67.6,115.8,67.7,116.1,67.8"/>
									<path class="st65" d="M115.1,67.5v0.9c-0.7-0.3-1.5-0.7-2.5-1.2v-0.9C113.6,66.8,114.3,67.2,115.1,67.5"/>
								</g>
							</g>
						</g>
						<g>
							<path class="st54" d="M127.7,60.1c5.1,2.9,3.2,5-1.4,6.9c-3.1,1.2-6.3,1.7-9.2,1.1c-1.3-0.3-2.4-0.6-4.5-1.8l-5.8-3.3
								l3.1-1.3l5.1,2.9c3.1,1.8,5.2,1.5,6.7,1c0.6-0.2,2.3-0.7,3.1-1.2c1.6-0.9,1.7-1.9-0.8-3.3l-5.2-3l3.1-1.3L127.7,60.1z"/>
						</g>
					</g>
				</g>
			</g>
		</g>
	</g>
	<g>
		<g>
			<g>
				<g class="st3">
					<g>
						<polygon class="st4" points="101.1,58 101.1,60.8 96.8,63.2 96.8,60.4 						"/>
					</g>
					<g>
						<polygon class="st4" points="92.8,62.8 92.8,65.6 88.6,68 88.6,65.2 						"/>
					</g>
					<g>
						<polygon class="st4" points="83.9,67.9 83.9,70.7 79.8,73.1 79.8,70.3 						"/>
					</g>
					<g>
						<polygon class="st4" points="75.7,72.7 75.7,75.5 71.6,77.9 71.6,75.1 						"/>
					</g>
					<g>
						<polygon class="st4" points="154.6,67.1 154.6,69.9 140.1,78.4 140.1,75.5 						"/>
					</g>
					<g>
						<polygon class="st4" points="132.1,75.9 132.1,78.7 101.1,60.8 101.1,58 						"/>
					</g>
					<g>
						<polygon class="st5" points="132.1,75.9 132.1,78.7 127.9,81.2 127.9,78.4 						"/>
					</g>
					<g>
						<polygon class="st6" points="127.9,78.4 127.9,81.2 96.8,63.2 96.8,60.4 						"/>
					</g>
					<g>
						<polygon class="st7" points="132.1,75.9 127.9,78.4 96.8,60.4 101.1,58 						"/>
					</g>
					<g>
						<polygon class="st4" points="67.3,77.5 67.3,80.3 63.2,82.8 63.3,80 						"/>
					</g>
					<g>
						<polygon class="st6" points="154.6,84 154.6,86.8 140.1,78.4 140.1,75.5 						"/>
					</g>
					<g>
						<polygon class="st4" points="138.8,89.4 138.8,92.2 92.8,65.6 92.8,62.8 						"/>
					</g>
					<g>
						<polygon class="st6" points="134.6,91.8 134.6,94.6 88.6,68 88.6,65.2 						"/>
					</g>
					<g>
						<polygon class="st5" points="138.8,89.4 138.8,92.2 134.6,94.6 134.6,91.8 						"/>
					</g>
					<g>
						<polygon class="st4" points="129.9,94.5 129.9,97.3 83.9,70.7 83.9,67.9 						"/>
					</g>
					<g>
						<polygon class="st6" points="125.8,96.9 125.8,99.7 79.8,73.1 79.8,70.3 						"/>
					</g>
					<g>
						<polygon class="st5" points="129.9,94.5 129.9,97.3 125.8,99.7 125.8,96.9 						"/>
					</g>
					<g>
						<polygon class="st8" points="129.9,94.5 125.8,96.9 79.8,70.3 83.9,67.9 						"/>
					</g>
					<g>
						<polygon class="st4" points="121.7,99.3 121.7,102.1 75.7,75.5 75.7,72.7 						"/>
					</g>
					<g>
						<polygon class="st6" points="117.6,101.7 117.6,104.5 71.6,77.9 71.6,75.1 						"/>
					</g>
					<g>
						<polygon class="st5" points="121.7,99.3 121.7,102.1 117.6,104.5 117.6,101.7 						"/>
					</g>
					<g>
						<polygon class="st4" points="113.3,104.1 113.3,106.9 67.3,80.3 67.3,77.5 						"/>
					</g>
					<g>
						<polygon class="st5" points="113.3,104.1 113.3,106.9 109.2,109.3 109.3,106.5 						"/>
					</g>
					<g>
						<polygon class="st6" points="109.3,106.5 109.2,109.3 63.2,82.8 63.3,80 						"/>
					</g>
					<g>
						<path class="st9" d="M140.1,75.5l14.6,8.4l-55.4,32.2L46.7,85.7l69.8-40.6l38.1,22L140.1,75.5z M125.8,96.9l4.2-2.4L84,67.9
							l-4.2,2.4L125.8,96.9L125.8,96.9z M109.3,106.5l4.2-2.4l-46-26.6L63.3,80L109.3,106.5L109.3,106.5z M134.6,91.8l4.2-2.4
							l-46-26.6l-4.2,2.4L134.6,91.8L134.6,91.8z M117.6,101.7l4.2-2.4l-46-26.6l-4.2,2.4L117.6,101.7L117.6,101.7z M101.1,58
							l-4.2,2.4l31.1,18l4.2-2.4L101.1,58L101.1,58z"/>
					</g>
					<g>
						<polygon class="st8" points="138.8,89.4 134.6,91.8 88.6,65.2 92.8,62.8 						"/>
					</g>
					<g>
						<polygon class="st8" points="121.7,99.3 117.6,101.7 71.6,75.1 75.7,72.7 						"/>
					</g>
					<g>
						<polygon class="st8" points="113.3,104.1 109.3,106.5 63.3,80 67.3,77.5 						"/>
					</g>
					<g>
						<polygon class="st10" points="154.6,84 154.6,86.8 99.3,118.9 99.3,116.1 						"/>
					</g>
					<g>
						<polygon class="st11" points="99.3,116.1 99.3,118.9 46.7,88.5 46.7,85.7 						"/>
					</g>
				</g>
			</g>
			<g>
				<g class="st3">
					<g>
						<polygon class="st4" points="101.1,53.6 101.1,56.4 96.8,58.8 96.8,56 						"/>
					</g>
					<g>
						<polygon class="st4" points="92.8,58.4 92.8,61.2 88.6,63.7 88.6,60.9 						"/>
					</g>
					<g>
						<polygon class="st4" points="83.9,63.5 83.9,66.3 79.8,68.7 79.8,65.9 						"/>
					</g>
					<g>
						<polygon class="st4" points="75.7,68.3 75.7,71.1 71.6,73.6 71.6,70.8 						"/>
					</g>
					<g>
						<polygon class="st4" points="154.6,62.8 154.6,65.6 140.1,74 140.1,71.2 						"/>
					</g>
					<g>
						<polygon class="st4" points="132.1,71.6 132.1,74.4 101.1,56.4 101.1,53.6 						"/>
					</g>
					<g>
						<polygon class="st5" points="132.1,71.6 132.1,74.4 127.9,76.8 127.9,74 						"/>
					</g>
					<g>
						<polygon class="st6" points="127.9,74 127.9,76.8 96.8,58.8 96.8,56 						"/>
					</g>
					<g>
						<polygon class="st7" points="132.1,71.6 127.9,74 96.8,56 101.1,53.6 						"/>
					</g>
					<g>
						<polygon class="st4" points="67.3,73.2 67.3,76 63.2,78.4 63.3,75.6 						"/>
					</g>
					<g>
						<polygon class="st6" points="154.6,79.6 154.6,82.4 140.1,74 140.1,71.2 						"/>
					</g>
					<g>
						<polygon class="st4" points="138.8,85 138.8,87.8 92.8,61.2 92.8,58.4 						"/>
					</g>
					<g>
						<polygon class="st6" points="134.6,87.4 134.6,90.2 88.6,63.7 88.6,60.9 						"/>
					</g>
					<g>
						<polygon class="st5" points="138.8,85 138.8,87.8 134.6,90.2 134.6,87.4 						"/>
					</g>
					<g>
						<polygon class="st4" points="129.9,90.1 129.9,92.9 83.9,66.3 83.9,63.5 						"/>
					</g>
					<g>
						<polygon class="st6" points="125.8,92.5 125.8,95.3 79.8,68.7 79.8,65.9 						"/>
					</g>
					<g>
						<polygon class="st5" points="129.9,90.1 129.9,92.9 125.8,95.3 125.8,92.5 						"/>
					</g>
					<g>
						<polygon class="st8" points="129.9,90.1 125.8,92.5 79.8,65.9 83.9,63.5 						"/>
					</g>
					<g>
						<polygon class="st4" points="121.7,94.9 121.7,97.7 75.7,71.1 75.7,68.3 						"/>
					</g>
					<g>
						<polygon class="st6" points="117.6,97.3 117.6,100.1 71.6,73.6 71.6,70.8 						"/>
					</g>
					<g>
						<polygon class="st5" points="121.7,94.9 121.7,97.7 117.6,100.1 117.6,97.3 						"/>
					</g>
					<g>
						<polygon class="st4" points="113.3,99.7 113.3,102.5 67.3,76 67.3,73.2 						"/>
					</g>
					<g>
						<polygon class="st5" points="113.3,99.7 113.3,102.5 109.2,105 109.3,102.2 						"/>
					</g>
					<g>
						<polygon class="st6" points="109.3,102.2 109.2,105 63.2,78.4 63.3,75.6 						"/>
					</g>
					<g>
						<path class="st9" d="M140.1,71.2l14.6,8.4l-55.4,32.1L46.7,81.3l69.8-40.6l38.1,22L140.1,71.2z M125.8,92.5l4.2-2.4L84,63.5
							l-4.2,2.4L125.8,92.5L125.8,92.5z M109.3,102.2l4.2-2.4l-46-26.6l-4.2,2.4L109.3,102.2L109.3,102.2z M134.6,87.4l4.2-2.4
							l-46-26.6l-4.2,2.4L134.6,87.4L134.6,87.4z M117.6,97.3l4.2-2.4l-46-26.6l-4.2,2.4L117.6,97.3L117.6,97.3z M101.1,53.6
							L96.8,56l31.1,18l4.2-2.4L101.1,53.6L101.1,53.6z"/>
					</g>
					<g>
						<polygon class="st8" points="138.8,85 134.6,87.4 88.6,60.9 92.8,58.4 						"/>
					</g>
					<g>
						<polygon class="st8" points="121.7,94.9 117.6,97.3 71.6,70.8 75.7,68.3 						"/>
					</g>
					<g>
						<polygon class="st8" points="113.3,99.7 109.3,102.2 63.3,75.6 67.3,73.2 						"/>
					</g>
					<g>
						<polygon class="st10" points="154.6,79.6 154.6,82.4 99.3,114.5 99.3,111.7 						"/>
					</g>
					<g>
						<polygon class="st11" points="99.3,111.7 99.3,114.5 46.7,84.1 46.7,81.3 						"/>
					</g>
				</g>
			</g>
			<g>
				<g class="st3">
					<g>
						<polygon class="st4" points="101.1,49.2 101.1,52 96.8,54.5 96.8,51.7 						"/>
					</g>
					<g>
						<polygon class="st4" points="92.8,54.1 92.8,56.9 88.6,59.3 88.6,56.5 						"/>
					</g>
					<g>
						<polygon class="st4" points="83.9,59.1 83.9,61.9 79.8,64.4 79.8,61.6 						"/>
					</g>
					<g>
						<polygon class="st4" points="75.7,64 75.7,66.8 71.6,69.2 71.6,66.4 						"/>
					</g>
					<g>
						<polygon class="st4" points="154.6,58.4 154.6,61.2 140.1,69.6 140.1,66.8 						"/>
					</g>
					<g>
						<polygon class="st4" points="132.1,67.2 132.1,70 101.1,52 101.1,49.2 						"/>
					</g>
					<g>
						<polygon class="st5" points="132.1,67.2 132.1,70 127.9,72.4 127.9,69.6 						"/>
					</g>
					<g>
						<polygon class="st6" points="127.9,69.6 127.9,72.4 96.8,54.5 96.8,51.7 						"/>
					</g>
					<g>
						<polygon class="st7" points="132.1,67.2 127.9,69.6 96.8,51.7 101.1,49.2 						"/>
					</g>
					<g>
						<polygon class="st4" points="67.3,68.8 67.3,71.6 63.2,74 63.3,71.2 						"/>
					</g>
					<g>
						<polygon class="st6" points="154.6,75.2 154.6,78 140.1,69.6 140.1,66.8 						"/>
					</g>
					<g>
						<polygon class="st4" points="138.8,80.6 138.8,83.4 92.8,56.9 92.8,54.1 						"/>
					</g>
					<g>
						<polygon class="st6" points="134.6,83.1 134.6,85.9 88.6,59.3 88.6,56.5 						"/>
					</g>
					<g>
						<polygon class="st5" points="138.8,80.6 138.8,83.4 134.6,85.9 134.6,83.1 						"/>
					</g>
					<g>
						<polygon class="st4" points="129.9,85.7 129.9,88.5 83.9,61.9 83.9,59.1 						"/>
					</g>
					<g>
						<polygon class="st6" points="125.8,88.1 125.8,90.9 79.8,64.4 79.8,61.6 						"/>
					</g>
					<g>
						<polygon class="st5" points="129.9,85.7 129.9,88.5 125.8,90.9 125.8,88.1 						"/>
					</g>
					<g>
						<polygon class="st8" points="129.9,85.7 125.8,88.1 79.8,61.6 83.9,59.1 						"/>
					</g>
					<g>
						<polygon class="st4" points="121.7,90.5 121.7,93.3 75.7,66.8 75.7,64 						"/>
					</g>
					<g>
						<polygon class="st6" points="117.6,93 117.6,95.8 71.6,69.2 71.6,66.4 						"/>
					</g>
					<g>
						<polygon class="st5" points="121.7,90.5 121.7,93.3 117.6,95.8 117.6,93 						"/>
					</g>
					<g>
						<polygon class="st4" points="113.3,95.4 113.3,98.2 67.3,71.6 67.3,68.8 						"/>
					</g>
					<g>
						<polygon class="st5" points="113.3,95.4 113.3,98.2 109.2,100.6 109.3,97.8 						"/>
					</g>
					<g>
						<polygon class="st6" points="109.3,97.8 109.2,100.6 63.2,74 63.3,71.2 						"/>
					</g>
					<g>
						<path class="st9" d="M140.1,66.8l14.6,8.4l-55.4,32.2L46.7,77l69.8-40.6l38.1,22L140.1,66.8z M125.8,88.1l4.2-2.4L84,59.1
							l-4.2,2.4L125.8,88.1L125.8,88.1z M109.3,97.8l4.2-2.4l-46-26.6l-4.2,2.4L109.3,97.8L109.3,97.8z M134.6,83.1l4.2-2.4
							l-46-26.6l-4.2,2.4L134.6,83.1L134.6,83.1z M117.6,93l4.2-2.4L75.7,64l-4.2,2.4L117.6,93L117.6,93z M101.1,49.2l-4.2,2.4
							l31.1,18l4.2-2.4L101.1,49.2L101.1,49.2z"/>
					</g>
					<g>
						<polygon class="st8" points="138.8,80.6 134.6,83.1 88.6,56.5 92.8,54.1 						"/>
					</g>
					<g>
						<polygon class="st8" points="121.7,90.5 117.6,93 71.6,66.4 75.7,64 						"/>
					</g>
					<g>
						<polygon class="st8" points="113.3,95.4 109.3,97.8 63.3,71.2 67.3,68.8 						"/>
					</g>
					<g>
						<polygon class="st10" points="154.6,75.2 154.6,78 99.3,110.2 99.3,107.4 						"/>
					</g>
					<g>
						<polygon class="st11" points="99.3,107.4 99.3,110.2 46.7,79.8 46.7,77 						"/>
					</g>
				</g>
			</g>
			<g>
				<g class="st3">
					<g>
						<polygon class="st4" points="101.1,44.9 101.1,47.7 96.8,50.1 96.8,47.3 						"/>
					</g>
					<g>
						<polygon class="st4" points="92.8,49.7 92.8,52.5 88.6,54.9 88.6,52.1 						"/>
					</g>
					<g>
						<polygon class="st4" points="83.9,54.8 83.9,57.6 79.8,60 79.8,57.2 						"/>
					</g>
					<g>
						<polygon class="st4" points="75.7,59.6 75.7,62.4 71.6,64.8 71.6,62 						"/>
					</g>
					<g>
						<polygon class="st4" points="154.6,54 154.6,56.8 140.1,65.2 140.1,62.4 						"/>
					</g>
					<g>
						<polygon class="st4" points="132.1,62.8 132.1,65.6 101.1,47.7 101.1,44.9 						"/>
					</g>
					<g>
						<polygon class="st5" points="132.1,62.8 132.1,65.6 127.9,68 127.9,65.2 						"/>
					</g>
					<g>
						<polygon class="st6" points="127.9,65.2 127.9,68 96.8,50.1 96.8,47.3 						"/>
					</g>
					<g>
						
							<linearGradient id="SVGID_75_" gradientUnits="userSpaceOnUse" x1="96.85" y1="10.95" x2="132.11" y2="10.95" gradientTransform="matrix(1 0 0 -1 0 66)">
							<stop  offset="1.923080e-03" style="stop-color:#23DBEA"/>
							<stop  offset="1" style="stop-color:#0C5FCD"/>
						</linearGradient>
						<polygon class="st68" points="132.1,62.8 127.9,65.2 96.8,47.3 101.1,44.9 						"/>
					</g>
					<g>
						<polygon class="st4" points="67.3,64.4 67.3,67.2 63.2,69.6 63.3,66.8 						"/>
					</g>
					<g>
						<polygon class="st13" points="154.6,54 154.6,70.8 140.1,62.4 						"/>
					</g>
					<g>
						<polygon class="st6" points="154.6,70.8 154.6,73.6 140.1,65.2 140.1,62.4 						"/>
					</g>
					<g>
						<polygon class="st4" points="138.8,76.3 138.8,79.1 92.8,52.5 92.8,49.7 						"/>
					</g>
					<g>
						<polygon class="st6" points="134.6,78.7 134.6,81.5 88.6,54.9 88.6,52.1 						"/>
					</g>
					<g>
						<polygon class="st5" points="138.8,76.3 138.8,79.1 134.6,81.5 134.6,78.7 						"/>
					</g>
					<g>
						<polygon class="st4" points="129.9,81.3 129.9,84.1 83.9,57.6 83.9,54.8 						"/>
					</g>
					<g>
						<polygon class="st6" points="125.8,83.8 125.8,86.6 79.8,60 79.8,57.2 						"/>
					</g>
					<g>
						<polygon class="st5" points="129.9,81.3 129.9,84.1 125.8,86.6 125.8,83.8 						"/>
					</g>
					<g>
						<polygon class="st8" points="129.9,81.3 125.8,83.8 79.8,57.2 83.9,54.8 						"/>
					</g>
					<g>
						<polygon class="st4" points="121.7,86.2 121.7,89 75.7,62.4 75.7,59.6 						"/>
					</g>
					<g>
						<polygon class="st6" points="117.6,88.6 117.6,91.4 71.6,64.8 71.6,62 						"/>
					</g>
					<g>
						<polygon class="st5" points="121.7,86.2 121.7,89 117.6,91.4 117.6,88.6 						"/>
					</g>
					<g>
						<polygon class="st4" points="113.3,91 113.3,93.8 67.3,67.2 67.3,64.4 						"/>
					</g>
					<g>
						<polygon class="st5" points="113.3,91 113.3,93.8 109.2,96.2 109.3,93.4 						"/>
					</g>
					<g>
						<polygon class="st6" points="109.3,93.4 109.2,96.2 63.2,69.6 63.3,66.8 						"/>
					</g>
					<g>
						<path class="st9" d="M140.1,62.4l14.6,8.4L99.3,103L46.7,72.6L116.4,32l38.1,22L140.1,62.4z M125.8,83.8l4.2-2.4L84,54.8
							l-4.2,2.4L125.8,83.8L125.8,83.8z M109.3,93.4l4.2-2.4l-46-26.6l-4.2,2.4L109.3,93.4L109.3,93.4z M134.6,78.7l4.2-2.4
							l-46-26.6l-4.2,2.4L134.6,78.7L134.6,78.7z M117.6,88.6l4.2-2.4l-46-26.6L71.6,62L117.6,88.6L117.6,88.6z M101.1,44.9
							l-4.2,2.4l31.1,18l4.2-2.4L101.1,44.9L101.1,44.9z"/>
					</g>
					<g>
						<polygon class="st8" points="138.8,76.3 134.6,78.7 88.6,52.1 92.8,49.7 						"/>
					</g>
					<g>
						<polygon class="st8" points="121.7,86.2 117.6,88.6 71.6,62 75.7,59.6 						"/>
					</g>
					<g>
						<polygon class="st8" points="113.3,91 109.3,93.4 63.3,66.8 67.3,64.4 						"/>
					</g>
					<g>
						<polygon class="st10" points="154.6,70.8 154.6,73.6 99.3,105.8 99.3,103 						"/>
					</g>
					<g>
						<polygon class="st11" points="99.3,103 99.3,105.8 46.7,75.4 46.7,72.6 						"/>
					</g>
				</g>
			</g>
			<g>
				<g class="st3">
					<g>
						
							<linearGradient id="SVGID_76_" gradientUnits="userSpaceOnUse" x1="141.0571" y1="-3.6045" x2="145.1519" y2="-3.6045" gradientTransform="matrix(1 0 0 -1 0 66)">
							<stop  offset="1.923080e-03" style="stop-color:#23DBEA"/>
							<stop  offset="1" style="stop-color:#0C5FCD"/>
						</linearGradient>
						<path class="st69" d="M142.9,70.9c-0.2,0.2-0.5,0.3-0.8,0.1c-0.5-0.3-1-1.1-1-1.7c0-0.4,0.2-0.7,0.5-0.7
							c1.2-0.2,2.4-0.4,3.6-0.5C144.4,69,143.6,70,142.9,70.9z"/>
					</g>
					<g>
						<path class="st15" d="M143.1,70.4c0,0.6-0.4,0.9-1,0.6c-0.5-0.3-1-1.1-1-1.7c0-0.6,0.4-0.9,1-0.6
							C142.6,69,143.1,69.8,143.1,70.4z"/>
					</g>
				</g>
				<g class="st3">
					<g>
						<path class="st16" d="M143.1,70.4c0,0.6-0.4,0.9-1,0.6c-0.5-0.3-1-1.1-1-1.7c0-0.6,0.4-0.9,1-0.6
							C142.6,69,143.1,69.8,143.1,70.4z"/>
					</g>
					<g>
						<path class="st16" d="M139.4,75.2c-0.4,0.5-1.2,0.6-2.1,0.2c-1.4-0.8-2.5-2.7-2.5-4.2c0-1,0.5-1.7,1.2-1.8
							c1.8-0.3,3.6-0.5,5.4-0.8c-0.3,0-0.5,0.3-0.5,0.7c0,0.6,0.5,1.4,1,1.7c0.3,0.2,0.7,0.2,0.8-0.1
							C141.8,72.4,140.6,73.8,139.4,75.2z"/>
					</g>
					<g>
						<path class="st10" d="M142.9,70.9c-1.1,1.4-2.3,2.9-3.4,4.3c0.2-0.3,0.4-0.8,0.4-1.3l3.2-3.5
							C143.1,70.6,142.9,70.8,142.9,70.9z"/>
					</g>
					<g>
						<path class="st10" d="M136.1,69.4c1.8-0.3,3.6-0.5,5.4-0.8c0.1,0,0.3,0,0.5,0.1c0.5,0.3,1,1.1,1,1.7l-3.2,3.5
							c0-1.6-1.1-3.5-2.5-4.2C136.9,69.4,136.4,69.3,136.1,69.4z"/>
					</g>
					<g>
						<path class="st16" d="M139.9,73.9c0,1.6-1.1,2.2-2.4,1.5c-1.4-0.8-2.5-2.7-2.5-4.2s1.1-2.2,2.4-1.5
							C138.8,70.5,139.9,72.3,139.9,73.9z"/>
					</g>
				</g>
				<g class="st3">
					<g>
						<path class="st15" d="M139.9,73.9c0,1.6-1.1,2.2-2.4,1.5c-1.4-0.8-2.5-2.7-2.5-4.2s1.1-2.2,2.4-1.5
							C138.8,70.5,139.9,72.3,139.9,73.9z"/>
					</g>
					<g>
						<path class="st15" d="M103.6,96.3c-0.4,0.3-1,0.2-1.7-0.1c-1.4-0.8-2.5-2.7-2.5-4.2c0-0.8,0.3-1.4,0.7-1.6l35.6-20.7
							c-0.5,0.3-0.7,0.8-0.7,1.6c0,1.6,1.1,3.5,2.5,4.2c0.7,0.4,1.3,0.4,1.7,0.1C128.4,81.8,114.2,90,103.6,96.3z"/>
					</g>
					<g>
						
							<linearGradient id="SVGID_77_" gradientUnits="userSpaceOnUse" x1="103.5025" y1="-19.15" x2="139.8411" y2="-19.15" gradientTransform="matrix(1 0 0 -1 0 66)">
							<stop  offset="1.923080e-03" style="stop-color:#23DBEA"/>
							<stop  offset="1" style="stop-color:#0C5FCD"/>
						</linearGradient>
						<path class="st70" d="M139.1,75.6l-35.6,20.7c0.5-0.3,0.7-0.8,0.7-1.6L139.9,74C139.9,74.7,139.6,75.3,139.1,75.6z"/>
					</g>
					<g>
						
							<linearGradient id="SVGID_78_" gradientUnits="userSpaceOnUse" x1="100.05" y1="-15.9594" x2="139.85" y2="-15.9594" gradientTransform="matrix(1 0 0 -1 0 66)">
							<stop  offset="1.923080e-03" style="stop-color:#23DBEA"/>
							<stop  offset="1" style="stop-color:#0C5FCD"/>
						</linearGradient>
						<path class="st71" d="M100.1,90.2l35.6-20.7c0.4-0.3,1-0.2,1.7,0.1c1.4,0.8,2.5,2.7,2.5,4.2l-35.6,20.8c0-1.6-1.1-3.5-2.5-4.2
							C101.1,90,100.4,90,100.1,90.2z"/>
					</g>
					<g>
						<path class="st15" d="M104.3,94.6c0,1.6-1.1,2.2-2.4,1.5c-1.4-0.8-2.5-2.7-2.5-4.2s1.1-2.2,2.4-1.5
							C103.1,91.2,104.3,93,104.3,94.6z"/>
					</g>
				</g>
				<g class="st3">
					<g>
						<path class="st16" d="M104.3,94.6c0,1.6-1.1,2.2-2.4,1.5c-1.4-0.8-2.5-2.7-2.5-4.2s1.1-2.2,2.4-1.5
							C103.1,91.2,104.3,93,104.3,94.6z"/>
					</g>
					<g>
						<path class="st16" d="M98.3,99.3c-0.4,0.3-1,0.2-1.7-0.1c-1.4-0.8-2.5-2.7-2.5-4.2c0-0.8,0.3-1.4,0.7-1.6l5.3-3.1
							c-0.5,0.3-0.7,0.8-0.7,1.6c0,1.6,1.1,3.5,2.5,4.2c0.7,0.4,1.3,0.4,1.7,0.1C101.9,97.2,99.8,98.4,98.3,99.3z"/>
					</g>
					<g>
						<path class="st10" d="M103.6,96.3l-5.3,3.1c0.5-0.3,0.7-0.8,0.7-1.6l5.3-3.1C104.3,95.4,103.9,96,103.6,96.3z"/>
					</g>
					<g>
						<path class="st10" d="M94.8,93.3l5.3-3.1c0.4-0.3,1-0.2,1.7,0.1c1.4,0.8,2.5,2.7,2.5,4.2l-5.3,3.1c0-1.6-1.1-3.5-2.5-4.2
							C95.8,93.1,95.2,93,94.8,93.3z"/>
					</g>
					<g>
						<path class="st11" d="M98.9,97.7c0,1.6-1.1,2.2-2.4,1.5C95.1,98.4,94,96.5,94,95c0-1.6,1.1-2.2,2.4-1.5
							C97.8,94.2,98.9,96.1,98.9,97.7z"/>
					</g>
				</g>
			</g>
		</g>
		<g>
			<g class="st19">
				<polygon points="123.9,43.6 123.9,44.5 118.8,41.5 118.8,40.6 				"/>
				<polygon points="115.4,44.5 115.4,45.5 109.6,42 109.6,41.1 				"/>
				<g>
					<g>
						<defs>
							<path id="SVGID_79_" d="M120.3,44.2v0.9c0,0-0.4,0.1-1.3,0.5v-0.9C119.8,44.3,120.3,44.2,120.3,44.2z"/>
						</defs>
						<clipPath id="SVGID_80_">
							<use xlink:href="#SVGID_79_"  style="overflow:visible;"/>
						</clipPath>
						<path class="st72" d="M120.3,44.2v0.9c0,0-0.4,0.1-1.3,0.5v-0.9C119.8,44.3,120.3,44.2,120.3,44.2"/>
					</g>
				</g>
				<path d="M118.9,44.7c-0.7,0.3-1.9,0.7-3.4-0.2l-5.9-3.4c0,0,0.4-0.1,1.3-0.5c0.7-0.3,1.9-0.7,3.4,0.2l5.9,3.4
					C120.3,44.2,119.8,44.3,118.9,44.7z"/>
				<g>
					<g>
						<defs>
							<path id="SVGID_81_" d="M118.9,44.7v0.9c-0.7,0.3-1.9,0.7-3.4-0.2v-0.9C116.9,45.4,118.2,44.9,118.9,44.7z"/>
						</defs>
						<clipPath id="SVGID_82_">
							<use xlink:href="#SVGID_81_"  style="overflow:visible;"/>
						</clipPath>
						<path class="st73" d="M118.9,44.7v0.9c-0.1,0-0.2,0.1-0.4,0.1v-0.9C118.7,44.8,118.8,44.7,118.9,44.7"/>
					</g>
					<g>
						<defs>
							<path id="SVGID_83_" d="M118.9,44.7v0.9c-0.7,0.3-1.9,0.7-3.4-0.2v-0.9C116.9,45.4,118.2,44.9,118.9,44.7z"/>
						</defs>
						<clipPath id="SVGID_84_">
							<use xlink:href="#SVGID_83_"  style="overflow:visible;"/>
						</clipPath>
						<path class="st74" d="M118.6,44.8v0.9c-0.2,0.1-0.4,0.1-0.6,0.2V45C118.2,44.9,118.3,44.9,118.6,44.8"/>
					</g>
					<g>
						<defs>
							<path id="SVGID_85_" d="M118.9,44.7v0.9c-0.7,0.3-1.9,0.7-3.4-0.2v-0.9C116.9,45.4,118.2,44.9,118.9,44.7z"/>
						</defs>
						<clipPath id="SVGID_86_">
							<use xlink:href="#SVGID_85_"  style="overflow:visible;"/>
						</clipPath>
						<path class="st75" d="M117.9,45v0.9c-0.1,0-0.2,0-0.3,0V45C117.8,45,117.8,45,117.9,45"/>
					</g>
					<g>
						<defs>
							<path id="SVGID_87_" d="M118.9,44.7v0.9c-0.7,0.3-1.9,0.7-3.4-0.2v-0.9C116.9,45.4,118.2,44.9,118.9,44.7z"/>
						</defs>
						<clipPath id="SVGID_88_">
							<use xlink:href="#SVGID_87_"  style="overflow:visible;"/>
						</clipPath>
						<path class="st76" d="M117.7,45v0.9c-0.1,0-0.1,0-0.2,0V45C117.4,45,117.6,45,117.7,45"/>
					</g>
					<g>
						<defs>
							<path id="SVGID_89_" d="M118.9,44.7v0.9c-0.7,0.3-1.9,0.7-3.4-0.2v-0.9C116.9,45.4,118.2,44.9,118.9,44.7z"/>
						</defs>
						<clipPath id="SVGID_90_">
							<use xlink:href="#SVGID_89_"  style="overflow:visible;"/>
						</clipPath>
						<path class="st77" d="M117.3,45v0.9c-0.1,0-0.1,0-0.2,0V45C117.3,45,117.3,45,117.3,45"/>
					</g>
					<g>
						<defs>
							<path id="SVGID_91_" d="M118.9,44.7v0.9c-0.7,0.3-1.9,0.7-3.4-0.2v-0.9C116.9,45.4,118.2,44.9,118.9,44.7z"/>
						</defs>
						<clipPath id="SVGID_92_">
							<use xlink:href="#SVGID_91_"  style="overflow:visible;"/>
						</clipPath>
						<path class="st78" d="M117.2,45v0.9c-0.1,0-0.1,0-0.2,0V45C117.1,45,117.2,45,117.2,45"/>
					</g>
					<g>
						<defs>
							<path id="SVGID_93_" d="M118.9,44.7v0.9c-0.7,0.3-1.9,0.7-3.4-0.2v-0.9C116.9,45.4,118.2,44.9,118.9,44.7z"/>
						</defs>
						<clipPath id="SVGID_94_">
							<use xlink:href="#SVGID_93_"  style="overflow:visible;"/>
						</clipPath>
						<path class="st79" d="M116.9,45v0.9c-0.1,0-0.1,0-0.2,0V45C116.8,45,116.9,45,116.9,45"/>
					</g>
					<g>
						<defs>
							<path id="SVGID_95_" d="M118.9,44.7v0.9c-0.7,0.3-1.9,0.7-3.4-0.2v-0.9C116.9,45.4,118.2,44.9,118.9,44.7z"/>
						</defs>
						<clipPath id="SVGID_96_">
							<use xlink:href="#SVGID_95_"  style="overflow:visible;"/>
						</clipPath>
						<path class="st80" d="M116.8,45v0.9c-0.1,0-0.1,0-0.2,0V45C116.7,45,116.8,45,116.8,45"/>
					</g>
					<g>
						<defs>
							<path id="SVGID_97_" d="M118.9,44.7v0.9c-0.7,0.3-1.9,0.7-3.4-0.2v-0.9C116.9,45.4,118.2,44.9,118.9,44.7z"/>
						</defs>
						<clipPath id="SVGID_98_">
							<use xlink:href="#SVGID_97_"  style="overflow:visible;"/>
						</clipPath>
						<path class="st81" d="M116.6,45v0.9c-0.1,0-0.2,0-0.2-0.1v-0.9C116.4,44.9,116.6,44.9,116.6,45"/>
					</g>
					<g>
						<defs>
							<path id="SVGID_99_" d="M118.9,44.7v0.9c-0.7,0.3-1.9,0.7-3.4-0.2v-0.9C116.9,45.4,118.2,44.9,118.9,44.7z"/>
						</defs>
						<clipPath id="SVGID_100_">
							<use xlink:href="#SVGID_99_"  style="overflow:visible;"/>
						</clipPath>
						<path class="st82" d="M116.3,44.9v0.9c-0.1,0-0.2-0.1-0.3-0.1v-0.9C116.2,44.8,116.3,44.9,116.3,44.9"/>
					</g>
					<g>
						<defs>
							<path id="SVGID_101_" d="M118.9,44.7v0.9c-0.7,0.3-1.9,0.7-3.4-0.2v-0.9C116.9,45.4,118.2,44.9,118.9,44.7z"/>
						</defs>
						<clipPath id="SVGID_102_">
							<use xlink:href="#SVGID_101_"  style="overflow:visible;"/>
						</clipPath>
						<path class="st83" d="M116.1,44.8v0.9c-0.2-0.1-0.4-0.2-0.6-0.3v-0.9C115.7,44.6,115.8,44.7,116.1,44.8"/>
					</g>
				</g>
				<g>
					<g>
						<defs>
							<path id="SVGID_103_" d="M125.9,45.6v0.9c0-0.6-0.6-1.2-2-2v-0.9C125.3,44.4,125.9,45,125.9,45.6z"/>
						</defs>
						<clipPath id="SVGID_104_">
							<use xlink:href="#SVGID_103_"  style="overflow:visible;"/>
						</clipPath>
						<path class="st84" d="M125.9,45.6v0.9c0-0.6-0.6-1.2-2-2v-0.9C125.3,44.4,125.9,45,125.9,45.6"/>
					</g>
				</g>
				<polygon points="112.6,48.7 112.6,49.7 106.8,46.3 106.8,45.4 				"/>
				<g>
					<g>
						<defs>
							<path id="SVGID_105_" d="M130.8,45.9v0.9c0,1.4-1.7,2.5-4.4,3.6c-3.1,1.2-6.3,1.7-9.2,1.1c-1.3-0.3-2.4-0.6-4.5-1.8v-0.9
								c2,1.2,3.1,1.5,4.5,1.8c3,0.6,6.2,0.2,9.2-1.1C128.9,48.4,130.6,47.3,130.8,45.9z"/>
						</defs>
						<clipPath id="SVGID_106_">
							<use xlink:href="#SVGID_105_"  style="overflow:visible;"/>
						</clipPath>
						<path class="st85" d="M130.8,45.9v0.9l0,0V45.9C130.6,45.9,130.6,45.9,130.8,45.9"/>
					</g>
					<g>
						<defs>
							<path id="SVGID_107_" d="M130.8,45.9v0.9c0,1.4-1.7,2.5-4.4,3.6c-3.1,1.2-6.3,1.7-9.2,1.1c-1.3-0.3-2.4-0.6-4.5-1.8v-0.9
								c2,1.2,3.1,1.5,4.5,1.8c3,0.6,6.2,0.2,9.2-1.1C128.9,48.4,130.6,47.3,130.8,45.9z"/>
						</defs>
						<clipPath id="SVGID_108_">
							<use xlink:href="#SVGID_107_"  style="overflow:visible;"/>
						</clipPath>
						<path class="st86" d="M130.6,46v0.9c0,0.1,0,0.2,0,0.3v-0.9C130.6,46.1,130.6,46,130.6,46"/>
					</g>
					<g>
						<defs>
							<path id="SVGID_109_" d="M130.8,45.9v0.9c0,1.4-1.7,2.5-4.4,3.6c-3.1,1.2-6.3,1.7-9.2,1.1c-1.3-0.3-2.4-0.6-4.5-1.8v-0.9
								c2,1.2,3.1,1.5,4.5,1.8c3,0.6,6.2,0.2,9.2-1.1C128.9,48.4,130.6,47.3,130.8,45.9z"/>
						</defs>
						<clipPath id="SVGID_110_">
							<use xlink:href="#SVGID_109_"  style="overflow:visible;"/>
						</clipPath>
						<path class="st87" d="M130.6,46.2v0.9c0,0.1,0,0.2-0.1,0.3v-0.9C130.6,46.4,130.6,46.3,130.6,46.2"/>
					</g>
					<g>
						<defs>
							<path id="SVGID_111_" d="M130.8,45.9v0.9c0,1.4-1.7,2.5-4.4,3.6c-3.1,1.2-6.3,1.7-9.2,1.1c-1.3-0.3-2.4-0.6-4.5-1.8v-0.9
								c2,1.2,3.1,1.5,4.5,1.8c3,0.6,6.2,0.2,9.2-1.1C128.9,48.4,130.6,47.3,130.8,45.9z"/>
						</defs>
						<clipPath id="SVGID_112_">
							<use xlink:href="#SVGID_111_"  style="overflow:visible;"/>
						</clipPath>
						<path class="st88" d="M130.6,46.5v0.9c0,0.1-0.1,0.2-0.1,0.3v-0.9C130.6,46.7,130.6,46.6,130.6,46.5"/>
					</g>
					<g>
						<defs>
							<path id="SVGID_113_" d="M130.8,45.9v0.9c0,1.4-1.7,2.5-4.4,3.6c-3.1,1.2-6.3,1.7-9.2,1.1c-1.3-0.3-2.4-0.6-4.5-1.8v-0.9
								c2,1.2,3.1,1.5,4.5,1.8c3,0.6,6.2,0.2,9.2-1.1C128.9,48.4,130.6,47.3,130.8,45.9z"/>
						</defs>
						<clipPath id="SVGID_114_">
							<use xlink:href="#SVGID_113_"  style="overflow:visible;"/>
						</clipPath>
						<path class="st89" d="M130.4,46.8v0.9c-0.1,0.1-0.1,0.2-0.2,0.3v-0.9C130.4,47,130.4,46.9,130.4,46.8"/>
					</g>
					<g>
						<defs>
							<path id="SVGID_115_" d="M130.8,45.9v0.9c0,1.4-1.7,2.5-4.4,3.6c-3.1,1.2-6.3,1.7-9.2,1.1c-1.3-0.3-2.4-0.6-4.5-1.8v-0.9
								c2,1.2,3.1,1.5,4.5,1.8c3,0.6,6.2,0.2,9.2-1.1C128.9,48.4,130.6,47.3,130.8,45.9z"/>
						</defs>
						<clipPath id="SVGID_116_">
							<use xlink:href="#SVGID_115_"  style="overflow:visible;"/>
						</clipPath>
						<path class="st90" d="M130.3,47.1V48c-0.1,0.1-0.2,0.3-0.4,0.4v-0.9C129.9,47.4,130.1,47.2,130.3,47.1"/>
					</g>
					<g>
						<defs>
							<path id="SVGID_117_" d="M130.8,45.9v0.9c0,1.4-1.7,2.5-4.4,3.6c-3.1,1.2-6.3,1.7-9.2,1.1c-1.3-0.3-2.4-0.6-4.5-1.8v-0.9
								c2,1.2,3.1,1.5,4.5,1.8c3,0.6,6.2,0.2,9.2-1.1C128.9,48.4,130.6,47.3,130.8,45.9z"/>
						</defs>
						<clipPath id="SVGID_118_">
							<use xlink:href="#SVGID_117_"  style="overflow:visible;"/>
						</clipPath>
						<path class="st91" d="M129.9,47.5v0.9c-0.3,0.3-0.7,0.5-1.1,0.8v-0.9C129.1,48.1,129.6,47.8,129.9,47.5"/>
					</g>
					<g>
						<defs>
							<path id="SVGID_119_" d="M130.8,45.9v0.9c0,1.4-1.7,2.5-4.4,3.6c-3.1,1.2-6.3,1.7-9.2,1.1c-1.3-0.3-2.4-0.6-4.5-1.8v-0.9
								c2,1.2,3.1,1.5,4.5,1.8c3,0.6,6.2,0.2,9.2-1.1C128.9,48.4,130.6,47.3,130.8,45.9z"/>
						</defs>
						<clipPath id="SVGID_120_">
							<use xlink:href="#SVGID_119_"  style="overflow:visible;"/>
						</clipPath>
						<path class="st92" d="M128.8,48.3v0.9c-0.7,0.4-1.5,0.8-2.5,1.2c-0.5,0.2-0.9,0.3-1.4,0.5V50c0.5-0.1,0.9-0.3,1.4-0.5
							C127.3,49.1,128.1,48.7,128.8,48.3"/>
					</g>
					<g>
						<defs>
							<path id="SVGID_121_" d="M130.8,45.9v0.9c0,1.4-1.7,2.5-4.4,3.6c-3.1,1.2-6.3,1.7-9.2,1.1c-1.3-0.3-2.4-0.6-4.5-1.8v-0.9
								c2,1.2,3.1,1.5,4.5,1.8c3,0.6,6.2,0.2,9.2-1.1C128.9,48.4,130.6,47.3,130.8,45.9z"/>
						</defs>
						<clipPath id="SVGID_122_">
							<use xlink:href="#SVGID_121_"  style="overflow:visible;"/>
						</clipPath>
						<path class="st93" d="M124.9,50v0.9c-0.8,0.3-1.6,0.5-2.4,0.6v-0.9C123.3,50.4,124.2,50.2,124.9,50"/>
					</g>
					<g>
						<defs>
							<path id="SVGID_123_" d="M130.8,45.9v0.9c0,1.4-1.7,2.5-4.4,3.6c-3.1,1.2-6.3,1.7-9.2,1.1c-1.3-0.3-2.4-0.6-4.5-1.8v-0.9
								c2,1.2,3.1,1.5,4.5,1.8c3,0.6,6.2,0.2,9.2-1.1C128.9,48.4,130.6,47.3,130.8,45.9z"/>
						</defs>
						<clipPath id="SVGID_124_">
							<use xlink:href="#SVGID_123_"  style="overflow:visible;"/>
						</clipPath>
						<path class="st94" d="M122.6,50.6v0.9c-0.4,0.1-0.9,0.1-1.3,0.2v-0.9C121.8,50.7,122.2,50.7,122.6,50.6"/>
					</g>
					<g>
						<defs>
							<path id="SVGID_125_" d="M130.8,45.9v0.9c0,1.4-1.7,2.5-4.4,3.6c-3.1,1.2-6.3,1.7-9.2,1.1c-1.3-0.3-2.4-0.6-4.5-1.8v-0.9
								c2,1.2,3.1,1.5,4.5,1.8c3,0.6,6.2,0.2,9.2-1.1C128.9,48.4,130.6,47.3,130.8,45.9z"/>
						</defs>
						<clipPath id="SVGID_126_">
							<use xlink:href="#SVGID_125_"  style="overflow:visible;"/>
						</clipPath>
						<path class="st95" d="M121.3,50.8v0.9c-0.3,0-0.7,0.1-1,0.1v-0.9C120.7,50.8,120.9,50.8,121.3,50.8"/>
					</g>
					<g>
						<defs>
							<path id="SVGID_127_" d="M130.8,45.9v0.9c0,1.4-1.7,2.5-4.4,3.6c-3.1,1.2-6.3,1.7-9.2,1.1c-1.3-0.3-2.4-0.6-4.5-1.8v-0.9
								c2,1.2,3.1,1.5,4.5,1.8c3,0.6,6.2,0.2,9.2-1.1C128.9,48.4,130.6,47.3,130.8,45.9z"/>
						</defs>
						<clipPath id="SVGID_128_">
							<use xlink:href="#SVGID_127_"  style="overflow:visible;"/>
						</clipPath>
						<path class="st96" d="M120.3,50.8v0.9c-0.3,0-0.6,0-0.8,0v-0.9C119.8,50.8,120.1,50.8,120.3,50.8"/>
					</g>
					<g>
						<defs>
							<path id="SVGID_129_" d="M130.8,45.9v0.9c0,1.4-1.7,2.5-4.4,3.6c-3.1,1.2-6.3,1.7-9.2,1.1c-1.3-0.3-2.4-0.6-4.5-1.8v-0.9
								c2,1.2,3.1,1.5,4.5,1.8c3,0.6,6.2,0.2,9.2-1.1C128.9,48.4,130.6,47.3,130.8,45.9z"/>
						</defs>
						<clipPath id="SVGID_130_">
							<use xlink:href="#SVGID_129_"  style="overflow:visible;"/>
						</clipPath>
						<path class="st97" d="M119.4,50.8v0.9c-0.3,0-0.5,0-0.8,0v-0.9C118.9,50.8,119.2,50.8,119.4,50.8"/>
					</g>
					<g>
						<defs>
							<path id="SVGID_131_" d="M130.8,45.9v0.9c0,1.4-1.7,2.5-4.4,3.6c-3.1,1.2-6.3,1.7-9.2,1.1c-1.3-0.3-2.4-0.6-4.5-1.8v-0.9
								c2,1.2,3.1,1.5,4.5,1.8c3,0.6,6.2,0.2,9.2-1.1C128.9,48.4,130.6,47.3,130.8,45.9z"/>
						</defs>
						<clipPath id="SVGID_132_">
							<use xlink:href="#SVGID_131_"  style="overflow:visible;"/>
						</clipPath>
						<path class="st98" d="M118.7,50.8v0.9c-0.3,0-0.5,0-0.8-0.1v-0.9C118.2,50.7,118.4,50.8,118.7,50.8"/>
					</g>
					<g>
						<defs>
							<path id="SVGID_133_" d="M130.8,45.9v0.9c0,1.4-1.7,2.5-4.4,3.6c-3.1,1.2-6.3,1.7-9.2,1.1c-1.3-0.3-2.4-0.6-4.5-1.8v-0.9
								c2,1.2,3.1,1.5,4.5,1.8c3,0.6,6.2,0.2,9.2-1.1C128.9,48.4,130.6,47.3,130.8,45.9z"/>
						</defs>
						<clipPath id="SVGID_134_">
							<use xlink:href="#SVGID_133_"  style="overflow:visible;"/>
						</clipPath>
						<path class="st99" d="M117.9,50.7v0.9c-0.3,0-0.5-0.1-0.8-0.1v-0.9C117.3,50.6,117.7,50.7,117.9,50.7"/>
					</g>
					<g>
						<defs>
							<path id="SVGID_135_" d="M130.8,45.9v0.9c0,1.4-1.7,2.5-4.4,3.6c-3.1,1.2-6.3,1.7-9.2,1.1c-1.3-0.3-2.4-0.6-4.5-1.8v-0.9
								c2,1.2,3.1,1.5,4.5,1.8c3,0.6,6.2,0.2,9.2-1.1C128.9,48.4,130.6,47.3,130.8,45.9z"/>
						</defs>
						<clipPath id="SVGID_136_">
							<use xlink:href="#SVGID_135_"  style="overflow:visible;"/>
						</clipPath>
						<path class="st100" d="M117.2,50.6v0.9c0,0,0,0-0.1,0c-0.3-0.1-0.6-0.1-1-0.2v-0.9C116.4,50.4,116.8,50.5,117.2,50.6
							C117.1,50.6,117.1,50.6,117.2,50.6"/>
					</g>
					<g>
						<defs>
							<path id="SVGID_137_" d="M130.8,45.9v0.9c0,1.4-1.7,2.5-4.4,3.6c-3.1,1.2-6.3,1.7-9.2,1.1c-1.3-0.3-2.4-0.6-4.5-1.8v-0.9
								c2,1.2,3.1,1.5,4.5,1.8c3,0.6,6.2,0.2,9.2-1.1C128.9,48.4,130.6,47.3,130.8,45.9z"/>
						</defs>
						<clipPath id="SVGID_138_">
							<use xlink:href="#SVGID_137_"  style="overflow:visible;"/>
						</clipPath>
						<path class="st101" d="M116.1,50.3v0.9c-0.3-0.1-0.7-0.2-1-0.3V50C115.4,50.1,115.8,50.2,116.1,50.3"/>
					</g>
					<g>
						<defs>
							<path id="SVGID_139_" d="M130.8,45.9v0.9c0,1.4-1.7,2.5-4.4,3.6c-3.1,1.2-6.3,1.7-9.2,1.1c-1.3-0.3-2.4-0.6-4.5-1.8v-0.9
								c2,1.2,3.1,1.5,4.5,1.8c3,0.6,6.2,0.2,9.2-1.1C128.9,48.4,130.6,47.3,130.8,45.9z"/>
						</defs>
						<clipPath id="SVGID_140_">
							<use xlink:href="#SVGID_139_"  style="overflow:visible;"/>
						</clipPath>
						<path class="st102" d="M115.1,50v0.9c-0.7-0.3-1.5-0.7-2.5-1.2v-0.9C113.6,49.3,114.3,49.7,115.1,50"/>
					</g>
				</g>
				<path d="M127.7,42.6c5.1,2.9,3.2,5-1.4,6.9c-3.1,1.2-6.3,1.7-9.2,1.1c-1.3-0.3-2.4-0.6-4.5-1.8l-5.8-3.3l3.1-1.3l5.1,2.9
					c3.1,1.8,5.2,1.5,6.7,1c0.6-0.2,2.3-0.7,3.1-1.2c1.6-0.9,1.7-1.9-0.8-3.3l-5.2-3l3.1-1.3L127.7,42.6z"/>
			</g>
			<g>
				<g>
					<g class="st3">
						<g>
							<polygon class="st51" points="123.9,42.6 123.9,43.5 118.8,40.5 118.8,39.6 							"/>
						</g>
						<g>
							<polygon class="st51" points="115.4,43.5 115.4,44.5 109.6,41 109.6,40.1 							"/>
						</g>
						<g class="st3">
							<g>
								<defs>
									<path id="SVGID_141_" d="M120.3,43.2v0.9c0,0-0.4,0.1-1.3,0.5v-0.9C119.8,43.3,120.3,43.2,120.3,43.2z"/>
								</defs>
								<clipPath id="SVGID_142_">
									<use xlink:href="#SVGID_141_"  style="overflow:visible;"/>
								</clipPath>
								<g class="st103">
									<path class="st53" d="M120.3,43.2v0.9c0,0-0.4,0.1-1.3,0.5v-0.9C119.8,43.3,120.3,43.2,120.3,43.2"/>
								</g>
							</g>
						</g>
						<g>
							<path class="st54" d="M118.9,43.7c-0.7,0.3-1.9,0.7-3.4-0.2l-5.9-3.4c0,0,0.4-0.1,1.3-0.5c0.7-0.3,1.9-0.7,3.4,0.2l5.9,3.4
								C120.3,43.2,119.8,43.3,118.9,43.7z"/>
						</g>
						<g class="st3">
							<g>
								<defs>
									<path id="SVGID_143_" d="M118.9,43.7v0.9c-0.7,0.3-1.9,0.7-3.4-0.2v-0.9C116.9,44.4,118.2,43.9,118.9,43.7z"/>
								</defs>
								<clipPath id="SVGID_144_">
									<use xlink:href="#SVGID_143_"  style="overflow:visible;"/>
								</clipPath>
								<g class="st104">
									<path class="st53" d="M118.9,43.7v0.9c-0.1,0-0.2,0.1-0.4,0.1v-0.9C118.7,43.8,118.8,43.7,118.9,43.7"/>
									<path class="st56" d="M118.6,43.8v0.9c-0.2,0.1-0.4,0.1-0.6,0.2V44C118.2,43.9,118.3,43.9,118.6,43.8"/>
									<path class="st57" d="M117.9,44v0.9c-0.1,0-0.2,0-0.3,0V44C117.8,44,117.8,44,117.9,44"/>
									<path class="st58" d="M117.7,44v0.9c-0.1,0-0.1,0-0.2,0V44C117.4,44,117.6,44,117.7,44"/>
									<path class="st59" d="M117.3,44v0.9c-0.1,0-0.1,0-0.2,0V44C117.3,44,117.3,44,117.3,44"/>
									<path class="st60" d="M117.2,44v0.9c-0.1,0-0.1,0-0.2,0V44C117.1,44,117.2,44,117.2,44"/>
									<path class="st61" d="M116.9,44v0.9c-0.1,0-0.1,0-0.2,0V44C116.8,44,116.9,44,116.9,44"/>
									<path class="st62" d="M116.8,44v0.9c-0.1,0-0.1,0-0.2,0V44C116.7,44,116.8,44,116.8,44"/>
									<path class="st63" d="M116.6,44v0.9c-0.1,0-0.2,0-0.2-0.1v-0.9C116.4,43.9,116.6,43.9,116.6,44"/>
									<path class="st64" d="M116.3,43.9v0.9c-0.1,0-0.2-0.1-0.3-0.1v-0.9C116.2,43.8,116.3,43.9,116.3,43.9"/>
									<path class="st65" d="M116.1,43.8v0.9c-0.2-0.1-0.4-0.2-0.6-0.3v-0.9C115.7,43.6,115.8,43.7,116.1,43.8"/>
								</g>
							</g>
						</g>
						<g class="st3">
							<g>
								<defs>
									<path id="SVGID_145_" d="M125.9,44.6v0.9c0-0.6-0.6-1.2-2-2v-0.9C125.3,43.4,125.9,44,125.9,44.6z"/>
								</defs>
								<clipPath id="SVGID_146_">
									<use xlink:href="#SVGID_145_"  style="overflow:visible;"/>
								</clipPath>
								<g class="st105">
									<path class="st65" d="M125.9,44.6v0.9c0-0.6-0.6-1.2-2-2v-0.9C125.3,43.4,125.9,44,125.9,44.6"/>
								</g>
							</g>
						</g>
						<g>
							<polygon class="st51" points="112.6,47.7 112.6,48.7 106.8,45.3 106.8,44.4 							"/>
						</g>
						<g class="st3">
							<g>
								<defs>
									<path id="SVGID_147_" d="M130.8,44.9v0.9c0,1.4-1.7,2.5-4.4,3.6c-3.1,1.2-6.3,1.7-9.2,1.1c-1.3-0.3-2.4-0.6-4.5-1.8v-0.9
										c2,1.2,3.1,1.5,4.5,1.8c3,0.6,6.2,0.2,9.2-1.1C128.9,47.4,130.6,46.3,130.8,44.9z"/>
								</defs>
								<clipPath id="SVGID_148_">
									<use xlink:href="#SVGID_147_"  style="overflow:visible;"/>
								</clipPath>
								<g class="st106">
									<path class="st62" d="M130.8,44.9v0.9l0,0V44.9C130.6,44.9,130.6,44.9,130.8,44.9"/>
									<path class="st61" d="M130.6,45v0.9c0,0.1,0,0.2,0,0.3v-0.9C130.6,45.1,130.6,45,130.6,45"/>
									<path class="st60" d="M130.6,45.2v0.9c0,0.1,0,0.2-0.1,0.3v-0.9C130.6,45.4,130.6,45.3,130.6,45.2"/>
									<path class="st59" d="M130.6,45.5v0.9c0,0.1-0.1,0.2-0.1,0.3v-0.9C130.6,45.7,130.6,45.6,130.6,45.5"/>
									<path class="st58" d="M130.4,45.8v0.9c-0.1,0.1-0.1,0.2-0.2,0.3v-0.9C130.4,46,130.4,45.9,130.4,45.8"/>
									<path class="st57" d="M130.3,46.1V47c-0.1,0.1-0.2,0.3-0.4,0.4v-0.9C129.9,46.4,130.1,46.2,130.3,46.1"/>
									<path class="st56" d="M129.9,46.5v0.9c-0.3,0.3-0.7,0.5-1.1,0.8v-0.9C129.1,47.1,129.6,46.8,129.9,46.5"/>
									<path class="st53" d="M128.8,47.3v0.9c-0.7,0.4-1.5,0.8-2.5,1.2c-0.5,0.2-0.9,0.3-1.4,0.5V49c0.5-0.1,0.9-0.3,1.4-0.5
										C127.3,48.1,128.1,47.7,128.8,47.3"/>
									<path class="st56" d="M124.9,49v0.9c-0.8,0.3-1.6,0.5-2.4,0.6v-0.9C123.3,49.4,124.2,49.2,124.9,49"/>
									<path class="st57" d="M122.6,49.6v0.9c-0.4,0.1-0.9,0.1-1.3,0.2v-0.9C121.8,49.7,122.2,49.7,122.6,49.6"/>
									<path class="st58" d="M121.3,49.8v0.9c-0.3,0-0.7,0.1-1,0.1v-0.9C120.7,49.8,120.9,49.8,121.3,49.8"/>
									<path class="st59" d="M120.3,49.8v0.9c-0.3,0-0.6,0-0.8,0v-0.9C119.8,49.8,120.1,49.8,120.3,49.8"/>
									<path class="st60" d="M119.4,49.8v0.9c-0.3,0-0.5,0-0.8,0v-0.9C118.9,49.8,119.2,49.8,119.4,49.8"/>
									<path class="st61" d="M118.7,49.8v0.9c-0.3,0-0.5,0-0.8-0.1v-0.9C118.2,49.7,118.4,49.8,118.7,49.8"/>
									<path class="st62" d="M117.9,49.7v0.9c-0.3,0-0.5-0.1-0.8-0.1v-0.9C117.3,49.6,117.7,49.7,117.9,49.7"/>
									<path class="st63" d="M117.2,49.6v0.9c0,0,0,0-0.1,0c-0.3-0.1-0.6-0.1-1-0.2v-0.9C116.4,49.4,116.8,49.5,117.2,49.6
										C117.1,49.6,117.1,49.6,117.2,49.6"/>
									<path class="st64" d="M116.1,49.3v0.9c-0.3-0.1-0.7-0.2-1-0.3V49C115.4,49.1,115.8,49.2,116.1,49.3"/>
									<path class="st65" d="M115.1,49v0.9c-0.7-0.3-1.5-0.7-2.5-1.2v-0.9C113.6,48.3,114.3,48.7,115.1,49"/>
								</g>
							</g>
						</g>
						<g>
							<path class="st54" d="M127.7,41.6c5.1,2.9,3.2,5-1.4,6.9c-3.1,1.2-6.3,1.7-9.2,1.1c-1.3-0.3-2.4-0.6-4.5-1.8l-5.8-3.3
								l3.1-1.3l5.1,2.9c3.1,1.8,5.2,1.5,6.7,1c0.6-0.2,2.3-0.7,3.1-1.2c1.6-0.9,1.7-1.9-0.8-3.3l-5.2-3l3.1-1.3L127.7,41.6z"/>
						</g>
					</g>
				</g>
			</g>
		</g>
	</g>
</g>
</svg>
