<?xml version="1.0" encoding="utf-8"?>
<!-- Generator: Adobe Illustrator 23.0.0, SVG Export Plug-In . SVG Version: 6.00 Build 0)  -->
<svg version="1.1" id="Layer_1" xmlns="http://www.w3.org/2000/svg" xmlns:xlink="http://www.w3.org/1999/xlink" x="0px" y="0px"
	 viewBox="0 0 200 200" style="enable-background:new 0 0 200 200;" xml:space="preserve">
<style type="text/css">
	.st0{opacity:0.1;fill:#272724;enable-background:new    ;}
	.st1{fill:url(#XMLID_2_);}
	.st2{fill:url(#XMLID_3_);}
	.st3{fill:#FBFBFB;}
	.st4{fill:#D5E5F5;}
	.st5{fill:url(#SVGID_1_);}
	.st6{fill:url(#SVGID_2_);}
	.st7{enable-background:new    ;}
	.st8{fill:#977A3B;}
	.st9{fill:url(#SVGID_3_);}
	.st10{fill:url(#SVGID_4_);}
	.st11{fill:url(#SVGID_5_);}
	.st12{fill:url(#SVGID_6_);}
	.st13{fill:url(#SVGID_7_);}
	.st14{fill:url(#SVGID_8_);}
	.st15{fill:url(#SVGID_9_);}
	.st16{fill:url(#SVGID_10_);}
	.st17{fill:url(#SVGID_11_);}
	.st18{fill:#EBF2F7;}
	.st19{fill:url(#SVGID_12_);}
	.st20{fill:url(#SVGID_13_);}
	.st21{fill:url(#SVGID_14_);}
	.st22{fill:url(#SVGID_15_);}
	.st23{fill:url(#SVGID_16_);}
	.st24{fill:url(#SVGID_17_);}
	.st25{fill:url(#SVGID_18_);}
	.st26{fill:url(#SVGID_19_);}
	.st27{fill:url(#SVGID_20_);}
	.st28{fill:#BABCBE;}
	.st29{opacity:0.4;}
	.st30{fill:#FFFFFF;}
	.st31{fill:#E4E5E6;}
	.st32{fill:#A6A9AB;}
	.st33{fill:#03618B;}
	.st34{fill:#BB9449;}
	.st35{fill:#655028;}
	.st36{fill:#917438;}
	.st37{fill:#B28E45;}
	.st38{fill:#704228;}
	.st39{fill:#2B2410;}
	.st40{fill:#4D2C1B;}
	.st41{fill:#905533;}
	.st42{fill:#DFE3E6;}
	.st43{fill:#DEDEDE;}
	.st44{fill:#B2B7BB;}
	.st45{fill:#FCFFFC;}
	.st46{fill:#BBC1C5;}
	.st47{fill:#7D7884;}
	.st48{fill:url(#SVGID_21_);}
	.st49{fill:url(#SVGID_22_);}
	.st50{fill:url(#SVGID_23_);}
	.st51{fill:url(#SVGID_24_);}
	.st52{fill:url(#SVGID_25_);}
	.st53{fill:url(#SVGID_26_);}
	.st54{fill:url(#SVGID_27_);}
	.st55{fill:url(#SVGID_28_);}
	.st56{fill:url(#SVGID_29_);}
	.st57{fill:url(#SVGID_30_);}
	.st58{fill:url(#SVGID_31_);}
	.st59{fill:url(#SVGID_32_);}
	.st60{fill:url(#SVGID_33_);}
	.st61{fill:url(#SVGID_34_);}
	.st62{fill:url(#SVGID_35_);}
	.st63{fill:url(#SVGID_36_);}
	.st64{fill:url(#SVGID_37_);}
	.st65{fill:url(#SVGID_38_);}
	.st66{fill:url(#SVGID_39_);}
	.st67{fill:url(#SVGID_40_);}
	.st68{fill:url(#SVGID_41_);}
	.st69{clip-path:url(#SVGID_43_);enable-background:new    ;}
	.st70{fill:url(#SVGID_44_);}
	.st71{fill:#D0D0D0;}
	.st72{fill:#CCCCCC;}
	.st73{fill:#C8C8C8;}
	.st74{fill:#C4C4C4;}
	.st75{fill:#BFBFBF;}
	.st76{fill:#BABABA;}
	.st77{fill:#B6B6B6;}
	.st78{fill:#B1B1B1;}
	.st79{fill:#ADADAD;}
	.st80{fill:#A8A8A8;}
	.st81{fill:#A4A4A4;}
	.st82{fill:#9F9F9F;}
	.st83{fill:#9B9B9B;}
	.st84{fill:#969696;}
	.st85{fill:#E1E1E1;}
	.st86{fill:#A3A3A3;}
	.st87{clip-path:url(#SVGID_46_);enable-background:new    ;}
	.st88{fill:url(#SVGID_47_);}
	.st89{clip-path:url(#SVGID_49_);enable-background:new    ;}
	.st90{fill:url(#SVGID_50_);}
</style>
<g>
	<g id="_x31_8_26_">
		<g id="_x36__27_">
			<g id="XMLID_296_">
				<path id="XMLID_299_" class="st0" d="M87.6,185.9L30,152.3c-7.9-4.6-6.9-12.6,2.2-17.9l48.6-28.2c9.1-5.3,22.9-5.8,30.7-1.2
					l57.5,33.6c7.9,4.6,6.9,12.6-2.2,17.9l-48.6,28.2C109.3,189.9,95.4,190.4,87.6,185.9z"/>
				
					<linearGradient id="XMLID_2_" gradientUnits="userSpaceOnUse" x1="25.55" y1="-118" x2="175.2528" y2="-118" gradientTransform="matrix(1 0 0 -1 0 24.2)">
					<stop  offset="1.923080e-03" style="stop-color:#23DBEA"/>
					<stop  offset="1" style="stop-color:#0C5FCD"/>
				</linearGradient>
				<path id="XMLID_298_" class="st1" d="M175.3,142.9l-0.1-9.1l-10-1.3l-52.7-30.8c-7.9-4.6-21.6-4.1-30.7,1.2L33,131.1
					c-0.4,0.2-0.8,0.5-1.1,0.7l-6.4,1.3v8.3l0,0c0.1,2.9,1.8,5.6,5.3,7.6l57.5,33.6c7.9,4.6,21.6,4.1,30.7-1.2l48.6-28.2
					C172.8,150.4,175.4,146.6,175.3,142.9L175.3,142.9z"/>
				
					<linearGradient id="XMLID_3_" gradientUnits="userSpaceOnUse" x1="100.25" y1="-83.9833" x2="100.25" y2="-128.4905" gradientTransform="matrix(1 0 0 -1 0 24.2)">
					<stop  offset="0" style="stop-color:#DFE0E1"/>
					<stop  offset="1" style="stop-color:#FFFFFF"/>
				</linearGradient>
				<path id="XMLID_297_" class="st2" d="M88.3,175.3l-57.6-33.6c-7.9-4.6-6.9-12.6,2.2-17.9l48.6-28.2c9.1-5.3,22.9-5.8,30.7-1.2
					l57.5,33.6c7.9,4.6,6.9,12.6-2.2,17.9l-48.5,28.2C109.9,179.4,96.2,179.9,88.3,175.3z"/>
			</g>
		</g>
	</g>
	<g>
		<polygon class="st3" points="51.3,100.7 51.3,113.8 51.3,114.1 51.3,126.4 51.3,127.2 51.3,142.4 93.1,166.6 93.1,151.3 
			93.1,150.4 93.1,138.1 93.1,137.9 93.1,124.8 		"/>
		<polygon class="st4" points="93.1,124.8 93.1,137.9 93.1,138.1 93.1,150.4 93.1,151.3 93.1,166.6 150.9,133 150.9,117.8 
			150.9,117 150.9,104.7 150.9,104.4 150.9,91.3 		"/>
		
			<linearGradient id="SVGID_1_" gradientUnits="userSpaceOnUse" x1="92.4067" y1="-111.6272" x2="3.9067" y2="-77.1272" gradientTransform="matrix(1 0 0 -1 0 24.2)">
			<stop  offset="1.923080e-03" style="stop-color:#23DBEA"/>
			<stop  offset="1" style="stop-color:#0C5FCD"/>
		</linearGradient>
		<polygon class="st5" points="51.3,95.1 51.3,108.2 51.3,108.4 51.3,120.7 51.3,121.6 51.3,136.8 93.1,160.9 93.1,145.7 
			93.1,144.9 93.1,132.6 93.1,132.3 93.1,119.2 		"/>
		
			<linearGradient id="SVGID_2_" gradientUnits="userSpaceOnUse" x1="93.05" y1="-99.05" x2="150.85" y2="-99.05" gradientTransform="matrix(1 0 0 -1 0 24.2)">
			<stop  offset="1.923080e-03" style="stop-color:#23DBEA"/>
			<stop  offset="1" style="stop-color:#0C5FCD"/>
		</linearGradient>
		<polygon class="st6" points="93.1,119.2 93.1,132.3 93.1,132.6 93.1,144.9 93.1,145.7 93.1,160.9 150.9,127.4 150.9,112.2 
			150.9,111.3 150.9,99 150.9,98.8 150.9,85.7 		"/>
		<g>
			<g class="st7">
				<g>
					<path class="st8" d="M124.9,137.6l21.9-12.7l-0.1-20.1l-21.9,12.7L124.9,137.6L124.9,137.6z"/>
				</g>
				<g>
					
						<linearGradient id="SVGID_3_" gradientUnits="userSpaceOnUse" x1="149.0741" y1="-89.6766" x2="132.7309" y2="-82.6856" gradientTransform="matrix(1 0 0 -1 0 24.2)">
						<stop  offset="0" style="stop-color:#9CD5E0"/>
						<stop  offset="1" style="stop-color:#2EA9E1"/>
					</linearGradient>
					<polygon class="st9" points="145.4,112.2 145.4,107.2 140.1,110.3 140.1,110.5 140.1,115.2 144.9,112.4 					"/>
					
						<linearGradient id="SVGID_4_" gradientUnits="userSpaceOnUse" x1="146.568" y1="-95.5348" x2="130.2249" y2="-88.5438" gradientTransform="matrix(1 0 0 -1 0 24.2)">
						<stop  offset="0" style="stop-color:#9CD5E0"/>
						<stop  offset="1" style="stop-color:#2EA9E1"/>
					</linearGradient>
					<polygon class="st10" points="139.4,115.7 139.4,110.7 132.4,114.7 132.4,115 132.4,119.7 138.9,115.9 					"/>
					
						<linearGradient id="SVGID_5_" gradientUnits="userSpaceOnUse" x1="144.0619" y1="-101.3929" x2="127.7191" y2="-94.4021" gradientTransform="matrix(1 0 0 -1 0 24.2)">
						<stop  offset="0" style="stop-color:#9CD5E0"/>
						<stop  offset="1" style="stop-color:#2EA9E1"/>
					</linearGradient>
					<polygon class="st11" points="131.6,120.1 131.6,115.2 126.3,118.2 126.3,118.5 126.3,123.2 131.3,120.4 					"/>
					
						<linearGradient id="SVGID_6_" gradientUnits="userSpaceOnUse" x1="144.334" y1="-100.7578" x2="127.9908" y2="-93.7667" gradientTransform="matrix(1 0 0 -1 0 24.2)">
						<stop  offset="0" style="stop-color:#9CD5E0"/>
						<stop  offset="1" style="stop-color:#2EA9E1"/>
					</linearGradient>
					<polygon class="st12" points="139.4,122.7 139.4,116 132.4,120 132.4,120.2 132.4,126.8 138.9,123 					"/>
					
						<linearGradient id="SVGID_7_" gradientUnits="userSpaceOnUse" x1="144.6236" y1="-100.0801" x2="128.2813" y2="-93.0895" gradientTransform="matrix(1 0 0 -1 0 24.2)">
						<stop  offset="0" style="stop-color:#9CD5E0"/>
						<stop  offset="1" style="stop-color:#2EA9E1"/>
					</linearGradient>
					<polygon class="st13" points="145.4,119.5 140.1,122.6 140.1,122.9 140.1,127.6 145.1,124.7 145.4,124.5 					"/>
					
						<linearGradient id="SVGID_8_" gradientUnits="userSpaceOnUse" x1="146.8657" y1="-94.8391" x2="130.5224" y2="-87.8481" gradientTransform="matrix(1 0 0 -1 0 24.2)">
						<stop  offset="0" style="stop-color:#9CD5E0"/>
						<stop  offset="1" style="stop-color:#2EA9E1"/>
					</linearGradient>
					<polygon class="st14" points="145.4,119.2 145.4,112.4 140.1,115.5 140.1,115.8 140.1,122.3 145.1,119.5 					"/>
					
						<linearGradient id="SVGID_9_" gradientUnits="userSpaceOnUse" x1="142.1278" y1="-105.914" x2="125.7854" y2="-98.9233" gradientTransform="matrix(1 0 0 -1 0 24.2)">
						<stop  offset="0" style="stop-color:#9CD5E0"/>
						<stop  offset="1" style="stop-color:#2EA9E1"/>
					</linearGradient>
					<polygon class="st15" points="132.4,127 132.4,127.3 132.4,132 138.9,128.1 139.4,128 139.4,123 					"/>
					
						<linearGradient id="SVGID_10_" gradientUnits="userSpaceOnUse" x1="139.6145" y1="-111.7905" x2="123.2714" y2="-104.7995" gradientTransform="matrix(1 0 0 -1 0 24.2)">
						<stop  offset="0" style="stop-color:#9CD5E0"/>
						<stop  offset="1" style="stop-color:#2EA9E1"/>
					</linearGradient>
					<polygon class="st16" points="126.3,130.5 126.3,130.8 126.3,135.5 131.3,132.6 131.6,132.4 131.6,127.5 					"/>
					
						<linearGradient id="SVGID_11_" gradientUnits="userSpaceOnUse" x1="141.8382" y1="-106.5916" x2="125.4954" y2="-99.6008" gradientTransform="matrix(1 0 0 -1 0 24.2)">
						<stop  offset="0" style="stop-color:#9CD5E0"/>
						<stop  offset="1" style="stop-color:#2EA9E1"/>
					</linearGradient>
					<polygon class="st17" points="131.6,127.2 131.6,120.4 126.3,123.5 126.3,123.7 126.3,130.3 131.3,127.4 					"/>
				</g>
				<path class="st18" d="M146.9,125.1l-21.9,12.7l-0.1-20.1l21.9-12.7L146.9,125.1z M132.4,120.2v6.5l6.5-3.8l0.4-0.2v-6.8l-6.9,4
					V120.2L132.4,120.2z M140.1,115.8v6.5l4.9-2.8l0.4-0.2v-6.8l-5.3,3.1V115.8L140.1,115.8z M126.3,130.3l4.9-2.8l0.4-0.2v-6.8
					l-5.3,3.1V130.3L126.3,130.3z M132.4,115v4.7l6.5-3.8l0.4-0.2v-5l-6.9,4V115L132.4,115z M132.4,127.3v4.7l6.5-3.8l0.4-0.2v-5
					l-6.9,4V127.3L132.4,127.3z M140.1,110.5v4.7l4.9-2.8l0.4-0.2v-5l-5.3,3.1V110.5L140.1,110.5z M140.1,122.9v4.7l4.9-2.8l0.4-0.2
					v-5l-5.3,3.1V122.9L140.1,122.9z M126.3,123.2l4.9-2.8l0.4-0.2v-5l-5.3,3.1V123.2L126.3,123.2z M126.3,135.5l4.9-2.8l0.4-0.2v-5
					l-5.3,3.1V135.5L126.3,135.5z"/>
			</g>
		</g>
		<g>
			<g class="st7">
				<g>
					<path class="st8" d="M77.3,143.6l0.1-20.1l-22-12.7l-0.1,20.1L77.3,143.6L77.3,143.6z"/>
				</g>
				<g>
					
						<linearGradient id="SVGID_12_" gradientUnits="userSpaceOnUse" x1="-452.2018" y1="-95.5095" x2="-468.545" y2="-88.5185" gradientTransform="matrix(-1 0 0 -1 -399.1359 24.2)">
						<stop  offset="0" style="stop-color:#9CD5E0"/>
						<stop  offset="1" style="stop-color:#2EA9E1"/>
					</linearGradient>
					<polygon class="st19" points="56.8,118 56.8,113 62,116.1 62,116.4 62,121.1 57.2,118.2 					"/>
					
						<linearGradient id="SVGID_13_" gradientUnits="userSpaceOnUse" x1="-454.7156" y1="-101.3858" x2="-471.0587" y2="-94.3948" gradientTransform="matrix(-1 0 0 -1 -399.1359 24.2)">
						<stop  offset="0" style="stop-color:#9CD5E0"/>
						<stop  offset="1" style="stop-color:#2EA9E1"/>
					</linearGradient>
					<polygon class="st20" points="62.8,121.5 62.8,116.6 69.8,120.6 69.8,120.8 69.8,125.5 63.3,121.8 					"/>
					
						<linearGradient id="SVGID_14_" gradientUnits="userSpaceOnUse" x1="-457.2111" y1="-107.2198" x2="-473.5543" y2="-100.2288" gradientTransform="matrix(-1 0 0 -1 -399.1359 24.2)">
						<stop  offset="0" style="stop-color:#9CD5E0"/>
						<stop  offset="1" style="stop-color:#2EA9E1"/>
					</linearGradient>
					<polygon class="st21" points="70.6,126 70.6,121 75.8,124.1 75.8,124.3 75.8,129 70.9,126.2 					"/>
					
						<linearGradient id="SVGID_15_" gradientUnits="userSpaceOnUse" x1="-456.9394" y1="-106.5845" x2="-473.2824" y2="-99.5936" gradientTransform="matrix(-1 0 0 -1 -399.1359 24.2)">
						<stop  offset="0" style="stop-color:#9CD5E0"/>
						<stop  offset="1" style="stop-color:#2EA9E1"/>
					</linearGradient>
					<polygon class="st22" points="62.8,128.6 62.8,121.8 69.8,125.8 69.8,126.1 69.8,132.6 63.3,128.8 					"/>
					
						<linearGradient id="SVGID_16_" gradientUnits="userSpaceOnUse" x1="-456.6677" y1="-105.9491" x2="-473.0101" y2="-98.9585" gradientTransform="matrix(-1 0 0 -1 -399.1359 24.2)">
						<stop  offset="0" style="stop-color:#9CD5E0"/>
						<stop  offset="1" style="stop-color:#2EA9E1"/>
					</linearGradient>
					<polygon class="st23" points="56.8,125.4 62,128.4 62,128.6 62,133.4 57.2,130.6 56.7,130.3 					"/>
					
						<linearGradient id="SVGID_17_" gradientUnits="userSpaceOnUse" x1="-454.4437" y1="-100.7505" x2="-470.787" y2="-93.7595" gradientTransform="matrix(-1 0 0 -1 -399.1359 24.2)">
						<stop  offset="0" style="stop-color:#9CD5E0"/>
						<stop  offset="1" style="stop-color:#2EA9E1"/>
					</linearGradient>
					<polygon class="st24" points="56.8,125.1 56.8,118.3 62,121.4 62,121.6 62,128.1 57.2,125.3 					"/>
					
						<linearGradient id="SVGID_18_" gradientUnits="userSpaceOnUse" x1="-459.1557" y1="-111.765" x2="-475.4982" y2="-104.7743" gradientTransform="matrix(-1 0 0 -1 -399.1359 24.2)">
						<stop  offset="0" style="stop-color:#9CD5E0"/>
						<stop  offset="1" style="stop-color:#2EA9E1"/>
					</linearGradient>
					<polygon class="st25" points="69.8,132.9 69.8,133.1 69.8,137.8 63.2,134.1 62.8,133.8 62.8,128.9 					"/>
					
						<linearGradient id="SVGID_19_" gradientUnits="userSpaceOnUse" x1="-461.6432" y1="-117.5811" x2="-477.9864" y2="-110.5901" gradientTransform="matrix(-1 0 0 -1 -399.1359 24.2)">
						<stop  offset="0" style="stop-color:#9CD5E0"/>
						<stop  offset="1" style="stop-color:#2EA9E1"/>
					</linearGradient>
					<polygon class="st26" points="75.8,136.4 75.8,136.6 75.8,141.3 70.8,138.5 70.4,138.3 70.4,133.3 					"/>
					
						<linearGradient id="SVGID_20_" gradientUnits="userSpaceOnUse" x1="-459.4351" y1="-112.4184" x2="-475.778" y2="-105.4276" gradientTransform="matrix(-1 0 0 -1 -399.1359 24.2)">
						<stop  offset="0" style="stop-color:#9CD5E0"/>
						<stop  offset="1" style="stop-color:#2EA9E1"/>
					</linearGradient>
					<polygon class="st27" points="70.4,133 70.6,126.2 75.8,129.3 75.8,129.6 75.8,136.1 70.9,133.3 					"/>
				</g>
				<path class="st18" d="M55.3,110.8l21.9,12.7l-0.1,20.1l-21.9-12.7L55.3,110.8z M69.8,126.1v-0.3l-6.9-4v6.8l0.4,0.2l6.5,3.8
					V126.1L69.8,126.1z M62,121.6v-0.3l-5.3-3.1v6.8l0.4,0.2l4.9,2.8L62,121.6L62,121.6z M75.8,136.1v-6.8l-5.3-3.1v6.8l0.4,0.2
					L75.8,136.1L75.8,136.1z M69.8,120.8v-0.3l-6.9-4v5l0.4,0.2l6.5,3.8V120.8L69.8,120.8z M69.8,133.1v-0.3l-6.9-4v5l0.4,0.2
					l6.5,3.8V133.1L69.8,133.1z M62,116.4v-0.3l-5.3-3.1v5l0.4,0.2l4.9,2.8L62,116.4L62,116.4z M62,128.6v-0.3l-5.3-3.1v5l0.4,0.2
					l4.9,2.8L62,128.6L62,128.6z M75.8,129v-5l-5.3-3.1v5l0.4,0.2L75.8,129L75.8,129z M75.8,141.3v-5l-5.3-3.1v5l0.4,0.2L75.8,141.3
					L75.8,141.3z"/>
			</g>
		</g>
		<g>
			<g>
				<g class="st7">
					<g>
						<polygon class="st18" points="100.8,132.4 100.8,156.4 112.2,149.9 112.1,125.9 						"/>
					</g>
				</g>
			</g>
			<g>
				<polygon class="st28" points="102.3,134 102.3,143.8 110.6,139.1 110.6,129.3 				"/>
			</g>
			<g class="st29">
				<g>
					<polygon class="st28" points="102.3,134 102.3,134.1 110.3,129.5 110.4,139.1 110.6,139.1 110.6,129.3 					"/>
				</g>
			</g>
			<g>
				<g class="st7">
					<g>
						<polygon class="st30" points="107.4,143.2 107.4,143.4 110.2,141.8 110.2,149.4 110.3,149.3 110.3,149.4 110.2,149.6 
							110.3,149.4 110.3,141.6 						"/>
					</g>
					<g>
						<polygon class="st31" points="107.3,143.3 107.3,151.2 110.2,149.6 110.3,149.4 110.3,149.3 110.2,149.4 107.6,150.9 
							107.4,143.4 107.4,143.2 						"/>
					</g>
				</g>
				<g>
					<polygon class="st18" points="107.4,143.4 107.6,150.9 110.2,149.4 110.2,141.8 					"/>
				</g>
				<g>
					<polygon class="st32" points="107.2,143.2 107.2,143.3 110.4,141.4 110.4,149.7 110.6,149.6 110.6,141.2 					"/>
				</g>
				<g>
					<path class="st28" d="M110.4,149.7l-3.3,1.9v-8.3l3.3-1.9V149.7z M107.3,151.2l3-1.7v-7.9l-2.8,1.6l-0.1,0.1L107.3,151.2
						L107.3,151.2z"/>
				</g>
				<g class="st7">
					<g>
						<polygon class="st31" points="102.6,145.9 102.6,153.9 105.4,152.3 105.6,152.3 105.6,152.1 105.4,152.2 102.8,153.7 
							102.8,146.1 102.8,145.9 						"/>
					</g>
					<g>
						<polygon class="st30" points="102.8,145.9 102.8,146.1 105.3,144.6 105.4,152.2 105.6,152.1 105.6,152.3 105.4,152.3 
							105.6,152.3 105.6,144.3 						"/>
					</g>
					<g>
						<polygon class="st32" points="102.3,145.9 102.3,145.9 105.7,144.1 105.7,152.4 105.8,152.4 105.8,143.9 						"/>
					</g>
				</g>
				<g>
					<polygon class="st18" points="102.8,146.1 102.8,153.7 105.4,152.2 105.3,144.6 					"/>
				</g>
				<g>
					<path class="st28" d="M105.7,152.4l-3.3,1.9v-8.3l3.3-1.9V152.4z M102.6,153.9l3-1.7v-7.9l-2.8,1.6l-0.1,0.1L102.6,153.9
						L102.6,153.9z"/>
				</g>
			</g>
			<g>
				<polygon class="st18" points="102.6,134.1 102.6,143.4 110.3,138.9 110.3,129.6 				"/>
			</g>
			<g>
				<polygon class="st33" points="102.7,134.1 102.8,143.2 110.3,138.9 110.2,129.9 				"/>
			</g>
			<g>
				<g class="st7">
					<g class="st7">
						<g class="st7">
							<path class="st34" d="M111.8,139.8l-0.5-0.3c-0.1-0.1-0.3-0.1-0.4,0l0.5,0.3C111.7,139.7,111.8,139.7,111.8,139.8
								L111.8,139.8z"/>
						</g>
					</g>
					<g class="st7">
						<g class="st7">
							<path class="st34" d="M111.4,139.8l-0.5-0.3c-0.3,0.2-0.6,0.6-0.6,1c0,0.2,0.1,0.3,0.2,0.4l0.5,0.3c-0.1-0.1-0.2-0.2-0.2-0.4
								C110.8,140.4,111.2,139.9,111.4,139.8L111.4,139.8z"/>
						</g>
					</g>
					<g>
						<path class="st35" d="M111.4,139.8c-0.3,0.2-0.6,0.6-0.6,1s0.3,0.5,0.6,0.3c0.3-0.2,0.6-0.6,0.6-1
							C112.1,139.8,111.8,139.6,111.4,139.8z"/>
					</g>
				</g>
			</g>
			<g>
				<g class="st7">
					<g>
						<polygon class="st36" points="111.6,142.1 111.4,141.9 111.4,142.2 111.6,142.2 						"/>
					</g>
					<g>
						<polygon class="st37" points="111.7,141.9 111.4,141.9 111.4,141.9 111.6,142.1 						"/>
					</g>
					<g>
						<polygon class="st38" points="111.4,142.1 111.3,141.9 111.3,142.2 111.4,142.3 						"/>
					</g>
					<path class="st39" d="M111.7,141.9L111.7,141.9L111.7,141.9L111.7,141.9L111.7,141.9L111.7,141.9
						C111.6,141.9,111.6,141.9,111.7,141.9C111.6,141.9,111.6,141.9,111.7,141.9C111.6,141.9,111.6,141.9,111.7,141.9
						C111.6,141.9,111.6,141.9,111.7,141.9l-0.2-0.1c0,0,0,0,0,0.1H111.7C111.6,141.9,111.6,141.9,111.7,141.9c-0.1,0-0.2,0-0.2,0.1
						v0.1v0.1l0,0l-0.1,0.1l0.1,0.1l0,0l0.1-0.1l0,0l0,0l0,0v-0.2L111.7,141.9z"/>
					<g>
						<polygon class="st40" points="111.4,141.9 111.3,141.9 111.3,141.9 111.4,142.1 						"/>
					</g>
					<g class="st7">
						<g class="st7">
							<path class="st41" d="M111.6,141.9l-0.1-0.1c0,0,0,0-0.1,0L111.6,141.9L111.6,141.9L111.6,141.9z"/>
						</g>
					</g>
					<g class="st7">
						<g class="st7">
							<path class="st41" d="M111.6,141.9l-0.1-0.1l-0.1,0.1l0.1,0.1C111.4,141.9,111.4,141.9,111.6,141.9L111.6,141.9z"/>
						</g>
					</g>
					<g class="st7">
						<g class="st7">
							<path class="st34" d="M111.7,141.7l-0.1-0.1c0,0-0.1,0-0.2,0l0.1,0.1C111.6,141.7,111.7,141.7,111.7,141.7L111.7,141.7z"/>
						</g>
					</g>
					<g class="st7">
						<g class="st7">
							<path class="st34" d="M111.6,141.7l-0.1-0.1c-0.1,0.1-0.3,0.3-0.3,0.5c0,0.1,0,0.2,0.1,0.3l0.1,0.1c-0.1,0-0.1-0.1-0.1-0.3
								C111.3,141.9,111.3,141.8,111.6,141.7L111.6,141.7z"/>
						</g>
					</g>
					<g>
						<path class="st35" d="M111.8,141.9c0,0.2-0.1,0.5-0.3,0.5c-0.1,0.1-0.3,0-0.3-0.2s0.1-0.5,0.3-0.5
							C111.7,141.6,111.8,141.7,111.8,141.9z M111.4,142.1v0.2V142.1L111.4,142.1l0.1-0.2c0-0.1,0-0.1-0.1,0
							C111.4,141.9,111.4,141.9,111.4,142.1L111.4,142.1L111.4,142.1z"/>
					</g>
				</g>
			</g>
		</g>
		<g>
			<g class="st7">
				<g>
					<polygon class="st30" points="105.2,164.8 99.4,161.4 100.1,159.3 102.1,160.7 105.2,162.4 					"/>
				</g>
				<g>
					<polygon class="st42" points="105.2,162.4 102.1,160.7 116.9,152.1 120.1,153.9 					"/>
				</g>
				<g>
					<polygon class="st32" points="120.1,153.9 120.1,156.2 105.2,164.8 105.2,162.4 					"/>
				</g>
			</g>
		</g>
		<g>
			<g class="st7">
				<g>
					<polygon class="st30" points="102.6,161.2 99.4,161.4 99.4,157.2 102.6,158.9 					"/>
				</g>
				<g>
					<polygon class="st42" points="102.6,158.9 99.4,157.2 114.3,148.6 117.4,150.4 					"/>
				</g>
				<g>
					<polygon class="st32" points="117.4,150.4 117.4,152.6 102.6,161.2 102.6,158.9 					"/>
				</g>
			</g>
		</g>
		<g>
			<polygon class="st43" points="156.8,84.4 156.8,87.9 90.3,126.3 90.3,122.8 			"/>
			<polygon class="st44" points="45.8,97.2 90.3,122.8 90.3,126.3 45.8,100.7 			"/>
			<polygon class="st45" points="156.8,84.4 90.3,122.8 45.8,97.2 112.9,58.4 			"/>
			<polygon class="st46" points="147.9,84.3 112.9,104.6 112.9,63.6 			"/>
			<polygon class="st46" points="54.8,97.2 112.9,63.6 112.9,104.6 90.3,117.7 			"/>
			<polygon class="st47" points="142.9,87.3 112.8,68.7 59.3,99.8 90.3,117.7 			"/>
		</g>
	</g>
	<g>
		<polygon class="st3" points="50.5,53.4 50.5,66.5 50.5,66.7 50.5,79.1 50.5,79.9 50.5,95.1 92.3,119.2 92.3,104 92.3,103.2 
			92.3,90.9 92.3,90.6 92.3,77.5 		"/>
		<polygon class="st4" points="92.3,77.5 92.3,90.6 92.3,90.9 92.3,103.2 92.3,104 92.3,119.2 150.1,85.7 150.1,70.5 150.1,69.6 
			150.1,57.3 150.1,57.1 150.1,44 		"/>
		
			<linearGradient id="SVGID_21_" gradientUnits="userSpaceOnUse" x1="108.3246" y1="-70.7943" x2="19.8246" y2="-36.2943" gradientTransform="matrix(1 0 0 -1 0 24.2)">
			<stop  offset="1.923080e-03" style="stop-color:#23DBEA"/>
			<stop  offset="1" style="stop-color:#0C5FCD"/>
		</linearGradient>
		<polygon class="st48" points="50.5,47.7 50.5,60.8 50.5,61.1 50.5,73.4 50.5,74.2 50.5,89.4 92.3,113.6 92.3,98.4 92.3,97.5 
			92.3,85.2 92.3,85 92.3,71.8 		"/>
		
			<linearGradient id="SVGID_22_" gradientUnits="userSpaceOnUse" x1="92.25" y1="-51.7" x2="150.05" y2="-51.7" gradientTransform="matrix(1 0 0 -1 0 24.2)">
			<stop  offset="1.923080e-03" style="stop-color:#23DBEA"/>
			<stop  offset="1" style="stop-color:#0C5FCD"/>
		</linearGradient>
		<polygon class="st49" points="92.3,71.8 92.3,85 92.3,85.2 92.3,97.5 92.3,98.4 92.3,113.6 150.1,80 150.1,64.8 150.1,64 
			150.1,51.7 150.1,51.4 150.1,38.3 		"/>
		<g>
			<g class="st7">
				<g>
					<path class="st8" d="M124.2,90.4l21.9-12.7L146,57.6l-21.9,12.7L124.2,90.4L124.2,90.4z"/>
				</g>
				<g>
					
						<linearGradient id="SVGID_23_" gradientUnits="userSpaceOnUse" x1="148.262" y1="-42.3714" x2="131.9188" y2="-35.3804" gradientTransform="matrix(1 0 0 -1 0 24.2)">
						<stop  offset="0" style="stop-color:#9CD5E0"/>
						<stop  offset="1" style="stop-color:#2EA9E1"/>
					</linearGradient>
					<polygon class="st50" points="144.6,64.8 144.6,59.9 139.3,62.9 139.3,63.2 139.3,67.9 144.1,65.1 					"/>
					
						<linearGradient id="SVGID_24_" gradientUnits="userSpaceOnUse" x1="145.7741" y1="-48.1873" x2="129.431" y2="-41.1964" gradientTransform="matrix(1 0 0 -1 0 24.2)">
						<stop  offset="0" style="stop-color:#9CD5E0"/>
						<stop  offset="1" style="stop-color:#2EA9E1"/>
					</linearGradient>
					<polygon class="st51" points="138.6,68.3 138.6,63.4 131.6,67.4 131.6,67.6 131.6,72.3 138.1,68.6 					"/>
					
						<linearGradient id="SVGID_25_" gradientUnits="userSpaceOnUse" x1="143.2679" y1="-54.0455" x2="126.9251" y2="-47.0546" gradientTransform="matrix(1 0 0 -1 0 24.2)">
						<stop  offset="0" style="stop-color:#9CD5E0"/>
						<stop  offset="1" style="stop-color:#2EA9E1"/>
					</linearGradient>
					<polygon class="st52" points="130.9,72.8 130.9,67.8 125.4,70.9 125.4,71.2 125.6,75.9 130.4,73 					"/>
					
						<linearGradient id="SVGID_26_" gradientUnits="userSpaceOnUse" x1="143.5582" y1="-53.3681" x2="127.2149" y2="-46.3771" gradientTransform="matrix(1 0 0 -1 0 24.2)">
						<stop  offset="0" style="stop-color:#9CD5E0"/>
						<stop  offset="1" style="stop-color:#2EA9E1"/>
					</linearGradient>
					<polygon class="st53" points="138.6,75.4 138.6,68.6 131.6,72.6 131.6,72.9 131.6,79.4 138.1,75.7 					"/>
					
						<linearGradient id="SVGID_27_" gradientUnits="userSpaceOnUse" x1="143.8297" y1="-52.7327" x2="127.4874" y2="-45.742" gradientTransform="matrix(1 0 0 -1 0 24.2)">
						<stop  offset="0" style="stop-color:#9CD5E0"/>
						<stop  offset="1" style="stop-color:#2EA9E1"/>
					</linearGradient>
					<polygon class="st54" points="144.6,72.2 139.4,75.3 139.4,75.5 139.4,80.2 144.3,77.4 144.6,77.1 					"/>
					
						<linearGradient id="SVGID_28_" gradientUnits="userSpaceOnUse" x1="146.0537" y1="-47.534" x2="129.7104" y2="-40.5429" gradientTransform="matrix(1 0 0 -1 0 24.2)">
						<stop  offset="0" style="stop-color:#9CD5E0"/>
						<stop  offset="1" style="stop-color:#2EA9E1"/>
					</linearGradient>
					<polygon class="st55" points="144.6,71.9 144.6,65.1 139.3,68.2 139.3,68.4 139.4,75 144.3,72.1 					"/>
					
						<linearGradient id="SVGID_29_" gradientUnits="userSpaceOnUse" x1="141.3158" y1="-58.6089" x2="124.9734" y2="-51.6182" gradientTransform="matrix(1 0 0 -1 0 24.2)">
						<stop  offset="0" style="stop-color:#9CD5E0"/>
						<stop  offset="1" style="stop-color:#2EA9E1"/>
					</linearGradient>
					<polygon class="st56" points="131.6,79.7 131.6,80 131.6,84.7 138.1,80.9 138.6,80.7 138.6,75.7 					"/>
					
						<linearGradient id="SVGID_30_" gradientUnits="userSpaceOnUse" x1="138.8206" y1="-64.4431" x2="122.4774" y2="-57.4521" gradientTransform="matrix(1 0 0 -1 0 24.2)">
						<stop  offset="0" style="stop-color:#9CD5E0"/>
						<stop  offset="1" style="stop-color:#2EA9E1"/>
					</linearGradient>
					<polygon class="st57" points="125.6,83.2 125.6,83.5 125.6,88.2 130.4,85.3 130.9,85.1 130.9,80.1 					"/>
					
						<linearGradient id="SVGID_31_" gradientUnits="userSpaceOnUse" x1="141.0442" y1="-59.2442" x2="124.7014" y2="-52.2534" gradientTransform="matrix(1 0 0 -1 0 24.2)">
						<stop  offset="0" style="stop-color:#9CD5E0"/>
						<stop  offset="1" style="stop-color:#2EA9E1"/>
					</linearGradient>
					<polygon class="st58" points="130.9,79.9 130.9,73.1 125.6,76.1 125.6,76.4 125.6,82.9 130.4,80.1 					"/>
				</g>
				<path class="st18" d="M146.1,77.7l-21.9,12.7l-0.1-20.1L146,57.6L146.1,77.7z M131.6,72.9v6.5l6.5-3.8l0.4-0.2v-6.8l-6.9,4V72.9
					L131.6,72.9z M139.3,68.4v6.5l4.9-2.8l0.4-0.2v-6.8l-5.3,3.1V68.4L139.3,68.4z M125.6,82.9l4.9-2.8l0.4-0.2v-6.8l-5.3,3.1V82.9
					L125.6,82.9z M131.6,67.6v4.7l6.5-3.8l0.4-0.2v-5l-6.9,4V67.6L131.6,67.6z M131.6,80v4.7l6.5-3.8l0.4-0.2v-5l-6.9,4V80L131.6,80
					z M139.3,63.2v4.7l4.9-2.8l0.4-0.2v-5l-5.3,3.1V63.2L139.3,63.2z M139.4,75.5v4.7l4.9-2.8l0.4-0.2v-5l-5.3,3.1V75.5L139.4,75.5z
					 M125.6,75.9l4.9-2.8l0.4-0.2v-5l-5.3,3.1V75.9L125.6,75.9z M125.6,88.2l4.9-2.8l0.4-0.2v-5l-5.3,3.1V88.2L125.6,88.2z"/>
			</g>
		</g>
		<g>
			<g class="st7">
				<g>
					<path class="st8" d="M76.4,96.2l0.1-20.1l-22-12.6l-0.1,20.1L76.4,96.2L76.4,96.2z"/>
				</g>
				<g>
					
						<linearGradient id="SVGID_32_" gradientUnits="userSpaceOnUse" x1="-451.3958" y1="-48.1621" x2="-467.739" y2="-41.1711" gradientTransform="matrix(-1 0 0 -1 -399.1359 24.2)">
						<stop  offset="0" style="stop-color:#9CD5E0"/>
						<stop  offset="1" style="stop-color:#2EA9E1"/>
					</linearGradient>
					<polygon class="st59" points="56,70.7 56,65.7 61.3,68.8 61.3,69 61.3,73.7 56.3,70.9 					"/>
					
						<linearGradient id="SVGID_33_" gradientUnits="userSpaceOnUse" x1="-453.9096" y1="-54.0383" x2="-470.2527" y2="-47.0474" gradientTransform="matrix(-1 0 0 -1 -399.1359 24.2)">
						<stop  offset="0" style="stop-color:#9CD5E0"/>
						<stop  offset="1" style="stop-color:#2EA9E1"/>
					</linearGradient>
					<polygon class="st60" points="62,74.2 62,69.2 68.9,73.2 68.9,73.5 68.9,78.2 62.5,74.4 					"/>
					
						<linearGradient id="SVGID_34_" gradientUnits="userSpaceOnUse" x1="-456.4232" y1="-59.9146" x2="-472.7664" y2="-52.9237" gradientTransform="matrix(-1 0 0 -1 -399.1359 24.2)">
						<stop  offset="0" style="stop-color:#9CD5E0"/>
						<stop  offset="1" style="stop-color:#2EA9E1"/>
					</linearGradient>
					<polygon class="st61" points="69.8,78.6 69.8,73.7 75.1,76.7 75.1,77 75.1,81.7 70.2,78.9 					"/>
					
						<linearGradient id="SVGID_35_" gradientUnits="userSpaceOnUse" x1="-456.1515" y1="-59.2793" x2="-472.4944" y2="-52.2884" gradientTransform="matrix(-1 0 0 -1 -399.1359 24.2)">
						<stop  offset="0" style="stop-color:#9CD5E0"/>
						<stop  offset="1" style="stop-color:#2EA9E1"/>
					</linearGradient>
					<polygon class="st62" points="62,81.3 62,74.5 68.9,78.5 68.9,78.7 68.9,85.3 62.5,81.5 					"/>
					
						<linearGradient id="SVGID_36_" gradientUnits="userSpaceOnUse" x1="-455.8616" y1="-58.6018" x2="-472.204" y2="-51.6112" gradientTransform="matrix(-1 0 0 -1 -399.1359 24.2)">
						<stop  offset="0" style="stop-color:#9CD5E0"/>
						<stop  offset="1" style="stop-color:#2EA9E1"/>
					</linearGradient>
					<polygon class="st63" points="56,78 61.3,81.1 61.3,81.4 61.3,86.1 56.3,83.2 55.8,83 					"/>
					
						<linearGradient id="SVGID_37_" gradientUnits="userSpaceOnUse" x1="-453.6377" y1="-53.4031" x2="-469.9809" y2="-46.412" gradientTransform="matrix(-1 0 0 -1 -399.1359 24.2)">
						<stop  offset="0" style="stop-color:#9CD5E0"/>
						<stop  offset="1" style="stop-color:#2EA9E1"/>
					</linearGradient>
					<polygon class="st64" points="56,77.7 56,71 61.3,74 61.3,74.3 61.3,80.8 56.3,78 					"/>
					
						<linearGradient id="SVGID_38_" gradientUnits="userSpaceOnUse" x1="-458.3497" y1="-64.4176" x2="-474.6922" y2="-57.427" gradientTransform="matrix(-1 0 0 -1 -399.1359 24.2)">
						<stop  offset="0" style="stop-color:#9CD5E0"/>
						<stop  offset="1" style="stop-color:#2EA9E1"/>
					</linearGradient>
					<polygon class="st65" points="68.9,85.5 68.9,85.8 68.9,90.5 62.3,86.7 62,86.5 62,81.5 					"/>
					
						<linearGradient id="SVGID_39_" gradientUnits="userSpaceOnUse" x1="-460.8553" y1="-70.276" x2="-477.1985" y2="-63.285" gradientTransform="matrix(-1 0 0 -1 -399.1359 24.2)">
						<stop  offset="0" style="stop-color:#9CD5E0"/>
						<stop  offset="1" style="stop-color:#2EA9E1"/>
					</linearGradient>
					<polygon class="st66" points="75.1,89.1 75.1,89.3 74.9,94 70.1,91.2 69.7,90.9 69.7,86 					"/>
					
						<linearGradient id="SVGID_40_" gradientUnits="userSpaceOnUse" x1="-458.6472" y1="-65.1133" x2="-474.9899" y2="-58.1225" gradientTransform="matrix(-1 0 0 -1 -399.1359 24.2)">
						<stop  offset="0" style="stop-color:#9CD5E0"/>
						<stop  offset="1" style="stop-color:#2EA9E1"/>
					</linearGradient>
					<polygon class="st67" points="69.7,85.7 69.8,78.9 75.1,82 75.1,82.2 75.1,88.8 70.2,85.9 					"/>
				</g>
				<path class="st18" d="M54.5,63.5l21.9,12.7l-0.1,20.1L54.5,83.6L54.5,63.5z M68.9,78.7v-0.3l-6.9-4v6.8l0.4,0.2l6.5,3.8V78.7
					L68.9,78.7z M61.3,74.3V74L56,70.9v6.8l0.4,0.2l4.9,2.8V74.3L61.3,74.3z M75.1,88.8v-6.8l-5.3-3.1v6.8l0.4,0.2L75.1,88.8
					L75.1,88.8z M68.9,73.5v-0.3l-6.9-4v5l0.4,0.2l6.5,3.8V73.5L68.9,73.5z M68.9,85.8v-0.3l-6.9-4v5l0.4,0.2l6.5,3.8V85.8
					L68.9,85.8z M61.3,69v-0.3L56,65.6v5l0.4,0.2l4.9,2.8V69L61.3,69z M61.3,81.4v-0.3L56,78v5l0.4,0.2l4.9,2.8V81.4L61.3,81.4z
					 M75.1,81.7v-5l-5.3-3v5l0.4,0.2L75.1,81.7L75.1,81.7z M74.9,94v-5l-5.3-3.1v5l0.4,0.2L74.9,94L74.9,94z"/>
			</g>
		</g>
		<g>
			<polygon class="st43" points="155.9,37.1 155.9,40.5 89.4,79 89.4,75.5 			"/>
			<polygon class="st44" points="45,49.9 89.4,75.5 89.4,79 45,53.3 			"/>
			<polygon class="st45" points="155.9,37.1 89.4,75.5 45,49.9 112.2,11.1 			"/>
			<polygon class="st46" points="147.1,37 112.2,57.2 112.2,16.2 			"/>
			<polygon class="st46" points="54,49.9 112.2,16.2 112.2,57.2 89.4,70.4 			"/>
			
				<linearGradient id="SVGID_41_" gradientUnits="userSpaceOnUse" x1="58.55" y1="-21.65" x2="142.05" y2="-21.65" gradientTransform="matrix(1 0 0 -1 0 24.2)">
				<stop  offset="0" style="stop-color:#0045DB"/>
				<stop  offset="1" style="stop-color:#FFA3FF"/>
			</linearGradient>
			<polygon class="st68" points="142.1,39.9 112.1,21.4 58.5,52.5 89.4,70.4 			"/>
		</g>
	</g>
	<g>
		<g class="st7">
			<g class="st7">
				<g>
					<defs>
						<path id="SVGID_42_" d="M112.4,79.2l0.3,0.2c0.5,0.3,0.6,0.9,0.6,1.9s-0.4,3-0.6,3.7c-0.4,1.8-1.4,4-4.8,6l-0.2-0.3
							c3.5-2,4.4-4.2,4.8-6c0.2-0.7,0.6-2.6,0.6-3.7C113.2,80.1,112.9,79.4,112.4,79.2z"/>
					</defs>
					<clipPath id="SVGID_43_">
						<use xlink:href="#SVGID_42_"  style="overflow:visible;"/>
					</clipPath>
					<g class="st69">
						
							<linearGradient id="SVGID_44_" gradientUnits="userSpaceOnUse" x1="107.7722" y1="-65.55" x2="110.5312" y2="-65.55" gradientTransform="matrix(1 0 0 -1 0 24.2)">
							<stop  offset="1.141830e-03" style="stop-color:#B7FDFF"/>
							<stop  offset="0.9946" style="stop-color:#06ECC5"/>
						</linearGradient>
						<path class="st70" d="M108.1,90.8l-0.3-0.1c1-0.6,1.9-1.2,2.5-1.9l0.3,0.2C109.8,89.6,109.1,90.2,108.1,90.8"/>
						<path class="st71" d="M110.6,89l-0.3-0.2c0.2-0.2,0.3-0.3,0.5-0.5l0.3,0.2C110.8,88.6,110.7,88.8,110.6,89"/>
						<path class="st72" d="M111.1,88.5l-0.3-0.2c0.1-0.1,0.2-0.2,0.3-0.4l0.3,0.2C111.3,88.2,111.2,88.3,111.1,88.5"/>
						<path class="st73" d="M111.3,88.1l-0.3-0.2c0.1-0.1,0.2-0.2,0.2-0.3l0.3,0.2C111.4,87.9,111.3,88,111.3,88.1"/>
						<path class="st74" d="M111.6,87.8l-0.3-0.2c0.1-0.1,0.1-0.2,0.2-0.3l0.3,0.2C111.7,87.6,111.7,87.7,111.6,87.8"/>
						<path class="st75" d="M111.8,87.5l-0.3-0.2c0.1-0.1,0.1-0.2,0.2-0.3l0.3,0.2C111.8,87.3,111.8,87.4,111.8,87.5"/>
						<path class="st76" d="M111.9,87.2l-0.3-0.1c0.1-0.1,0.1-0.2,0.2-0.3l0.3,0.2C112.1,87,111.9,87.1,111.9,87.2"/>
						<path class="st77" d="M112.1,86.9l-0.3-0.1c0-0.1,0.1-0.2,0.1-0.3l0.3,0.2C112.2,86.8,112.2,86.9,112.1,86.9"/>
						<path class="st78" d="M112.2,86.7l-0.3-0.2c0-0.1,0.1-0.2,0.1-0.3l0.3,0.2C112.3,86.5,112.3,86.6,112.2,86.7"/>
						<path class="st79" d="M112.3,86.4l-0.3-0.2c0-0.1,0.1-0.2,0.1-0.3l0.3,0.2C112.4,86.1,112.3,86.3,112.3,86.4"/>
						<path class="st80" d="M112.4,86l-0.3-0.2c0-0.1,0.1-0.3,0.1-0.4l0.3,0.2C112.6,85.8,112.6,85.9,112.4,86"/>
						<path class="st81" d="M112.7,85.7l-0.3-0.2c0.1-0.2,0.1-0.3,0.2-0.5l0.2,0.1C112.8,85.3,112.7,85.5,112.7,85.7"/>
						<path class="st82" d="M112.8,85.1l-0.3-0.2c0-0.1,0.1-0.2,0.1-0.3c0-0.1,0.1-0.3,0.1-0.5l0.3,0.2c0,0.2-0.1,0.4-0.1,0.5
							C112.8,84.9,112.8,85,112.8,85.1"/>
						<path class="st83" d="M112.9,84.4l-0.3-0.2c0.1-0.6,0.3-1.3,0.4-2.1l0.3,0.2C113.3,83,113.1,83.8,112.9,84.4"/>
						<path class="st84" d="M113.3,82.3l-0.3-0.2c0.1-0.4,0.1-0.8,0.1-1.1c0-0.9-0.2-1.6-0.6-1.9l0.3,0.2c0.5,0.3,0.6,0.9,0.6,1.9
							C113.3,81.5,113.3,81.9,113.3,82.3"/>
					</g>
				</g>
			</g>
			<g>
				<polygon class="st85" points="102.3,94.1 102.1,94 107.8,90.7 108.1,90.8 				"/>
			</g>
			<g>
				<polygon class="st86" points="101.8,97.9 101.6,97.8 102.1,94 102.3,94.1 				"/>
			</g>
			<g class="st7">
				<g>
					<defs>
						<path id="SVGID_45_" d="M115.6,74.7l0.3,0.2c-1-0.6-2.5-0.3-5,1.1l-0.3-0.2C112.9,74.4,114.6,74.1,115.6,74.7z"/>
					</defs>
					<clipPath id="SVGID_46_">
						<use xlink:href="#SVGID_45_"  style="overflow:visible;"/>
					</clipPath>
					<g class="st87">
						
							<linearGradient id="SVGID_47_" gradientUnits="userSpaceOnUse" x1="110.5608" y1="-51.1" x2="112.5462" y2="-51.1" gradientTransform="matrix(1 0 0 -1 0 24.2)">
							<stop  offset="1.141830e-03" style="stop-color:#B7FDFF"/>
							<stop  offset="0.9946" style="stop-color:#06ECC5"/>
						</linearGradient>
						<path class="st88" d="M110.8,75.9l-0.3-0.2c0.6-0.4,1.2-0.7,1.7-0.9l0.3,0.2C112.1,75.3,111.4,75.6,110.8,75.9"/>
						<path class="st71" d="M112.6,75.1l-0.3-0.2c0.3-0.1,0.7-0.3,1-0.3l0.3,0.2C113.3,74.8,112.8,74.9,112.6,75.1"/>
						<path class="st72" d="M113.6,74.7l-0.3-0.2c0.2-0.1,0.4-0.1,0.6-0.1l0.3,0.2C113.9,74.6,113.8,74.7,113.6,74.7"/>
						<path class="st73" d="M114.1,74.6l-0.3-0.2c0.1,0,0.3,0,0.4,0l0.3,0.2C114.3,74.6,114.3,74.6,114.1,74.6"/>
						<path class="st74" d="M114.6,74.6l-0.3-0.2c0.1,0,0.2,0,0.3,0l0.3,0.2C114.8,74.5,114.7,74.5,114.6,74.6"/>
						<path class="st75" d="M114.8,74.6l-0.3-0.2c0.1,0,0.2,0,0.3,0l0.3,0.2C115.1,74.6,114.9,74.6,114.8,74.6"/>
						<path class="st76" d="M115.2,74.6l-0.3-0.2C114.9,74.4,115.1,74.5,115.2,74.6l0.2,0.1C115.3,74.6,115.2,74.6,115.2,74.6"/>
						<path class="st77" d="M115.3,74.6l-0.3-0.2C115.2,74.5,115.3,74.5,115.3,74.6l0.2,0.1C115.4,74.7,115.4,74.7,115.3,74.6"/>
						<path class="st78" d="M115.6,74.7l-0.3-0.2C115.3,74.6,115.4,74.6,115.6,74.7l0.2,0.1C115.7,74.8,115.7,74.7,115.6,74.7"/>
						<path class="st79" d="M115.8,74.8l-0.3-0.2l0,0L115.8,74.8L115.8,74.8"/>
					</g>
				</g>
			</g>
			<g>
				<polygon class="st85" points="101.4,88 101.3,87.8 107.9,83.9 108.2,84.1 				"/>
			</g>
			<g>
				<path class="st30" d="M107.8,85.7c-0.2,0.9-0.4,2.3-2.1,3.3l-6.7,3.9c0,0,0.1-0.5,0.3-1.6c0.2-0.9,0.4-2.3,2.1-3.3l6.7-3.9
					C108.2,84.1,108.2,84.5,107.8,85.7z"/>
			</g>
			<g class="st7">
				<g>
					<defs>
						<path id="SVGID_48_" d="M99.1,92.8l-0.3-0.2c0,0,0.1-0.5,0.3-1.6c0.2-0.9,0.4-2.3,2.1-3.3l0.3,0.2c-1.7,1-2,2.4-2.1,3.3
							C99.2,92.4,99.1,92.8,99.1,92.8z"/>
					</defs>
					<clipPath id="SVGID_49_">
						<use xlink:href="#SVGID_48_"  style="overflow:visible;"/>
					</clipPath>
					<g class="st89">
						<path class="st83" d="M99.1,92.8l-0.3-0.2c0,0,0.1-0.5,0.3-1.6c0-0.1,0.1-0.3,0.1-0.4l0.3,0.2c0,0.2-0.1,0.3-0.1,0.4
							C99.2,92.4,99.1,92.8,99.1,92.8"/>
						<path class="st82" d="M99.4,90.8l-0.3-0.2c0-0.1,0.1-0.2,0.1-0.4l0.3,0.2C99.6,90.6,99.4,90.7,99.4,90.8"/>
						<path class="st81" d="M99.6,90.4l-0.3-0.2c0-0.1,0-0.2,0.1-0.2l0.3,0.2C99.6,90.3,99.6,90.4,99.6,90.4"/>
						<path class="st80" d="M99.7,90.2L99.3,90c0-0.1,0-0.1,0.1-0.2l0.3,0.2C99.7,90.1,99.7,90.1,99.7,90.2"/>
						<path class="st79" d="M99.7,90l-0.3-0.2c0-0.1,0-0.1,0.1-0.2l0.3,0.2C99.8,89.9,99.8,90,99.7,90"/>
						<path class="st78" d="M99.8,89.8l-0.3-0.2c0,0,0-0.1,0.1-0.1L99.8,89.8C99.8,89.7,99.8,89.8,99.8,89.8"/>
						<path class="st77" d="M99.8,89.7l-0.3-0.2c0,0,0-0.1,0.1-0.1L99.8,89.7C99.8,89.6,99.8,89.7,99.8,89.7"/>
						<path class="st76" d="M99.8,89.6l-0.3-0.2c0,0,0-0.1,0.1-0.1L99.8,89.6C99.9,89.5,99.9,89.5,99.8,89.6"/>
						<path class="st75" d="M99.9,89.4l-0.3-0.2l0.1-0.1L99.9,89.4C100.1,89.3,99.9,89.4,99.9,89.4"/>
						<path class="st74" d="M100.1,89.3l-0.3-0.2l0.1-0.1L100.1,89.3C100.1,89.2,100.1,89.3,100.1,89.3"/>
						<path class="st73" d="M100.2,89.2L99.8,89l0.1-0.1L100.2,89.2C100.2,89.1,100.2,89.1,100.2,89.2"/>
						<path class="st72" d="M100.3,89l-0.3-0.2c0-0.1,0.1-0.1,0.1-0.2l0.3,0.2C100.3,88.9,100.3,89,100.3,89"/>
						<path class="st71" d="M100.3,88.9l-0.3-0.2c0.1-0.1,0.1-0.1,0.2-0.2l0.3,0.2C100.6,88.7,100.4,88.8,100.3,88.9"/>
						
							<linearGradient id="SVGID_50_" gradientUnits="userSpaceOnUse" x1="100.3109" y1="-63.9" x2="101.4843" y2="-63.9" gradientTransform="matrix(1 0 0 -1 0 24.2)">
							<stop  offset="1.141830e-03" style="stop-color:#B7FDFF"/>
							<stop  offset="0.9946" style="stop-color:#06ECC5"/>
						</linearGradient>
						<path class="st90" d="M100.6,88.6l-0.3-0.2c0.2-0.2,0.5-0.5,0.9-0.7l0.3,0.2C101.2,88.2,100.8,88.4,100.6,88.6"/>
					</g>
				</g>
			</g>
			<g>
				<polygon class="st86" points="103.8,83.5 103.4,83.3 104.1,79.6 104.3,79.7 				"/>
			</g>
			<g>
				<path class="st30" d="M110.8,75.9c5.7-3.3,6.8-0.3,6,5.2c-0.5,3.7-1.9,7.1-4.2,9.7c-1,1.1-2,2-4.3,3.3l-6.6,3.8l0.5-3.8l5.7-3.3
					c3.5-2,4.4-4.2,4.8-6c0.2-0.7,0.6-2.6,0.6-3.7c0-2-0.8-2.7-3.7-1.1l-5.9,3.5l0.5-3.8L110.8,75.9z"/>
			</g>
			<g>
				<polygon class="st85" points="104.3,79.7 104.1,79.6 110.6,75.8 110.8,75.9 				"/>
			</g>
		</g>
	</g>
</g>
</svg>
